<?xml version="1.0" standalone="no"?>
<!DOCTYPE svg PUBLIC "-//W3C//DTD SVG 1.1//EN" "http://www.w3.org/Graphics/SVG/1.1/DTD/svg11.dtd" >
<svg xmlns="http://www.w3.org/2000/svg" xmlns:xlink="http://www.w3.org/1999/xlink" version="1.1">
<metadata>
Created by FontForge 20200427 at Thu Jul  8 20:12:00 2010
 By www
Copyright (c) 2006 Linotype GmbH, www.linotype.com. All rights reserved. This font software may not be reproduced, modified, disclosed or transferred without the express written approval of Linotype GmbH. Sukothai is a trademark of Linotype GmbH and may be registered in certain jurisdictions. This typeface is original artwork of Linotype Design Studio. The design may be protected in certain jurisdictions.
</metadata>
<defs>
<font id="SukothaiLTW31-Regular" horiz-adv-x="367" >
  <font-face 
    font-family="SukothaiLTW31-Regular"
    font-weight="400"
    font-stretch="normal"
    units-per-em="1000"
    panose-1="2 0 4 0 6 0 0 2 0 4"
    ascent="660"
    descent="-340"
    x-height="312"
    cap-height="452"
    bbox="-327 -217 980 882"
    underline-thickness="33"
    underline-position="-98"
    unicode-range="U+0020-FB02"
  />
<missing-glyph horiz-adv-x="322" 
d="M322 452v-452h-322v452h322zM291 32v388h-259v-388h259zM142 147l-1 11q0 18 2 30.5t6.5 21.5t11.5 17t16 17q20 22 26 33t6 25q0 23 -14 36.5t-34 13.5q-21 0 -34.5 -14t-17.5 -46l-31 6q11 86 84 86q35 0 57 -20.5t22 -59.5q0 -21 -8 -37t-31 -39q-12 -12 -18.5 -20
t-9.5 -15.5t-3.5 -17.5t-0.5 -26zM135 93q0 10 6 16.5t16 6.5t16.5 -6.5t6.5 -16.5t-6.5 -16t-16.5 -6q-9 0 -15.5 6t-6.5 16z" />
    <glyph glyph-name=".notdef" horiz-adv-x="322" 
d="M322 452v-452h-322v452h322zM291 32v388h-259v-388h259zM142 147l-1 11q0 18 2 30.5t6.5 21.5t11.5 17t16 17q20 22 26 33t6 25q0 23 -14 36.5t-34 13.5q-21 0 -34.5 -14t-17.5 -46l-31 6q11 86 84 86q35 0 57 -20.5t22 -59.5q0 -21 -8 -37t-31 -39q-12 -12 -18.5 -20
t-9.5 -15.5t-3.5 -17.5t-0.5 -26zM135 93q0 10 6 16.5t16 6.5t16.5 -6.5t6.5 -16.5t-6.5 -16t-16.5 -6q-9 0 -15.5 6t-6.5 16z" />
    <glyph glyph-name="glyph1" horiz-adv-x="0" 
 />
    <glyph glyph-name="glyph2" horiz-adv-x="278" 
 />
    <glyph glyph-name="space" unicode=" " horiz-adv-x="260" 
 />
    <glyph glyph-name="space" unicode="&#xa0;" horiz-adv-x="260" 
 />
    <glyph glyph-name="exclam" unicode="!" horiz-adv-x="220" 
d="M104 113q-5 47 -9.5 100t-8 99t-6 78t-2.5 38q0 18 10 25.5t22 7.5q13 0 23 -7.5t10 -25.5q0 -6 -3 -38t-7 -78t-8.5 -99t-7.5 -100h-13zM73 30q0 15 11 26t26 11q16 0 27 -11t11 -26q0 -16 -11 -27t-27 -11q-15 0 -26 11t-11 27z" />
    <glyph glyph-name="quotedbl" unicode="&#x22;" horiz-adv-x="220" 
d="M44 461h34v-190h-34v190zM142 461h34v-190h-34v190z" />
    <glyph glyph-name="numbersign" unicode="#" 
d="M137 277h-50q5 11 9 26.5t4 27.5h48q10 50 13.5 69t5.5 27q4 -1 7 -1.5t7 -0.5t14 2q-2 -4 -3.5 -8t-4 -14t-6 -27t-9.5 -47h75q10 50 13.5 69t5.5 27q4 -1 7 -1.5t7 -0.5t14 2q-2 -4 -3.5 -8t-4 -14t-6 -27t-9.5 -47h48q-5 -11 -8.5 -27.5t-3.5 -26.5h-48l-29 -137h50
q-5 -11 -9 -27.5t-4 -26.5h-48q-6 -26 -9.5 -43.5t-6 -28t-3 -16t-0.5 -8.5q-4 1 -7 1.5t-7 0.5t-7 -0.5t-7 -1.5l2 8q4 7 7 25t14 63h-75q-6 -26 -9.5 -43.5t-6 -28t-3 -16t-0.5 -8.5q-4 1 -7 1.5t-7 0.5t-7 -0.5t-7 -1.5l2 8q4 7 7 25t14 63h-48q4 10 8 26.5t4 27.5h48z
M236 277h-76l-29 -137h76z" />
    <glyph glyph-name="dollar" unicode="$" 
d="M175 188q-60 20 -88 45t-28 69q0 45 31 74.5t85 35.5q0 13 -1 26.5t-4 25.5q7 -4 17 -4q8 0 17 4q-3 -12 -4 -25t-1 -25q43 0 65 -10.5t36 -20.5q-6 -11 -10 -23t-8 -30h-7q-4 8 -9.5 18t-14.5 18.5t-21.5 15t-30.5 7.5v-152q28 -11 50.5 -21.5t38 -22.5t23.5 -28t8 -39
q0 -48 -31.5 -85t-88.5 -48q0 -19 1 -37t4 -37q-5 1 -9 2.5t-8 1.5q-5 0 -9 -1.5t-8 -2.5q3 16 4 34.5t1 36.5q-4 -1 -10 -1h-8q-31 0 -57.5 8.5t-51.5 28.5q6 14 8.5 25.5t4.5 30.5h8q23 -43 50.5 -55.5t55.5 -12.5v174zM199 18q32 6 50 30t18 54q0 10 -2 19.5t-9 19
t-20.5 19t-36.5 19.5v-161zM175 388q-29 -4 -46.5 -23t-17.5 -45q0 -55 64 -74v142z" />
    <glyph glyph-name="percent" unicode="%" horiz-adv-x="587" 
d="M28 304q0 47 29 78.5t77 31.5t77 -31.5t29 -78.5q0 -48 -29 -79t-77 -31t-77 31t-29 79zM77 304q0 -38 13 -66t44 -28q29 0 43 28t14 66q0 36 -14 65t-43 29q-15 0 -26 -8t-18 -21t-10 -30t-3 -35zM346 99q0 47 29 78.5t78 31.5q48 0 77 -31.5t29 -78.5q0 -48 -29 -79
t-77 -31q-49 0 -78 31t-29 79zM395 99q0 -38 14 -66t44 -28q29 0 43 28t14 66q0 18 -3.5 35t-10.5 30t-18 21t-25 8q-30 0 -44 -29t-14 -65zM400 444q7 -4 16 -4q8 0 15 4l-246 -485q-4 1 -8 2.5t-7 1.5q-5 0 -8.5 -1.5t-7.5 -2.5z" />
    <glyph glyph-name="ampersand" unicode="&#x26;" horiz-adv-x="477" 
d="M278 370q0 24 -14.5 39.5t-38.5 15.5q-26 0 -41 -18t-15 -44q0 -20 11.5 -46t30.5 -49q32 20 49.5 48t17.5 54zM123 345q0 20 7.5 38t21 31.5t32 21.5t40.5 8q38 0 63 -19.5t25 -54.5q0 -19 -8.5 -36.5t-22 -32.5t-29.5 -27t-30 -20q29 -39 58 -75.5t58 -68.5
q24 33 43 64.5t35 66.5q4 -9 11 -15.5t15 -11.5q-21 -32 -42 -61.5t-48 -60.5l85 -95q-11 1 -21.5 2t-20.5 1q-9 0 -19 -1t-19 -2q-6 9 -16.5 23.5t-25.5 32.5q-29 -30 -61.5 -47.5t-80.5 -17.5q-26 0 -49 7t-40 21t-27 35t-10 49q0 43 34 81.5t86 60.5q-20 27 -32 52.5
t-12 50.5zM101 112q0 -37 26.5 -65t70.5 -28q33 0 57 12t47 36q-33 39 -63.5 78t-60.5 81q-37 -23 -57 -47.5t-20 -66.5z" />
    <glyph glyph-name="quotesingle" unicode="'" horiz-adv-x="183" 
d="M75 461h34v-190h-34v190z" />
    <glyph glyph-name="parenleft" unicode="(" horiz-adv-x="183" 
d="M160 449q-25 -32 -40.5 -63t-24 -63t-11.5 -66t-3 -72t3 -72t11.5 -66t24 -62.5t40.5 -62.5l-13 -12q-54 57 -80.5 128t-26.5 147q0 73 26.5 145.5t80.5 130.5z" />
    <glyph glyph-name="parenright" unicode=")" horiz-adv-x="183" 
d="M24 -78q24 32 39.5 63t24 62.5t12 65.5t3.5 72t-3 72t-12 66t-24.5 63t-39.5 63l13 12q54 -58 80.5 -129t26.5 -147q0 -72 -27.5 -145t-79.5 -130z" />
    <glyph glyph-name="asterisk" unicode="*" horiz-adv-x="293" 
d="M128 451q6 -2 8 -2h21q3 0 9 2l-10 -102l82 61q2 -23 20 -34l-94 -43l93 -43q-6 -6 -12 -14.5t-7 -18.5l-83 58l11 -101q-5 1 -9 2t-10 1t-10.5 -1t-8.5 -2l9 101l-80 -59q-4 21 -19 34l92 43l-95 43q7 5 13 14.5t6 19.5l83 -61z" />
    <glyph glyph-name="plus" unicode="+" horiz-adv-x="371" 
d="M210 134v-134h-49v134h-134v44h134v134h49v-134h134v-44h-134z" />
    <glyph glyph-name="comma" unicode="," horiz-adv-x="183" 
d="M71 49q2 9 8.5 17.5t20.5 8.5q7 0 15.5 -5.5t8.5 -17.5q0 -8 -3 -14.5t-7 -13.5l-82 -140l-12 5z" />
    <glyph glyph-name="hyphen" unicode="-" horiz-adv-x="220" 
d="M28 173h164v-41h-164v41z" />
    <glyph glyph-name="hyphen" unicode="&#x2010;" horiz-adv-x="220" 
d="M28 173h164v-41h-164v41z" />
    <glyph glyph-name="hyphen" unicode="&#xad;" horiz-adv-x="220" 
d="M28 173h164v-41h-164v41z" />
    <glyph glyph-name="period" unicode="." horiz-adv-x="183" 
d="M54 30q0 15 11 26t27 11q15 0 26 -11t11 -26q0 -16 -11 -27t-26 -11q-16 0 -27 11t-11 27z" />
    <glyph glyph-name="slash" unicode="/" horiz-adv-x="183" 
d="M166 464q9 -3 17 -3t17 3l-182 -479q-9 3 -17 3q-9 0 -18 -3z" />
    <glyph glyph-name="zero" unicode="0" 
d="M83 201q0 -41 5 -75.5t16.5 -60t30.5 -40t48 -14.5q28 0 47.5 14.5t31.5 40t17 60t5 75.5q0 40 -5 75t-17 60.5t-31.5 40.5t-47.5 15q-57 0 -78.5 -52t-21.5 -139zM29 201q0 43 8 82t26 68t47.5 46t72.5 17q47 0 77 -17t47.5 -46t24 -68t6.5 -82q0 -42 -9.5 -80.5
t-28.5 -68t-48 -46.5t-69 -17q-48 0 -78 16.5t-47 45.5t-23 67.5t-6 82.5z" />
    <glyph glyph-name="one" unicode="1" 
d="M160 371l-78 -43q-6 12 -20 21v4q37 16 76.5 33.5t74.5 35.5l4 -3q-3 -42 -4 -81.5t-1 -79.5v-103q0 -40 1 -79.5t4 -78.5q-15 3 -31 3q-15 0 -31 -3q3 39 4 78t1 78v218z" />
    <glyph glyph-name="two" unicode="2" 
d="M42 348q21 34 50 50t71 16q25 0 48 -6.5t40 -19.5t27 -33.5t10 -48.5q0 -42 -20.5 -75.5t-62.5 -71.5q-12 -12 -28.5 -27.5t-33.5 -32t-32.5 -32t-25.5 -27.5h63q94 0 148 6q-3 -12 -3 -25q0 -12 3 -24q-71 3 -141 3t-142 -3v10q69 63 111.5 105t65.5 73.5t30.5 57
t7.5 57.5q0 45 -22.5 67t-51.5 22q-21 0 -36 -7.5t-25 -18.5t-15.5 -23.5t-7.5 -22.5l-5 -1z" />
    <glyph glyph-name="three" unicode="3" 
d="M52 374q14 13 37 26.5t59 13.5q26 0 49 -5.5t40.5 -17t27.5 -29t10 -40.5t-8.5 -40.5t-22 -30.5t-29.5 -20.5t-30 -10.5v-4q17 -1 36.5 -6t36 -16t27.5 -29t11 -45q0 -28 -12.5 -52t-34.5 -41.5t-53.5 -27.5t-68.5 -10q-34 0 -58 7.5t-41 16.5q2 5 4.5 17t3.5 22l4 3
q11 -14 34 -29t55 -15q48 0 77 28.5t29 73.5q0 49 -26 69.5t-67 20.5q-8 0 -16 -1.5t-14 -2.5q1 4 1.5 7t0.5 7t-0.5 7t-1.5 7l14 -2q5 -1 16 -1q23 0 37.5 9t22.5 22.5t11 30t3 31.5q0 39 -22 57t-48 18q-27 0 -47.5 -16t-26.5 -36l-5 -2z" />
    <glyph glyph-name="four" unicode="4" 
d="M14 120q29 38 60.5 79.5t61 80.5t54 72.5t40.5 57.5q9 -4 22 -4q12 0 21 4q-3 -41 -3.5 -92.5t-0.5 -103.5v-67q19 0 35.5 1.5t28.5 3.5q-3 -11 -3 -21q0 -12 3 -22q-12 1 -28.5 2.5t-35.5 1.5v-26q0 -24 1 -49t3 -41q-15 3 -29 3q-15 0 -30 -3q0 17 3 42t3 48v26
q-15 0 -44 -1t-60.5 -1.5t-60 -1.5t-41.5 -1v12zM220 351h-2q-14 -17 -35.5 -45t-44 -58t-42.5 -57.5t-30 -43.5h154v204z" />
    <glyph glyph-name="five" unicode="5" 
d="M104 232q12 6 28.5 11.5t45.5 5.5t52.5 -9.5t40 -25.5t25.5 -37.5t9 -44.5q0 -30 -12 -56t-34 -45.5t-52 -30.5t-66 -11q-30 0 -57.5 6t-48.5 21v5q4 8 6.5 19t3.5 19h4q12 -24 40 -36t54 -12q19 0 37.5 6.5t32.5 20.5t22.5 35.5t8.5 51.5q0 25 -8 43.5t-20.5 30t-29 17
t-34.5 5.5q-29 0 -45.5 -9t-22.5 -13l-7 5q4 25 5 51.5t1 53.5q0 25 -1 52.5t-4 48.5l6 4q20 -5 39.5 -5.5t42.5 -0.5h91h22t15 1l3 -3q-3 -9 -4 -18t-1 -19v-6q0 -4 1 -5q-15 2 -39.5 3.5t-50.5 3t-50 2t-39 0.5z" />
    <glyph glyph-name="six" unicode="6" 
d="M275 390l-3 -2q-7 1 -15.5 2.5t-18.5 1.5q-39 0 -66 -21t-44 -51.5t-24.5 -66t-7.5 -64.5h1q12 22 37 43t69 21q17 0 39.5 -5t42.5 -18.5t34 -36.5t14 -59q0 -66 -40 -105.5t-106 -39.5q-29 0 -55 9.5t-46 30.5t-32 55t-12 83q0 51 13 96t38 78.5t61.5 53t83.5 19.5
q10 0 15.5 -0.5t11.5 -1.5zM275 120q0 48 -20.5 78t-63.5 30q-39 0 -65 -30t-26 -78q0 -51 24.5 -80t62.5 -29q42 0 65 29t23 80z" />
    <glyph glyph-name="seven" unicode="7" 
d="M335 393q-60 -96 -121.5 -196t-115.5 -200l-12 2q-4 1 -13 1q-12 0 -24 -3q31 46 64 97.5t64.5 100.5t58.5 91.5t45 70.5q-30 0 -86.5 -1t-141.5 -5q1 7 1.5 14.5t0.5 15.5q0 7 -0.5 14t-1.5 15q26 -3 48 -4t41 -2q10 0 25.5 -0.5t32.5 -0.5h67q20 0 35 0.5t33 0.5v-11z
" />
    <glyph glyph-name="eight" unicode="8" 
d="M36 108q0 38 22.5 68.5t73.5 46.5v2q-13 2 -26 9t-23.5 18.5t-17 27t-6.5 33.5q0 19 8.5 37t25 32.5t39 23t51.5 8.5q33 0 57 -8t39.5 -21.5t23 -30.5t7.5 -34q0 -29 -19.5 -56t-54.5 -37v-2q10 -2 26.5 -7.5t31.5 -17t26 -30.5t11 -47q0 -31 -11.5 -56t-32 -42
t-47.5 -26.5t-57 -9.5q-63 0 -105 31t-42 88zM255 311q0 31 -17 56t-54 25q-19 0 -32 -7t-21.5 -18t-12.5 -26t-4 -30q0 -32 16 -55t54 -23q37 0 54 23t17 55zM273 112q0 45 -24.5 72.5t-65.5 27.5q-42 0 -65.5 -27.5t-23.5 -72.5q0 -46 23.5 -73.5t65.5 -27.5
q41 0 65.5 27.5t24.5 73.5z" />
    <glyph glyph-name="nine" unicode="9" 
d="M70 38q27 -27 65 -27q35 0 60.5 17t42 45.5t24 65t7.5 74.5h-2q-15 -27 -41 -44.5t-66 -17.5q-60 0 -94 33t-34 93q0 29 10.5 54t29.5 43.5t46 29t61 10.5q29 0 56 -10t47.5 -31t32.5 -55t12 -82q0 -52 -13.5 -97t-38.5 -78.5t-61 -52.5t-82 -19q-17 0 -31 3.5t-21 6.5
q-3 8 -6 18.5t-7 18.5zM266 294q0 43 -24.5 70.5t-63.5 27.5t-63.5 -31t-24.5 -84q0 -54 21.5 -78t60.5 -24q22 0 39.5 10t29.5 26.5t18.5 38t6.5 44.5z" />
    <glyph glyph-name="colon" unicode=":" horiz-adv-x="183" 
d="M54 271q0 16 11 27t27 11q15 0 26 -11t11 -27q0 -15 -11 -26t-26 -11q-16 0 -27 11t-11 26zM54 30q0 15 11 26t27 11q15 0 26 -11t11 -26q0 -16 -11 -27t-26 -11q-16 0 -27 11t-11 27z" />
    <glyph glyph-name="semicolon" unicode=";" horiz-adv-x="183" 
d="M71 49q2 9 8.5 17.5t20.5 8.5q7 0 15.5 -5.5t8.5 -17.5q0 -8 -3 -14.5t-7 -13.5l-82 -140l-12 5zM54 271q0 16 11 27t27 11q15 0 26 -11t11 -27q0 -15 -11 -26t-26 -11q-16 0 -27 11t-11 26z" />
    <glyph glyph-name="less" unicode="&#x3c;" horiz-adv-x="371" 
d="M27 131v49l317 125v-50l-257 -99l257 -99v-50z" />
    <glyph glyph-name="equal" unicode="=" horiz-adv-x="371" 
d="M27 196v44h317v-44h-317zM27 71v45h317v-45h-317z" />
    <glyph glyph-name="greater" unicode="&#x3e;" horiz-adv-x="371" 
d="M27 7v50l257 99l-257 99v50l317 -125v-49z" />
    <glyph glyph-name="question" unicode="?" horiz-adv-x="257" 
d="M53 439q13 7 28.5 14.5t39.5 7.5q47 0 72 -27t25 -60q0 -35 -18.5 -61.5t-40 -49t-40 -44.5t-18.5 -47q0 -14 8.5 -26.5t25.5 -12.5q15 0 23 6l4 -2q-3 -3 -5.5 -9t-2.5 -10q-9 -3 -23 -3q-9 0 -21 3.5t-23 12t-19 22.5t-8 35q0 33 18 57.5t39 45.5t39 42.5t18 48.5
q0 25 -18 39.5t-39 14.5q-18 0 -34 -8.5t-26 -21.5zM82 30q0 15 11.5 26t26.5 11q16 0 27 -11t11 -26q0 -16 -11 -27t-27 -11q-15 0 -26.5 11t-11.5 27z" />
    <glyph glyph-name="at" unicode="@" horiz-adv-x="528" 
d="M334 345h34q-13 -62 -20.5 -97.5t-11 -54.5t-4 -26t-0.5 -11q0 -23 22 -23q13 0 28 9.5t28 26.5t21.5 40t8.5 51q0 32 -8 59.5t-26 47.5t-48.5 31t-75.5 11q-40 0 -73.5 -16t-58 -44t-38.5 -66t-14 -82q0 -40 12.5 -69.5t34.5 -49t52 -29.5t66 -10q48 0 86 17t64 37
l-2 -21q-9 -8 -23.5 -18t-35.5 -19t-47.5 -15t-57.5 -6q-32 0 -65.5 12t-61.5 37.5t-45.5 64t-17.5 91.5q0 39 16 76t45.5 66t71.5 47t94 18q54 0 90 -13.5t57.5 -36t30.5 -50.5t9 -57q0 -36 -12 -65t-30.5 -50t-41 -32.5t-43.5 -11.5q-28 0 -35.5 13t-7.5 35h-1
q-12 -18 -31 -33t-42 -15q-71 0 -71 89q0 32 9 59.5t25 47t37.5 30.5t46.5 11q20 0 34.5 -10t17.5 -32h1zM314 280q0 21 -7.5 35.5t-32.5 14.5q-19 0 -33.5 -13t-24 -32.5t-14.5 -42.5t-5 -42q0 -30 8 -45.5t32 -15.5q19 0 33.5 15.5t24 37.5t14.5 46t5 42z" />
    <glyph glyph-name="A" unicode="A" horiz-adv-x="440" 
d="M230 461q24 -57 53 -127.5t57 -136.5t51.5 -120.5t37.5 -79.5q-18 3 -35 3t-35 -3q-5 17 -13 38.5t-17 44.5t-19 47t-19 47q-21 0 -42.5 0.5t-43.5 0.5q-21 0 -41 -0.5t-40 -0.5q-22 -51 -39 -99t-25 -78q-7 1 -12.5 2t-11.5 1q-12 0 -25 -3q54 117 104.5 231.5
t102.5 232.5h12zM209 372l-72 -168q17 0 35 -0.5t36 -0.5h36h19t19 1z" />
    <glyph glyph-name="B" unicode="B" horiz-adv-x="403" 
d="M65 282q0 43 -2 85t-4 85q34 -3 70 -3q17 0 34.5 1.5t35.5 1.5q28 0 53.5 -4.5t44.5 -15t30.5 -29t11.5 -46.5q0 -50 -31 -77t-80 -38v-2q58 -4 92 -28.5t34 -82.5q0 -37 -15.5 -62t-39.5 -40.5t-54 -22.5t-58 -7q-16 0 -32 1.5t-32 1.5q-31 0 -64 -3q2 43 4 85.5t2 85.5
v114zM154 249q23 0 45.5 4.5t40.5 15.5t29 29.5t11 46.5q0 26 -10 42.5t-25.5 25.5t-34.5 12t-37 3t-29.5 -1.5t-20.5 -2.5q-2 -31 -3 -62.5t-1 -62.5v-50h35zM119 158q0 -33 1 -66.5t3 -67.5q12 -2 29 -2.5t35 -0.5q21 0 40.5 7t34 21.5t23.5 35t9 47.5q0 28 -10.5 46
t-29.5 28.5t-46 14.5t-60 4h-29v-67z" />
    <glyph glyph-name="C" unicode="C" horiz-adv-x="440" 
d="M406 26q-14 -10 -50.5 -24t-86.5 -14q-53 0 -97 16t-76 46t-50 74t-18 100t18 100t50.5 74.5t78 46.5t100.5 16q43 0 79.5 -9t63.5 -22q-3 -5 -5 -11.5t-4 -13.5l-3 -14q-1 -5 -1 -12l-4 -1q-7 7 -19 17t-28 19t-36 15.5t-43 6.5q-39 0 -72.5 -12.5t-58 -38.5t-38.5 -66
t-14 -95t14 -95t38.5 -65.5t58 -38t72.5 -12.5q24 0 44 6t36.5 14t30 17.5t23.5 16.5l3 -2z" />
    <glyph glyph-name="D" unicode="D" horiz-adv-x="513" 
d="M119 168q0 -36 0.5 -71t3.5 -69q13 -3 37 -5t49 -2q36 0 72.5 8.5t65.5 32t47 65t18 107.5q0 57 -14 94t-39 58t-59.5 29.5t-75.5 8.5q-30 0 -55.5 -2t-45.5 -4q-3 -32 -3.5 -66.5t-0.5 -70.5v-113zM65 281q0 43 -2 85.5t-4 85.5q49 -3 100 -3q25 0 50 1.5t50 1.5
q115 0 166.5 -58t51.5 -160q0 -67 -23 -112.5t-58 -73t-78 -39.5t-82 -12q-22 0 -44 1.5t-44 1.5q-44 0 -89 -3q2 42 4 85t2 86v113z" />
    <glyph glyph-name="E" unicode="E" horiz-adv-x="330" 
d="M65 282q0 43 -2 85t-4 85q60 -3 119 -3q58 0 117 3q-1 -6 -1.5 -10.5t-0.5 -9.5t0.5 -10t1.5 -10q-21 1 -38.5 2.5t-37 3t-43 2.5t-55.5 1q0 -21 -1 -40t-1 -44v-87q59 0 95.5 1.5t65.5 5.5q-1 -6 -1.5 -11t-0.5 -10t0.5 -10t1.5 -10q-18 2 -40.5 3t-45.5 2t-43 1h-32
v-158v-21t1 -15h46q38 0 73 1.5t59 6.5q-1 -5 -1.5 -10.5t-0.5 -9.5q0 -9 2 -19q-59 3 -118 3q-31 0 -60.5 -1t-60.5 -2q2 43 4 85.5t2 85.5v114z" />
    <glyph glyph-name="F" unicode="F" horiz-adv-x="330" 
d="M65 281q0 43 -2 85.5t-4 85.5q60 -3 119 -3q29 0 59.5 0.5t66.5 2.5q-2 -8 -2 -11v-19q0 -4 2 -10q-18 2 -43 3.5t-51.5 3t-50.5 2t-40 0.5q0 -24 -0.5 -45t-0.5 -41q0 -24 0.5 -43.5t0.5 -40.5q43 0 85.5 1.5t84.5 5.5q-1 -6 -2 -10.5t-1 -9.5q0 -7 1 -10l2 -10
q-33 4 -80.5 5t-89.5 1v-56q0 -43 1 -86t4 -85q-17 3 -32 3q-9 0 -16.5 -1t-16.5 -2q2 42 4 85t2 86v113z" />
    <glyph glyph-name="G" unicode="G" horiz-adv-x="513" 
d="M443 372q-20 24 -58.5 44t-86.5 20q-42 0 -77.5 -12.5t-61.5 -38.5t-40.5 -66t-14.5 -95q0 -99 51.5 -153.5t145.5 -54.5q28 0 58.5 5t47.5 16q0 19 0.5 39t0.5 41q0 23 -1 46t-2 44q6 -2 14.5 -2.5t16.5 -0.5q15 0 29 3q-2 -15 -2.5 -47.5t-0.5 -86.5q0 -13 0.5 -26.5
t0.5 -26.5q-15 -5 -36 -10.5t-44 -10.5t-46.5 -8t-42.5 -3q-118 0 -186 59.5t-68 176.5q0 56 18 100t52 74.5t81.5 46.5t106.5 16q66 0 105.5 -13.5t62.5 -25.5q-6 -9 -10 -23.5t-5 -26.5h-8z" />
    <glyph glyph-name="H" unicode="H" horiz-adv-x="513" 
d="M395 281q0 43 -2 85.5t-4 85.5q9 -2 16.5 -2.5t16.5 -0.5q15 0 32 3q-3 -43 -4 -85.5t-1 -85.5v-113q0 -43 1 -86t4 -85q-17 3 -32 3q-9 0 -16.5 -1t-16.5 -2q2 42 4 85t2 86v59q-18 1 -35.5 1h-34.5h-138h-34t-34 -1v-59q0 -43 1 -86t4 -85q-17 3 -32 3q-9 0 -16.5 -1
t-16.5 -2q2 42 4 85t2 86v113q0 43 -2 85.5t-4 85.5q9 -2 16.5 -2.5t16.5 -0.5q15 0 32 3q-3 -43 -4 -85.5t-1 -85.5v-23q34 -1 68.5 -1.5t69.5 -0.5q34 0 68 0.5t70 1.5v23z" />
    <glyph glyph-name="I" unicode="I" horiz-adv-x="183" 
d="M65 281q0 43 -2 85.5t-4 85.5q9 -2 16.5 -2.5t16.5 -0.5q15 0 32 3q-3 -43 -4 -85.5t-1 -85.5v-113q0 -43 1 -86t4 -85q-17 3 -32 3q-9 0 -16.5 -1t-16.5 -2q2 42 4 85t2 86v113z" />
    <glyph glyph-name="J" unicode="J" horiz-adv-x="183" 
d="M-20 -77q28 0 45 12.5t26 36t11.5 56t2.5 72.5v181q0 43 -2 85.5t-4 85.5q9 -2 16.5 -2.5t16.5 -0.5q15 0 32 3q-3 -43 -4 -85.5t-1 -85.5v-62q0 -46 1 -91.5t1 -81.5q0 -30 -10 -55.5t-28 -44.5t-43 -30t-55 -11z" />
    <glyph glyph-name="K" unicode="K" horiz-adv-x="403" 
d="M59 -3q2 42 4 85t2 86v113q0 43 -2 85.5t-4 85.5q9 -2 16.5 -2.5t16.5 -0.5q15 0 32 3q-3 -43 -4 -85.5t-1 -85.5v-36q0 -5 4 -5q3 0 9 6q23 20 48 44.5t50.5 51.5t51 55t49.5 55q12 -3 27 -3q16 0 31 3q-23 -20 -52 -47t-58.5 -55.5t-56 -56t-44.5 -47.5
q54 -61 108 -123.5t111 -125.5q-21 3 -40 3q-18 0 -36 -3l-35 41l-37 45q-18 23 -36.5 45t-34.5 41t-28.5 33t-19.5 22q-5 5 -8 5t-3 -4v-57q0 -43 1 -86t4 -85q-17 3 -32 3q-9 0 -16.5 -1t-16.5 -2z" />
    <glyph glyph-name="L" unicode="L" horiz-adv-x="330" 
d="M65 281q0 43 -2 85.5t-4 85.5q9 -2 16.5 -2.5t16.5 -0.5q15 0 32 3q-3 -43 -4 -85.5t-1 -85.5v-78v-96t2 -79q46 0 88.5 1t93.5 7q-3 -9 -3 -20q0 -10 3 -19q-60 3 -122 3q-61 0 -122 -3q2 42 4 85t2 86v113z" />
    <glyph glyph-name="M" unicode="M" horiz-adv-x="587" 
d="M107 461q45 -94 91.5 -182.5t97.5 -181.5q9 19 32 61t51.5 94t58.5 107.5t54 101.5h9q14 -128 26 -239.5t28 -224.5q-9 1 -16 2t-15 1q-9 0 -16 -1t-15 -2q-7 88 -14.5 171.5t-17.5 168.5h-2q-45 -84 -89.5 -165.5t-83.5 -171.5h-6q-39 84 -82.5 167t-86.5 170h-1
q-5 -41 -10.5 -89t-10.5 -94.5t-8 -88t-3 -68.5q-12 3 -23 3t-23 -3q8 55 17 114.5t17.5 119.5t16 118.5t13.5 111.5h11z" />
    <glyph glyph-name="N" unicode="N" horiz-adv-x="513" 
d="M436 -12q-76 90 -162 182t-171 183q-1 -18 -1.5 -50t-0.5 -84v-35q0 -24 0.5 -53.5t1.5 -56.5t2 -48.5t2 -28.5q-11 3 -23 3t-25 -3q1 11 3.5 45t5 77t4 87.5t1.5 77.5q0 63 -0.5 108.5t-1.5 68.5h11q40 -44 85.5 -94t90.5 -98.5t86 -91.5t72 -73v89q0 69 -1 134.5
t-4 124.5q10 -3 22 -3q10 0 21 3q-2 -15 -3.5 -44t-3 -62t-2.5 -64.5t-1 -50.5v-136q0 -24 0.5 -45.5t0.5 -38.5v-23h-9z" />
    <glyph glyph-name="O" unicode="O" horiz-adv-x="550" 
d="M457 224q0 55 -14 95t-38.5 66t-58 38.5t-71.5 12.5q-39 0 -72.5 -12.5t-58 -38.5t-38.5 -66t-14 -95t14 -95t38.5 -65.5t58 -38t72.5 -12.5q38 0 71.5 12.5t58 38t38.5 65.5t14 95zM28 224q0 56 18 100t50.5 74.5t78 46.5t100.5 16q54 0 99.5 -16t78 -46.5t51 -74.5
t18.5 -100t-18.5 -100t-51 -74t-78 -46t-99.5 -16q-55 0 -100.5 16t-78 46t-50.5 74t-18 100z" />
    <glyph glyph-name="P" unicode="P" 
d="M65 281q0 43 -2 85.5t-4 85.5q33 -3 64 -3h19l23 1q12 1 22.5 1.5t17.5 0.5q15 0 39.5 -2t48 -12.5t40.5 -33t17 -63.5q0 -44 -19 -71.5t-46.5 -42.5t-58 -20t-54.5 -5q-15 0 -27.5 0.5t-25.5 1.5v-36q0 -43 1 -86t4 -85q-17 3 -32 3q-9 0 -16.5 -1t-16.5 -2q2 42 4 85
t2 86v113zM119 232q10 -3 22.5 -4.5t24.5 -1.5q19 0 41 4.5t40 17t30 34t12 55.5q0 28 -8 45.5t-22.5 27.5t-35 14t-45.5 4h-59v-196z" />
    <glyph glyph-name="Q" unicode="Q" horiz-adv-x="550" 
d="M28 224q0 56 18 100t50.5 74.5t78 46.5t100.5 16q54 0 99.5 -16t78 -46.5t51 -74.5t18.5 -100q0 -93 -48 -151.5t-126 -76.5q35 -29 72 -57t77 -56q-18 -2 -32 -10.5t-20 -17.5q-36 34 -73.5 67t-77.5 67q-4 -1 -11 -1h-8q-55 0 -100.5 16t-78 46t-50.5 74t-18 100z
M457 224q0 55 -14 95t-38.5 66t-58 38.5t-71.5 12.5q-39 0 -72.5 -12.5t-58 -38.5t-38.5 -66t-14 -95t14 -95t38.5 -65.5t58 -38t72.5 -12.5q38 0 71.5 12.5t58 38t38.5 65.5t14 95z" />
    <glyph glyph-name="R" unicode="R" horiz-adv-x="403" 
d="M65 281q0 43 -2 85.5t-4 85.5q37 -3 76 -3q19 0 37.5 1.5t37.5 1.5q27 0 52 -5.5t44 -17.5t30 -32t11 -49q0 -32 -14 -55t-35 -38t-44.5 -23t-41.5 -10q12 -15 36 -46.5t51 -66t53 -66t41 -46.5q-21 3 -40 3q-9 0 -19 -1t-19 -2q-11 15 -31 42.5t-44 59.5t-49.5 63
t-46.5 54h-25v-48q0 -43 1 -86t4 -85q-17 3 -32 3q-9 0 -16.5 -1t-16.5 -2q2 42 4 85t2 86v113zM119 244q9 -3 20 -3.5t24 -0.5q20 0 42 4.5t41 16t31 31t12 49.5q0 26 -9.5 43t-24.5 26.5t-33 13.5t-35 4q-12 0 -21.5 -0.5t-17.5 -1.5l-25 -2q-2 -36 -3 -71.5t-1 -71.5v-37
z" />
    <glyph glyph-name="S" unicode="S" horiz-adv-x="330" 
d="M50 84q10 -24 36 -46t68 -22q45 0 70 28t25 68q0 30 -15.5 47.5t-38.5 29.5t-50 22t-50 24.5t-38.5 38t-15.5 62.5q0 54 38.5 89.5t104.5 35.5q31 0 54 -7.5t44 -23.5q-6 -12 -10 -24.5t-8 -31.5h-8q-4 9 -9.5 20t-14.5 20t-22 15.5t-32 6.5q-38 0 -62 -23t-24 -59
q0 -31 15.5 -49t38.5 -30t50 -21.5t50 -23.5t38.5 -35.5t15.5 -57.5q0 -31 -11 -58t-32 -47.5t-51 -32t-67 -11.5q-42 0 -67 11.5t-42 26.5q7 15 8 27l2 14l2 17h8z" />
    <glyph glyph-name="T" unicode="T" 
d="M156 281q0 34 -0.5 68t-1.5 69q-34 0 -74 -2.5t-67 -4.5q3 9 3 21q0 9 -3 20q85 -3 170 -3t171 3q-4 -11 -4 -21q0 -13 4 -20q-28 2 -68 4.5t-73 2.5q-1 -17 -1.5 -34.5t-0.5 -34.5v-181q0 -43 1 -86t4 -85q-17 3 -33 3t-32 -3q2 42 3.5 85t1.5 86v113z" />
    <glyph glyph-name="U" unicode="U" horiz-adv-x="513" 
d="M409 320q0 55 -1 86t-3 46q12 -3 27 -3q10 0 19 3q-2 -23 -4 -55t-3.5 -68.5t-2.5 -75.5t-1 -75q-2 -88 -51 -139t-138 -51q-99 0 -143.5 46t-44.5 143q0 31 1.5 55t1.5 49q0 28 -0.5 52t-1.5 46l-2 73q8 -2 17 -2.5t17 -0.5q15 0 29 3q-4 -30 -6 -91.5t-2 -134.5
q0 -34 2 -70.5t16 -67t43.5 -50t85.5 -19.5q54 0 83.5 22.5t43 55.5t16 71t2.5 70v82z" />
    <glyph glyph-name="V" unicode="V" horiz-adv-x="440" 
d="M195 -3q-15 40 -36.5 95t-46.5 116t-51 124t-50 120q16 -3 35 -3q17 0 34 3q29 -89 68.5 -189.5t81.5 -200.5q18 40 40 93.5t43 109t39 105.5t28 82q12 -3 25 -3q5 0 11.5 0.5t12.5 2.5q-52 -115 -98.5 -227.5t-91.5 -227.5q-11 3 -22 3q-6 0 -12 -1t-10 -2z" />
    <glyph glyph-name="W" unicode="W" horiz-adv-x="660" 
d="M9 452q8 -2 16 -2.5t17 -0.5q8 0 16 0.5t17 2.5q12 -50 23.5 -94t25 -89.5t29.5 -95.5t36 -112h1l39 118q13 38 26.5 79t25.5 78.5t21.5 68t13.5 47.5q10 -3 22 -3q10 0 22 3q5 -18 14.5 -49t21.5 -69t25.5 -79t25.5 -78.5t22.5 -68t16.5 -47.5h1q5 14 14.5 45t21.5 69.5
t25.5 81.5t25 81.5t20 69t11.5 44.5q12 -3 23 -3t23 3q-7 -16 -19.5 -51t-28 -79.5t-32.5 -94.5t-32.5 -95t-27.5 -81.5t-17 -53.5q-12 3 -23 3q-12 0 -22 -3q-29 94 -59 186t-63 192h-1q-7 -19 -19 -53.5t-27 -77.5t-30.5 -90t-30.5 -91l-22 -66q-12 3 -23 3t-23 -3z" />
    <glyph glyph-name="X" unicode="X" horiz-adv-x="403" 
d="M211 271q30 44 56 86.5t54 94.5q12 -3 24 -3q13 0 25 3q-38 -52 -74 -102t-70 -104q37 -64 75.5 -125t77.5 -124q-20 3 -37 3q-19 0 -37 -3q-27 51 -53 100t-59 100q-67 -101 -120 -200q-12 3 -24 3q-13 0 -25 -3q40 57 77.5 113t75.5 114q-35 57 -69.5 113.5
t-70.5 114.5q18 -3 36 -3q17 0 35 3q22 -45 47 -87.5t56 -93.5z" />
    <glyph glyph-name="Y" unicode="Y" horiz-adv-x="403" 
d="M175 184q-7 11 -19.5 32.5t-28 48t-32.5 55t-32.5 54.5t-28 46.5t-19.5 31.5q8 -2 17.5 -2.5t18.5 -0.5q18 0 36 3q28 -57 59.5 -112.5t66.5 -115.5q30 48 64 109.5t60 118.5q13 -3 26 -3q12 0 26 3q-32 -49 -57 -88t-44.5 -70.5t-34 -56.5t-24.5 -46v-52
q0 -40 1.5 -79.5t3.5 -62.5q-17 3 -32 3q-16 0 -32 -3q3 26 4 61.5t1 72.5v53z" />
    <glyph glyph-name="Z" unicode="Z" horiz-adv-x="403" 
d="M15 8q26 35 55 76t58 82.5t56 81.5t50 74t40.5 59.5t26.5 38.5q-12 0 -24 0.5t-22 0.5q-24 0 -53.5 -1t-58.5 -2.5t-56 -3t-45 -3.5q1 5 2.5 10t1.5 11q0 4 -1.5 9t-2.5 11q31 -3 102 -3h173q18 0 36 1t35 2v-12q-13 -14 -37 -45.5t-52.5 -72t-60 -85t-59 -85.5
t-49 -73.5t-30.5 -48.5q8 -1 15 -1.5t13 -0.5h26q25 0 58.5 0.5t66.5 2t62 4t47 5.5q-3 -12 -3 -22q0 -11 3 -21q-48 0 -83 1.5t-72 1.5q-26 0 -58.5 -0.5t-64 -1t-57.5 -1t-38 -0.5v11z" />
    <glyph glyph-name="bracketleft" unicode="[" horiz-adv-x="220" 
d="M91 269q0 46 -1 91t-3 91q10 -2 15 -2h37h29.5t26.5 2q-1 -3 -1.5 -5t-0.5 -4q0 -4 2 -10q-15 0 -30 0.5t-30 0.5q-6 -83 -6 -164v-167q0 -85 6 -164q15 0 30 0.5t30 0.5q-1 -3 -1.5 -5t-0.5 -5t0.5 -5t1.5 -4q-14 0 -35.5 1t-38.5 1q-10 0 -18.5 -0.5t-15.5 -1.5
q2 45 3 90.5t1 91.5v167z" />
    <glyph glyph-name="backslash" unicode="\" horiz-adv-x="330" 
d="M57 464q9 -3 17 -3t17 3l182 -479q-9 3 -17 3t-17 -3z" />
    <glyph glyph-name="bracketright" unicode="]" horiz-adv-x="220" 
d="M90 269q0 40 -1.5 81t-3.5 83q-15 0 -30.5 -0.5t-29.5 -0.5q1 1 1 4v10q0 3 -1 5q9 -2 25 -2h30h37q6 0 16 2q-3 -46 -3.5 -91t-0.5 -91v-167q0 -46 0.5 -91.5t3.5 -90.5q-8 1 -16 1.5t-18 0.5q-17 0 -39 -1t-35 -1q1 1 1 4v10q0 3 -1 5q14 0 29.5 -0.5t30.5 -0.5
q2 40 3.5 81t1.5 83v167z" />
    <glyph glyph-name="asciicircum" unicode="^" horiz-adv-x="400" 
d="M183 433h35l154 -299h-34l-138 268l-138 -268h-34z" />
    <glyph glyph-name="underscore" unicode="_" horiz-adv-x="330" 
d="M0 -86v33h330v-33h-330z" />
    <glyph glyph-name="grave" unicode="`" horiz-adv-x="220" 
d="M30 431q-8 5 -15.5 12t-7.5 19q0 10 7.5 15.5t13.5 5.5q15 0 30 -16l97 -98h-28z" />
    <glyph glyph-name="a" unicode="a" horiz-adv-x="330" 
d="M57 280q29 22 54 30.5t52 8.5q47 0 77 -26.5t30 -71.5q0 -37 -1.5 -74.5t-1.5 -79.5q0 -16 3 -32.5t23 -16.5h6q3 0 8 3v-14q-7 -3 -18 -6.5t-24 -3.5q-22 0 -33 12t-13 29q-24 -24 -47.5 -36t-56.5 -12t-60 21.5t-27 59.5q0 40 24 61.5t69 29.5q35 5 55 9t29.5 9
t12 11.5t2.5 16.5q0 32 -17 57.5t-56 25.5q-27 0 -49.5 -11.5t-33.5 -33.5h-7v34zM220 163q-18 -6 -41.5 -9.5t-45 -11t-36.5 -21.5t-15 -40q0 -32 17 -47.5t40 -15.5q26 0 46 13.5t32 32.5z" />
    <glyph glyph-name="b" unicode="b" 
d="M339 164q0 -38 -11.5 -70t-31.5 -55t-47.5 -36t-59.5 -13q-30 0 -56.5 14t-38.5 34q-12 -9 -23.5 -18.5t-21.5 -19.5h-11q1 15 2 37.5t1.5 48t1 52t0.5 49.5v119v23.5t-1 25.5l-1 52q0 26 -1 49t-2 40q15 -3 29 -3q7 0 15 0.5t18 2.5q-3 -13 -4.5 -41.5t-2.5 -64t-1 -73
v-67.5h1q22 34 49 51.5t63 17.5q34 0 59 -13t41.5 -34.5t25 -49.5t8.5 -58zM281 166q0 30 -7.5 53.5t-20 39t-28.5 24t-33 8.5q-21 0 -39.5 -8t-32.5 -25t-22 -45.5t-8 -68.5q0 -133 96 -133q40 0 67.5 42.5t27.5 112.5z" />
    <glyph glyph-name="c" unicode="c" horiz-adv-x="330" 
d="M28 154q0 43 14.5 74t38 51.5t53.5 30t62 9.5q36 0 64.5 -9t41.5 -20q-5 -10 -8.5 -21t-5.5 -23h-6q-11 17 -31.5 34.5t-52.5 17.5q-30 0 -51.5 -11t-35 -30.5t-19.5 -45.5t-6 -56q0 -69 29.5 -103t84.5 -34q27 0 53.5 13.5t45.5 33.5l3 -2q-2 -9 -2.5 -17t-1.5 -16
q-20 -17 -49.5 -28.5t-60.5 -11.5q-29 0 -57.5 9t-51.5 28.5t-37 50.5t-14 76z" />
    <glyph glyph-name="d" unicode="d" 
d="M275 61h-2q-5 -10 -14 -22.5t-22.5 -23t-32 -18t-42.5 -7.5q-26 0 -50 9.5t-42.5 29t-30 50t-11.5 73.5q0 42 12.5 73.5t32.5 52t45.5 31t51.5 10.5q72 0 101 -66h2v65q0 51 -0.5 98.5t-2.5 79.5q7 -1 14.5 -2t15.5 -1q7 0 13.5 1t15.5 2q-3 -21 -4 -60.5t-3 -88.5
l-1 -66v-66v-60q0 -45 1 -82t1 -76q-8 1 -13.5 2t-11.5 1t-12 -1t-13 -2zM86 148q0 -40 8 -65.5t21 -40.5t29 -21t33 -6q26 0 44.5 12.5t30.5 33t17.5 47t5.5 53.5q0 63 -24 96.5t-72 33.5q-24 0 -41.5 -11t-29 -30.5t-17 -45.5t-5.5 -56z" />
    <glyph glyph-name="e" unicode="e" horiz-adv-x="330" 
d="M23 145q0 80 38.5 127t112.5 47q34 0 60 -11t43 -29.5t25.5 -43t8.5 -51.5q0 -6 -0.5 -12.5t-0.5 -13.5q-36 1 -71.5 1.5t-70.5 0.5q-22 0 -43 -0.5t-43 -1.5q-1 -3 -1 -10v-8q0 -53 29 -87.5t85 -34.5q27 0 53.5 13.5t45.5 33.5l4 -2l-4 -33q-20 -17 -50 -28.5
t-61 -11.5q-36 0 -65.5 11.5t-50.5 32.5t-32.5 49.5t-11.5 61.5zM176 298q-25 0 -42 -11.5t-28 -28.5t-16.5 -37t-6.5 -38q20 0 42.5 -1t43.5 -1q22 0 44.5 1t43.5 1q0 17 -3 37t-12 37.5t-25 29t-41 11.5z" />
    <glyph glyph-name="f" unicode="f" horiz-adv-x="183" 
d="M190 442q-8 4 -17 6.5t-19 2.5q-29 0 -41.5 -20t-12.5 -46q0 -12 2 -34.5t6 -42.5q16 0 33 0.5t35 0.5q-1 -4 -1.5 -7t-0.5 -6q0 -6 2 -14q-18 1 -35 1.5t-33 0.5v-143q0 -35 0.5 -71t1.5 -73q-14 3 -28 3t-29 -3q4 73 5 143.5t1 143.5q-12 0 -24 -0.5t-24 -1.5q2 8 2 14
q0 3 -0.5 6t-1.5 7q12 0 24 -0.5t24 -0.5q0 19 4 41.5t11.5 44.5t18 41.5t23.5 32.5q12 12 30 21t37 9q6 0 14 -2q-1 -14 -2 -26.5t-1 -25.5z" />
    <glyph glyph-name="g" unicode="g" horiz-adv-x="330" 
d="M33 211q0 27 10 47.5t27 34t40 20t49 6.5q13 0 24.5 -1t29.5 -2q14 -1 26 -2t20 -1q19 0 33 1t20 3q0 -4 -0.5 -7t-0.5 -7t0.5 -7t0.5 -7q-19 1 -37 3t-36 2l-1 -1q19 -11 32 -34.5t13 -48.5q0 -51 -33.5 -78.5t-89.5 -27.5q-9 0 -17.5 1t-18.5 1q-12 0 -22 -9t-10 -22
q0 -18 8 -25.5t31 -7.5q18 -1 36 -1.5t36 -0.5q60 -2 86.5 -26t26.5 -59q0 -23 -9 -47t-27.5 -43.5t-48 -31.5t-71.5 -12q-64 0 -101 25t-37 70q0 36 21.5 57.5t48.5 29.5v2q-41 12 -41 52q0 22 15 36.5t32 18.5v2q-31 13 -48 37t-17 60zM232 214q0 42 -20 64t-52 22
q-36 0 -56 -24.5t-20 -64.5q0 -42 18 -66t57 -24q37 0 55 28t18 65zM267 -73q0 38 -23.5 55.5t-75.5 17.5q-49 0 -76.5 -17.5t-27.5 -59.5q0 -45 27.5 -64t69.5 -19q20 0 39 5t34 15.5t24 27t9 39.5z" />
    <glyph glyph-name="h" unicode="h" 
d="M55 306v23.5t-1 25.5l-1 52q0 26 -1 49t-2 40q15 -3 30 -3t30 3q-3 -26 -4.5 -64t-1.5 -76v-97h2q18 28 43.5 44t61.5 16q18 0 37 -5.5t34 -18.5t25 -35t10 -56q0 -29 -1.5 -58.5t-1.5 -63.5v-43v-21t1 -21q-14 3 -27 3q-14 0 -27 -3q1 36 2.5 72t1.5 75v40
q0 49 -19.5 74.5t-52.5 25.5q-46 0 -67.5 -28t-21.5 -80v-43q0 -35 1.5 -73.5t4.5 -62.5q-15 3 -30 3t-30 -3q1 16 2 39.5t1.5 49t1 52t0.5 49.5v119z" />
    <glyph glyph-name="i" unicode="i" horiz-adv-x="183" 
d="M67 189q0 29 -1 62t-4 61q15 -3 30 -3t29 3q-3 -28 -4 -61t-1 -62v-69q0 -30 1 -62.5t4 -60.5q-14 3 -29 3t-30 -3q3 28 4 60.5t1 62.5v69zM58 427q0 13 9.5 23.5t24.5 10.5q13 0 23 -10.5t10 -23.5q0 -14 -10 -24t-23 -10q-15 0 -24.5 10t-9.5 24z" />
    <glyph glyph-name="j" unicode="j" horiz-adv-x="183" 
d="M67 162q0 40 -1.5 80.5t-3.5 69.5q15 -3 30 -3t29 3q-3 -28 -4 -61t-1 -62v-69q0 -39 1.5 -76.5t1.5 -75.5q0 -28 -3 -51.5t-18 -45.5q-15 -21 -40 -35t-56 -15l-5 23q3 -1 5 -1.5t6 -0.5q19 0 30.5 11t18 29t8.5 40t2 44v196zM58 427q0 13 9.5 23.5t24.5 10.5
q13 0 23 -10.5t10 -23.5q0 -14 -10 -24t-23 -10q-15 0 -24.5 10t-9.5 24z" />
    <glyph glyph-name="k" unicode="k" horiz-adv-x="330" 
d="M55 306v23.5t-1 25.5l-1 52q0 26 -1 49t-2 40q15 -3 30 -3t30 3q-3 -25 -4.5 -64t-1.5 -77v-169q0 -12 8 -12q5 0 11 4.5t15 10.5q6 4 20 17t31 31t35.5 37.5t34.5 37.5q12 -3 25 -3q7 0 14 0.5t19 2.5q-42 -33 -79.5 -66t-71.5 -66q37 -46 77 -92t82 -91q-23 3 -38 3
q-16 0 -34 -3q-15 18 -33.5 40t-36.5 43.5t-34.5 41l-27.5 32.5q-8 6 -10 6q-7 0 -7 -8v-39q0 -58 6 -116q-15 3 -30 3t-30 -3q1 16 2 39.5t1.5 49t1 52t0.5 49.5v119z" />
    <glyph glyph-name="l" unicode="l" horiz-adv-x="183" 
d="M67 306v23.5t-1 25.5l-1 52q0 26 -1 49t-2 40q15 -3 30 -3t29 3q-3 -25 -4 -64t-1 -77v-218q0 -38 1 -77t4 -63q-14 3 -29 3t-30 -3q1 16 2 39.5t1.5 49t1 52t0.5 49.5v119z" />
    <glyph glyph-name="m" unicode="m" horiz-adv-x="550" 
d="M51 189q0 29 -1 62t-4 61q15 -3 30 -3q4 0 11 0.5t15 2.5q-1 -14 -1.5 -27t-0.5 -26h2q34 60 98 60q34 0 61 -19t35 -47h1q32 66 106 66q42 0 71.5 -24.5t29.5 -80.5q0 -23 -2 -55t-2 -90v-35q0 -8 0.5 -17.5t1.5 -19.5q-14 3 -28 3q-16 0 -29 -3q1 18 3.5 68t2.5 140
q0 32 -15 55.5t-54 23.5q-24 0 -40.5 -9t-25.5 -22q-6 -7 -9 -14t-4.5 -22t-2 -42t-0.5 -73v-28q0 -18 1 -36t3 -41q-15 3 -29 3q-16 0 -29 -3q2 37 3.5 75t1.5 75q0 30 -0.5 48t-1.5 28.5t-3 16.5t-6 14q-8 13 -23.5 21.5t-31.5 8.5q-43 0 -64 -28t-21 -80v-56
q0 -30 1.5 -62.5t4.5 -60.5q-15 3 -30 3t-30 -3q3 28 4 60.5t1 62.5v69z" />
    <glyph glyph-name="n" unicode="n" 
d="M265 184q0 49 -19.5 74.5t-52.5 25.5q-46 0 -67.5 -28t-21.5 -80v-56q0 -30 1.5 -62.5t4.5 -60.5q-15 3 -30 3t-30 -3q3 28 4 60.5t1 62.5v69q0 29 -1 62t-4 61q15 -3 30 -3q4 0 11 0.5t15 2.5q-1 -14 -1.5 -27t-0.5 -26h2q18 28 43.5 44t61.5 16q18 0 37 -5.5t34 -18.5
t25 -35t10 -56q0 -29 -1.5 -58.5t-1.5 -63.5v-43v-21t1 -21q-14 3 -27 3q-14 0 -27 -3q1 36 2.5 72t1.5 75v40z" />
    <glyph glyph-name="o" unicode="o" 
d="M23 154q0 45 14 76.5t37 51t51.5 28.5t57.5 9q28 0 57 -9t52 -28.5t37.5 -51t14.5 -76.5t-14.5 -76.5t-37.5 -51t-52 -28t-57 -8.5q-29 0 -57.5 8.5t-51.5 28t-37 51t-14 76.5zM81 154q0 -28 5 -53.5t17 -45.5t31.5 -32t48.5 -12q28 0 48 12t32 32t17.5 45.5t5.5 53.5
q0 27 -5.5 53t-17.5 46.5t-32 32.5t-48 12q-29 0 -48.5 -12t-31.5 -32.5t-17 -46.5t-5 -53z" />
    <glyph glyph-name="p" unicode="p" 
d="M43 120v23.5t-1 25.5l-1 52q0 26 -1 49.5t-2 41.5q15 -3 29 -3q15 0 30 3q-3 -18 -4 -33.5t-1 -31.5h1q5 10 13.5 22.5t22 23.5t32 18.5t44.5 7.5q25 0 49 -9.5t43 -29.5t30.5 -51t11.5 -73t-12.5 -73.5t-33 -52t-46 -30.5t-50.5 -10q-72 0 -104 65h-1v-91q0 -39 1 -77.5
t4 -63.5q-15 3 -30 3q-14 0 -29 -3q1 16 2 39.5t1.5 49t1 52t0.5 49.5v107zM281 157q0 39 -8.5 65t-21.5 41.5t-29 21.5t-32 6q-27 0 -45.5 -11t-30.5 -30t-17 -44.5t-5 -53.5q0 -137 96 -137q46 0 69.5 41t23.5 101z" />
    <glyph glyph-name="q" unicode="q" 
d="M324 -36q0 -39 1 -77.5t4 -63.5q-15 3 -29 3q-15 0 -30 -3q1 16 2 39.5t1.5 49t1 52t0.5 49.5v50h-1q-19 -38 -47.5 -55.5t-60.5 -17.5q-25 0 -49.5 8.5t-44 27.5t-32 50t-12.5 76q0 43 12.5 74.5t32.5 52t44.5 30.5t48.5 10q45 0 70.5 -21t37.5 -51h1q0 16 -1.5 31.5
t-3.5 33.5q15 -3 30 -3q14 0 29 3q-3 -27 -4 -66t-1 -77v-205zM275 161q0 25 -5.5 48.5t-17 41.5t-29.5 29t-43 11q-17 0 -33.5 -6.5t-30 -22.5t-22 -44t-8.5 -71q0 -57 21.5 -94.5t66.5 -37.5q25 0 44 12.5t31.5 33t19 46.5t6.5 54z" />
    <glyph glyph-name="r" unicode="r" horiz-adv-x="220" 
d="M201 258q-3 4 -12.5 7.5t-19.5 3.5q-32 0 -49.5 -27t-17.5 -65v-122q0 -20 0.5 -33.5t1.5 -24.5q-6 1 -13 2t-13 1q-13 0 -28 -3q2 24 2.5 63t0.5 94v22q0 25 -0.5 59t-2.5 77q15 -3 28 -3q6 0 13 0.5t13 2.5q-1 -12 -2 -21t-1 -17v-26l1 -1q19 36 41.5 54t45.5 18
q10 0 22 -4q-3 -6 -4 -17.5t-1 -22.5v-14z" />
    <glyph glyph-name="s" unicode="s" horiz-adv-x="257" 
d="M47 60q6 -14 26.5 -29.5t47.5 -15.5q24 0 44 14.5t20 44.5q0 20 -11.5 31t-28.5 18t-37.5 12.5t-37.5 14.5t-28.5 25t-11.5 44q0 43 27.5 71.5t81.5 28.5q24 0 40.5 -7.5t33.5 -11.5q-6 -10 -11 -24.5t-5 -22.5h-8q-6 16 -21 28.5t-37 12.5q-20 0 -38 -13t-18 -42
q0 -21 11.5 -32.5t28.5 -18.5t37.5 -12t37.5 -14t28.5 -24.5t11.5 -43.5q0 -19 -8.5 -37.5t-23.5 -33.5t-37 -24t-49 -9q-31 0 -51.5 6.5t-34.5 15.5q4 8 8.5 23t4.5 25h8z" />
    <glyph glyph-name="t" unicode="t" horiz-adv-x="183" 
d="M107 401h3q-2 -25 -3 -49.5t-2 -48.5h10h26.5t33.5 2q-1 -3 -1 -7v-14q0 -4 1 -7h-19l-19 1q-5 1 -9 1h-9h-14q0 -2 -1 -15.5t-1.5 -33.5t-1.5 -43t-1 -45v-31q0 -19 1 -37t6 -32t16 -22.5t31 -8.5q5 0 14 1t15 4v-16q-12 -4 -25 -7t-25 -3q-42 0 -62 22t-20 61
q0 36 1.5 83.5t3.5 122.5q-10 0 -21 -0.5t-24 -1.5q2 10 2 15q0 4 -0.5 7t-1.5 7q8 -1 14.5 -1.5t11.5 -0.5h18l-3 74z" />
    <glyph glyph-name="u" unicode="u" 
d="M50 98q0 35 1 60t1 49q0 23 -0.5 50t-0.5 55q13 -3 28 -3q12 0 27 3q-3 -39 -5 -87t-2 -96q0 -35 5.5 -53t14.5 -27q10 -11 23.5 -18t33.5 -7q28 0 46 12.5t27 30.5q5 10 7.5 18t4 21.5t2 36t0.5 61.5v55v27.5t-1 25.5q13 -3 28 -3q7 0 13.5 0.5t13.5 2.5q-3 -52 -4 -100
t-1 -100q0 -60 3 -115q-14 3 -26 3q-13 0 -26 -3q1 14 1.5 28t0.5 28h-2q-17 -30 -44.5 -46.5t-58.5 -16.5q-52 0 -81 28t-29 80z" />
    <glyph glyph-name="v" unicode="v" horiz-adv-x="330" 
d="M142 -3q-30 79 -61 157.5t-67 157.5q16 -3 33 -3q14 0 29 3q20 -66 44.5 -128.5t53.5 -128.5q26 55 51.5 123t49.5 134q10 -3 21 -3t20 3q-36 -79 -70.5 -157.5t-62.5 -157.5q-9 3 -20 3t-21 -3z" />
    <glyph glyph-name="w" unicode="w" horiz-adv-x="513" 
d="M127 -3q-8 26 -21 63.5t-28.5 80t-32.5 87t-33 84.5q15 -3 31 -3q15 0 30 3q17 -63 37.5 -125t47.5 -128q7 19 18 49.5t23 65.5t24 71t22 67q9 -3 20 -3q9 0 18 3q16 -63 38 -125t46 -128q8 21 19.5 51.5t24.5 65t26 70t24 66.5q10 -3 21 -3q4 0 9.5 0.5t10.5 2.5
q-75 -158 -132 -315q-4 1 -8.5 2t-8.5 1q-6 0 -9 -1l-8 -2q-18 60 -38.5 119.5t-46.5 125.5q-8 -20 -19 -49.5t-23 -63t-24 -68t-21 -64.5q-5 1 -9.5 2t-8.5 1q-5 0 -10 -1t-9 -2z" />
    <glyph glyph-name="x" unicode="x" horiz-adv-x="330" 
d="M171 189q24 31 46.5 61.5t44.5 61.5q12 -3 23 -3t23 3q-33 -36 -63 -71.5t-59 -70.5q30 -45 62 -87.5t65 -85.5q-17 3 -33 3q-18 0 -34 -3q-22 34 -45 67t-47 67q-24 -34 -47.5 -67t-45.5 -67q-12 3 -22 3q-11 0 -23 -3q32 38 62.5 76.5t60.5 77.5q-30 40 -60.5 79.5
t-61.5 81.5q18 -3 35 -3t35 3q37 -62 84 -123z" />
    <glyph glyph-name="y" unicode="y" horiz-adv-x="330" 
d="M147 -4q-8 19 -20 47t-25.5 60t-27 64.5t-25.5 61.5t-21 51t-13 32q7 -2 14.5 -2.5t15.5 -0.5q15 0 30 3q20 -63 45.5 -125t53.5 -128q26 57 52 123.5t46 129.5q10 -3 22 -3q10 0 21 3q-6 -11 -22.5 -46t-38 -81.5t-45.5 -100.5t-45.5 -104.5t-38 -92.5t-22.5 -64
q-11 3 -22 3q-13 0 -23 -3q26 45 48 87.5t41 85.5z" />
    <glyph glyph-name="z" unicode="z" horiz-adv-x="330" 
d="M22 6q28 34 58 73t58.5 76.5t53.5 71t43 57.5q-5 0 -26.5 -1t-49.5 -2t-56 -3t-47 -3q1 4 1.5 8t0.5 10q0 4 -0.5 8.5t-1.5 10.5q21 -2 62.5 -2.5t102.5 -0.5h25q18 0 31.5 0.5t30.5 2.5v-10q-27 -34 -58.5 -75.5t-61 -80.5t-54 -72t-36.5 -50h49q18 0 34.5 0.5t35 1.5
t40 3t47.5 5q-1 -5 -1.5 -10t-0.5 -9q0 -8 2 -18q-42 1 -82.5 2t-82.5 1h-30t-29 -1l-58 -2v9z" />
    <glyph glyph-name="braceleft" unicode="{" horiz-adv-x="220" 
d="M38 199q23 0 35.5 17t12.5 45v113q0 44 14.5 60.5t43.5 16.5h38v-25h-21q-18 0 -26 -9.5t-8 -42.5v-109q0 -33 -15.5 -51t-42.5 -28v-1q27 -10 42.5 -28.5t15.5 -50.5v-109q0 -33 8 -42.5t26 -9.5h21v-25h-38q-29 0 -43.5 16t-14.5 61v113q0 28 -12.5 45t-35.5 17v27z
" />
    <glyph glyph-name="bar" unicode="|" horiz-adv-x="220" 
d="M93 495h34v-660h-34v660z" />
    <glyph glyph-name="braceright" unicode="}" horiz-adv-x="220" 
d="M182 172q-24 0 -36 -17t-12 -45v-113q0 -45 -15.5 -61t-42.5 -16h-38v25h21q17 0 25.5 9.5t8.5 42.5v109q0 32 15.5 50.5t42.5 28.5v1q-27 10 -42.5 28t-15.5 51v109q0 33 -8.5 42.5t-25.5 9.5h-21v25h38q27 0 42.5 -16.5t15.5 -60.5v-113q0 -28 12 -45t36 -17v-27z" />
    <glyph glyph-name="asciitilde" unicode="~" horiz-adv-x="400" 
d="M49 152q16 24 33.5 39.5t47.5 15.5q19 0 33.5 -5t28.5 -12q23 -11 40 -19.5t39 -8.5q18 0 35 16.5t25 32.5l19 -28q-14 -20 -32.5 -38t-47.5 -18q-18 0 -36 6.5t-39 18.5q-18 9 -33 14.5t-28 5.5q-29 0 -44 -17t-21 -32z" />
    <glyph glyph-name="exclamdown" unicode="&#xa1;" horiz-adv-x="220" 
d="M116 198q3 -47 7.5 -100t8.5 -99.5t7 -78.5t3 -37q0 -18 -10 -25.5t-22 -7.5q-13 0 -23 7.5t-10 25.5q0 5 2.5 37t6 78t8 99.5t9.5 100.5h13zM72 281q0 16 11 27t27 11q15 0 26 -11t11 -27q0 -15 -11 -26t-26 -11q-16 0 -27 11t-11 26z" />
    <glyph glyph-name="cent" unicode="&#xa2;" 
d="M195 295q-46 -10 -65.5 -48.5t-19.5 -91.5q0 -117 85 -134v274zM52 154q0 39 11.5 67.5t31 48.5t45.5 31.5t55 15.5v5q0 13 -1 30.5t-3 32.5q9 -3 18 -3q8 0 17 3q-3 -15 -3.5 -32t-0.5 -30v-4q36 -1 64 -9.5t41 -19.5q-10 -19 -15 -44h-5q-11 17 -32 33.5t-53 18.5v-280
h2q27 0 53.5 13.5t45.5 33.5l4 -2q-4 -16 -4 -33q-20 -14 -46 -26.5t-55 -12.5v-5q0 -15 1 -33.5t3 -33.5q-9 3 -17 3q-9 0 -18 -3q1 13 2.5 33t1.5 35v4q-27 2 -53 12.5t-46 30.5t-32 49.5t-12 70.5z" />
    <glyph glyph-name="sterling" unicode="&#xa3;" 
d="M39 39q28 0 45.5 7t27.5 20.5t13.5 32t3.5 42.5q0 16 -2 32t-4 31q-16 0 -32 -0.5t-32 -0.5q2 8 2 15q0 6 -2 14q21 -3 61 -3q-3 22 -3 41q0 42 12.5 69.5t32 44t43 23.5t45.5 7q24 0 48.5 -9.5t36.5 -25.5l-25 -36l-2 2q-6 22 -22 33t-36 11q-36 0 -57.5 -24t-21.5 -58
q0 -25 1.5 -44t2.5 -35h28q20 0 36.5 0.5t36.5 2.5q-1 -2 -1 -7v-15q0 -4 1 -7q-13 1 -25.5 1h-24.5h-49q1 -4 1 -13v-14q0 -47 -18.5 -81t-43.5 -53v-2q54 0 112.5 3t106.5 5q-1 -8 -1.5 -14.5t-0.5 -12.5t0.5 -12.5t1.5 -11.5q-39 1 -77.5 2t-77.5 1q-38 0 -75.5 -1
t-74.5 -2q0 4 0.5 9.5t0.5 11.5q0 4 -0.5 9.5t-0.5 11.5h9z" />
    <glyph glyph-name="currency" unicode="&#xa4;" 
d="M313 216q0 27 -10 51.5t-27.5 42.5t-41.5 28.5t-51 10.5q-28 0 -51.5 -10.5t-41 -28.5t-27 -42.5t-9.5 -51.5q0 -28 9.5 -52t27 -42t41 -28t51.5 -10q27 0 51 10t41.5 28t27.5 42t10 52zM322 380l24 -24l-36 -37q17 -21 27 -47t10 -56q0 -57 -36 -102l35 -35l-24 -25
l-36 36q-45 -37 -103 -37q-60 0 -102 37l-37 -36l-24 25l35 36q-35 43 -35 101q0 59 36 103l-36 37l24 24l37 -37q21 17 47 27t55 10q59 0 103 -36z" />
    <glyph glyph-name="yen" unicode="&#xa5;" 
d="M156 188q-29 0 -57 -0.5t-56 -1.5q1 3 1 7v14q0 5 -1 7q27 0 53.5 -0.5t53.5 -0.5l-134 209q18 -3 35 -3q18 0 35 3q5 -12 17.5 -34.5t28 -50t33 -56t32.5 -52.5q31 49 61 98t55 95q12 -3 23 -3t22 3q-31 -38 -67.5 -94.5t-76.5 -114.5q28 0 54.5 0.5t53.5 0.5
q-1 -2 -1 -7v-14q0 -4 1 -7q-29 1 -57.5 1.5t-57.5 0.5v-47h57h29t29 1q-1 -3 -1 -8v-13q0 -4 1 -7q-29 1 -57.5 2t-57.5 1v-35v-15t1 -14l2 -27l2 -29q-15 3 -31 3q-7 0 -15 -1t-15 -2q1 17 2 31.5t1.5 28t1 28t0.5 32.5h-28.5t-28.5 -1l-56 -2q1 3 1 7v13q0 5 -1 8
q14 -1 28 -1h28h57v47z" />
    <glyph glyph-name="brokenbar" unicode="&#xa6;" horiz-adv-x="220" 
d="M93 115h34v-231h-34v231zM93 445h34v-231h-34v231z" />
    <glyph glyph-name="section" unicode="&#xa7;" horiz-adv-x="330" 
d="M245 381q-6 22 -24 38.5t-46 16.5q-27 0 -50.5 -17.5t-23.5 -48.5q0 -24 14 -39t35 -25.5t46 -19.5t46 -21t35 -30t14 -47t-13.5 -51t-24.5 -35q11 -9 17.5 -23t6.5 -35q0 -25 -9 -48t-26.5 -41t-43.5 -28.5t-59 -10.5q-26 0 -51.5 8t-41.5 20q2 11 4.5 27.5t2.5 28.5h8
q3 -8 9.5 -18t18 -19.5t28.5 -16t40 -6.5q17 0 32.5 6.5t27.5 17.5t19 25t7 29q0 23 -15 37.5t-38 25t-49 19.5t-49 22.5t-38 34t-15 52.5q0 31 16 52t29 29q-8 12 -12.5 23t-4.5 39q0 20 7 39.5t21.5 35t36.5 25t52 9.5q33 0 53.5 -13.5t34.5 -27.5q-7 -6 -12.5 -17.5
t-6.5 -21.5h-8zM260 159q0 25 -13 37.5t-45 28.5q-33 14 -52.5 23t-31 15t-16 10t-7.5 7q-9 -8 -17 -21t-8 -29q0 -26 16.5 -41t54.5 -31q47 -20 69 -31t32 -17q7 9 12.5 20t5.5 29z" />
    <glyph glyph-name="dieresis" unicode="&#xa8;" horiz-adv-x="220" 
d="M141 420q0 14 9.5 24t24.5 10q13 0 23.5 -10t10.5 -24t-10.5 -23.5t-23.5 -9.5q-15 0 -24.5 9.5t-9.5 23.5zM11 420q0 14 9.5 24t24.5 10q13 0 23.5 -10t10.5 -24t-10.5 -23.5t-23.5 -9.5q-15 0 -24.5 9.5t-9.5 23.5z" />
    <glyph glyph-name="copyright" unicode="&#xa9;" horiz-adv-x="495" 
d="M102 223q0 39 12.5 68.5t34.5 49t51.5 29.5t63.5 10q32 0 55 -5t38 -13q-8 -15 -9 -33l-3 -2q-5 4 -11.5 10t-16 11.5t-22.5 9.5t-29 4q-23 0 -45 -6.5t-39 -22t-27 -42.5t-10 -69q0 -57 31 -94t88 -37q28 0 51.5 12t37.5 24l4 -1q-3 -6 -3.5 -13.5t-0.5 -12.5
q-14 -8 -39 -17.5t-57 -9.5q-34 0 -62.5 10.5t-49 30t-32 47t-11.5 62.5zM11 224q0 49 18.5 92t50.5 75.5t75 51t92 18.5t92 -18.5t75.5 -51t51 -75.5t18.5 -92t-18.5 -92t-51 -75t-75.5 -50.5t-92 -18.5t-92 18.5t-75 50.5t-50.5 75t-18.5 92zM456 224q0 43 -16.5 82
t-44.5 67.5t-66.5 45.5t-81.5 17q-44 0 -82 -17t-66 -45.5t-44 -67.5t-16 -82q0 -44 16 -82.5t44 -67t66 -45t82 -16.5q43 0 81.5 16.5t66.5 45t44.5 67t16.5 82.5z" />
    <glyph glyph-name="ordfeminine" unicode="&#xaa;" horiz-adv-x="214" 
d="M35 423q13 7 29.5 14t42.5 7q11 0 23 -2.5t22.5 -9.5t17.5 -19.5t7 -31.5v-13.5t-1 -13.5l-1 -27q0 -13 -0.5 -24.5t-0.5 -18.5q0 -13 4 -17.5t10 -4.5q4 0 7 1.5t6 2.5v-12q-5 -3 -13 -5.5t-18 -2.5q-14 0 -21 8.5t-8 20.5q-15 -15 -30.5 -22t-35.5 -7q-22 0 -42 10
t-20 39q0 23 13.5 35t52.5 20q21 3 33 5.5t18 5t7.5 5.5t1.5 8q0 32 -14 41.5t-33 9.5q-21 0 -33 -9t-16 -17h-8v24zM139 352q-11 -6 -25.5 -8t-27.5 -6t-22.5 -12.5t-9.5 -26.5q0 -17 10.5 -25.5t25.5 -8.5q16 0 28.5 8.5t20.5 17.5v61z" />
    <glyph glyph-name="guillemotleft" unicode="&#xab;" horiz-adv-x="330" 
d="M147 277q3 -7 9 -12t15 -6l-73 -105l70 -110q-9 -1 -16 -6t-9 -11l-80 126zM242 277q4 -7 10 -12t15 -6l-74 -105l70 -110q-8 -1 -15 -6t-10 -11l-79 126z" />
    <glyph glyph-name="logicalnot" unicode="&#xac;" horiz-adv-x="371" 
d="M298 71v125h-271v44h317v-169h-46z" />
    <glyph glyph-name="registered" unicode="&#xae;" horiz-adv-x="495" 
d="M160 286q0 22 -1.5 46.5t-3.5 43.5q23 -4 54 -4q13 0 26.5 2t27.5 2q34 0 58.5 -17t24.5 -49q0 -20 -9.5 -35.5t-23.5 -26t-30 -15.5t-28 -5q13 -16 29 -37.5t32.5 -42.5t31 -38.5t24.5 -25.5v-3q-12 3 -25 3t-26 -3q-24 35 -51 70t-55 71h-21v-46q0 -24 0.5 -47.5
t3.5 -47.5q-6 1 -11.5 2t-9.5 1q-12 0 -22 -3q1 23 3 46t2 47v112zM194 241q4 -1 11 -2t17 -1q33 0 58 15t25 52q0 25 -17.5 40t-43.5 15q-13 0 -24.5 -1.5t-21.5 -2.5q-2 -15 -3 -30.5t-1 -31.5v-53zM11 224q0 49 18.5 92t50.5 75.5t75 51t92 18.5t92 -18.5t75.5 -51
t51 -75.5t18.5 -92t-18.5 -92t-51 -75t-75.5 -50.5t-92 -18.5t-92 18.5t-75 50.5t-50.5 75t-18.5 92zM39 224q0 -44 16 -82.5t44 -67t66 -45t82 -16.5q43 0 81.5 16.5t66.5 45t44.5 67t16.5 82.5q0 43 -16.5 82t-44.5 67.5t-66.5 45.5t-81.5 17q-44 0 -82 -17t-66 -45.5
t-44 -67.5t-16 -82z" />
    <glyph glyph-name="macron" unicode="&#xaf;" horiz-adv-x="220" 
d="M20 433h180v-34h-180v34z" />
    <glyph glyph-name="macron" unicode="&#x2c9;" horiz-adv-x="220" 
d="M20 433h180v-34h-180v34z" />
    <glyph glyph-name="degree" unicode="&#xb0;" horiz-adv-x="264" 
d="M36 348q0 40 28 68t68 28t68 -28t28 -68t-28 -68t-68 -28t-68 28t-28 68zM61 348q0 -30 20.5 -50.5t50.5 -20.5t50.5 20.5t20.5 50.5q0 29 -20.5 50t-50.5 21t-50.5 -21t-20.5 -50z" />
    <glyph glyph-name="plusminus" unicode="&#xb1;" horiz-adv-x="371" 
d="M210 168v-105h-49v105h-134v45h134v106h49v-106h134v-45h-134zM27 -8v46h317v-46h-317z" />
    <glyph glyph-name="uni00B2" unicode="&#xb2;" horiz-adv-x="220" 
d="M30 375q25 39 78 39q37 0 61.5 -17.5t24.5 -52.5q0 -16 -4.5 -30t-19 -32t-40.5 -43t-69 -63l2 -3h66q18 0 34.5 1t31.5 2q-1 -5 -1.5 -9t-0.5 -8q0 -5 0.5 -9t1.5 -8q-47 3 -92 3q-46 0 -92 -3v9q32 30 57.5 54t43.5 46t28 43.5t10 47.5q0 29 -14.5 42.5t-33.5 13.5
q-27 0 -39.5 -15.5t-14.5 -26.5l-3 -1z" />
    <glyph glyph-name="uni00B3" unicode="&#xb3;" horiz-adv-x="220" 
d="M24 180h3q7 -8 21.5 -15.5t35.5 -7.5q31 0 49 18t18 45q0 32 -17.5 45t-35.5 13q-9 0 -16 -1.5t-11 -2.5q1 3 1.5 5.5t0.5 5.5q0 5 -2 13q12 -5 21 -5q27 0 37 19.5t10 39.5q0 23 -13.5 34.5t-30.5 11.5q-18 0 -30.5 -9t-16.5 -20h-4l-10 21l10 7q8 8 23 12.5t37 4.5
q32 0 54 -14.5t22 -44.5q0 -29 -19.5 -45t-38.5 -21v-2q11 -1 23.5 -4.5t23.5 -10t18.5 -18t7.5 -29.5q0 -38 -30.5 -61t-79.5 -23q-24 0 -40.5 4t-27.5 10z" />
    <glyph glyph-name="acute" unicode="&#xb4;" horiz-adv-x="220" 
d="M162 467q13 16 29 16q7 0 14.5 -5.5t7.5 -15.5q0 -12 -8 -19t-16 -12l-97 -62h-27z" />
    <glyph glyph-name="mu" unicode="&#xb5;" 
d="M160 -10q-19 0 -34 4t-27 16q0 -51 0.5 -96t6.5 -91q-15 3 -28 3q-15 0 -28 -3q0 29 0.5 54t1 50.5t1 52t0.5 58.5q0 65 -1 117t-1 97v60q13 -3 28 -3q12 0 27 3q-3 -39 -5 -87t-2 -96q0 -35 5.5 -53t14.5 -27q10 -11 23.5 -18t33.5 -7q28 0 46 12.5t27 30.5q5 10 7.5 18
t4 21.5t2 36t0.5 61.5v55v27.5t-1 25.5q13 -3 28 -3q7 0 13.5 0.5t13.5 2.5q-3 -52 -4 -100t-1 -100q0 -60 3 -115q-14 3 -26 3q-13 0 -26 -3q1 14 1.5 28t0.5 28h-2q-17 -30 -44.5 -46.5t-58.5 -16.5z" />
    <glyph glyph-name="paragraph" unicode="&#xb6;" horiz-adv-x="528" 
d="M329 422l-42 -7v-491h-24v268q-85 0 -124.5 37t-39.5 98t35 91.5t96 30.5h173v-16l-50 -8v-501h-24v498z" />
    <glyph glyph-name="periodcentered" unicode="&#xb7;" horiz-adv-x="183" 
d="M52 202q0 16 11.5 28t28.5 12q16 0 27.5 -12t11.5 -28q0 -17 -11.5 -28.5t-27.5 -11.5q-17 0 -28.5 11.5t-11.5 28.5z" />
    <glyph glyph-name="periodcentered" unicode="&#x2219;" horiz-adv-x="183" 
d="M52 202q0 16 11.5 28t28.5 12q16 0 27.5 -12t11.5 -28q0 -17 -11.5 -28.5t-27.5 -11.5q-17 0 -28.5 11.5t-11.5 28.5z" />
    <glyph glyph-name="cedilla" unicode="&#xb8;" horiz-adv-x="220" 
d="M28 -116q16 -7 48 -7q16 0 27.5 6.5t11.5 20.5t-10 20.5t-23 6.5q-22 0 -29 -5l-4 5l27 69h23l-17 -48q4 1 8.5 2t11.5 1q25 0 39.5 -12.5t14.5 -34.5q0 -28 -23.5 -42t-54.5 -14q-21 0 -35 4t-24 7z" />
    <glyph glyph-name="uni00B9" unicode="&#xb9;" horiz-adv-x="220" 
d="M97 377l-3 1l-47 -25q-5 8 -13 13v7q25 7 50.5 18t46.5 23h8q-3 -26 -3.5 -51.5t-0.5 -51.5v-66q0 -26 0.5 -51.5t3.5 -51.5q-12 3 -23 3q-12 0 -22 -3q3 52 3 103v132z" />
    <glyph glyph-name="ordmasculine" unicode="&#xba;" horiz-adv-x="224" 
d="M7 345q0 27 9 45.5t24 30.5t34 17.5t39 5.5q18 0 37 -5.5t34 -17.5t24.5 -30.5t9.5 -45.5t-9.5 -46t-24.5 -31t-34 -17t-37 -5q-20 0 -39 5t-34 17t-24 31t-9 46zM50 345q0 -16 3 -31t10.5 -26.5t19.5 -18.5t30 -7q33 0 47 25.5t14 57.5q0 15 -3.5 30t-10.5 26.5t-19 19
t-28 7.5q-18 0 -30 -7.5t-19.5 -19t-10.5 -26.5t-3 -30z" />
    <glyph glyph-name="guillemotright" unicode="&#xbb;" horiz-adv-x="330" 
d="M162 261q8 1 15 6.5t10 11.5l80 -127l-84 -123q-7 16 -24 18l73 105zM67 261q7 1 14.5 6.5t10.5 11.5l79 -127l-83 -123q-4 7 -10.5 12t-14.5 6l74 105z" />
    <glyph glyph-name="onequarter" unicode="&#xbc;" horiz-adv-x="550" 
d="M298 83q34 46 69 91t71 91q6 -3 17 -3q9 0 17 3q-3 -44 -3 -85v-84q9 0 19.5 0.5t18.5 3.5q-1 -5 -2 -8.5t-1 -7.5t1 -7.5t2 -7.5q-8 1 -17.5 1.5t-20.5 0.5q0 -19 0.5 -37t1.5 -37q-11 3 -22 3t-21 -3q3 37 3 74q-39 0 -77 -1t-56 -1v14zM324 436q7 -3 15 -3
q4 0 7.5 0.5t7.5 2.5l-182 -469q-5 1 -8.5 2t-7.5 1t-7.5 -1t-7.5 -2zM95 377l-3 1l-47 -25q-5 8 -13 13v7q25 7 50.5 18t46.5 23h8q-3 -26 -3.5 -51.5t-0.5 -51.5v-66q0 -26 0.5 -51.5t3.5 -51.5q-12 3 -23 3q-12 0 -22 -3q3 52 3 103v132zM431 223l-1 2
q-24 -32 -48.5 -63.5t-43.5 -62.5l1 -3h92v127z" />
    <glyph glyph-name="onehalf" unicode="&#xbd;" horiz-adv-x="550" 
d="M333 230q27 39 79 39q37 0 61.5 -17.5t24.5 -52.5q0 -16 -4.5 -30t-19 -32t-40.5 -43t-69 -63l1 -3h67q18 0 34.5 1t31.5 2q-1 -5 -2 -9t-1 -8q0 -6 1 -9l2 -8q-47 3 -92 3q-47 0 -92 -3v10q32 29 57.5 53t43.5 46t28 44t10 47q0 29 -14.5 42.5t-33.5 13.5
q-26 0 -40 -15.5t-14 -26.5l-4 -1zM322 436q7 -3 15 -3q4 0 7.5 0.5t7.5 2.5l-182 -469q-5 1 -8.5 2t-7.5 1t-7.5 -1t-7.5 -2zM95 377l-3 1l-47 -25q-5 8 -13 13v7q25 7 50.5 18t46.5 23h8q-3 -26 -3.5 -51.5t-0.5 -51.5v-66q0 -26 0.5 -51.5t3.5 -51.5q-12 3 -23 3
q-12 0 -22 -3q3 52 3 103v132z" />
    <glyph glyph-name="threequarters" unicode="&#xbe;" horiz-adv-x="550" 
d="M311 83q34 46 69 91t71 91q6 -3 17 -3q9 0 17 3q-3 -44 -3 -85v-84q9 0 19.5 0.5t18.5 3.5q-1 -5 -2 -8.5t-1 -7.5t1 -7.5t2 -7.5q-8 1 -17 1.5t-21 0.5q0 -19 0.5 -37t1.5 -37q-11 3 -21 3q-12 0 -22 -3q3 37 3 74q-19 0 -38.5 -0.5t-37.5 -0.5t-33 -0.5t-24 -0.5v14z
M22 180h4q7 -8 21 -15.5t35 -7.5q30 0 49 17.5t19 45.5q0 32 -17 45t-37 13q-8 0 -15 -1.5t-12 -2.5q1 3 1.5 5.5t0.5 5.5q0 5 -2 13q10 -5 22 -5q27 0 37 19.5t10 39.5q0 23 -13.5 34.5t-30.5 11.5q-18 0 -31 -9t-17 -20h-3l-10 21l10 7q8 8 23 12.5t37 4.5
q31 0 53.5 -14.5t22.5 -44.5q0 -29 -19.5 -45t-38.5 -21v-2q10 -1 23 -4.5t23.5 -10t18 -18t7.5 -29.5q0 -38 -30 -61t-79 -23q-24 0 -40.5 4t-27.5 10zM345 436q7 -3 15 -3q4 0 7.5 0.5t8.5 2.5l-183 -469q-5 1 -8 2t-7 1q-5 0 -8.5 -1t-7.5 -2zM444 223l-1 2
q-24 -32 -48.5 -63.5t-43.5 -62.5l1 -3h92v127z" />
    <glyph glyph-name="questiondown" unicode="&#xbf;" horiz-adv-x="257" 
d="M95 174q2 3 4.5 8.5t3.5 10.5q7 3 23 3q8 0 20 -4t23.5 -12.5t19.5 -22.5t8 -34q0 -33 -18 -57.5t-39 -46t-39 -42.5t-18 -48q0 -26 18 -40t39 -14q35 0 60 30l4 -33q-13 -9 -29.5 -15.5t-38.5 -6.5q-48 0 -73 26t-25 61t18.5 61t40.5 48.5t40.5 44.5t18.5 48
q0 12 -9.5 25.5t-25.5 13.5q-8 0 -14 -2.5t-8 -3.5zM99 281q0 16 11 27t27 11q15 0 26 -11t11 -27q0 -15 -11 -26t-26 -11q-16 0 -27 11t-11 26z" />
    <glyph glyph-name="Agrave" unicode="&#xc0;" horiz-adv-x="440" 
d="M230 461q24 -57 53 -127.5t57 -136.5t51.5 -120.5t37.5 -79.5q-18 3 -35 3t-35 -3q-5 17 -13 38.5t-17 44.5t-19 47t-19 47q-21 0 -42.5 0.5t-43.5 0.5q-21 0 -41 -0.5t-40 -0.5q-22 -51 -39 -99t-25 -78q-7 1 -12.5 2t-11.5 1q-12 0 -25 -3q54 117 104.5 231.5
t102.5 232.5h12zM209 372l-72 -168q17 0 35 -0.5t36 -0.5h36h19t19 1zM141 544q-9 5 -16.5 12.5t-7.5 19.5q0 10 7.5 15.5t14.5 5.5t14.5 -4.5t14.5 -11.5l97 -99h-27z" />
    <glyph glyph-name="Aacute" unicode="&#xc1;" horiz-adv-x="440" 
d="M230 461q24 -57 53 -127.5t57 -136.5t51.5 -120.5t37.5 -79.5q-18 3 -35 3t-35 -3q-5 17 -13 38.5t-17 44.5t-19 47t-19 47q-21 0 -42.5 0.5t-43.5 0.5q-21 0 -41 -0.5t-40 -0.5q-22 -51 -39 -99t-25 -78q-7 1 -12.5 2t-11.5 1q-12 0 -25 -3q54 117 104.5 231.5
t102.5 232.5h12zM209 372l-72 -168q17 0 35 -0.5t36 -0.5h36h19t19 1zM272 581q7 7 14.5 11.5t15.5 4.5q6 0 13.5 -5.5t7.5 -15.5q0 -12 -8 -19.5t-15 -12.5l-97 -62h-28z" />
    <glyph glyph-name="Acircumflex" unicode="&#xc2;" horiz-adv-x="440" 
d="M230 461q24 -57 53 -127.5t57 -136.5t51.5 -120.5t37.5 -79.5q-18 3 -35 3t-35 -3q-5 17 -13 38.5t-17 44.5t-19 47t-19 47q-21 0 -42.5 0.5t-43.5 0.5q-21 0 -41 -0.5t-40 -0.5q-22 -51 -39 -99t-25 -78q-7 1 -12.5 2t-11.5 1q-12 0 -25 -3q54 117 104.5 231.5
t102.5 232.5h12zM209 372l-72 -168q17 0 35 -0.5t36 -0.5h36h19t19 1zM220 552l-79 -70h-24l81 111h44l81 -111h-24z" />
    <glyph glyph-name="Atilde" unicode="&#xc3;" horiz-adv-x="440" 
d="M230 461q24 -57 53 -127.5t57 -136.5t51.5 -120.5t37.5 -79.5q-18 3 -35 3t-35 -3q-5 17 -13 38.5t-17 44.5t-19 47t-19 47q-21 0 -42.5 0.5t-43.5 0.5q-21 0 -41 -0.5t-40 -0.5q-22 -51 -39 -99t-25 -78q-7 1 -12.5 2t-11.5 1q-12 0 -25 -3q54 117 104.5 231.5
t102.5 232.5h12zM209 372l-72 -168q17 0 35 -0.5t36 -0.5h36h19t19 1zM112 499q2 12 7 24t13 21.5t20 16t28 6.5q11 0 20.5 -3.5t27.5 -11.5q18 -10 27 -12.5t17 -2.5q15 0 24 9.5t14 23.5h19q-2 -9 -6.5 -21t-12.5 -23t-21 -19t-32 -8q-10 0 -21 3t-27 12
q-18 10 -26.5 12.5t-16.5 2.5q-15 0 -22 -6.5t-13 -23.5h-19z" />
    <glyph glyph-name="Adieresis" unicode="&#xc4;" horiz-adv-x="440" 
d="M230 461q24 -57 53 -127.5t57 -136.5t51.5 -120.5t37.5 -79.5q-18 3 -35 3t-35 -3q-5 17 -13 38.5t-17 44.5t-19 47t-19 47q-21 0 -42.5 0.5t-43.5 0.5q-21 0 -41 -0.5t-40 -0.5q-22 -51 -39 -99t-25 -78q-7 1 -12.5 2t-11.5 1q-12 0 -25 -3q54 117 104.5 231.5
t102.5 232.5h12zM209 372l-72 -168q17 0 35 -0.5t36 -0.5h36h19t19 1zM251 534q0 13 10 23.5t24 10.5t24 -10.5t10 -23.5q0 -15 -10 -24.5t-24 -9.5t-24 9.5t-10 24.5zM121 534q0 13 10 23.5t24 10.5t24 -10.5t10 -23.5q0 -15 -10 -24.5t-24 -9.5t-24 9.5t-10 24.5z" />
    <glyph glyph-name="Aring" unicode="&#xc5;" horiz-adv-x="440" 
d="M230 461q24 -57 53 -127.5t57 -136.5t51.5 -120.5t37.5 -79.5q-18 3 -35 3t-35 -3q-5 17 -13 38.5t-17 44.5t-19 47t-19 47q-21 0 -42.5 0.5t-43.5 0.5q-21 0 -41 -0.5t-40 -0.5q-22 -51 -39 -99t-25 -78q-7 1 -12.5 2t-11.5 1q-12 0 -25 -3q54 117 104.5 231.5
t102.5 232.5h12zM152 539q0 27 20 47.5t48 20.5q27 0 47.5 -20.5t20.5 -47.5q0 -29 -20.5 -48t-47.5 -19q-28 0 -48 19t-20 48zM209 372l-72 -168q17 0 35 -0.5t36 -0.5h36h19t19 1zM180 539q0 -17 11.5 -28t28.5 -11q16 0 28 11t12 28q0 16 -12 28t-28 12q-17 0 -28.5 -12
t-11.5 -28z" />
    <glyph glyph-name="AE" unicode="&#xc6;" horiz-adv-x="550" 
d="M145 166q-27 -43 -49.5 -85t-42.5 -84q-14 3 -27 3q-15 0 -30 -3q30 42 67 97.5t76 116t78 122.5t75 119q55 -3 112 -3q56 0 109 3q-3 -11 -3 -20q0 -11 3 -21q-10 2 -20 3.5t-27 3t-43 2.5t-68 1l-2 -58q-1 -14 -1 -28.5v-28.5v-55q60 0 88 0.5t42 2.5l18 2
q-3 -9 -3 -18q0 -10 3 -19q-9 0 -18.5 1t-25 1.5t-40 1.5t-64.5 1v-67v-33t1 -32l2 -64q72 0 109 2.5t54 4.5q-3 -11 -3 -19q0 -10 3 -19q-57 3 -113 3t-113 -3q4 42 5 82.5t1 82.5zM298 401h-8l-130 -207l138 -4v211z" />
    <glyph glyph-name="Ccedilla" unicode="&#xc7;" horiz-adv-x="440" 
d="M238 -12q-47 5 -85.5 23t-66 48t-43 71.5t-15.5 93.5q0 56 18 100t50.5 74.5t78 46.5t100.5 16q43 0 79.5 -9t63.5 -22q-3 -5 -5 -11.5t-4 -13.5l-3 -14q-1 -5 -1 -12l-4 -1q-7 7 -19 17t-28 19t-36 15.5t-43 6.5q-39 0 -72.5 -12.5t-58 -38.5t-38.5 -66t-14 -95t14 -95
t38.5 -65.5t58 -38t72.5 -12.5q24 0 44 6t36.5 14t30 17.5t23.5 16.5l3 -2l-6 -39q-14 -10 -50.5 -24t-86.5 -14h-8l-14 -40l8 2q3 1 11 1q25 0 40 -12.5t15 -34.5q0 -28 -24 -42t-55 -14q-21 0 -35 4t-24 7l10 22q7 -3 19.5 -5.5t27.5 -2.5q16 0 28 7t12 20q0 14 -10 20.5
t-24 6.5q-21 0 -28 -5l-5 5z" />
    <glyph glyph-name="Egrave" unicode="&#xc8;" horiz-adv-x="330" 
d="M65 282q0 43 -2 85t-4 85q60 -3 119 -3q58 0 117 3q-1 -6 -1.5 -10.5t-0.5 -9.5t0.5 -10t1.5 -10q-21 1 -38.5 2.5t-37 3t-43 2.5t-55.5 1q0 -21 -1 -40t-1 -44v-87q59 0 95.5 1.5t65.5 5.5q-1 -6 -1.5 -11t-0.5 -10t0.5 -10t1.5 -10q-18 2 -40.5 3t-45.5 2t-43 1h-32
v-158v-21t1 -15h46q38 0 73 1.5t59 6.5q-1 -5 -1.5 -10.5t-0.5 -9.5q0 -9 2 -19q-59 3 -118 3q-31 0 -60.5 -1t-60.5 -2q2 43 4 85.5t2 85.5v114zM96 544q-8 5 -15.5 12.5t-7.5 19.5q0 10 7.5 15.5t13.5 5.5q7 0 15 -4.5t15 -11.5l97 -99h-28z" />
    <glyph glyph-name="Eacute" unicode="&#xc9;" horiz-adv-x="330" 
d="M65 282q0 43 -2 85t-4 85q60 -3 119 -3q58 0 117 3q-1 -6 -1.5 -10.5t-0.5 -9.5t0.5 -10t1.5 -10q-21 1 -38.5 2.5t-37 3t-43 2.5t-55.5 1q0 -21 -1 -40t-1 -44v-87q59 0 95.5 1.5t65.5 5.5q-1 -6 -1.5 -11t-0.5 -10t0.5 -10t1.5 -10q-18 2 -40.5 3t-45.5 2t-43 1h-32
v-158v-21t1 -15h46q38 0 73 1.5t59 6.5q-1 -5 -1.5 -10.5t-0.5 -9.5q0 -9 2 -19q-59 3 -118 3q-31 0 -60.5 -1t-60.5 -2q2 43 4 85.5t2 85.5v114zM228 581q7 7 14 11.5t15 4.5q7 0 14.5 -5.5t7.5 -15.5q0 -12 -8 -19.5t-16 -12.5l-97 -62h-27z" />
    <glyph glyph-name="Ecircumflex" unicode="&#xca;" horiz-adv-x="330" 
d="M65 282q0 43 -2 85t-4 85q60 -3 119 -3q58 0 117 3q-1 -6 -1.5 -10.5t-0.5 -9.5t0.5 -10t1.5 -10q-21 1 -38.5 2.5t-37 3t-43 2.5t-55.5 1q0 -21 -1 -40t-1 -44v-87q59 0 95.5 1.5t65.5 5.5q-1 -6 -1.5 -11t-0.5 -10t0.5 -10t1.5 -10q-18 2 -40.5 3t-45.5 2t-43 1h-32
v-158v-21t1 -15h46q38 0 73 1.5t59 6.5q-1 -5 -1.5 -10.5t-0.5 -9.5q0 -9 2 -19q-59 3 -118 3q-31 0 -60.5 -1t-60.5 -2q2 43 4 85.5t2 85.5v114zM176 552l-79 -70h-24l81 111h44l81 -111h-24z" />
    <glyph glyph-name="Edieresis" unicode="&#xcb;" horiz-adv-x="330" 
d="M65 282q0 43 -2 85t-4 85q60 -3 119 -3q58 0 117 3q-1 -6 -1.5 -10.5t-0.5 -9.5t0.5 -10t1.5 -10q-21 1 -38.5 2.5t-37 3t-43 2.5t-55.5 1q0 -21 -1 -40t-1 -44v-87q59 0 95.5 1.5t65.5 5.5q-1 -6 -1.5 -11t-0.5 -10t0.5 -10t1.5 -10q-18 2 -40.5 3t-45.5 2t-43 1h-32
v-158v-21t1 -15h46q38 0 73 1.5t59 6.5q-1 -5 -1.5 -10.5t-0.5 -9.5q0 -9 2 -19q-59 3 -118 3q-31 0 -60.5 -1t-60.5 -2q2 43 4 85.5t2 85.5v114zM77 534q0 13 9.5 23.5t24.5 10.5q13 0 23.5 -10.5t10.5 -23.5q0 -15 -10.5 -24.5t-23.5 -9.5q-15 0 -24.5 9.5t-9.5 24.5z
M207 534q0 13 9.5 23.5t24.5 10.5q13 0 23.5 -10.5t10.5 -23.5q0 -15 -10.5 -24.5t-23.5 -9.5q-15 0 -24.5 9.5t-9.5 24.5z" />
    <glyph glyph-name="Igrave" unicode="&#xcc;" horiz-adv-x="183" 
d="M65 281q0 43 -2 85.5t-4 85.5q9 -2 16.5 -2.5t16.5 -0.5q15 0 32 3q-3 -43 -4 -85.5t-1 -85.5v-113q0 -43 1 -86t4 -85q-17 3 -32 3q-9 0 -16.5 -1t-16.5 -2q2 42 4 85t2 86v113zM13 544q-9 5 -16.5 12.5t-7.5 19.5q0 10 7.5 15.5t14.5 5.5t14.5 -4.5t14.5 -11.5l97 -99
h-27z" />
    <glyph glyph-name="Iacute" unicode="&#xcd;" horiz-adv-x="183" 
d="M65 281q0 43 -2 85.5t-4 85.5q9 -2 16.5 -2.5t16.5 -0.5q15 0 32 3q-3 -43 -4 -85.5t-1 -85.5v-113q0 -43 1 -86t4 -85q-17 3 -32 3q-9 0 -16.5 -1t-16.5 -2q2 42 4 85t2 86v113zM144 581q7 7 14.5 11.5t15.5 4.5q6 0 13.5 -5.5t7.5 -15.5q0 -12 -8 -19.5t-15 -12.5
l-97 -62h-28z" />
    <glyph glyph-name="Icircumflex" unicode="&#xce;" horiz-adv-x="183" 
d="M65 281q0 43 -2 85.5t-4 85.5q9 -2 16.5 -2.5t16.5 -0.5q15 0 32 3q-3 -43 -4 -85.5t-1 -85.5v-113q0 -43 1 -86t4 -85q-17 3 -32 3q-9 0 -16.5 -1t-16.5 -2q2 42 4 85t2 86v113zM92 552l-79 -70h-24l81 111h44l81 -111h-24z" />
    <glyph glyph-name="Idieresis" unicode="&#xcf;" horiz-adv-x="183" 
d="M65 281q0 43 -2 85.5t-4 85.5q9 -2 16.5 -2.5t16.5 -0.5q15 0 32 3q-3 -43 -4 -85.5t-1 -85.5v-113q0 -43 1 -86t4 -85q-17 3 -32 3q-9 0 -16.5 -1t-16.5 -2q2 42 4 85t2 86v113zM123 534q0 13 10 23.5t24 10.5t24 -10.5t10 -23.5q0 -15 -10 -24.5t-24 -9.5t-24 9.5
t-10 24.5zM-7 534q0 13 10 23.5t24 10.5t24 -10.5t10 -23.5q0 -15 -10 -24.5t-24 -9.5t-24 9.5t-10 24.5z" />
    <glyph glyph-name="Eth" unicode="&#xd0;" horiz-adv-x="513" 
d="M65 281q0 43 -2 85.5t-4 85.5q49 -3 100 -3q25 0 50 1.5t50 1.5q115 0 166.5 -58t51.5 -160q0 -67 -23 -112.5t-58 -73t-78 -39.5t-82 -12q-22 0 -44 1.5t-44 1.5q-44 0 -89 -3q2 42 4 85t2 86v73h-32h-16t-17 -1q1 2 1 6v13q0 5 -1 8q9 -1 17 -1.5t16 -0.5h32v16z
M119 168q0 -36 0.5 -71t3.5 -69q13 -3 37 -5t49 -2q36 0 72.5 8.5t65.5 32t47 65t18 107.5q0 57 -14 94t-39 58t-59.5 29.5t-75.5 8.5q-30 0 -55.5 -2t-45.5 -4q-3 -32 -3.5 -66.5t-0.5 -70.5v-16q31 0 63.5 0.5t63.5 1.5q-2 -4 -2 -7v-15q0 -1 2 -7q-31 1 -63.5 2t-63.5 1
v-73z" />
    <glyph glyph-name="Ntilde" unicode="&#xd1;" horiz-adv-x="513" 
d="M436 -12q-76 90 -162 182t-171 183q-1 -18 -1.5 -50t-0.5 -84v-35q0 -24 0.5 -53.5t1.5 -56.5t2 -48.5t2 -28.5q-11 3 -23 3t-25 -3q1 11 3.5 45t5 77t4 87.5t1.5 77.5q0 63 -0.5 108.5t-1.5 68.5h11q40 -44 85.5 -94t90.5 -98.5t86 -91.5t72 -73v89q0 69 -1 134.5
t-4 124.5q10 -3 22 -3q10 0 21 3q-2 -15 -3.5 -44t-3 -62t-2.5 -64.5t-1 -50.5v-136q0 -24 0.5 -45.5t0.5 -38.5v-23h-9zM159 499q2 12 7 24t13 21.5t20 16t29 6.5q11 0 19.5 -3.5t28.5 -11.5q18 -10 26.5 -12.5t16.5 -2.5q16 0 25 9.5t13 23.5h19q-1 -9 -5.5 -21t-12.5 -23
t-21.5 -19t-32.5 -8q-9 0 -20.5 3t-26.5 12q-18 9 -27 12t-16 3q-17 0 -23 -6.5t-12 -23.5h-20z" />
    <glyph glyph-name="Ograve" unicode="&#xd2;" horiz-adv-x="550" 
d="M457 224q0 55 -14 95t-38.5 66t-58 38.5t-71.5 12.5q-39 0 -72.5 -12.5t-58 -38.5t-38.5 -66t-14 -95t14 -95t38.5 -65.5t58 -38t72.5 -12.5q38 0 71.5 12.5t58 38t38.5 65.5t14 95zM28 224q0 56 18 100t50.5 74.5t78 46.5t100.5 16q54 0 99.5 -16t78 -46.5t51 -74.5
t18.5 -100t-18.5 -100t-51 -74t-78 -46t-99.5 -16q-55 0 -100.5 16t-78 46t-50.5 74t-18 100zM195 544q-8 5 -15.5 12.5t-7.5 19.5q0 10 7.5 15.5t13.5 5.5q7 0 15 -4.5t15 -11.5l97 -99h-28z" />
    <glyph glyph-name="Oacute" unicode="&#xd3;" horiz-adv-x="550" 
d="M457 224q0 55 -14 95t-38.5 66t-58 38.5t-71.5 12.5q-39 0 -72.5 -12.5t-58 -38.5t-38.5 -66t-14 -95t14 -95t38.5 -65.5t58 -38t72.5 -12.5q38 0 71.5 12.5t58 38t38.5 65.5t14 95zM28 224q0 56 18 100t50.5 74.5t78 46.5t100.5 16q54 0 99.5 -16t78 -46.5t51 -74.5
t18.5 -100t-18.5 -100t-51 -74t-78 -46t-99.5 -16q-55 0 -100.5 16t-78 46t-50.5 74t-18 100zM327 581q7 7 14 11.5t15 4.5q7 0 14.5 -5.5t7.5 -15.5q0 -12 -8 -19.5t-16 -12.5l-97 -62h-27z" />
    <glyph glyph-name="Ocircumflex" unicode="&#xd4;" horiz-adv-x="550" 
d="M457 224q0 55 -14 95t-38.5 66t-58 38.5t-71.5 12.5q-39 0 -72.5 -12.5t-58 -38.5t-38.5 -66t-14 -95t14 -95t38.5 -65.5t58 -38t72.5 -12.5q38 0 71.5 12.5t58 38t38.5 65.5t14 95zM28 224q0 56 18 100t50.5 74.5t78 46.5t100.5 16q54 0 99.5 -16t78 -46.5t51 -74.5
t18.5 -100t-18.5 -100t-51 -74t-78 -46t-99.5 -16q-55 0 -100.5 16t-78 46t-50.5 74t-18 100zM275 552l-79 -70h-24l81 111h44l81 -111h-24z" />
    <glyph glyph-name="Otilde" unicode="&#xd5;" horiz-adv-x="550" 
d="M457 224q0 55 -14 95t-38.5 66t-58 38.5t-71.5 12.5q-39 0 -72.5 -12.5t-58 -38.5t-38.5 -66t-14 -95t14 -95t38.5 -65.5t58 -38t72.5 -12.5q38 0 71.5 12.5t58 38t38.5 65.5t14 95zM28 224q0 56 18 100t50.5 74.5t78 46.5t100.5 16q54 0 99.5 -16t78 -46.5t51 -74.5
t18.5 -100t-18.5 -100t-51 -74t-78 -46t-99.5 -16q-55 0 -100.5 16t-78 46t-50.5 74t-18 100zM166 499q2 11 7 23t13.5 22t20.5 16.5t28 6.5q11 0 20.5 -3.5t27.5 -11.5q19 -11 26.5 -13t17.5 -2q15 0 24 9.5t13 23.5h19q-1 -9 -5 -21t-12.5 -23t-21.5 -19t-32 -8
q-10 0 -21.5 3t-26.5 12q-18 10 -26.5 12.5t-16.5 2.5q-15 0 -22 -6.5t-13 -23.5h-20z" />
    <glyph glyph-name="Odieresis" unicode="&#xd6;" horiz-adv-x="550" 
d="M457 224q0 55 -14 95t-38.5 66t-58 38.5t-71.5 12.5q-39 0 -72.5 -12.5t-58 -38.5t-38.5 -66t-14 -95t14 -95t38.5 -65.5t58 -38t72.5 -12.5q38 0 71.5 12.5t58 38t38.5 65.5t14 95zM28 224q0 56 18 100t50.5 74.5t78 46.5t100.5 16q54 0 99.5 -16t78 -46.5t51 -74.5
t18.5 -100t-18.5 -100t-51 -74t-78 -46t-99.5 -16q-55 0 -100.5 16t-78 46t-50.5 74t-18 100zM306 534q0 13 9.5 23.5t24.5 10.5q13 0 23.5 -10.5t10.5 -23.5q0 -15 -10.5 -24.5t-23.5 -9.5q-15 0 -24.5 9.5t-9.5 24.5zM176 534q0 13 9.5 23.5t24.5 10.5q13 0 23.5 -10.5
t10.5 -23.5q0 -15 -10.5 -24.5t-23.5 -9.5q-15 0 -24.5 9.5t-9.5 24.5z" />
    <glyph glyph-name="multiply" unicode="&#xd7;" horiz-adv-x="371" 
d="M302 5l-117 118l-118 -118l-33 33l117 118l-117 117l33 34l118 -118l117 117l34 -32l-118 -118l118 -118z" />
    <glyph glyph-name="Oslash" unicode="&#xd8;" horiz-adv-x="550" 
d="M28 224q0 56 18 100t50.5 74.5t78 46.5t100.5 16q96 0 158 -47l57 69q3 -4 8 -8.5t11 -7.5q-4 -3 -12 -10.5t-17 -17t-18 -19.5t-15 -17q35 -30 55 -74.5t20 -104.5q0 -56 -18.5 -100t-51 -74t-78 -46t-99.5 -16q-48 0 -87 11.5t-70 33.5l-16 -17l-17 -20
q-8 -10 -15.5 -19t-10.5 -15q-3 5 -8 9t-10 7q3 2 10.5 9.5t16.5 17.5t18.5 20.5t16.5 19.5q-36 29 -55.5 74t-19.5 105zM406 384q-24 27 -58 39.5t-73 12.5t-72.5 -12.5t-58 -38.5t-38.5 -66t-14 -95q0 -49 11 -85t30 -61zM145 63q25 -26 58 -38t72 -12q38 0 71.5 12.5
t58 38t38.5 65.5t14 95q0 48 -10 83.5t-29 62.5z" />
    <glyph glyph-name="Ugrave" unicode="&#xd9;" horiz-adv-x="513" 
d="M409 320q0 55 -1 86t-3 46q12 -3 27 -3q10 0 19 3q-2 -23 -4 -55t-3.5 -68.5t-2.5 -75.5t-1 -75q-2 -88 -51 -139t-138 -51q-99 0 -143.5 46t-44.5 143q0 31 1.5 55t1.5 49q0 28 -0.5 52t-1.5 46l-2 73q8 -2 17 -2.5t17 -0.5q15 0 29 3q-4 -30 -6 -91.5t-2 -134.5
q0 -34 2 -70.5t16 -67t43.5 -50t85.5 -19.5q54 0 83.5 22.5t43 55.5t16 71t2.5 70v82zM178 544q-9 5 -16.5 12.5t-7.5 19.5q0 10 7.5 15.5t14.5 5.5t14.5 -4.5t14.5 -11.5l97 -99h-27z" />
    <glyph glyph-name="Uacute" unicode="&#xda;" horiz-adv-x="513" 
d="M409 320q0 55 -1 86t-3 46q12 -3 27 -3q10 0 19 3q-2 -23 -4 -55t-3.5 -68.5t-2.5 -75.5t-1 -75q-2 -88 -51 -139t-138 -51q-99 0 -143.5 46t-44.5 143q0 31 1.5 55t1.5 49q0 28 -0.5 52t-1.5 46l-2 73q8 -2 17 -2.5t17 -0.5q15 0 29 3q-4 -30 -6 -91.5t-2 -134.5
q0 -34 2 -70.5t16 -67t43.5 -50t85.5 -19.5q54 0 83.5 22.5t43 55.5t16 71t2.5 70v82zM309 581q7 7 14.5 11.5t15.5 4.5q6 0 13.5 -5.5t7.5 -15.5q0 -12 -8 -19.5t-15 -12.5l-97 -62h-28z" />
    <glyph glyph-name="Ucircumflex" unicode="&#xdb;" horiz-adv-x="513" 
d="M409 320q0 55 -1 86t-3 46q12 -3 27 -3q10 0 19 3q-2 -23 -4 -55t-3.5 -68.5t-2.5 -75.5t-1 -75q-2 -88 -51 -139t-138 -51q-99 0 -143.5 46t-44.5 143q0 31 1.5 55t1.5 49q0 28 -0.5 52t-1.5 46l-2 73q8 -2 17 -2.5t17 -0.5q15 0 29 3q-4 -30 -6 -91.5t-2 -134.5
q0 -34 2 -70.5t16 -67t43.5 -50t85.5 -19.5q54 0 83.5 22.5t43 55.5t16 71t2.5 70v82zM257 552l-79 -70h-24l81 111h44l81 -111h-24z" />
    <glyph glyph-name="Udieresis" unicode="&#xdc;" horiz-adv-x="513" 
d="M409 320q0 55 -1 86t-3 46q12 -3 27 -3q10 0 19 3q-2 -23 -4 -55t-3.5 -68.5t-2.5 -75.5t-1 -75q-2 -88 -51 -139t-138 -51q-99 0 -143.5 46t-44.5 143q0 31 1.5 55t1.5 49q0 28 -0.5 52t-1.5 46l-2 73q8 -2 17 -2.5t17 -0.5q15 0 29 3q-4 -30 -6 -91.5t-2 -134.5
q0 -34 2 -70.5t16 -67t43.5 -50t85.5 -19.5q54 0 83.5 22.5t43 55.5t16 71t2.5 70v82zM158 534q0 13 10 23.5t24 10.5t24 -10.5t10 -23.5q0 -15 -10 -24.5t-24 -9.5t-24 9.5t-10 24.5zM288 534q0 13 10 23.5t24 10.5t24 -10.5t10 -23.5q0 -15 -10 -24.5t-24 -9.5t-24 9.5
t-10 24.5z" />
    <glyph glyph-name="Yacute" unicode="&#xdd;" horiz-adv-x="403" 
d="M175 184q-7 11 -19.5 32.5t-28 48t-32.5 55t-32.5 54.5t-28 46.5t-19.5 31.5q8 -2 17.5 -2.5t18.5 -0.5q18 0 36 3q28 -57 59.5 -112.5t66.5 -115.5q30 48 64 109.5t60 118.5q13 -3 26 -3q12 0 26 3q-32 -49 -57 -88t-44.5 -70.5t-34 -56.5t-24.5 -46v-52
q0 -40 1.5 -79.5t3.5 -62.5q-17 3 -32 3q-16 0 -32 -3q3 26 4 61.5t1 72.5v53zM253 574q7 7 14.5 11.5t15.5 4.5q7 0 14.5 -5.5t7.5 -15.5q0 -12 -8 -19.5t-16 -11.5l-97 -62h-28z" />
    <glyph glyph-name="Thorn" unicode="&#xde;" 
d="M65 281q0 43 -2 85.5t-4 85.5q9 -2 16.5 -2.5t16.5 -0.5q15 0 32 3q-3 -22 -4 -43t-1 -43h81q66 0 104.5 -27.5t38.5 -87.5q0 -37 -14.5 -61t-38 -38.5t-52.5 -20t-58 -5.5q-18 0 -33 0.5t-28 2.5v-67q0 -21 1 -38.5t4 -26.5q-17 3 -32 3q-9 0 -16.5 -1t-16.5 -2
q2 42 4 85t2 86v113zM119 153q7 -2 21.5 -2.5t29.5 -0.5q21 0 41 6t36 18t25.5 31t9.5 45q0 16 -5.5 32.5t-18 29.5t-32.5 21t-48 8h-59v-188z" />
    <glyph glyph-name="germandbls" unicode="&#xdf;" 
d="M57 268q0 31 -1 51.5t-1 28.5q0 41 12.5 69.5t32 46.5t43.5 26t46 8q15 0 32 -5.5t31.5 -15t24 -23.5t9.5 -30q0 -26 -12 -45.5t-27 -36.5t-27 -32t-12 -30q0 -23 22 -39t48 -32.5t48 -38.5t22 -56q0 -22 -11 -44t-29 -40t-41.5 -29t-48.5 -11q-21 0 -38 4.5t-28 10.5
q4 7 7.5 18.5t4.5 20.5h4q7 -12 25 -20.5t39 -8.5q27 0 49 18t22 51q0 21 -10.5 37t-26 28.5t-33.5 24t-33.5 24t-26 26.5t-10.5 33t13.5 36.5t30 36t30.5 39t14 47.5q0 26 -17 43.5t-48 17.5q-46 0 -63 -34.5t-17 -100.5v-205q0 -38 1.5 -77t4.5 -63q-15 3 -30 3t-30 -3
q1 16 2 39.5t1.5 49t1 52t0.5 49.5v81z" />
    <glyph glyph-name="agrave" unicode="&#xe0;" horiz-adv-x="330" 
d="M57 280q29 22 54 30.5t52 8.5q47 0 77 -26.5t30 -71.5q0 -37 -1.5 -74.5t-1.5 -79.5q0 -16 3 -32.5t23 -16.5h6q3 0 8 3v-14q-7 -3 -18 -6.5t-24 -3.5q-22 0 -33 12t-13 29q-24 -24 -47.5 -36t-56.5 -12t-60 21.5t-27 59.5q0 40 24 61.5t69 29.5q35 5 55 9t29.5 9
t12 11.5t2.5 16.5q0 32 -17 57.5t-56 25.5q-27 0 -49.5 -11.5t-33.5 -33.5h-7v34zM220 163q-18 -6 -41.5 -9.5t-45 -11t-36.5 -21.5t-15 -40q0 -32 17 -47.5t40 -15.5q26 0 46 13.5t32 32.5zM86 431q-9 5 -16.5 12t-7.5 19q0 10 7.5 15.5t14.5 5.5q14 0 30 -16l97 -98h-28z
" />
    <glyph glyph-name="aacute" unicode="&#xe1;" horiz-adv-x="330" 
d="M57 280q29 22 54 30.5t52 8.5q47 0 77 -26.5t30 -71.5q0 -37 -1.5 -74.5t-1.5 -79.5q0 -16 3 -32.5t23 -16.5h6q3 0 8 3v-14q-7 -3 -18 -6.5t-24 -3.5q-22 0 -33 12t-13 29q-24 -24 -47.5 -36t-56.5 -12t-60 21.5t-27 59.5q0 40 24 61.5t69 29.5q35 5 55 9t29.5 9
t12 11.5t2.5 16.5q0 32 -17 57.5t-56 25.5q-27 0 -49.5 -11.5t-33.5 -33.5h-7v34zM220 163q-18 -6 -41.5 -9.5t-45 -11t-36.5 -21.5t-15 -40q0 -32 17 -47.5t40 -15.5q26 0 46 13.5t32 32.5zM217 467q13 16 30 16q6 0 14 -5.5t8 -15.5q0 -12 -8.5 -19t-15.5 -12l-97 -62h-28
z" />
    <glyph glyph-name="acircumflex" unicode="&#xe2;" horiz-adv-x="330" 
d="M57 280q29 22 54 30.5t52 8.5q47 0 77 -26.5t30 -71.5q0 -37 -1.5 -74.5t-1.5 -79.5q0 -16 3 -32.5t23 -16.5h6q3 0 8 3v-14q-7 -3 -18 -6.5t-24 -3.5q-22 0 -33 12t-13 29q-24 -24 -47.5 -36t-56.5 -12t-60 21.5t-27 59.5q0 40 24 61.5t69 29.5q35 5 55 9t29.5 9
t12 11.5t2.5 16.5q0 32 -17 57.5t-56 25.5q-27 0 -49.5 -11.5t-33.5 -33.5h-7v34zM220 163q-18 -6 -41.5 -9.5t-45 -11t-36.5 -21.5t-15 -40q0 -32 17 -47.5t40 -15.5q26 0 46 13.5t32 32.5zM165 438l-79 -69h-24l81 110h44l82 -110h-25z" />
    <glyph glyph-name="atilde" unicode="&#xe3;" horiz-adv-x="330" 
d="M57 280q29 22 54 30.5t52 8.5q47 0 77 -26.5t30 -71.5q0 -37 -1.5 -74.5t-1.5 -79.5q0 -16 3 -32.5t23 -16.5h6q3 0 8 3v-14q-7 -3 -18 -6.5t-24 -3.5q-22 0 -33 12t-13 29q-24 -24 -47.5 -36t-56.5 -12t-60 21.5t-27 59.5q0 40 24 61.5t69 29.5q35 5 55 9t29.5 9
t12 11.5t2.5 16.5q0 32 -17 57.5t-56 25.5q-27 0 -49.5 -11.5t-33.5 -33.5h-7v34zM220 163q-18 -6 -41.5 -9.5t-45 -11t-36.5 -21.5t-15 -40q0 -32 17 -47.5t40 -15.5q26 0 46 13.5t32 32.5zM57 385q2 12 7 24t13 21.5t20 16t28 6.5q13 0 21 -3.5t28 -11.5
q18 -10 26.5 -12.5t16.5 -2.5q16 0 24.5 10t13.5 23h19q-1 -8 -5.5 -20t-12.5 -23.5t-21.5 -19.5t-32.5 -8q-10 0 -21 3.5t-27 12.5q-18 9 -26.5 12t-15.5 3q-16 0 -23 -6.5t-12 -24.5h-20z" />
    <glyph glyph-name="adieresis" unicode="&#xe4;" horiz-adv-x="330" 
d="M57 280q29 22 54 30.5t52 8.5q47 0 77 -26.5t30 -71.5q0 -37 -1.5 -74.5t-1.5 -79.5q0 -16 3 -32.5t23 -16.5h6q3 0 8 3v-14q-7 -3 -18 -6.5t-24 -3.5q-22 0 -33 12t-13 29q-24 -24 -47.5 -36t-56.5 -12t-60 21.5t-27 59.5q0 40 24 61.5t69 29.5q35 5 55 9t29.5 9
t12 11.5t2.5 16.5q0 32 -17 57.5t-56 25.5q-27 0 -49.5 -11.5t-33.5 -33.5h-7v34zM220 163q-18 -6 -41.5 -9.5t-45 -11t-36.5 -21.5t-15 -40q0 -32 17 -47.5t40 -15.5q26 0 46 13.5t32 32.5zM197 420q0 14 9.5 24t23.5 10t24 -10t10 -24t-10 -23.5t-24 -9.5t-23.5 9.5
t-9.5 23.5zM67 420q0 14 9.5 24t23.5 10t24 -10t10 -24t-10 -23.5t-24 -9.5t-23.5 9.5t-9.5 23.5z" />
    <glyph glyph-name="aring" unicode="&#xe5;" horiz-adv-x="330" 
d="M57 280q29 22 54 30.5t52 8.5q47 0 77 -26.5t30 -71.5q0 -37 -1.5 -74.5t-1.5 -79.5q0 -16 3 -32.5t23 -16.5h6q3 0 8 3v-14q-7 -3 -18 -6.5t-24 -3.5q-22 0 -33 12t-13 29q-24 -24 -47.5 -36t-56.5 -12t-60 21.5t-27 59.5q0 40 24 61.5t69 29.5q35 5 55 9t29.5 9
t12 11.5t2.5 16.5q0 32 -17 57.5t-56 25.5q-27 0 -49.5 -11.5t-33.5 -33.5h-7v34zM220 163q-18 -6 -41.5 -9.5t-45 -11t-36.5 -21.5t-15 -40q0 -32 17 -47.5t40 -15.5q26 0 46 13.5t32 32.5zM98 426q0 27 19.5 47t48.5 20q27 0 47 -20t20 -47q0 -28 -20 -48t-48 -20
q-29 0 -48 20t-19 48zM125 426q0 -17 11.5 -28.5t28.5 -11.5q16 0 28 11.5t12 28.5q0 16 -11.5 27.5t-27.5 11.5q-18 0 -29.5 -11.5t-11.5 -27.5z" />
    <glyph glyph-name="ae" unicode="&#xe6;" horiz-adv-x="513" 
d="M52 280q30 22 54.5 30.5t51.5 8.5q22 0 49 -9.5t50 -40.5q17 23 42.5 36.5t58.5 13.5q34 0 59.5 -11t42.5 -29.5t25.5 -43t8.5 -51.5v-13q0 -8 -1 -13q-36 1 -71 1.5t-70 0.5q-22 0 -43.5 -0.5t-43.5 -1.5v-18q0 -53 29 -87.5t85 -34.5q27 0 53.5 13.5t45.5 33.5l3 -2
l-4 -33q-20 -17 -49.5 -28.5t-60.5 -11.5q-48 0 -83.5 20t-51.5 59q-6 -15 -15.5 -29t-23.5 -25.5t-34 -18t-48 -6.5q-17 0 -32.5 5.5t-28 16t-20 25.5t-7.5 34q0 40 25 61.5t68 29.5q36 5 56 9t29.5 9t11.5 11.5t2 16.5q0 32 -16.5 57.5t-55.5 25.5q-27 0 -49.5 -11.5
t-34.5 -33.5h-7v34zM359 298q-25 0 -42 -11.5t-27.5 -28.5t-16 -37t-6.5 -38q20 0 42 -1t43 -1q22 0 44.5 1t43.5 1q0 17 -3 37t-12 37.5t-25 29t-41 11.5zM77 81q0 -29 17 -46t45 -17q26 0 49.5 17t25.5 53q1 19 0.5 37.5t0.5 37.5q-17 -6 -41 -9.5t-45.5 -11t-36.5 -21.5
t-15 -40z" />
    <glyph glyph-name="ccedilla" unicode="&#xe7;" horiz-adv-x="330" 
d="M128 -116q16 -7 48 -7q16 0 27.5 6.5t11.5 20.5t-10 20.5t-24 6.5q-21 0 -28 -5l-5 5l24 60q-27 2 -53 12t-46.5 30t-32.5 50t-12 71q0 43 14.5 74t38 51.5t53.5 30t62 9.5q36 0 64.5 -9t41.5 -20q-5 -10 -8.5 -21t-5.5 -23h-6q-11 17 -31.5 34.5t-52.5 17.5
q-30 0 -51.5 -11t-35 -30.5t-19.5 -45.5t-6 -56q0 -69 29.5 -103t84.5 -34q27 0 53.5 13.5t45.5 33.5l3 -2q-2 -9 -2.5 -17t-1.5 -16q-18 -14 -46 -26.5t-56 -12.5l-14 -39q7 3 19 3q26 0 40.5 -12.5t14.5 -34.5q0 -28 -23.5 -42t-54.5 -14q-21 0 -35.5 4t-23.5 7z" />
    <glyph glyph-name="egrave" unicode="&#xe8;" horiz-adv-x="330" 
d="M23 145q0 80 38.5 127t112.5 47q34 0 60 -11t43 -29.5t25.5 -43t8.5 -51.5q0 -6 -0.5 -12.5t-0.5 -13.5q-36 1 -71.5 1.5t-70.5 0.5q-22 0 -43 -0.5t-43 -1.5q-1 -3 -1 -10v-8q0 -53 29 -87.5t85 -34.5q27 0 53.5 13.5t45.5 33.5l4 -2l-4 -33q-20 -17 -50 -28.5
t-61 -11.5q-36 0 -65.5 11.5t-50.5 32.5t-32.5 49.5t-11.5 61.5zM176 298q-25 0 -42 -11.5t-28 -28.5t-16.5 -37t-6.5 -38q20 0 42.5 -1t43.5 -1q22 0 44.5 1t43.5 1q0 17 -3 37t-12 37.5t-25 29t-41 11.5zM96 431q-8 5 -15.5 12t-7.5 19q0 10 7.5 15.5t13.5 5.5
q15 0 30 -16l97 -98h-28z" />
    <glyph glyph-name="eacute" unicode="&#xe9;" horiz-adv-x="330" 
d="M23 145q0 80 38.5 127t112.5 47q34 0 60 -11t43 -29.5t25.5 -43t8.5 -51.5q0 -6 -0.5 -12.5t-0.5 -13.5q-36 1 -71.5 1.5t-70.5 0.5q-22 0 -43 -0.5t-43 -1.5q-1 -3 -1 -10v-8q0 -53 29 -87.5t85 -34.5q27 0 53.5 13.5t45.5 33.5l4 -2l-4 -33q-20 -17 -50 -28.5
t-61 -11.5q-36 0 -65.5 11.5t-50.5 32.5t-32.5 49.5t-11.5 61.5zM176 298q-25 0 -42 -11.5t-28 -28.5t-16.5 -37t-6.5 -38q20 0 42.5 -1t43.5 -1q22 0 44.5 1t43.5 1q0 17 -3 37t-12 37.5t-25 29t-41 11.5zM228 467q13 16 29 16q7 0 14.5 -5.5t7.5 -15.5q0 -12 -8 -19
t-16 -12l-97 -62h-27z" />
    <glyph glyph-name="ecircumflex" unicode="&#xea;" horiz-adv-x="330" 
d="M23 145q0 80 38.5 127t112.5 47q34 0 60 -11t43 -29.5t25.5 -43t8.5 -51.5q0 -6 -0.5 -12.5t-0.5 -13.5q-36 1 -71.5 1.5t-70.5 0.5q-22 0 -43 -0.5t-43 -1.5q-1 -3 -1 -10v-8q0 -53 29 -87.5t85 -34.5q27 0 53.5 13.5t45.5 33.5l4 -2l-4 -33q-20 -17 -50 -28.5
t-61 -11.5q-36 0 -65.5 11.5t-50.5 32.5t-32.5 49.5t-11.5 61.5zM176 298q-25 0 -42 -11.5t-28 -28.5t-16.5 -37t-6.5 -38q20 0 42.5 -1t43.5 -1q22 0 44.5 1t43.5 1q0 17 -3 37t-12 37.5t-25 29t-41 11.5zM176 438l-79 -69h-24l81 110h44l81 -110h-24z" />
    <glyph glyph-name="edieresis" unicode="&#xeb;" horiz-adv-x="330" 
d="M23 145q0 80 38.5 127t112.5 47q34 0 60 -11t43 -29.5t25.5 -43t8.5 -51.5q0 -6 -0.5 -12.5t-0.5 -13.5q-36 1 -71.5 1.5t-70.5 0.5q-22 0 -43 -0.5t-43 -1.5q-1 -3 -1 -10v-8q0 -53 29 -87.5t85 -34.5q27 0 53.5 13.5t45.5 33.5l4 -2l-4 -33q-20 -17 -50 -28.5
t-61 -11.5q-36 0 -65.5 11.5t-50.5 32.5t-32.5 49.5t-11.5 61.5zM176 298q-25 0 -42 -11.5t-28 -28.5t-16.5 -37t-6.5 -38q20 0 42.5 -1t43.5 -1q22 0 44.5 1t43.5 1q0 17 -3 37t-12 37.5t-25 29t-41 11.5zM207 420q0 14 9.5 24t24.5 10q13 0 23.5 -10t10.5 -24t-10.5 -23.5
t-23.5 -9.5q-15 0 -24.5 9.5t-9.5 23.5zM77 420q0 14 9.5 24t24.5 10q13 0 23.5 -10t10.5 -24t-10.5 -23.5t-23.5 -9.5q-15 0 -24.5 9.5t-9.5 23.5z" />
    <glyph glyph-name="igrave" unicode="&#xec;" horiz-adv-x="183" 
d="M67 189q0 29 -1 62t-4 61q15 -3 30 -3t29 3q-3 -28 -4 -61t-1 -62v-69q0 -30 1 -62.5t4 -60.5q-14 3 -29 3t-30 -3q3 28 4 60.5t1 62.5v69zM13 431q-9 5 -16.5 12t-7.5 19q0 10 7.5 15.5t14.5 5.5q14 0 29 -16l97 -98h-27z" />
    <glyph glyph-name="iacute" unicode="&#xed;" horiz-adv-x="183" 
d="M67 189q0 29 -1 62t-4 61q15 -3 30 -3t29 3q-3 -28 -4 -61t-1 -62v-69q0 -30 1 -62.5t4 -60.5q-14 3 -29 3t-30 -3q3 28 4 60.5t1 62.5v69zM144 467q13 16 30 16q6 0 13.5 -5.5t7.5 -15.5q0 -12 -8 -19t-15 -12l-97 -62h-28z" />
    <glyph glyph-name="icircumflex" unicode="&#xee;" horiz-adv-x="183" 
d="M67 189q0 29 -1 62t-4 61q15 -3 30 -3t29 3q-3 -28 -4 -61t-1 -62v-69q0 -30 1 -62.5t4 -60.5q-14 3 -29 3t-30 -3q3 28 4 60.5t1 62.5v69zM92 438l-79 -69h-24l81 110h44l81 -110h-24z" />
    <glyph glyph-name="idieresis" unicode="&#xef;" horiz-adv-x="183" 
d="M67 189q0 29 -1 62t-4 61q15 -3 30 -3t29 3q-3 -28 -4 -61t-1 -62v-69q0 -30 1 -62.5t4 -60.5q-14 3 -29 3t-30 -3q3 28 4 60.5t1 62.5v69zM123 420q0 14 10 24t24 10t24 -10t10 -24t-10 -23.5t-24 -9.5t-24 9.5t-10 23.5zM-7 420q0 14 10 24t24 10t24 -10t10 -24
t-10 -23.5t-24 -9.5t-24 9.5t-10 23.5z" />
    <glyph glyph-name="eth" unicode="&#xf0;" 
d="M23 154q0 45 14 76.5t37 51t51.5 28.5t57.5 9q9 0 16.5 -1t16.5 -4l1 1q-21 22 -41.5 44t-42.5 43q-22 -7 -43 -14.5t-43 -15.5q-3 6 -6.5 12t-7.5 12q10 2 19.5 5t20.5 6l42 12q-18 17 -38 33.5t-42 33.5l46 12q49 -35 85 -64q22 7 43 14t40 15q5 -14 14 -23
q-21 -5 -40.5 -10.5t-38.5 -11.5q85 -72 122.5 -134.5t37.5 -129.5q0 -45 -14.5 -76.5t-37.5 -51t-52 -28t-57 -8.5q-29 0 -57.5 8.5t-51.5 28t-37 51t-14 76.5zM286 154q0 27 -5.5 53t-17.5 46.5t-32 32.5t-48 12q-29 0 -48.5 -12t-31.5 -32.5t-17 -46.5t-5 -53
q0 -28 5 -53.5t17 -45.5t31.5 -32t48.5 -12q28 0 48 12t32 32t17.5 45.5t5.5 53.5z" />
    <glyph glyph-name="ntilde" unicode="&#xf1;" 
d="M265 184q0 49 -19.5 74.5t-52.5 25.5q-46 0 -67.5 -28t-21.5 -80v-56q0 -30 1.5 -62.5t4.5 -60.5q-15 3 -30 3t-30 -3q3 28 4 60.5t1 62.5v69q0 29 -1 62t-4 61q15 -3 30 -3q4 0 11 0.5t15 2.5q-1 -14 -1.5 -27t-0.5 -26h2q18 28 43.5 44t61.5 16q18 0 37 -5.5t34 -18.5
t25 -35t10 -56q0 -29 -1.5 -58.5t-1.5 -63.5v-43v-21t1 -21q-14 3 -27 3q-14 0 -27 -3q1 36 2.5 72t1.5 75v40zM75 385q2 11 7 23t13.5 22t20.5 16.5t28 6.5q11 0 20.5 -3.5t27.5 -11.5q18 -9 26.5 -12t17.5 -3q15 0 24 10t13 23h19q-1 -8 -5 -20t-12.5 -23.5t-22 -19.5
t-32.5 -8q-9 0 -20.5 3.5t-26.5 12.5q-18 9 -26.5 12t-16.5 3q-15 0 -22 -6.5t-13 -24.5h-20z" />
    <glyph glyph-name="ograve" unicode="&#xf2;" 
d="M23 154q0 45 14 76.5t37 51t51.5 28.5t57.5 9q28 0 57 -9t52 -28.5t37.5 -51t14.5 -76.5t-14.5 -76.5t-37.5 -51t-52 -28t-57 -8.5q-29 0 -57.5 8.5t-51.5 28t-37 51t-14 76.5zM81 154q0 -28 5 -53.5t17 -45.5t31.5 -32t48.5 -12q28 0 48 12t32 32t17.5 45.5t5.5 53.5
q0 27 -5.5 53t-17.5 46.5t-32 32.5t-48 12q-29 0 -48.5 -12t-31.5 -32.5t-17 -46.5t-5 -53zM104 431q-8 5 -15.5 12t-7.5 19q0 10 7.5 15.5t13.5 5.5q15 0 30 -16l97 -98h-28z" />
    <glyph glyph-name="oacute" unicode="&#xf3;" 
d="M23 154q0 45 14 76.5t37 51t51.5 28.5t57.5 9q28 0 57 -9t52 -28.5t37.5 -51t14.5 -76.5t-14.5 -76.5t-37.5 -51t-52 -28t-57 -8.5q-29 0 -57.5 8.5t-51.5 28t-37 51t-14 76.5zM81 154q0 -28 5 -53.5t17 -45.5t31.5 -32t48.5 -12q28 0 48 12t32 32t17.5 45.5t5.5 53.5
q0 27 -5.5 53t-17.5 46.5t-32 32.5t-48 12q-29 0 -48.5 -12t-31.5 -32.5t-17 -46.5t-5 -53zM236 467q13 16 29 16q7 0 14.5 -5.5t7.5 -15.5q0 -12 -8 -19t-16 -12l-97 -62h-27z" />
    <glyph glyph-name="ocircumflex" unicode="&#xf4;" 
d="M23 154q0 45 14 76.5t37 51t51.5 28.5t57.5 9q28 0 57 -9t52 -28.5t37.5 -51t14.5 -76.5t-14.5 -76.5t-37.5 -51t-52 -28t-57 -8.5q-29 0 -57.5 8.5t-51.5 28t-37 51t-14 76.5zM81 154q0 -28 5 -53.5t17 -45.5t31.5 -32t48.5 -12q28 0 48 12t32 32t17.5 45.5t5.5 53.5
q0 27 -5.5 53t-17.5 46.5t-32 32.5t-48 12q-29 0 -48.5 -12t-31.5 -32.5t-17 -46.5t-5 -53zM183 438l-78 -69h-24l81 110h44l81 -110h-24z" />
    <glyph glyph-name="otilde" unicode="&#xf5;" 
d="M23 154q0 45 14 76.5t37 51t51.5 28.5t57.5 9q28 0 57 -9t52 -28.5t37.5 -51t14.5 -76.5t-14.5 -76.5t-37.5 -51t-52 -28t-57 -8.5q-29 0 -57.5 8.5t-51.5 28t-37 51t-14 76.5zM81 154q0 -28 5 -53.5t17 -45.5t31.5 -32t48.5 -12q28 0 48 12t32 32t17.5 45.5t5.5 53.5
q0 27 -5.5 53t-17.5 46.5t-32 32.5t-48 12q-29 0 -48.5 -12t-31.5 -32.5t-17 -46.5t-5 -53zM75 385q2 11 7 23t13.5 22t20.5 16.5t28 6.5q11 0 20.5 -3.5t27.5 -11.5q18 -9 26.5 -12t17.5 -3q15 0 24 10t13 23h19q-1 -8 -5 -20t-12.5 -23.5t-22 -19.5t-32.5 -8
q-9 0 -20.5 3.5t-26.5 12.5q-18 9 -26.5 12t-16.5 3q-15 0 -22 -6.5t-13 -24.5h-20z" />
    <glyph glyph-name="odieresis" unicode="&#xf6;" 
d="M23 154q0 45 14 76.5t37 51t51.5 28.5t57.5 9q28 0 57 -9t52 -28.5t37.5 -51t14.5 -76.5t-14.5 -76.5t-37.5 -51t-52 -28t-57 -8.5q-29 0 -57.5 8.5t-51.5 28t-37 51t-14 76.5zM81 154q0 -28 5 -53.5t17 -45.5t31.5 -32t48.5 -12q28 0 48 12t32 32t17.5 45.5t5.5 53.5
q0 27 -5.5 53t-17.5 46.5t-32 32.5t-48 12q-29 0 -48.5 -12t-31.5 -32.5t-17 -46.5t-5 -53zM215 420q0 14 9.5 24t24.5 10q13 0 23 -10t10 -24t-10 -23.5t-23 -9.5q-15 0 -24.5 9.5t-9.5 23.5zM85 420q0 14 9.5 24t24.5 10q13 0 23 -10t10 -24t-10 -23.5t-23 -9.5
q-15 0 -24.5 9.5t-9.5 23.5z" />
    <glyph glyph-name="divide" unicode="&#xf7;" horiz-adv-x="371" 
d="M222 269q0 -16 -10.5 -26t-26.5 -10q-15 0 -25.5 10.5t-10.5 25.5q0 16 10.5 26.5t25.5 10.5q16 0 26.5 -10.5t10.5 -26.5zM27 133v45h317v-45h-317zM222 42q0 -16 -10.5 -26t-26.5 -10q-15 0 -25.5 10t-10.5 26t10.5 26.5t25.5 10.5t26 -11t11 -26z" />
    <glyph glyph-name="oslash" unicode="&#xf8;" 
d="M23 154q0 45 14 76.5t37 51t51.5 28.5t57.5 9q26 0 52.5 -7.5t50.5 -24.5q14 17 28 31.5t18 22.5q7 -10 16 -14q-7 -6 -20 -19.5t-29 -31.5q21 -22 33 -50.5t12 -71.5q0 -45 -14.5 -76.5t-37.5 -51t-52 -28t-57 -8.5q-27 0 -55 8.5t-51 26.5q-15 -17 -28.5 -32t-20.5 -24
q-9 10 -17 14l20 20l16 17l16 18q-18 20 -29 48.5t-11 67.5zM103 55q12 -21 31.5 -32.5t48.5 -11.5q28 0 48 12t32 32t17.5 45.5t5.5 53.5q0 25 -4 47.5t-13 41.5zM261 258q-12 18 -31.5 29t-46.5 11q-29 0 -48.5 -12t-31.5 -32.5t-17 -46.5t-5 -53q0 -22 3 -43t10 -38z" />
    <glyph glyph-name="ugrave" unicode="&#xf9;" 
d="M50 98q0 35 1 60t1 49q0 23 -0.5 50t-0.5 55q13 -3 28 -3q12 0 27 3q-3 -39 -5 -87t-2 -96q0 -35 5.5 -53t14.5 -27q10 -11 23.5 -18t33.5 -7q28 0 46 12.5t27 30.5q5 10 7.5 18t4 21.5t2 36t0.5 61.5v55v27.5t-1 25.5q13 -3 28 -3q7 0 13.5 0.5t13.5 2.5q-3 -52 -4 -100
t-1 -100q0 -60 3 -115q-14 3 -26 3q-13 0 -26 -3q1 14 1.5 28t0.5 28h-2q-17 -30 -44.5 -46.5t-58.5 -16.5q-52 0 -81 28t-29 80zM104 431q-8 5 -15.5 12t-7.5 19q0 10 7.5 15.5t13.5 5.5q15 0 30 -16l97 -98h-28z" />
    <glyph glyph-name="uacute" unicode="&#xfa;" 
d="M50 98q0 35 1 60t1 49q0 23 -0.5 50t-0.5 55q13 -3 28 -3q12 0 27 3q-3 -39 -5 -87t-2 -96q0 -35 5.5 -53t14.5 -27q10 -11 23.5 -18t33.5 -7q28 0 46 12.5t27 30.5q5 10 7.5 18t4 21.5t2 36t0.5 61.5v55v27.5t-1 25.5q13 -3 28 -3q7 0 13.5 0.5t13.5 2.5q-3 -52 -4 -100
t-1 -100q0 -60 3 -115q-14 3 -26 3q-13 0 -26 -3q1 14 1.5 28t0.5 28h-2q-17 -30 -44.5 -46.5t-58.5 -16.5q-52 0 -81 28t-29 80zM236 467q13 16 29 16q7 0 14.5 -5.5t7.5 -15.5q0 -12 -8 -19t-16 -12l-97 -62h-27z" />
    <glyph glyph-name="ucircumflex" unicode="&#xfb;" 
d="M50 98q0 35 1 60t1 49q0 23 -0.5 50t-0.5 55q13 -3 28 -3q12 0 27 3q-3 -39 -5 -87t-2 -96q0 -35 5.5 -53t14.5 -27q10 -11 23.5 -18t33.5 -7q28 0 46 12.5t27 30.5q5 10 7.5 18t4 21.5t2 36t0.5 61.5v55v27.5t-1 25.5q13 -3 28 -3q7 0 13.5 0.5t13.5 2.5q-3 -52 -4 -100
t-1 -100q0 -60 3 -115q-14 3 -26 3q-13 0 -26 -3q1 14 1.5 28t0.5 28h-2q-17 -30 -44.5 -46.5t-58.5 -16.5q-52 0 -81 28t-29 80zM183 438l-78 -69h-24l81 110h44l81 -110h-24z" />
    <glyph glyph-name="udieresis" unicode="&#xfc;" 
d="M50 98q0 35 1 60t1 49q0 23 -0.5 50t-0.5 55q13 -3 28 -3q12 0 27 3q-3 -39 -5 -87t-2 -96q0 -35 5.5 -53t14.5 -27q10 -11 23.5 -18t33.5 -7q28 0 46 12.5t27 30.5q5 10 7.5 18t4 21.5t2 36t0.5 61.5v55v27.5t-1 25.5q13 -3 28 -3q7 0 13.5 0.5t13.5 2.5q-3 -52 -4 -100
t-1 -100q0 -60 3 -115q-14 3 -26 3q-13 0 -26 -3q1 14 1.5 28t0.5 28h-2q-17 -30 -44.5 -46.5t-58.5 -16.5q-52 0 -81 28t-29 80zM85 420q0 14 9.5 24t24.5 10q13 0 23 -10t10 -24t-10 -23.5t-23 -9.5q-15 0 -24.5 9.5t-9.5 23.5zM215 420q0 14 9.5 24t24.5 10q13 0 23 -10
t10 -24t-10 -23.5t-23 -9.5q-15 0 -24.5 9.5t-9.5 23.5z" />
    <glyph glyph-name="yacute" unicode="&#xfd;" horiz-adv-x="330" 
d="M147 -4q-8 19 -20 47t-25.5 60t-27 64.5t-25.5 61.5t-21 51t-13 32q7 -2 14.5 -2.5t15.5 -0.5q15 0 30 3q20 -63 45.5 -125t53.5 -128q26 57 52 123.5t46 129.5q10 -3 22 -3q10 0 21 3q-6 -11 -22.5 -46t-38 -81.5t-45.5 -100.5t-45.5 -104.5t-38 -92.5t-22.5 -64
q-11 3 -22 3q-13 0 -23 -3q26 45 48 87.5t41 85.5zM217 467q13 16 30 16q6 0 14 -5.5t8 -15.5q0 -12 -8.5 -19t-15.5 -12l-97 -62h-28z" />
    <glyph glyph-name="thorn" unicode="&#xfe;" 
d="M43 306v23.5t-1 25.5l-1 52q0 26 -1 49t-2 40q15 -3 29 -3q15 0 30 3q-3 -25 -4 -64t-1 -77v-108h1q5 10 13.5 22.5t22 23.5t32 18.5t44.5 7.5q25 0 49 -9.5t43 -29.5t30.5 -51t11.5 -73t-12.5 -73.5t-33 -52t-46 -30.5t-50.5 -10q-72 0 -104 65h-1v-91q0 -39 1 -77.5
t4 -63.5q-15 3 -30 3q-14 0 -29 -3q1 16 2 39.5t1.5 49t1 52t0.5 49.5v293zM281 157q0 39 -8.5 65t-21.5 41.5t-29 21.5t-32 6q-27 0 -45.5 -11t-30.5 -30t-17 -44.5t-5 -53.5q0 -137 96 -137q46 0 69.5 41t23.5 101z" />
    <glyph glyph-name="ydieresis" unicode="&#xff;" horiz-adv-x="330" 
d="M147 -4q-8 19 -20 47t-25.5 60t-27 64.5t-25.5 61.5t-21 51t-13 32q7 -2 14.5 -2.5t15.5 -0.5q15 0 30 3q20 -63 45.5 -125t53.5 -128q26 57 52 123.5t46 129.5q10 -3 22 -3q10 0 21 3q-6 -11 -22.5 -46t-38 -81.5t-45.5 -100.5t-45.5 -104.5t-38 -92.5t-22.5 -64
q-11 3 -22 3q-13 0 -23 -3q26 45 48 87.5t41 85.5zM197 420q0 14 9.5 24t23.5 10t24 -10t10 -24t-10 -23.5t-24 -9.5t-23.5 9.5t-9.5 23.5zM67 420q0 14 9.5 24t23.5 10t24 -10t10 -24t-10 -23.5t-24 -9.5t-23.5 9.5t-9.5 23.5z" />
    <glyph glyph-name="dotlessi" unicode="&#x131;" horiz-adv-x="183" 
d="M67 189q0 29 -1 62t-4 61q15 -3 30 -3t29 3q-3 -28 -4 -61t-1 -62v-69q0 -30 1 -62.5t4 -60.5q-14 3 -29 3t-30 -3q3 28 4 60.5t1 62.5v69z" />
    <glyph glyph-name="Lslash" unicode="&#x141;" horiz-adv-x="330" 
d="M65 281q0 43 -2 85.5t-4 85.5q9 -2 16.5 -2.5t16.5 -0.5q15 0 32 3q-3 -43 -4 -85.5t-1 -85.5v-26q16 10 32.5 20.5t35.5 23.5l6 -12q4 -8 7 -12q-15 -7 -35.5 -19t-45.5 -26v-60q0 -48 0.5 -81t1.5 -61q46 0 88.5 1t93.5 7q-3 -9 -3 -20q0 -10 3 -19q-60 3 -122 3
q-61 0 -122 -3q2 42 4 85t2 86v28q-20 -12 -34.5 -21.5t-19.5 -14.5l-14 25l68 37v59z" />
    <glyph glyph-name="lslash" unicode="&#x142;" horiz-adv-x="183" 
d="M67 216l-47 -31q-3 5 -5.5 10t-6.5 10q13 7 28.5 16.5t30.5 19.5v65v23.5t-1 25.5l-1 52q0 26 -1 49t-2 40q15 -3 30 -3t29 3q-3 -25 -4 -64t-1 -77v-82q14 8 25.5 16t22.5 15q0 -11 12 -20q-9 -6 -23.5 -14t-36.5 -22v-111q0 -38 1 -77t4 -63q-14 3 -29 3t-30 -3
q1 16 2 39.5t1.5 49t1 52t0.5 49.5v29z" />
    <glyph glyph-name="OE" unicode="&#x152;" horiz-adv-x="660" 
d="M485 157v-33t1 -32l2 -64q72 0 109 2.5t54 4.5q-3 -11 -3 -19q0 -10 3 -19q-56 3 -110 3q-56 0 -113 -3q3 31 3 64l-1 2q-11 -13 -26.5 -26t-36.5 -24t-48.5 -18t-63.5 -7q-48 0 -89 15.5t-72 45t-48.5 72t-17.5 95.5q0 59 18 104.5t49.5 77t75 47.5t95.5 16
q42 0 71 -8.5t48.5 -20.5t30.5 -24.5t17 -20.5l1 2q0 16 -0.5 31.5t-1.5 31.5q28 -2 54.5 -2.5t53.5 -0.5q53 0 107 3q-4 -11 -4 -20q0 -12 4 -21q-10 2 -20.5 3.5t-27.5 3t-43 2.5t-68 1l-2 -58q-1 -14 -1 -28.5v-28.5v-55q40 0 65 0.5t40.5 1t25 1.5t18.5 2q-4 -9 -4 -18
q0 -12 4 -19q-9 0 -18.5 1t-25.5 1.5t-40.5 1.5t-64.5 1v-67zM92 224q0 -55 14 -95t37.5 -65.5t55 -38t66.5 -12.5q39 0 70.5 15t54 43t34.5 66.5t12 86.5q0 58 -12.5 98.5t-34.5 65.5t-52 36.5t-65 11.5q-38 0 -70.5 -12.5t-57 -38.5t-38.5 -66t-14 -95z" />
    <glyph glyph-name="oe" unicode="&#x153;" horiz-adv-x="587" 
d="M431 319q34 0 60 -11t43 -29.5t25.5 -43t8.5 -51.5q0 -6 -0.5 -12.5t-1.5 -13.5q-36 1 -71 1.5t-70 0.5q-22 0 -43 -0.5t-43 -1.5q-1 -3 -1 -10v-8q0 -53 29 -87.5t85 -34.5q27 0 53.5 13.5t45.5 33.5l3 -2l-4 -33q-20 -17 -49.5 -28.5t-60.5 -11.5q-42 0 -74 16t-54 43
q-24 -32 -57.5 -45.5t-71.5 -13.5q-29 0 -57.5 8.5t-51.5 28t-37 51t-14 76.5t14 76.5t37 51t51.5 28.5t57.5 9q37 0 70.5 -14t57.5 -44q19 28 48.5 43t71.5 15zM286 154q0 27 -5 53t-17 46.5t-32 32.5t-49 12t-48.5 -12t-31.5 -32.5t-17 -46.5t-5 -53q0 -28 5 -53.5
t17 -45.5t31.5 -32t48.5 -12t49 12t32 32t17 45.5t5 53.5zM432 298q-24 0 -41 -11.5t-28 -28.5t-16.5 -37t-6.5 -38q20 0 42.5 -1t43.5 -1q22 0 44 1t43 1q0 17 -3 37t-12 37.5t-25 29t-41 11.5z" />
    <glyph glyph-name="Scaron" unicode="&#x160;" horiz-adv-x="330" 
d="M50 84q10 -24 36 -46t68 -22q45 0 70 28t25 68q0 30 -15.5 47.5t-38.5 29.5t-50 22t-50 24.5t-38.5 38t-15.5 62.5q0 54 38.5 89.5t104.5 35.5q31 0 54 -7.5t44 -23.5q-6 -12 -10 -24.5t-8 -31.5h-8q-4 9 -9.5 20t-14.5 20t-22 15.5t-32 6.5q-38 0 -62 -23t-24 -59
q0 -31 15.5 -49t38.5 -30t50 -21.5t50 -23.5t38.5 -35.5t15.5 -57.5q0 -31 -11 -58t-32 -47.5t-51 -32t-67 -11.5q-42 0 -67 11.5t-42 26.5q7 15 8 27l2 14l2 17h8zM251 593h24l-81 -111h-44l-81 111h24l79 -70z" />
    <glyph glyph-name="scaron" unicode="&#x161;" horiz-adv-x="257" 
d="M47 60q6 -14 26.5 -29.5t47.5 -15.5q24 0 44 14.5t20 44.5q0 20 -11.5 31t-28.5 18t-37.5 12.5t-37.5 14.5t-28.5 25t-11.5 44q0 43 27.5 71.5t81.5 28.5q24 0 40.5 -7.5t33.5 -11.5q-6 -10 -11 -24.5t-5 -22.5h-8q-6 16 -21 28.5t-37 12.5q-20 0 -38 -13t-18 -42
q0 -21 11.5 -32.5t28.5 -18.5t37.5 -12t37.5 -14t28.5 -24.5t11.5 -43.5q0 -19 -8.5 -37.5t-23.5 -33.5t-37 -24t-49 -9q-31 0 -51.5 6.5t-34.5 15.5q4 8 8.5 23t4.5 25h8zM207 479h25l-82 -110h-44l-81 110h24l80 -69z" />
    <glyph glyph-name="Ydieresis" unicode="&#x178;" horiz-adv-x="403" 
d="M175 184q-7 11 -19.5 32.5t-28 48t-32.5 55t-32.5 54.5t-28 46.5t-19.5 31.5q8 -2 17.5 -2.5t18.5 -0.5q18 0 36 3q28 -57 59.5 -112.5t66.5 -115.5q30 48 64 109.5t60 118.5q13 -3 26 -3q12 0 26 3q-32 -49 -57 -88t-44.5 -70.5t-34 -56.5t-24.5 -46v-52
q0 -40 1.5 -79.5t3.5 -62.5q-17 3 -32 3q-16 0 -32 -3q3 26 4 61.5t1 72.5v53zM110 534q0 13 9.5 23.5t23.5 10.5t24 -10.5t10 -23.5q0 -15 -10 -24.5t-24 -9.5t-23.5 9.5t-9.5 24.5zM240 534q0 13 9.5 23.5t23.5 10.5t24 -10.5t10 -23.5q0 -15 -10 -24.5t-24 -9.5
t-23.5 9.5t-9.5 24.5z" />
    <glyph glyph-name="Zcaron" unicode="&#x17d;" horiz-adv-x="403" 
d="M15 8q26 35 55 76t58 82.5t56 81.5t50 74t40.5 59.5t26.5 38.5q-12 0 -24 0.5t-22 0.5q-24 0 -53.5 -1t-58.5 -2.5t-56 -3t-45 -3.5q1 5 2.5 10t1.5 11q0 4 -1.5 9t-2.5 11q16 -1 41.5 -2t61.5 -1h172q18 0 36 1t35 2v-12q-13 -14 -37 -45.5t-52.5 -72t-60 -85t-59 -85.5
t-49 -73.5t-30.5 -48.5q8 -1 15 -1.5t13 -0.5h26q25 0 58.5 0.5t66.5 2t62 4t47 5.5q-3 -12 -3 -22q0 -11 3 -21q-48 0 -83 1.5t-72 1.5q-26 0 -58.5 -0.5t-64 -1t-57.5 -1t-38 -0.5v11zM280 593h25l-81 -111h-44l-82 111h25l79 -70z" />
    <glyph glyph-name="zcaron" unicode="&#x17e;" horiz-adv-x="330" 
d="M22 6q28 34 58 73t58.5 76.5t53.5 71t43 57.5q-5 0 -26.5 -1t-49.5 -2t-56 -3t-47 -3q1 4 1.5 8t0.5 10q0 4 -0.5 8.5t-1.5 10.5q21 -2 62.5 -2.5t102.5 -0.5h25q18 0 31.5 0.5t30.5 2.5v-10q-27 -34 -58.5 -75.5t-61 -80.5t-54 -72t-36.5 -50h49q18 0 34.5 0.5t35 1.5
t40 3t47.5 5q-1 -5 -1.5 -10t-0.5 -9q0 -8 2 -18q-42 1 -82.5 2t-82.5 1h-30t-29 -1l-58 -2v9zM244 479h25l-82 -110h-44l-81 110h24l80 -69z" />
    <glyph glyph-name="florin" unicode="&#x192;" 
d="M36 -77q6 -3 13.5 -6.5t16.5 -3.5q26 0 36 19.5t16 55.5l42 230h-39h-17.5t-14.5 -1q2 5 4 13t2 15q11 -2 30.5 -3t38.5 -1l8 32q5 22 15.5 47t26.5 46t36.5 34.5t46.5 13.5q4 0 10.5 -1.5t11.5 -2.5q-3 -10 -5 -25t-2 -29l-8 -3q-6 7 -15 13.5t-20 6.5q-14 0 -24.5 -8.5
t-15.5 -35.5l-16 -90q22 0 40 1.5t33 2.5q-3 -6 -4.5 -14t-1.5 -15q-8 1 -16 1h-18h-37l-26 -136q-13 -70 -31.5 -111.5t-40 -63.5t-44.5 -28.5t-45 -6.5q4 15 7 27.5t3 24.5z" />
    <glyph glyph-name="circumflex" unicode="&#x2c6;" horiz-adv-x="220" 
d="M110 438l-79 -69h-24l81 110h44l81 -110h-24z" />
    <glyph glyph-name="caron" unicode="&#x2c7;" horiz-adv-x="220" 
d="M189 479h24l-81 -110h-44l-81 110h24l79 -69z" />
    <glyph glyph-name="breve" unicode="&#x2d8;" horiz-adv-x="220" 
d="M38 473q6 -30 22.5 -46.5t49.5 -16.5q34 0 48.5 16t22.5 47h22q0 -43 -23.5 -73.5t-69.5 -30.5q-48 0 -70.5 30.5t-22.5 73.5h21z" />
    <glyph glyph-name="dotaccent" unicode="&#x2d9;" horiz-adv-x="220" 
d="M77 418q0 14 9.5 24t23.5 10t24 -10t10 -24t-10 -23.5t-24 -9.5t-23.5 9.5t-9.5 23.5z" />
    <glyph glyph-name="ring" unicode="&#x2da;" horiz-adv-x="220" 
d="M42 426q0 27 20 47t48 20q27 0 47.5 -20t20.5 -47q0 -28 -20.5 -48t-47.5 -20q-28 0 -48 20t-20 48zM70 426q0 -17 11.5 -28.5t28.5 -11.5q16 0 28 11.5t12 28.5q0 16 -12 27.5t-28 11.5q-17 0 -28.5 -11.5t-11.5 -27.5z" />
    <glyph glyph-name="ogonek" unicode="&#x2db;" horiz-adv-x="220" 
d="M175 0q-19 -18 -30.5 -30.5t-18 -22t-9 -17t-2.5 -14.5q0 -24 14.5 -31.5t30.5 -7.5q12 0 21 4l7 -22q-15 -7 -38 -7q-30 0 -52.5 14t-22.5 42q0 37 73 92h27z" />
    <glyph glyph-name="tilde" unicode="&#x2dc;" horiz-adv-x="220" 
d="M1 385q2 11 7 23t13.5 22t20.5 16.5t28 6.5q11 0 20.5 -3.5t27.5 -11.5q19 -11 26.5 -13t17.5 -2q15 0 24 10t13 23h19q-1 -8 -5 -20t-12.5 -23.5t-21.5 -19.5t-32 -8q-10 0 -21.5 3.5t-26.5 12.5q-18 9 -26.5 12t-16.5 3q-15 0 -22 -6.5t-13 -24.5h-20z" />
    <glyph glyph-name="hungarumlaut" unicode="&#x2dd;" horiz-adv-x="220" 
d="M95 467q13 16 30 16q6 0 14 -5.5t8 -15.5q0 -12 -8.5 -19t-15.5 -12l-97 -62h-28zM227 467q13 16 30 16q6 0 14 -5.5t8 -15.5q0 -12 -8.5 -19t-15.5 -12l-97 -62h-28z" />
    <glyph glyph-name="pi" unicode="&#x3c0;" horiz-adv-x="357" 
d="M342 7q-11 -5 -21 -8t-22 -3q-20 0 -30.5 6t-16 16.5t-6.5 24t-1 28.5v185h-154v-256h-47v256h-43v44h339v-44h-48v-187q0 -14 3.5 -23.5t20.5 -9.5q12 0 26 7v-36z" />
    <glyph glyph-name="uni066D" unicode="&#x66d;" horiz-adv-x="535" 
d="M316 258h174l-140 -106l50 -159l-135 99l-140 -99l54 162l-139 103h173l52 164z" />
    <glyph glyph-name="uni0E01" unicode="&#xe01;" horiz-adv-x="424" 
d="M359 42l-49 -49v292q0 42 -29 72t-93 30q-53 0 -86.5 -21.5t-37.5 -57.5h129v-23h-66v-285h-49v285h-38v11q0 21 9 42t28.5 38t48.5 27.5t70 10.5q49 0 81 -15t50 -36t25 -43.5t7 -36.5v-241z" />
    <glyph glyph-name="uni0E02" unicode="&#xe02;" horiz-adv-x="427" 
d="M310 374l49 47v-331q0 -48 -24 -72.5t-66 -24.5t-68.5 24.5t-26.5 72.5v204q0 43 -21.5 65t-45.5 22q-26 0 -47 -19.5t-21 -59.5q0 -27 11.5 -40.5t28.5 -13.5q13 0 21 7.5t8 16.5q0 26 -26 26h-6q-4 0 -6 -1v20q3 1 8 2.5t11 1.5q20 0 36 -15t16 -34q0 -57 -64 -57
q-22 0 -42 21.5t-20 63.5q0 22 8 42.5t21.5 36.5t32 25.5t40.5 9.5q20 0 39 -7t34 -22t24 -38t9 -54v-209q0 -35 12.5 -51.5t33.5 -16.5q17 0 29 16.5t12 51.5v290z" />
    <glyph glyph-name="uni0E03" unicode="&#xe03;" horiz-adv-x="478" 
d="M361 374l49 47v-331q0 -48 -24 -72.5t-66 -24.5t-68.5 24.5t-26.5 72.5v207q0 42 -9.5 59t-21.5 17q-11 0 -24 -13.5t-23 -38.5h-14q-15 25 -26.5 35.5t-19.5 10.5q-11 0 -23 -22t-12 -56q0 -45 16.5 -68t37.5 -23q13 0 21 7.5t8 16.5q0 26 -26 26h-6q-4 0 -6 -1v20
q3 1 8 2.5t11 1.5q20 0 36 -15t16 -34q0 -57 -64 -57q-28 0 -52 32t-24 94t18 92.5t34 30.5q18 0 58 -60h3q15 32 31 45q16 15 37 15q26 0 45.5 -21t19.5 -66v-243q0 -35 12.5 -51.5t33.5 -16.5q17 0 29 16.5t12 51.5v290z" />
    <glyph glyph-name="uni0E04" unicode="&#xe04;" horiz-adv-x="434" 
d="M367 0h-49v285q0 42 -29 72t-92 30q-34 0 -59 -10t-42 -26t-25.5 -36.5t-8.5 -42.5q0 -9 2 -20t5.5 -21t8 -17.5t8.5 -10.5v27q0 33 21 55.5t56 22.5q23 0 41.5 -16.5t18.5 -42.5q0 -22 -17 -37.5t-37 -15.5q-13 0 -20.5 3t-11.5 6h-2v-205h-49v167q-23 23 -36 50
q-12 25 -12 56q0 25 10 50.5t30.5 45.5t50.5 32.5t70 12.5q51 0 84 -15t51.5 -36t25.5 -43.5t7 -36.5v-283zM199 251q0 13 -9.5 22.5t-22.5 9.5q-14 0 -23 -10t-9 -21v-21q2 -3 10.5 -7.5t19.5 -4.5q15 0 24.5 9t9.5 23z" />
    <glyph glyph-name="uni0E05" unicode="&#xe05;" horiz-adv-x="444" 
d="M85 171q-24 18 -34 46q-6 13 -8.5 26t-2.5 24q0 36 12 63.5t28.5 46t34 28t27.5 9.5q13 0 29 -15t37 -49h5q17 28 36 46t33 18q12 0 28 -10t30.5 -25.5t25 -35.5t10.5 -41v-302h-49v291q0 17 -5.5 32t-13.5 26t-17.5 17.5t-16.5 6.5q-11 0 -26 -13.5t-29 -42.5h-16
q-18 20 -32.5 38t-34.5 18q-13 0 -26 -8.5t-23 -23.5t-16.5 -35t-6.5 -43q0 -17 7 -35.5t15 -24.5q7 30 26.5 45t49.5 15q23 0 41.5 -16.5t18.5 -42.5q0 -22 -17 -37.5t-37 -15.5q-13 0 -20.5 3t-11.5 6h-2v-160h-49v171zM198 206q0 13 -9.5 22.5t-22.5 9.5q-14 0 -23 -10
t-9 -21v-21q2 -3 10.5 -7.5t19.5 -4.5q15 0 24.5 9t9.5 23z" />
    <glyph glyph-name="uni0E06" unicode="&#xe06;" horiz-adv-x="525" 
d="M225 297q0 42 -9.5 59t-21.5 17q-11 0 -24 -13.5t-23 -38.5h-14q-15 25 -26.5 35.5t-19.5 10.5q-11 0 -23 -22t-12 -56q0 -45 16.5 -68t37.5 -23q13 0 21 7.5t8 16.5q0 26 -26 26h-6q-4 0 -6 -1v20q3 1 8 2.5t11 1.5q20 0 36 -15t16 -34q0 -57 -64 -57q-28 0 -52 32
t-24 94t18 92.5t34 30.5q18 0 58 -60h3q15 32 31 45q16 15 37 15q26 0 45.5 -21t19.5 -66v-189q45 -6 78.5 -25t53.5 -42h2v303l49 47v-421h-52q-18 51 -52 79.5t-79 35.5v-57q0 -27 -18 -46t-51 -19q-30 0 -45.5 18.5t-15.5 37.5q0 26 19.5 50.5t61.5 34.5v163zM225 111
q-27 -6 -42 -23.5t-15 -37.5q0 -18 9 -25t18 -7q14 0 22 10.5t8 22.5v60z" />
    <glyph glyph-name="uni0E07" unicode="&#xe07;" horiz-adv-x="316" 
d="M203 0l-206 212l10 15l192 -174v258h-2q-4 -3 -11.5 -6t-20.5 -3q-21 0 -37.5 15.5t-16.5 37.5q0 26 17.5 42.5t42.5 16.5q34 0 55.5 -22.5t21.5 -55.5v-336h-45zM135 357q0 -14 9.5 -23t24.5 -9q10 0 18.5 4.5t11.5 7.5v21q0 11 -9.5 21t-22.5 10q-14 0 -23 -9.5
t-9 -22.5z" />
    <glyph glyph-name="uni0E08" unicode="&#xe08;" horiz-adv-x="372" 
d="M119 221h-2q-4 -3 -11.5 -6t-20.5 -3q-21 0 -37.5 15.5t-16.5 37.5q0 26 17.5 42.5t42.5 16.5q34 0 55.5 -22.5t21.5 -55.5v-162q0 -35 12.5 -51.5t33.5 -16.5q17 0 29 16.5t12 51.5v196q0 51 -30 76t-73 25q-45 0 -76 -16t-54 -43l-14 12q40 46 76 63t79 17q34 0 60 -11
t44 -29t27.5 -41t9.5 -47v-196q0 -48 -24 -72.5t-66 -24.5t-68.5 24.5t-26.5 72.5v131zM55 267q0 -14 9.5 -23t24.5 -9q10 0 18.5 4.5t11.5 7.5v21q0 11 -9.5 21t-22.5 10q-14 0 -23 -9.5t-9 -22.5z" />
    <glyph glyph-name="uni0E09" unicode="&#xe09;" horiz-adv-x="468" 
d="M117 221h-2q-4 -3 -11.5 -6t-20.5 -3q-21 0 -37.5 15.5t-16.5 37.5q0 26 17.5 42.5t42.5 16.5q34 0 55.5 -22.5t21.5 -55.5v-171h2q11 13 26.5 24.5t33 20t36 13t34.5 4.5q13 0 25 -3t21 -7v153q0 21 -12.5 39.5t-32.5 32t-46 21.5t-53 8q-30 0 -63 -10.5t-59 -26.5
l-11 19q40 25 79.5 38t73.5 13q39 0 71 -11t54.5 -28t35 -39t12.5 -43v-154q0 -5 -5.5 -12.5t-10.5 -11.5q25 -15 35 -33.5t10 -34.5q0 -24 -19.5 -39t-40.5 -15q-23 0 -40.5 16.5t-17.5 38.5q0 31 31 59q-19 7 -36 7q-23 0 -45 -8.5t-41 -23.5t-32.5 -36t-19.5 -46h-44v221
zM53 267q0 -14 9.5 -23t24.5 -9q10 0 18.5 4.5t11.5 7.5v21q0 11 -9.5 21t-22.5 10q-14 0 -23 -9.5t-9 -22.5zM362 18q14 0 23.5 11t9.5 23q0 13 -10 26t-26 19q-12 -8 -20 -20t-8 -26t9.5 -23.5t21.5 -9.5z" />
    <glyph glyph-name="uni0E0A" unicode="&#xe0a;" horiz-adv-x="429" 
d="M174 294q0 43 -21.5 65t-45.5 22q-26 0 -47 -19.5t-21 -59.5q0 -27 11.5 -40.5t28.5 -13.5q13 0 21 7.5t8 16.5q0 26 -26 26h-6q-4 0 -6 -1v20q3 1 8 2.5t11 1.5q20 0 36 -15t16 -34q0 -57 -64 -57q-22 0 -42 21.5t-20 63.5q0 22 8 42.5t21.5 36.5t32 25.5t40.5 9.5
q21 0 40 -8t33.5 -22t23.5 -35t9 -46h17q13 0 29 8t31 23t26 35.5t14 44.5h63q-3 -20 -13.5 -40t-25.5 -37t-33 -29.5t-35 -16.5l-2 -2q16 -8 28.5 -17t20.5 -22.5t12 -32t4 -46.5v-56q0 -20 -5.5 -40.5t-16 -37t-26 -27t-34.5 -10.5h-141v23h38v271zM223 23h28
q30 0 44.5 18.5t14.5 72.5v57q0 33 -3.5 54.5t-11 33.5t-18.5 16.5t-26 4.5h-28v-257z" />
    <glyph glyph-name="uni0E0B" unicode="&#xe0b;" horiz-adv-x="478" 
d="M225 297q0 42 -9.5 59t-21.5 17q-11 0 -24 -13.5t-23 -38.5h-14q-15 25 -26.5 35.5t-19.5 10.5q-11 0 -23 -22t-12 -56q0 -45 16.5 -68t37.5 -23q13 0 21 7.5t8 16.5q0 26 -26 26h-6q-4 0 -6 -1v20q3 1 8 2.5t11 1.5q20 0 36 -15t16 -34q0 -57 -64 -57q-28 0 -52 32
t-24 94t18 92.5t34 30.5q18 0 58 -60h3q15 32 31 45q16 15 37 15q26 0 45.5 -21t19.5 -66v-24h17q13 0 29 8t31 23t26 35.5t14 44.5h63q-3 -20 -13.5 -40t-25.5 -37t-33 -29.5t-35 -16.5l-2 -2q16 -8 28.5 -17t20.5 -22.5t12 -32t4 -46.5v-56q0 -20 -5.5 -40.5t-16 -37
t-26 -27t-34.5 -10.5h-141v23h38v274zM274 23h28q15 0 26 4t18.5 14t11 27.5t3.5 45.5v57q0 33 -3.5 54.5t-11 33.5t-18.5 16.5t-26 4.5h-28v-257z" />
    <glyph glyph-name="uni0E0C" unicode="&#xe0c;" horiz-adv-x="610" 
d="M542 0h-52q-18 51 -52 79.5t-79 35.5v-57q0 -27 -18 -46t-51 -19q-30 0 -45.5 18.5t-15.5 37.5q0 26 19.5 50.5t61.5 34.5v151q0 42 -29 72t-93 30q-53 0 -86.5 -21.5t-37.5 -57.5h129v-23h-66v-170q23 -2 42.5 -16.5t19.5 -47.5q0 -25 -17.5 -41.5t-45.5 -16.5
q-29 0 -46.5 17.5t-17.5 44.5q0 11 4 23.5t12 21.5v185h-38v11q0 21 9 42t28.5 38t48.5 27.5t70 10.5q49 0 81 -15t50 -36t25 -43.5t7 -36.5v-145q23 -3 41 -9t33.5 -15t29.5 -20t30 -23v303l49 47v-421zM310 111q-27 -6 -42 -23.5t-15 -37.5q0 -18 9 -25t18 -7
q14 0 22 10.5t8 22.5v60zM128 16q15 0 26 11t11 26t-11 26t-26 11t-26 -11t-11 -26t11 -26t26 -11z" />
    <glyph glyph-name="uni0E0D" unicode="&#xe0d;" horiz-adv-x="576" 
d="M508 -114q0 -27 -28 -45.5t-73 -18.5q-47 0 -79 21.5t-32 57.5q0 12 4.5 23t12.5 19.5t18 14t21 5.5q25 0 34 -13.5t9 -23.5q0 -12 -9.5 -21t-20.5 -9q-23 0 -31 20q-14 -5 -14 -22q0 -18 17 -28.5t52 -10.5q23 0 37 1t21.5 4.5t9.5 9.5t2 15v64q0 10 7 16.5t18 6.5h24
v-86zM508 90q0 -97 -97 -97q-46 0 -73.5 24.5t-27.5 72.5v195q0 42 -29 72t-93 30q-53 0 -86.5 -21.5t-37.5 -57.5h129v-23h-66v-189h2q4 3 11.5 6t20.5 3q10 0 19.5 -4.5t17 -12t12.5 -17t5 -19.5q0 -28 -18.5 -43.5t-41.5 -15.5q-35 0 -56 22.5t-21 55.5v214h-38v11
q0 21 9 42t28.5 38t48.5 27.5t70 10.5q49 0 81 -15t50 -36t25 -43.5t7 -36.5v-199q0 -68 50 -68t50 68v290l49 47v-331zM191 50q0 13 -9.5 22.5t-24.5 9.5q-11 0 -19.5 -4.5t-10.5 -7.5v-21q0 -12 9 -21.5t23 -9.5q13 0 22.5 9t9.5 23z" />
    <glyph glyph-name="uni0E0E" unicode="&#xe0e;" horiz-adv-x="463" 
d="M285 28q-18 -13 -30.5 -33t-16.5 -49q31 -9 59.5 -27t48.5 -39v405q0 42 -29 72t-93 30q-53 0 -86.5 -21.5t-37.5 -57.5h129v-23h-66v-214q0 -33 -21.5 -55.5t-55.5 -22.5q-25 0 -42.5 15.5t-17.5 43.5q0 20 16.5 36.5t37.5 16.5q13 0 20.5 -3t11.5 -6h2v189h-38v11
q0 21 9 42t28.5 38t48.5 27.5t70 10.5q49 0 81 -15t50 -36t25 -43.5t7 -36.5v-486h-47q-8 35 -36 69t-77 52q1 -8 3 -19.5t2 -22.5q0 -29 -20 -45t-43 -16q-26 0 -46.5 17.5t-20.5 46.5q0 24 22 47t69 23h13q8 39 21.5 59t41.5 36zM165 -152q19 0 32.5 16.5t15.5 39.5v10
q0 6 -1 10q-5 1 -11.5 1.5t-10.5 0.5q-23 0 -39.5 -15t-16.5 -31q0 -12 8.5 -22t22.5 -10zM50 50q0 -14 9 -23t23 -9q13 0 22.5 9.5t9.5 21.5v21q-3 3 -11.5 7.5t-18.5 4.5q-15 0 -24.5 -9.5t-9.5 -22.5z" />
    <glyph glyph-name="uni0E0F" unicode="&#xe0f;" horiz-adv-x="463" 
d="M280 5q-22 -6 -42 -26.5t-26 -53.5q10 -10 20 -30.5t13 -49.5l2 -2q6 8 20 15.5t34 7.5q14 0 25.5 -4.5t19.5 -9.5v433q0 42 -29 72t-93 30q-54 0 -87 -21.5t-37 -57.5h129v-23h-66v-214q0 -33 -21.5 -55.5t-55.5 -22.5q-25 0 -42.5 15.5t-17.5 43.5q0 20 16.5 36.5
t37.5 16.5q13 0 20.5 -3t11.5 -6h2v189h-38v11q0 21 9 42t28.5 38t48.5 27.5t70 10.5q49 0 81 -15t50 -36t25 -43.5t7 -36.5v-486h-47q-8 24 -20.5 34t-31.5 10q-21 0 -35.5 -13t-18.5 -31h-20v37q0 12 -3.5 31t-11.5 30q0 -43 -18 -62.5t-46 -19.5q-23 0 -40 19t-17 46
q0 32 21.5 51t47.5 19q12 0 21.5 -3.5t13.5 -5.5q11 32 33 55.5t50 29.5zM146 -146q15 0 27.5 13t12.5 49q-3 3 -10 6t-14 3q-27 0 -39.5 -13t-12.5 -26q0 -15 11.5 -23.5t24.5 -8.5zM50 50q0 -14 9 -23t23 -9q13 0 22.5 9.5t9.5 21.5v21q-3 3 -11.5 7.5t-18.5 4.5
q-15 0 -24.5 -9.5t-9.5 -22.5z" />
    <glyph glyph-name="uni0E10" unicode="&#xe10;" horiz-adv-x="373" 
d="M148 -37q-7 -9 -15 -21.5t-10 -19.5q27 -15 42 -45t20 -65h50q14 0 23.5 12.5t9.5 21.5v8q-8 -6 -22 -6q-22 0 -37 15t-15 38q0 25 15.5 39.5t39.5 14.5q20 0 38 -17t18 -43q0 -18 -2.5 -37.5t-10.5 -36t-23.5 -27.5t-41.5 -11h-69q0 55 -14 81t-27 34q2 -10 2 -28
q0 -21 -17 -42.5t-47 -21.5q-18 0 -34.5 15.5t-16.5 42.5q0 14 7 26t17.5 20.5t23 13.5t22.5 5q17 0 25 -3q4 14 12.5 27t16.5 22zM31 -138q0 -13 7 -22t19 -9t26 15.5t12 57.5q-10 2 -17 2q-15 0 -31 -12.5t-16 -31.5zM219 -97q0 -13 8 -21.5t20 -8.5q10 0 19.5 8.5
t9.5 21.5q0 9 -9.5 18t-19.5 9q-12 0 -20 -9t-8 -18zM303 64q0 -27 -22.5 -49t-58.5 -22q-38 0 -61 23t-23 57v131h-2q-4 -3 -11.5 -6t-20.5 -3q-21 0 -37.5 15.5t-16.5 37.5q0 26 17.5 42.5t42.5 16.5q34 0 55.5 -22.5t21.5 -55.5v-170q0 -24 10.5 -33.5t24.5 -9.5
q13 0 22.5 9.5t9.5 33.5v181q0 28 -10 47.5t-26.5 32t-38 18t-44.5 5.5q-32 0 -55.5 -8t-41.5 -21l-12 17q35 110 138 110q19 0 34 -3t28 -7q13 -5 24.5 -8t25.5 -3q18 0 29 4t17.5 10t9.5 11.5t6 8.5l13 -8q-11 -28 -36 -43.5t-57 -15.5q-20 0 -56 11q-17 4 -33 7t-29 3
q-35 0 -54 -17t-32 -40l2 -2q19 11 44 16t45 5q39 0 69 -11.5t49.5 -31t29.5 -45t10 -54.5v-164zM74 250q0 -14 9.5 -23t24.5 -9q10 0 18.5 4.5t11.5 7.5v21q0 11 -9.5 21t-22.5 10q-14 0 -23 -9.5t-9 -22.5z" />
    <glyph glyph-name="uni0E11" unicode="&#xe11;" horiz-adv-x="571" 
d="M454 326q0 25 -10.5 40t-31.5 15q-9 0 -16.5 -5t-15 -18t-15.5 -36t-17 -60l-67 -262h-56v297q0 42 -9.5 59t-21.5 17q-11 0 -24 -13.5t-23 -38.5h-14q-15 25 -26.5 35.5t-19.5 10.5q-11 0 -23 -22t-12 -56q0 -45 16.5 -68t37.5 -23q13 0 21 7.5t8 16.5q0 26 -26 26h-6
q-4 0 -6 -1v20q3 1 8 2.5t11 1.5q20 0 36 -15t16 -34q0 -57 -64 -57q-28 0 -52 32t-24 94t18 92.5t34 30.5q18 0 58 -60h3q15 32 31 45q16 15 37 15q26 0 45.5 -21t19.5 -66v-237h2l53 203q10 41 21 65t23 36.5t24 16t25 3.5q19 0 34 -7.5t25.5 -18.5t16 -25t5.5 -27v-336
h-49v326z" />
    <glyph glyph-name="uni0E12" unicode="&#xe12;" horiz-adv-x="627" 
d="M327 291q0 17 -5.5 32t-13.5 26t-17.5 17.5t-16.5 6.5q-11 0 -26 -13.5t-29 -42.5h-16q-9 10 -16.5 20t-15.5 19q-8 7 -16.5 12t-18.5 5q-9 0 -19.5 -8t-20.5 -22t-16.5 -34.5t-6.5 -44.5q0 -20 6 -40.5t14.5 -41t19 -41t19.5 -41.5l1 -1q11 18 28 41t31 35
q16 14 23 28.5t7 24.5q0 19 -10 30t-24 11t-24 -10.5t-10 -24.5q0 -17 9 -26l-17 -11q-6 5 -11 16t-5 19q0 22 16 43t48 21q27 0 46 -18t19 -52q0 -18 -11.5 -39.5t-33.5 -37.5q-24 -19 -39 -34t-23.5 -28.5t-11.5 -26.5t-3 -28v-32h-49v87q0 10 -7.5 29.5t-16.5 44.5
t-16.5 52.5t-7.5 53.5q0 36 12 63.5t28.5 46t34 28t27.5 9.5q13 0 29 -15t37 -49h5q17 27 36 46q19 18 33 18q12 0 28 -10t30.5 -25.5t25 -35.5t10.5 -41v-164q23 -3 41 -9t33.5 -15t29.5 -20t30 -23v303l49 47v-421h-52q-18 51 -52 79.5t-79 35.5v-57q0 -27 -18 -46
t-51 -19q-30 0 -45.5 18.5t-15.5 37.5q0 26 19.5 50.5t61.5 34.5v157zM327 111q-27 -6 -42 -23.5t-15 -37.5q0 -18 9 -25t18 -7q14 0 22 10.5t8 22.5v60z" />
    <glyph glyph-name="uni0E13" unicode="&#xe13;" horiz-adv-x="591" 
d="M519 139q0 -5 -5.5 -12.5t-10.5 -11.5q25 -15 35 -33.5t10 -34.5q0 -24 -19.5 -39t-40.5 -15q-23 0 -40.5 16.5t-17.5 38.5q0 33 30 57q-6 2 -16 2.5t-16 0.5q-12 0 -24 -6t-21.5 -15.5t-16 -21t-7.5 -23.5v-49h-49v292q0 42 -29 72t-93 30q-53 0 -86.5 -21.5
t-37.5 -57.5h129v-23h-66v-189h2q4 3 11.5 6t20.5 3q10 0 19.5 -4.5t17 -12t12.5 -17t5 -19.5q0 -28 -18.5 -43.5t-41.5 -15.5q-35 0 -56 22.5t-21 55.5v214h-38v11q0 21 9 42t28.5 38t48.5 27.5t70 10.5q49 0 81 -15t50 -36t25 -43.5t7 -36.5v-190h2q3 6 10.5 13t17 13
t20.5 10t21 4q23 0 40 -6v247l49 47v-282zM488 18q14 0 23.5 11t9.5 23q0 13 -10 26t-26 19q-12 -8 -20 -20t-8 -26t9.5 -23.5t21.5 -9.5zM191 50q0 13 -9.5 22.5t-24.5 9.5q-11 0 -19.5 -4.5t-10.5 -7.5v-21q0 -12 9 -21.5t23 -9.5q13 0 22.5 9t9.5 23z" />
    <glyph glyph-name="uni0E14" unicode="&#xe14;" horiz-adv-x="439" 
d="M322 265q0 25 -9 48.5t-24.5 41.5t-38 28.5t-49.5 10.5t-50 -9.5t-40.5 -27t-27.5 -43t-10 -56.5q0 -37 20 -82q10 -22 19 -41t15 -35l1 -1q11 18 28 41t31 35q16 14 23 28.5t7 24.5q0 19 -10 30t-24 11t-24 -10.5t-10 -24.5q0 -17 9 -26l-17 -11q-6 5 -11 16t-5 19
q0 22 16 43t48 21q27 0 46 -18t19 -52q0 -18 -11.5 -39.5t-33.5 -37.5q-24 -19 -39 -34t-23.5 -28.5t-11.5 -26.5t-3 -28v-32h-49v90q0 9 -7 25t-14 38q-9 22 -15.5 48t-6.5 55q0 28 11.5 57.5t33 53.5t52 39t68.5 15q39 0 69.5 -12.5t52 -33t33 -46.5t11.5 -52v-277h-49
v265z" />
    <glyph glyph-name="uni0E15" unicode="&#xe15;" horiz-adv-x="444" 
d="M88 87q0 10 -7.5 29.5t-16.5 44.5t-16.5 52.5t-7.5 53.5q0 36 12 63.5t28.5 46t34 28t27.5 9.5q13 0 29 -15t37 -49h5q17 27 36 46q19 18 33 18q12 0 28 -10t30.5 -25.5t25 -35.5t10.5 -41v-302h-49v291q0 17 -5.5 32t-13.5 26t-17.5 17.5t-16.5 6.5q-11 0 -26 -13.5
t-29 -42.5h-16q-9 10 -16.5 20t-15.5 19q-8 7 -16.5 12t-18.5 5q-9 0 -19.5 -8t-20.5 -22t-16.5 -34.5t-6.5 -44.5q0 -20 6 -40.5t14.5 -41t19 -41t19.5 -41.5l1 -1q11 18 28 41t31 35q16 14 23 28.5t7 24.5q0 19 -10 30t-24 11t-24 -10.5t-10 -24.5q0 -17 9 -26l-17 -11
q-6 5 -11 16t-5 19q0 22 16 43t48 21q27 0 46 -18t19 -52q0 -18 -11.5 -39.5t-33.5 -37.5q-24 -19 -39 -34t-23.5 -28.5t-11.5 -26.5t-3 -28v-32h-49v87z" />
    <glyph glyph-name="uni0E16" unicode="&#xe16;" horiz-adv-x="427" 
d="M359 42l-49 -49v292q0 42 -29 72t-93 30q-53 0 -86.5 -21.5t-37.5 -57.5h129v-23h-66v-189h2q4 3 11.5 6t20.5 3q10 0 19.5 -4.5t17 -12t12.5 -17t5 -19.5q0 -28 -18.5 -43.5t-41.5 -15.5q-35 0 -56 22.5t-21 55.5v214h-38v11q0 21 9 42t28.5 38t48.5 27.5t70 10.5
q49 0 81 -15t50 -36t25 -43.5t7 -36.5v-241zM191 50q0 13 -9.5 22.5t-24.5 9.5q-11 0 -19.5 -4.5t-10.5 -7.5v-21q0 -12 9 -21.5t23 -9.5q13 0 22.5 9t9.5 23z" />
    <glyph glyph-name="uni0E17" unicode="&#xe17;" horiz-adv-x="471" 
d="M166 90h2l53 201q11 40 21 64.5t21 37.5t23.5 17t27.5 4q19 0 34 -7.5t25.5 -18.5t16 -25t5.5 -27v-336h-49v326q0 25 -11.5 40t-37.5 15q-8 0 -15 -4.5t-14.5 -17.5t-15 -36.5t-16.5 -60.5l-67 -262h-52v311h-2q-4 -3 -11.5 -6t-20.5 -3q-21 0 -37.5 15.5t-16.5 37.5
q0 26 17.5 42.5t42.5 16.5q34 0 55.5 -22.5t21.5 -55.5v-246zM53 357q0 -14 9.5 -23t24.5 -9q10 0 18.5 4.5t11.5 7.5v21q0 11 -9.5 21t-22.5 10q-14 0 -23 -9.5t-9 -22.5z" />
    <glyph glyph-name="uni0E18" unicode="&#xe18;" horiz-adv-x="377" 
d="M123 286q-54 6 -72 22t-18 38q0 13 6 26.5t18 24t29.5 17.5t41.5 7q28 0 51.5 -7t43.5 -15q19 -9 34.5 -16t28.5 -7q29 0 34 38h17q0 -36 -19 -60.5t-47 -24.5q-12 0 -22.5 2t-23.5 8t-30 16.5t-41 26.5q-12 -8 -12 -18q0 -3 4.5 -8.5t10.5 -12.5t10.5 -15t4.5 -16v-15
q19 -4 33 -8t28 -7q21 -5 35 -14.5t23 -21.5t13 -25t4 -24v-105q0 -17 -6 -33.5t-16.5 -29.5t-26 -21t-33.5 -8h-141v23h38v263zM172 23h28q34 0 46.5 20.5t12.5 47.5v96q0 35 -17.5 56t-69.5 33v-253zM123 350q0 7 1.5 16t5.5 19q-6 1 -14.5 2t-15.5 1q-17 0 -30 -10
t-13 -31q0 -14 13.5 -25.5t52.5 -17.5v46z" />
    <glyph glyph-name="uni0E19" unicode="&#xe19;" horiz-adv-x="467" 
d="M166 75h2q11 13 26.5 24.5t33 20t36 13t34.5 4.5q13 0 25 -3t21 -7v247l49 47v-282q0 -5 -5.5 -12.5t-10.5 -11.5q25 -15 35 -33.5t10 -34.5q0 -24 -19.5 -39t-40.5 -15q-23 0 -40.5 16.5t-17.5 38.5q0 13 7.5 30t23.5 29q-19 7 -36 7q-23 0 -45 -8.5t-41 -23.5
t-32.5 -36t-19.5 -46h-44v311h-2q-4 -3 -11.5 -6t-20.5 -3q-21 0 -37.5 15.5t-16.5 37.5q0 26 17.5 42.5t42.5 16.5q34 0 55.5 -22.5t21.5 -55.5v-261zM53 357q0 -14 9.5 -23t24.5 -9q10 0 18.5 4.5t11.5 7.5v21q0 11 -9.5 21t-22.5 10q-14 0 -23 -9.5t-9 -22.5zM362 18
q14 0 23.5 11t9.5 23q0 13 -10 26t-26 19q-12 -8 -20 -20t-8 -26t9.5 -23.5t21.5 -9.5z" />
    <glyph glyph-name="uni0E1A" unicode="&#xe1a;" horiz-adv-x="455" 
d="M387 78q0 -33 -23 -55.5t-59 -22.5h-237v23h49v288h-2q-4 -3 -11.5 -6t-20.5 -3q-21 0 -37.5 15.5t-16.5 37.5q0 26 17.5 42.5t42.5 16.5q34 0 55.5 -22.5t21.5 -55.5v-313h108q34 0 49 14t15 41v296l49 47v-343zM53 357q0 -14 9.5 -23t24.5 -9q10 0 18.5 4.5t11.5 7.5
v21q0 11 -9.5 21t-22.5 10q-14 0 -23 -9.5t-9 -22.5z" />
    <glyph glyph-name="uni0E1B" unicode="&#xe1b;" horiz-adv-x="455" 
d="M387 78q0 -33 -23 -55.5t-59 -22.5h-237v23h49v288h-2q-4 -3 -11.5 -6t-20.5 -3q-21 0 -37.5 15.5t-16.5 37.5q0 26 17.5 42.5t42.5 16.5q34 0 55.5 -22.5t21.5 -55.5v-313h108q34 0 49 14t15 41v579l49 47v-626zM53 357q0 -14 9.5 -23t24.5 -9q10 0 18.5 4.5t11.5 7.5
v21q0 11 -9.5 21t-22.5 10q-14 0 -23 -9.5t-9 -22.5z" />
    <glyph glyph-name="uni0E1C" unicode="&#xe1c;" horiz-adv-x="444" 
d="M327 34l-115 197l-107 -175v-17q0 -7 3.5 -11.5t15.5 -4.5h22v-23h-45q-21 0 -33 13t-12 36v287q0 33 19 55.5t58 22.5q23 0 41.5 -16.5t18.5 -42.5q0 -22 -17 -37.5t-37 -15.5q-13 0 -20.5 3t-11.5 6h-2v-207h2l105 174l113 -195h2v292l49 46v-374l-49 -47v34zM169 357
q0 13 -9.5 22.5t-22.5 9.5q-14 0 -23 -10t-9 -21v-21q2 -3 10.5 -7.5t19.5 -4.5q15 0 24.5 9t9.5 23z" />
    <glyph glyph-name="uni0E1D" unicode="&#xe1d;" horiz-adv-x="444" 
d="M327 34l-115 197l-107 -175v-17q0 -7 3.5 -11.5t15.5 -4.5h22v-23h-45q-21 0 -33 13t-12 36v287q0 33 19 55.5t58 22.5q23 0 41.5 -16.5t18.5 -42.5q0 -22 -17 -37.5t-37 -15.5q-13 0 -20.5 3t-11.5 6h-2v-207h2l105 174l113 -195h2v575l49 46v-657l-49 -47v34zM169 357
q0 13 -9.5 22.5t-22.5 9.5q-14 0 -23 -10t-9 -21v-21q2 -3 10.5 -7.5t19.5 -4.5q15 0 24.5 9t9.5 23z" />
    <glyph glyph-name="uni0E1E" unicode="&#xe1e;" horiz-adv-x="510" 
d="M387 0l-108 323h-2l-106 -323h-54v311h-2q-4 -3 -11.5 -6t-20.5 -3q-21 0 -37.5 15.5t-16.5 37.5q0 26 17.5 42.5t42.5 16.5q34 0 55.5 -22.5t21.5 -55.5v-268h2l111 339l112 -339h2v307l49 46v-421h-55zM53 357q0 -14 9.5 -23t24.5 -9q10 0 18.5 4.5t11.5 7.5v21
q0 11 -9.5 21t-22.5 10q-14 0 -23 -9.5t-9 -22.5z" />
    <glyph glyph-name="uni0E1F" unicode="&#xe1f;" horiz-adv-x="512" 
d="M387 0l-108 323h-2l-106 -323h-54v311h-2q-4 -3 -11.5 -6t-20.5 -3q-21 0 -37.5 15.5t-16.5 37.5q0 26 17.5 42.5t42.5 16.5q34 0 55.5 -22.5t21.5 -55.5v-268h2l111 339l112 -339h2v590l49 46v-704h-55zM53 357q0 -14 9.5 -23t24.5 -9q10 0 18.5 4.5t11.5 7.5v21
q0 11 -9.5 21t-22.5 10q-14 0 -23 -9.5t-9 -22.5z" />
    <glyph glyph-name="uni0E20" unicode="&#xe20;" horiz-adv-x="460" 
d="M395 42l-49 -49v292q0 42 -29 72t-93 30q-53 0 -86.5 -21.5t-37.5 -57.5h129v-23h-66v-214q0 -33 -21.5 -55.5t-55.5 -22.5q-25 0 -42.5 15.5t-17.5 43.5q0 20 16.5 36.5t37.5 16.5q13 0 20.5 -3t11.5 -6h2v189h-38v11q0 21 9 42t28.5 38t48.5 27.5t70 10.5q49 0 81 -15
t50 -36t25 -43.5t7 -36.5v-241zM50 50q0 -14 9 -23t23 -9q13 0 22.5 9.5t9.5 21.5v21q-3 3 -11.5 7.5t-18.5 4.5q-15 0 -24.5 -9.5t-9.5 -22.5z" />
    <glyph glyph-name="uni0E21" unicode="&#xe21;" horiz-adv-x="461" 
d="M172 58q0 -27 -18 -46t-51 -19q-32 0 -46.5 18.5t-14.5 37.5q0 26 19.5 50.5t61.5 34.5v177h-2q-4 -3 -11.5 -6t-20.5 -3q-21 0 -37.5 15.5t-16.5 37.5q0 26 17.5 42.5t42.5 16.5q34 0 55.5 -22.5t21.5 -55.5v-203q26 -7 47.5 -25t35.5 -35q5 -7 12 -15t15 -15t16 -12
t14 -5q10 0 21 10.5t11 37.5v300l49 47v-343q0 -33 -20 -59t-52 -26q-23 0 -43 18t-35 38q-14 16 -31 33.5t-40 25.5v-50zM123 110q-27 -6 -42 -23t-15 -37q0 -18 9 -26t18 -8q14 0 22 11.5t8 23.5v59zM59 357q0 -14 9.5 -23t24.5 -9q10 0 18.5 4.5t11.5 7.5v21
q0 11 -9.5 21t-22.5 10q-14 0 -23 -9.5t-9 -22.5z" />
    <glyph glyph-name="uni0E22" unicode="&#xe22;" horiz-adv-x="388" 
d="M271 375l49 46v-296q0 -61 -32 -96.5t-97 -35.5q-25 0 -49 6t-42.5 21t-30 40t-11.5 64q0 30 14.5 57.5t46.5 45.5v4q-34 13 -48.5 35t-14.5 58q0 45 24 67.5t53 22.5q26 0 46 -16t20 -45q0 -26 -16 -42t-42 -16q-18 0 -32 5.5t-18 17.5h-2v-9q0 -12 5.5 -23.5t14 -20
t19.5 -13.5t23 -5h28v-23h-16q-56 0 -56 -77v-28q0 -54 25.5 -78.5t57.5 -24.5q36 0 58.5 26t22.5 81v252zM135 391q-18 0 -29.5 -11t-11.5 -27q0 -14 11.5 -24.5t29.5 -10.5q16 0 28 11t12 27q0 13 -12 24t-28 11z" />
    <glyph glyph-name="uni0E23" unicode="&#xe23;" horiz-adv-x="292" 
d="M232 71q0 -33 -21.5 -55.5t-55.5 -22.5q-25 0 -42.5 15.5t-17.5 43.5q0 20 16.5 36.5t37.5 16.5q13 0 20.5 -3t11.5 -6h2v135q0 11 -3 19t-12.5 14.5t-27 13.5t-46.5 16q-42 12 -58.5 24.5t-16.5 32.5q0 12 9.5 23t24 20t30 14.5t27.5 5.5t27.5 -3.5t30.5 -8t28.5 -8
t23.5 -3.5t20.5 7.5t16.5 22.5l13 -14q-12 -27 -30.5 -41t-49.5 -14q-16 -1 -33 2.5t-33.5 8t-30.5 8.5t-23 4q-15 0 -21 -5t-6 -13q0 -5 2 -8.5t10.5 -8t25.5 -10t47 -13.5q33 -9 53.5 -16.5t32 -16t15 -19t3.5 -26.5v-168zM119 50q0 -14 9 -23t23 -9q13 0 22.5 9.5
t9.5 21.5v21q-3 3 -11.5 7.5t-18.5 4.5q-15 0 -24.5 -9.5t-9.5 -22.5z" />
    <glyph glyph-name="uni0E24" unicode="&#xe24;" horiz-adv-x="424" 
d="M310 285q0 42 -29 72t-93 30q-53 0 -86.5 -21.5t-37.5 -57.5h129v-23h-66v-189h2q4 3 11.5 6t20.5 3q10 0 19.5 -4.5t17 -12t12.5 -17t5 -19.5q0 -28 -18.5 -43.5t-41.5 -15.5q-35 0 -56 22.5t-21 55.5v214h-38v11q0 21 9 42t28.5 38t48.5 27.5t70 10.5q49 0 81 -15
t50 -36t25 -43.5t7 -36.5v-461h-49v463zM191 50q0 13 -9.5 22.5t-24.5 9.5q-11 0 -19.5 -4.5t-10.5 -7.5v-21q0 -12 9 -21.5t23 -9.5q13 0 22.5 9t9.5 23z" />
    <glyph glyph-name="uni0E25" unicode="&#xe25;" horiz-adv-x="426" 
d="M309 0v205q0 16 -7.5 31t-20 26t-28.5 18t-33 7q-51 0 -72.5 -24t-21.5 -72v-95h2q4 3 11.5 6t20.5 3q10 0 19.5 -4.5t17 -12t12.5 -17t5 -19.5q0 -28 -18.5 -43.5t-41.5 -15.5q-35 0 -56 22.5t-21 55.5v111q0 26 8 50t24.5 42t41 29t57.5 11q29 0 54.5 -12.5t46.5 -34.5
v20q0 23 -11 40.5t-29.5 29.5t-42 18t-48.5 6q-48 0 -79 -15t-59 -47l-12 12q28 43 68.5 63t92.5 20q37 0 68 -12t53.5 -31.5t35 -45t12.5 -52.5v-273h-49zM190 50q0 13 -9.5 22.5t-24.5 9.5q-11 0 -19.5 -4.5t-10.5 -7.5v-21q0 -12 9 -21.5t23 -9.5q13 0 22.5 9t9.5 23z
" />
    <glyph glyph-name="uni0E26" unicode="&#xe26;" horiz-adv-x="463" 
d="M346 -178v463q0 42 -29 72t-93 30q-53 0 -86.5 -21.5t-37.5 -57.5h129v-23h-66v-214q0 -33 -21.5 -55.5t-55.5 -22.5q-25 0 -42.5 15.5t-17.5 43.5q0 20 16.5 36.5t37.5 16.5q13 0 20.5 -3t11.5 -6h2v189h-38v11q0 21 9 42t28.5 38t48.5 27.5t70 10.5q49 0 81 -15t50 -36
t25 -43.5t7 -36.5v-461h-49zM50 50q0 -14 9 -23t23 -9q13 0 22.5 9.5t9.5 21.5v21q-3 3 -11.5 7.5t-18.5 4.5q-15 0 -24.5 -9.5t-9.5 -22.5z" />
    <glyph glyph-name="uni0E27" unicode="&#xe27;" horiz-adv-x="335" 
d="M-9 340q24 42 56.5 58t74.5 16q28 0 54 -9.5t46.5 -26t32.5 -40.5t12 -52v-215q0 -33 -21.5 -55.5t-55.5 -22.5q-25 0 -42.5 15.5t-17.5 43.5q0 20 16.5 36.5t37.5 16.5q13 0 20.5 -3t11.5 -6h2v189q0 22 -8.5 40.5t-23.5 32t-35.5 21.5t-44.5 8q-30 0 -54.5 -12.5
t-44.5 -45.5zM154 50q0 -14 9 -23t23 -9q13 0 22.5 9.5t9.5 21.5v21q-3 3 -11.5 7.5t-18.5 4.5q-15 0 -24.5 -9.5t-9.5 -22.5z" />
    <glyph glyph-name="uni0E28" unicode="&#xe28;" horiz-adv-x="442" 
d="M416 454q0 -48 -15 -80.5t-41 -58.5q2 -12 4.5 -23.5t2.5 -24.5v-267h-49v288q-21 -13 -45.5 -23.5t-49.5 -15.5q0 -22 -17 -37.5t-37 -15.5q-13 0 -20.5 3t-11.5 6h-2v-205h-49v167q-23 23 -36 50q-12 25 -12 56q0 25 10 50.5t30.5 45.5t50.5 32.5t70 12.5
q57 0 91 -18.5t54 -43.5q3 5 6.5 12t6 18.5t4.5 28.5t2 43h53zM197 387q-34 0 -59 -10t-42 -26t-25.5 -36.5t-8.5 -42.5q0 -9 2 -20t5.5 -21t8 -17.5t8.5 -10.5v27q0 33 21 55.5t56 22.5q22 0 38.5 -14t18.5 -28q22 6 46.5 18.5t47.5 33.5q-3 8 -9.5 20t-20 23t-34.5 18.5
t-53 7.5zM199 251q0 13 -9.5 22.5t-22.5 9.5q-14 0 -23 -10t-9 -21v-21q2 -3 10.5 -7.5t19.5 -4.5q15 0 24.5 9t9.5 23z" />
    <glyph glyph-name="uni0E29" unicode="&#xe29;" horiz-adv-x="467" 
d="M399 78q0 -33 -23 -55.5t-59 -22.5h-249v23h49v288h-2q-4 -3 -11.5 -6t-20.5 -3q-21 0 -37.5 15.5t-16.5 37.5q0 26 17.5 42.5t42.5 16.5q34 0 55.5 -22.5t21.5 -55.5v-105h2v3q4 11 17.5 21.5t27.5 10.5q23 0 37 -13t14 -33q0 -15 -6.5 -26t-16.5 -18l-10 12q9 9 9 19
q0 8 -5 17t-21 9q-13 0 -22 -8t-9 -25q0 -20 15.5 -35.5t41.5 -15.5q18 0 37.5 9.5t35.5 24t26.5 30.5t10.5 29v132l49 47v-343zM53 357q0 -14 9.5 -23t24.5 -9q10 0 18.5 4.5t11.5 7.5v21q0 11 -9.5 21t-22.5 10q-14 0 -23 -9.5t-9 -22.5zM286 23q34 0 49 14t15 41v114
l-2 1q-13 -19 -28 -32t-30 -21.5t-28 -12t-22 -3.5q-22 0 -42 11.5t-30 31.5l-2 -1v-143h120z" />
    <glyph glyph-name="uni0E2A" unicode="&#xe2a;" horiz-adv-x="443" 
d="M316 0v205q0 15 -6.5 30.5t-17.5 28t-27.5 20t-35.5 7.5q-51 0 -73.5 -27t-22.5 -73v-95h2q4 3 11.5 6t20.5 3q10 0 19.5 -4.5t17 -12t12.5 -17t5 -19.5q0 -28 -18.5 -43.5t-41.5 -15.5q-35 0 -56 22.5t-21 55.5v111q0 26 8 50t24.5 42t41 29t57.5 11q19 5 44 15.5
t35 20.5q-19 19 -43.5 28t-49.5 9q-42 0 -82 -16.5t-71 -48.5l-14 12q22 26 44 42t43.5 24.5t43 11t42.5 2.5q34 0 59.5 -9.5t50.5 -31.5q16 19 27.5 41t15.5 40h57q-3 -24 -21 -52t-52 -55q10 -17 15.5 -36.5t5.5 -41.5v-269h-49zM197 50q0 13 -9.5 22.5t-24.5 9.5
q-11 0 -19.5 -4.5t-10.5 -7.5v-21q0 -12 9 -21.5t23 -9.5q13 0 22.5 9t9.5 23zM320 269q0 21 -3.5 35.5t-8.5 24.5q-12 -10 -48 -18v-2q21 -8 35 -18t25 -22z" />
    <glyph glyph-name="uni0E2B" unicode="&#xe2b;" horiz-adv-x="477" 
d="M117 311h-2q-4 -3 -11.5 -6t-20.5 -3q-21 0 -37.5 15.5t-16.5 37.5q0 26 17.5 42.5t42.5 16.5q34 0 55.5 -22.5t21.5 -55.5v-194h2q12 36 36.5 65t44.5 46q25 19 50 31t46 17q-18 10 -25.5 24t-7.5 28q0 27 17 44t41 17q26 0 43 -17t17 -42q0 -16 -10 -32t-34 -29
q9 -14 9 -37v-257h-49v278q-18 -5 -37 -13t-41 -24q-42 -29 -66 -75t-36 -94v-72h-49v311zM370 387q-13 0 -22 -10.5t-9 -22.5q0 -11 8 -22.5t23 -18.5q13 6 23 17t10 25q0 13 -8.5 22.5t-24.5 9.5zM53 357q0 -14 9.5 -23t24.5 -9q10 0 18.5 4.5t11.5 7.5v21q0 11 -9.5 21
t-22.5 10q-14 0 -23 -9.5t-9 -22.5z" />
    <glyph glyph-name="uni0E2C" unicode="&#xe2c;" horiz-adv-x="552" 
d="M387 0l-108 323h-2l-106 -323h-54v311h-2q-4 -3 -11.5 -6t-20.5 -3q-21 0 -37.5 15.5t-16.5 37.5q0 26 17.5 42.5t42.5 16.5q34 0 55.5 -22.5t21.5 -55.5v-268h2l111 339l112 -339h2v275q-26 0 -44.5 16.5t-18.5 37.5q0 22 14.5 40t43.5 18q21 0 37.5 -17t16.5 -45
q20 20 28 68l33 -14q-6 -21 -23.5 -46.5t-37.5 -37.5v-363h-55zM53 357q0 -14 9.5 -23t24.5 -9q10 0 18.5 4.5t11.5 7.5v21q0 11 -9.5 21t-22.5 10q-14 0 -23 -9.5t-9 -22.5zM418 398q0 13 -9.5 22.5t-22.5 9.5q-14 0 -23 -9.5t-9 -22.5q0 -14 9 -23t23 -9q13 0 22.5 9
t9.5 23z" />
    <glyph glyph-name="uni0E2D" unicode="&#xe2d;" horiz-adv-x="426" 
d="M358 134q0 -37 -14 -63.5t-35 -44t-46 -25.5t-47 -8t-46.5 5.5t-45.5 18t-34.5 32.5t-13.5 49v133q0 33 19 55.5t58 22.5q23 0 41.5 -16.5t18.5 -42.5q0 -22 -17 -37.5t-37 -15.5q-13 0 -20.5 3t-11.5 6h-2v-93q0 -48 27.5 -72.5t65.5 -24.5q17 0 33.5 6.5t29 19t20.5 31
t8 43.5v171q0 23 -11 40.5t-29.5 29.5t-42 18t-48.5 6q-48 0 -79 -15t-59 -47l-12 12q28 43 68.5 63t92.5 20q37 0 68 -12t53.5 -31.5t35 -45t12.5 -52.5v-139zM189 252q0 13 -9.5 22.5t-22.5 9.5q-14 0 -23 -10t-9 -21v-21q2 -3 10.5 -7.5t19.5 -4.5q15 0 24.5 9t9.5 23z
" />
    <glyph glyph-name="uni0E2E" unicode="&#xe2e;" horiz-adv-x="389" 
d="M272 316l-4 18q-29 -18 -53 -25.5t-52 -7.5q-34 0 -55.5 15.5t-21.5 39.5q0 27 23.5 46t66.5 19q32 0 57 -9.5t47 -28.5q4 2 9 8.5t10 14t10 15.5t8 14h40q-7 -19 -21 -39.5t-34 -39.5q7 -12 13 -32.5t6 -42.5v-147q0 -31 -11.5 -57t-31 -44.5t-45.5 -29t-55 -10.5
q-35 0 -60.5 8.5t-43 23t-26 32.5t-8.5 36v104q0 33 19 55.5t58 22.5q23 0 41.5 -16.5t18.5 -42.5q0 -22 -17 -37.5t-37 -15.5q-13 0 -20.5 3t-11.5 6h-2v-57q0 -45 22 -72t70 -27q43 0 67 26.5t24 68.5v205zM172 398q-29 0 -41 -11.5t-12 -27.5t11.5 -25.5t35.5 -9.5
q25 0 49 10.5t39 27.5q-18 21 -38 28.5t-44 7.5zM153 218q0 13 -9.5 22.5t-22.5 9.5q-14 0 -23 -10t-9 -21v-21q2 -3 10.5 -7.5t19.5 -4.5q15 0 24.5 9t9.5 23z" />
    <glyph glyph-name="uni0E2F" unicode="&#xe2f;" horiz-adv-x="387" 
d="M319 0h-49v324q0 19 -7.5 28t-18.5 9q-8 0 -19.5 -14.5t-21.5 -60.5q-17 -61 -45.5 -85t-61.5 -24t-56 24.5t-23 64.5q0 39 20 57.5t44 18.5q26 0 42 -16t20 -44l-11 -8q-19 27 -40 27q-18 0 -27 -11.5t-9 -25.5q0 -17 13.5 -32.5t36.5 -15.5q28 0 52.5 27.5t30.5 78.5
q4 52 25 72t46 20q23 0 41 -20.5t18 -52.5v-341z" />
    <glyph glyph-name="uni0E30" unicode="&#xe30;" horiz-adv-x="370" 
d="M331 395q-9 -30 -25 -56.5t-38 -46.5t-48 -31.5t-55 -11.5q-22 0 -41.5 6.5t-34.5 18t-24 27.5t-9 35q0 27 17 47t49 20q23 0 42.5 -18.5t19.5 -46.5q0 -18 -9.5 -33.5t-24.5 -23.5l2 -2q4 -2 9 -1.5t11 0.5q36 0 75.5 32.5t65.5 98.5zM120 294q15 0 27.5 13t12.5 31
q0 16 -12.5 29t-27.5 13t-27.5 -13t-12.5 -30t12.5 -30t27.5 -13zM331 139q-9 -30 -25 -56.5t-38 -46.5t-48 -31.5t-55 -11.5q-22 0 -41.5 6.5t-34.5 18t-24 27.5t-9 35q0 27 17 47t49 20q23 0 42.5 -18.5t19.5 -46.5q0 -18 -9.5 -33.5t-24.5 -23.5l2 -2q4 -2 9 -1.5t11 0.5
q36 0 75.5 32.5t65.5 98.5zM120 38q15 0 27.5 13t12.5 31q0 16 -12.5 29t-27.5 13t-27.5 -13t-12.5 -30t12.5 -30t27.5 -13z" />
    <glyph glyph-name="uni0E31" unicode="&#xe31;" horiz-adv-x="0" 
d="M44 585q-26 -69 -67 -99.5t-93 -30.5q-22 0 -41 6t-33.5 16.5t-22.5 24.5t-8 31q0 26 16.5 42t38.5 16q23 0 41 -16.5t18 -38.5q0 -15 -10.5 -30t-31.5 -20v-3q14 -5 34 -5q43 0 80 31t59 88zM-164 505q13 0 22.5 8.5t9.5 21.5t-9.5 22t-22.5 9q-14 0 -23 -9t-9 -22
t9 -21.5t23 -8.5z" />
    <glyph glyph-name="uni0E32" unicode="&#xe32;" horiz-adv-x="281" 
d="M8 369q25 25 53 35t55 10q39 0 68 -26.5t29 -76.5v-311h-49v322q0 32 -17.5 49.5t-47.5 17.5q-19 0 -38.5 -7.5t-41.5 -26.5z" />
    <glyph glyph-name="uni0E33" unicode="&#xe33;" horiz-adv-x="281" 
d="M164 0v322q0 32 -17.5 49.5t-47.5 17.5q-19 0 -38.5 -7.5t-41.5 -26.5l-11 14q25 25 53 35t55 10q39 0 68 -26.5t29 -76.5v-311h-49zM-161 524q0 27 20 47.5t48 20.5t48.5 -20.5t20.5 -47.5q0 -29 -20.5 -49t-48.5 -20t-48 20t-20 49zM-136 524q0 -19 12.5 -31.5
t30.5 -12.5q19 0 31.5 12.5t12.5 31.5q0 18 -12.5 30.5t-31.5 12.5q-18 0 -30.5 -12.5t-12.5 -30.5z" />
    <glyph glyph-name="uni0E34" unicode="&#xe34;" horiz-adv-x="0" 
d="M-204 597q-28 0 -51.5 -11t-35.5 -27q63 0 116.5 -17t104.5 -49q-10 48 -45.5 76t-88.5 28zM-195 624q29 0 56 -11.5t47.5 -30.5t33 -44t12.5 -52q0 -8 -1 -16.5t-3 -14.5q-41 23 -73.5 38.5t-63.5 25t-64.5 13.5t-75.5 4q13 42 45.5 65t86.5 23z" />
    <glyph glyph-name="uni0E35" unicode="&#xe35;" horiz-adv-x="0" 
d="M-74 572q15 -18 21.5 -40.5t6.5 -45.5q0 -8 -1 -16.5t-3 -14.5q-41 23 -73.5 38.5t-63.5 25t-64.5 13.5t-75.5 4q13 42 45.5 65t86.5 23q22 0 43.5 -6.5t42.5 -17.5v73l35 31v-132zM-204 597q-28 0 -51.5 -11t-35.5 -27q63 0 116.5 -17t104.5 -49q-10 48 -45.5 76
t-88.5 28z" />
    <glyph glyph-name="uni0E36" unicode="&#xe36;" horiz-adv-x="0" 
d="M-141 705q23 0 39.5 -17.5t16.5 -37.5q0 -15 -7 -27t-16 -20q26 -18 44 -50t18 -67q0 -8 -1 -16.5t-3 -14.5q-41 23 -73.5 38.5t-63.5 25t-64.5 13.5t-75.5 4q5 23 19 40t33.5 28t41.5 16.5t42 5.5q-7 9 -7 26q0 23 17 38t40 15zM-204 597q-28 0 -51.5 -11t-35.5 -27
q63 0 116.5 -17t104.5 -49q-10 48 -45.5 76t-88.5 28zM-142 680q-13 0 -22 -9.5t-9 -22.5q0 -14 10 -23t24 -9q13 0 21 9t8 22t-9 23t-23 10z" />
    <glyph glyph-name="uni0E37" unicode="&#xe37;" horiz-adv-x="0" 
d="M-82 583q20 -19 29 -43t9 -54q0 -8 -1 -16.5t-3 -14.5q-41 23 -73.5 38.5t-63.5 25t-64.5 13.5t-75.5 4q8 37 40 61.5t77 26.5v87l35 -33v-54q14 -1 27.5 -5t28.5 -10v69l35 34v-129zM-202 597q-28 0 -51.5 -11t-35.5 -27q63 0 116.5 -17t104.5 -49q-10 48 -45.5 76
t-88.5 28z" />
    <glyph glyph-name="uni0E38" unicode="&#xe38;" horiz-adv-x="0" 
d="M-72 -203h-41v75q-14 -9 -31 -9q-21 0 -39 14.5t-18 37.5q0 24 15 42t48 18q25 0 45.5 -19t20.5 -52v-107zM-177 -82q0 -14 9.5 -23t24.5 -9q10 0 18.5 4.5t11.5 7.5v21q0 11 -9.5 21t-22.5 10q-14 0 -23 -9.5t-9 -22.5z" />
    <glyph glyph-name="uni0E39" unicode="&#xe39;" horiz-adv-x="0" 
d="M-189 -128h-2q-4 -3 -11.5 -6t-20.5 -3q-21 0 -37.5 15.5t-16.5 37.5q0 26 17.5 42.5t42.5 16.5q24 0 42.5 -18t18.5 -57v-60q0 -20 22 -20q21 0 21 20v126h41v-128q0 -17 -14.5 -29t-42.5 -12q-33 0 -46.5 9.5t-13.5 33.5v32zM-253 -82q0 -14 9.5 -23t24.5 -9
q10 0 18.5 4.5t11.5 7.5v21q0 11 -9.5 21t-22.5 10q-14 0 -23 -9.5t-9 -22.5z" />
    <glyph glyph-name="uni0E3A" unicode="&#xe3a;" horiz-adv-x="0" 
d="M-93 -25q13 0 22.5 -9.5t9.5 -22.5q0 -14 -9.5 -23t-22.5 -9q-14 0 -23 9t-9 23q0 13 9 22.5t23 9.5z" />
    <glyph glyph-name="uni0E3F" unicode="&#xe3f;" 
d="M51 258q0 40 -2 78.5t-4 77.5q36 -3 72 -3q10 0 22 0.5t24 1.5v2q0 13 -1 26.5t-4 25.5q7 -4 17 -4q8 0 17 4q-3 -12 -4 -25t-1 -25v-3q28 0 54 -4t45 -14t30.5 -26.5t11.5 -41.5q0 -45 -30 -71.5t-78 -34.5v-2q57 -4 90 -26.5t33 -75.5q0 -32 -14 -54t-36.5 -36.5
t-50.5 -21.5t-55 -8v-5q0 -19 1 -37t4 -37q-5 1 -9 2.5t-8 1.5q-5 0 -9 -1.5t-8 -2.5q3 16 4 34.5t1 36.5v7q-14 1 -27 2t-26 1q-17 0 -32.5 -1t-32.5 -2q2 40 4 79t2 78v104zM284 121q0 41 -24 59t-73 24v-183q39 4 68 30t29 70zM104 145q0 -30 1 -60t3 -61
q10 -2 24.5 -2.5t30.5 -0.5v185q-4 1 -8 1h-8h-43v-62zM270 316q0 19 -7 32.5t-18.5 21.5t-26.5 12.5t-31 6.5v-158q37 6 60 25.5t23 59.5zM104 227h47q8 0 12 1v162h-4q-18 0 -30 -1.5t-21 -2.5q-2 -28 -3 -56t-1 -56v-47z" />
    <glyph glyph-name="uni0E40" unicode="&#xe40;" horiz-adv-x="211" 
d="M112 115q22 0 42 -16t20 -48q0 -25 -17.5 -41.5t-43.5 -16.5q-31 0 -48.5 17.5t-17.5 44.5q0 11 4 23.5t12 21.5v274l49 47v-306zM113 16q15 0 26 11t11 26t-11 26t-26 11t-26 -11t-11 -26t11 -26t26 -11z" />
    <glyph glyph-name="uni0E41" unicode="&#xe41;" horiz-adv-x="423" 
d="M324 115q22 0 42 -16t20 -48q0 -25 -17.5 -41.5t-43.5 -16.5q-31 0 -48.5 17.5t-17.5 44.5q0 11 4 23.5t12 21.5v274l49 47v-306zM325 16q15 0 26 11t11 26t-11 26t-26 11t-26 -11t-11 -26t11 -26t26 -11zM112 115q22 0 42 -16t20 -48q0 -25 -17.5 -41.5t-43.5 -16.5
q-31 0 -48.5 17.5t-17.5 44.5q0 11 4 23.5t12 21.5v274l49 47v-306zM113 16q15 0 26 11t11 26t-11 26t-26 11t-26 -11t-11 -26t11 -26t26 -11z" />
    <glyph glyph-name="uni0E42" unicode="&#xe42;" horiz-adv-x="222" 
d="M177 653q-19 -31 -35.5 -40.5t-40.5 -9.5q-19 0 -34.5 7.5t-28.5 16.5t-23.5 16.5t-20.5 7.5q-12 0 -20.5 -7t-8.5 -16q0 -7 4.5 -14t20.5 -17.5t47.5 -27t85.5 -41.5v-413q22 0 42 -16t20 -48q0 -25 -17.5 -41.5t-43.5 -16.5q-31 0 -48.5 17.5t-17.5 44.5q0 11 4 23.5
t12 21.5v424q-21 10 -40.5 21t-32.5 19q-20 11 -32.5 19.5t-19.5 16t-9 15.5t-2 18q0 28 22 43.5t49 15.5q20 0 37 -6.5t32 -14.5t28.5 -14.5t25.5 -6.5q19 0 34 18zM124 16q15 0 26 11t11 26t-11 26t-26 11t-26 -11t-11 -26t11 -26t26 -11z" />
    <glyph glyph-name="uni0E43" unicode="&#xe43;" horiz-adv-x="222" 
d="M74 577q0 18 -5.5 34t-15 28t-21.5 19t-25 7q-26 0 -47 -19.5t-21 -59.5q0 -27 11.5 -40.5t28.5 -13.5q13 0 21 7.5t8 16.5q0 26 -26 26h-6q-4 0 -6 -1v20q3 1 8 2.5t11 1.5q20 0 36 -15t16 -34q0 -57 -64 -57q-22 0 -42 21.5t-20 63.5q0 22 8 42.5t21.5 36.5t32 25.5
t40.5 9.5q20 0 39 -8.5t34 -24t24 -38t9 -50.5v-462q22 0 42 -16t20 -48q0 -25 -17.5 -41.5t-43.5 -16.5q-31 0 -48.5 17.5t-17.5 44.5q0 11 4 23.5t12 21.5v477zM124 16q15 0 26 11t11 26t-11 26t-26 11t-26 -11t-11 -26t11 -26t26 -11z" />
    <glyph glyph-name="uni0E44" unicode="&#xe44;" horiz-adv-x="228" 
d="M-107 751q55 -12 55 -76v-117q0 -20 7.5 -27.5t21.5 -7.5q9 0 17.5 8t8.5 28v103q0 23 15.5 37.5t37.5 14.5q31 0 52 -21.5t21 -57.5v-520q22 0 42 -16t20 -48q0 -25 -17.5 -41.5t-43.5 -16.5q-31 0 -48.5 17.5t-17.5 44.5q0 11 4 23.5t12 21.5v533q0 25 -6 39.5
t-22 14.5q-25 0 -25 -33v-105q0 -21 -14.5 -35t-41.5 -14q-28 0 -46 14.5t-18 42.5v137q0 21 -4.5 29t-14.5 18zM130 16q15 0 26 11t11 26t-11 26t-26 11t-26 -11t-11 -26t11 -26t26 -11z" />
    <glyph glyph-name="uni0E45" unicode="&#xe45;" horiz-adv-x="281" 
d="M164 -178v500q0 32 -17.5 49.5t-47.5 17.5q-19 0 -38.5 -7.5t-41.5 -26.5l-11 14q25 25 53 35t55 10q39 0 68 -26.5t29 -76.5v-489h-49z" />
    <glyph glyph-name="uni0E46" unicode="&#xe46;" horiz-adv-x="449" 
d="M332 -178v436q0 27 -8 48t-19 36t-24.5 23t-23.5 8q-9 0 -24 -11t-27 -43h-17q-18 32 -30.5 43t-23.5 11q-20 0 -37 -8t-30.5 -21.5t-21 -31.5t-7.5 -38q0 -38 15 -57t32 -19q14 0 22.5 9t8.5 24q0 8 -10.5 18t-23.5 10v15q31 0 52 -14.5t21 -43.5q0 -24 -16.5 -37.5
t-34.5 -13.5q-40 0 -65 31t-25 84q0 26 12 50.5t31 43t42 29.5t46 11q10 0 21 -11t31 -51h5q18 41 32.5 51.5t34.5 10.5q17 0 36.5 -9.5t36 -28t27.5 -45.5t11 -61v-448h-49z" />
    <glyph glyph-name="uni0E47" unicode="&#xe47;" horiz-adv-x="0" 
d="M-219 457q-19 13 -34 31t-15 50q0 26 16.5 47.5t53.5 21.5q15 0 26.5 -3t22.5 -6q11 -4 21 -7t22 -3q17 0 31.5 10.5t14.5 32.5q0 11 -1.5 18t-2.5 13l22 4q2 -6 4 -15.5t2 -18.5q0 -26 -18 -46.5t-55 -20.5q-10 0 -19.5 2.5t-18.5 5.5q-10 2 -19 4.5t-19 2.5
q-27 0 -43 -14t-16 -38q0 -26 20 -44l2 2q0 11 8 20.5t27 9.5q14 0 27.5 -6.5t26 -14t23.5 -13t20 -4.5q28 0 28 27q-6 -6 -13 -6q-9 0 -16 7t-7 18q0 9 5.5 15.5t16.5 6.5q14 0 24.5 -12.5t10.5 -25.5q0 -25 -15.5 -39t-36.5 -14q-13 0 -26 6t-24 13q-12 7 -22.5 13
t-18.5 6q-14 0 -14 -14q0 -6 3 -10.5t9 -11.5h-33z" />
    <glyph glyph-name="uni0E48" unicode="&#xe48;" horiz-adv-x="0" 
d="M-93 450l-43 209h85z" />
    <glyph glyph-name="uni0E49" unicode="&#xe49;" horiz-adv-x="0" 
d="M-23 676q0 -60 -16.5 -102t-46 -68.5t-70.5 -38.5t-89 -12v23q39 11 59.5 29.5t30.5 42.5l-2 2q-6 -6 -26 -6q-17 0 -33.5 13.5t-16.5 38.5q0 22 16 40t43 18q23 0 40 -18.5t17 -45.5q0 -29 -18 -59t-44 -46l2 -4q51 11 85 58.5t34 134.5h35zM-177 631q-14 0 -23 -9
t-9 -22t9 -22t23 -9q13 0 22 9t9 22t-9 22t-22 9z" />
    <glyph glyph-name="uni0E4A" unicode="&#xe4a;" horiz-adv-x="0" 
d="M-160 471q43 43 43 80q0 23 -10.5 34t-26.5 11q-11 0 -18 -8.5t-10 -28.5h-19q-6 19 -16 28t-17 9q-17 0 -29.5 -14.5t-12.5 -46.5q0 -28 13.5 -42t24.5 -14q10 0 12 6q-3 1 -4.5 6.5t-1.5 12.5q0 9 6.5 14.5t13.5 5.5q10 0 16.5 -7t6.5 -20q0 -17 -14 -27t-33 -10
q-11 0 -22 5.5t-20.5 16t-15.5 26.5t-6 38q0 41 18.5 59t39.5 18q17 0 28 -8.5t19 -22.5h4q4 13 15.5 22t28.5 9q24 0 39 -16.5t15 -46.5q0 -27 -11.5 -49t-27.5 -33l1 -3q14 6 27 15t23.5 22.5t16.5 32.5t6 45v48h37v-42q0 -56 -36.5 -96t-96.5 -48z" />
    <glyph glyph-name="uni0E4B" unicode="&#xe4b;" horiz-adv-x="0" 
d="M-108 558v74h29v-74h74v-29h-74v-74h-29v74h-74v29h74z" />
    <glyph glyph-name="uni0E4C" unicode="&#xe4c;" horiz-adv-x="0" 
d="M-43 587q-19 10 -34 14t-33 4q-26 0 -45 -20t-19 -49q0 -30 14.5 -44t35.5 -14q8 0 18.5 4t14.5 13q-13 0 -19.5 7.5t-6.5 18.5q0 8 7 17.5t22 9.5q13 0 22 -11t9 -26q0 -23 -21 -39.5t-50 -16.5q-11 0 -24 5t-25 15.5t-20 26.5t-8 38q0 40 25.5 66t63.5 26q14 0 30 -4.5
t31 -11.5l48 125l37 -6z" />
    <glyph glyph-name="uni0E4D" unicode="&#xe4d;" horiz-adv-x="0" 
d="M-161 524q0 27 20 47.5t48 20.5t48.5 -20.5t20.5 -47.5q0 -29 -20.5 -49t-48.5 -20t-48 20t-20 49zM-136 524q0 -19 12.5 -31.5t30.5 -12.5q19 0 31.5 12.5t12.5 31.5q0 18 -12.5 30.5t-31.5 12.5q-18 0 -30.5 -12.5t-12.5 -30.5z" />
    <glyph glyph-name="uni0E4E" unicode="&#xe4e;" horiz-adv-x="0" 
d="M-158 459q-6 -2 -13 -3t-12 -1q-27 0 -49.5 15.5t-22.5 47.5q0 29 23.5 52.5t62.5 23.5l1 2q-9 10 -12 22.5t-3 21.5q0 61 82 61q25 0 47 -5.5t45 -15.5l-8 -20q-22 10 -41 14t-35 4q-35 0 -48 -17.5t-13 -32.5t7.5 -28t22.5 -20l-9 -17q-14 8 -34 8q-26 0 -42.5 -13.5
t-16.5 -35.5q0 -19 13.5 -31.5t34.5 -12.5h17z" />
    <glyph glyph-name="uni0E4F" unicode="&#xe4f;" horiz-adv-x="391" 
d="M197 37q-31 0 -58.5 11.5t-48 32t-32.5 48.5t-12 61q0 31 12 58.5t32.5 48t48.5 32.5t61 12q31 0 58.5 -12t48 -33t32.5 -49t12 -59q0 -32 -12 -59.5t-33 -48t-49 -32t-60 -11.5zM199 64q25 0 48 9.5t40 26.5t27 40t10 49q0 25 -10 48t-27 40t-40 27t-48 10
q-27 0 -50 -10t-40 -27t-26.5 -40t-9.5 -48q0 -26 9.5 -49t26.5 -40t40 -26.5t50 -9.5zM197 103q-36 0 -61 24.5t-25 62.5q0 18 6.5 33.5t18.5 27t27.5 18.5t33.5 7q36 0 62 -25.5t26 -61.5q0 -37 -26 -61.5t-62 -24.5zM198 134q23 0 39.5 16.5t16.5 39.5q0 22 -16.5 38.5
t-39.5 16.5t-39.5 -16.5t-16.5 -38.5q0 -23 16.5 -39.5t39.5 -16.5z" />
    <glyph glyph-name="uni0E50" unicode="&#xe50;" horiz-adv-x="355" 
d="M178 -7q-27 0 -50.5 11t-40.5 29t-26.5 41.5t-9.5 48.5q0 24 9 47t25.5 41t40 28.5t51.5 10.5t51.5 -10.5t40.5 -28.5t26.5 -41.5t9.5 -49.5q0 -24 -10 -46.5t-27.5 -40.5t-40.5 -29t-49 -11zM178 16q15 0 29.5 8t25 22t17 33t6.5 41q0 51 -23 79t-55 28
q-33 0 -55.5 -27.5t-22.5 -76.5q0 -48 23 -77.5t55 -29.5z" />
    <glyph glyph-name="uni0E51" unicode="&#xe51;" horiz-adv-x="357" 
d="M237 -25q29 33 41 61t12 64q0 15 -6 33t-20 33.5t-36 26t-54 10.5q-46 0 -74.5 -27t-28.5 -72q0 -19 7 -35t18 -28t25 -18.5t29 -6.5q26 0 42.5 15.5t16.5 35.5q0 23 -20 35q-4 -15 -16 -22t-22 -7q-11 0 -20 7.5t-9 22.5q0 14 14.5 25.5t28.5 11.5q30 0 49 -22.5
t19 -46.5q0 -33 -24 -55.5t-58 -22.5q-20 0 -39 8.5t-33.5 23.5t-23 36.5t-8.5 48.5q0 29 10 54.5t27.5 44.5t41 30t51.5 11t53.5 -11.5t44.5 -31.5t30.5 -48.5t11.5 -62.5q0 -30 -17.5 -67.5t-49.5 -67.5z" />
    <glyph glyph-name="uni0E52" unicode="&#xe52;" horiz-adv-x="515" 
d="M316 57q6 12 9 28t3 32q0 17 -6.5 33.5t-18 29.5t-27 21t-33.5 8q-31 0 -50.5 -21t-19.5 -49q0 -32 15.5 -48.5t38.5 -16.5q15 0 26 8.5t11 17.5q-15 1 -22 8t-7 16t7 16t17 7q14 0 23 -11t9 -28q0 -13 -6 -23.5t-15 -18t-20.5 -11.5t-22.5 -4q-32 0 -55 23.5t-23 60.5
q0 53 28.5 84t67.5 31q19 0 42 -10.5t41 -34.5q11 17 25 31t37 14q15 0 28.5 -9.5t24 -26t16.5 -39t6 -47.5q0 -23 -7.5 -45.5t-22.5 -41t-37 -30t-50 -11.5h-230q-24 0 -38.5 14t-14.5 47v268q0 19 -7.5 45.5t-19.5 46.5h49q14 -21 20.5 -49.5t6.5 -56.5v-244
q0 -28 7.5 -38t21.5 -10h199q42 0 69 28.5t27 73.5q0 18 -6 32.5t-15 24.5t-20 15.5t-20 5.5q-30 0 -36 -21q11 -39 11 -59q0 -14 -3.5 -33.5t-8.5 -32.5h-24z" />
    <glyph glyph-name="uni0E53" unicode="&#xe53;" horiz-adv-x="499" 
d="M362 0q29 37 41.5 64.5t12.5 59.5q0 39 -22.5 62t-52.5 23q-20 0 -31.5 -7.5t-19.5 -21.5q8 -15 13 -34.5t5 -33.5q0 -26 -12 -55.5t-33 -56.5h-27q39 58 39 107q0 46 -26.5 74t-66.5 28q-20 0 -38.5 -6.5t-33 -20t-23.5 -34.5t-9 -49q0 -38 20 -60.5t47 -22.5
q14 0 19 10q-16 0 -26 9t-10 25q0 13 10 25t26 12q17 0 30 -12.5t13 -32.5q0 -26 -19 -42.5t-48 -16.5q-17 0 -32.5 9t-28.5 24t-20.5 35t-7.5 43q0 31 9.5 58t26.5 46.5t41 30.5t53 11q28 0 51.5 -11t38.5 -33q16 22 34 33t45 11q18 0 36 -8.5t32 -24t22.5 -37t8.5 -47.5
q0 -34 -13 -63t-44 -70h-30z" />
    <glyph glyph-name="uni0E54" unicode="&#xe54;" horiz-adv-x="441" 
d="M430 -17q-26 13 -45.5 21t-34.5 12.5t-27 6t-23 1.5q-20 0 -36 -4t-31 -8q-15 -5 -29.5 -8.5t-31.5 -3.5q-27 0 -49 9t-38.5 25t-25.5 38t-9 48q0 61 46.5 100.5t155.5 53.5q64 8 102.5 46t38.5 101h29q0 -29 -10 -57t-29 -51.5t-47.5 -40t-65.5 -21.5
q-171 -29 -171 -132q0 -35 24.5 -60.5t72.5 -25.5q13 0 26.5 3t26.5 6t24 5t19 2q6 0 10.5 -1t10.5 -2v5q-54 26 -74.5 50t-20.5 50q0 11 5 24t14.5 24.5t24 19t34.5 7.5q16 0 30.5 -6.5t25 -17t17 -23t6.5 -24.5q0 -18 -9.5 -27t-22.5 -9q-12 0 -20 8.5t-8 19.5
q0 13 6.5 19.5t11.5 7.5q0 9 -10 18t-26 9t-30 -14.5t-14 -34.5q0 -10 3 -19t12 -19.5t24.5 -22.5t41.5 -27q20 -12 46 -27t61 -34z" />
    <glyph glyph-name="uni0E55" unicode="&#xe55;" horiz-adv-x="439" 
d="M408 -17q-13 13 -41.5 24.5t-73.5 11.5q-20 0 -37.5 -3t-33.5 -6q-16 -4 -30.5 -7t-27.5 -3q-57 0 -88 30t-31 72q0 31 18 58t60 48q34 17 59 31.5t33 20.5q-27 7 -38.5 23t-11.5 34q0 24 17.5 41t43.5 17q25 0 41.5 -16t16.5 -41q0 -21 -15 -39q21 1 41 11.5t36 29
t26 44t11 57.5h29q0 -32 -11 -62.5t-32 -54t-51.5 -37.5t-70.5 -14q-20 -14 -39.5 -26t-47.5 -26q-44 -24 -58 -45.5t-14 -48.5q0 -35 30.5 -54.5t74.5 -19.5q22 0 51 6q28 5 59 5q7 0 17 -1.5t22 -5.5v4q-24 8 -46 20t-38.5 26t-26 31t-9.5 35q0 29 22.5 46.5t48.5 17.5
q21 0 35.5 -6t23.5 -15.5t13.5 -21t4.5 -22.5q0 -15 -8 -25t-17 -10q-11 0 -20 7.5t-9 19.5q0 13 9 19.5t21 6.5q-2 9 -13.5 17.5t-32.5 8.5q-20 0 -33.5 -13t-13.5 -35q0 -20 22.5 -42.5t65.5 -41.5q30 -13 51 -30t37 -35zM223 348q-15 0 -23.5 -10.5t-8.5 -22.5
q0 -11 13 -23t34 -12q10 9 15 20t5 17q0 14 -9.5 22.5t-25.5 8.5z" />
    <glyph glyph-name="uni0E56" unicode="&#xe56;" horiz-adv-x="363" 
d="M41 424q15 -11 27.5 -27t21.5 -34.5t14.5 -38.5t5.5 -39q0 -13 -1.5 -33t-6.5 -31v-2q16 13 38 21t41 8q32 0 57.5 -12t43 -30.5t26.5 -42t9 -47.5q0 -21 -10.5 -42.5t-28.5 -39.5t-43 -29.5t-53 -11.5q-27 0 -48.5 8.5t-36.5 22.5t-23 31t-8 34q0 26 13.5 45t35.5 19
q14 0 25.5 -9.5t11.5 -23.5q0 -16 -10 -25t-22 -9q-16 0 -27 11q-3 -3 -3 -7v-7q0 -23 23.5 -43t62.5 -20q48 0 75 30.5t27 74.5q0 42 -29 69t-77 27q-23 0 -47 -11t-37 -26l-14 11q2 9 5 28t3 39q0 40 -16 77t-46 61z" />
    <glyph glyph-name="uni0E57" unicode="&#xe57;" horiz-adv-x="495" 
d="M338 421q57 -34 84.5 -91.5t27.5 -132.5q0 -66 -30.5 -121t-96.5 -83l-15 14q29 29 41 56.5t12 51.5q0 16 -4.5 32t-13 28.5t-20 20t-26.5 7.5q-53 0 -72 -58h-13q-9 29 -27 43.5t-39 14.5q-30 0 -49.5 -21.5t-19.5 -63.5q0 -48 23 -75t58 -27q11 0 21.5 5t17.5 11
q-32 2 -32 32q0 14 8.5 24.5t23.5 10.5q12 0 22.5 -13t10.5 -27q0 -17 -7 -29.5t-18 -20.5t-24 -12t-25 -4q-25 0 -45 11t-33.5 29.5t-20.5 43.5t-7 54q0 60 25.5 89.5t55.5 29.5q31 0 54.5 -19t33.5 -47h2q12 28 35 47t49 19q14 0 29 -7t27.5 -21.5t20.5 -36.5t8 -51
q0 -12 -2.5 -25t-6.5 -26t-8.5 -23.5t-8.5 -16.5l3 -2q30 29 43 66.5t13 79.5q0 77 -30.5 124.5t-81.5 71.5z" />
    <glyph glyph-name="uni0E58" unicode="&#xe58;" horiz-adv-x="434" 
d="M412 421q2 -71 -5.5 -118t-21.5 -75.5t-34 -40t-44 -11.5q-10 0 -25.5 5t-33.5 12q-18 6 -36 11t-34 5q-25 0 -44 -8t-31.5 -21.5t-19 -31t-6.5 -35.5q0 -27 8 -42t17 -19q0 25 14 39.5t34 16.5q14 0 36.5 -14.5t47 -31.5t47 -31.5t37.5 -14.5q22 0 36.5 12t14.5 31
q0 6 -1.5 10.5t-2.5 8.5q-7 -10 -14.5 -14t-13.5 -4q-12 0 -21.5 9.5t-9.5 27.5q0 11 11 20.5t26 9.5q18 0 34 -19t16 -50q0 -11 -5.5 -22.5t-15.5 -21t-24 -15.5t-32 -6q-25 0 -49.5 11.5t-46 25.5t-39.5 25.5t-30 11.5q-6 0 -13 -7t-7 -20q0 -23 19 -33l-15 -14
q-39 21 -62 54.5t-23 76.5q0 26 8.5 49t24 40t37 27t48.5 10q23 0 44 -7.5t39 -15.5l33 -17q14 -7 28 -7q25 0 40.5 21t24.5 55q1 7 2 23.5t2 37t1 42.5t-1 39h31z" />
    <glyph glyph-name="uni0E59" unicode="&#xe59;" horiz-adv-x="344" 
d="M286 204h-87q-20 0 -38 -7t-32 -19.5t-22 -29.5t-8 -38q0 -45 26 -69.5t61 -24.5q16 0 31 6t26 17t18 26t7 33h-2q-6 -10 -13 -14t-13 -4q-12 0 -21.5 9.5t-9.5 27.5q0 11 11 20.5t26 9.5q20 0 33 -19.5t13 -39.5q0 -13 -6.5 -29.5t-19.5 -31t-32.5 -24.5t-45.5 -10
q-67 0 -102.5 32t-35.5 82q0 35 20.5 63.5t54.5 36.5v4q-20 6 -32 20.5t-12 32.5q0 64 72 64h98q16 0 22.5 9t6.5 21v56h24v-67q0 -20 -16 -33t-41 -13h-108q-17 0 -25.5 -9.5t-8.5 -22.5q0 -18 11.5 -24t37.5 -6h132v-35z" />
    <glyph glyph-name="uni0E5A" unicode="&#xe5a;" horiz-adv-x="492" 
d="M319 0h-49v324q0 19 -7.5 28t-18.5 9q-8 0 -19.5 -14.5t-21.5 -60.5q-17 -61 -45.5 -85t-61.5 -24t-56 24.5t-23 64.5q0 39 20 57.5t44 18.5q26 0 42 -16t20 -44l-11 -8q-19 27 -40 27q-18 0 -27 -11.5t-9 -25.5q0 -17 13.5 -32.5t36.5 -15.5q28 0 52.5 27.5t30.5 78.5
q4 52 25 72t46 20q23 0 41 -20.5t18 -52.5v-341zM375 0v374l49 47v-421h-49z" />
    <glyph glyph-name="uni0E5B" unicode="&#xe5b;" horiz-adv-x="883" 
d="M382 311l49 -170h2l52 157h4l47 -153h2l45 136h4l41 -131h2l36 114h4q2 -34 13.5 -56.5t34 -36t57.5 -19t85 -5.5v-3q-42 -12 -70.5 -16.5t-47.5 -4.5q-27 0 -50 10.5t-35 42.5h-2l-32 -98h-5l-40 125h-2l-47 -137h-5l-47 145h-2l-54 -160h-5l-44 151h-2
q-14 -56 -32.5 -94.5t-41 -62.5t-49 -34.5t-56.5 -10.5q-32 0 -59.5 14.5t-48.5 40.5t-33 62t-12 79q0 40 11.5 73.5t30.5 57.5t44.5 37.5t53.5 13.5q29 0 52.5 -12.5t40 -32.5t25 -46t8.5 -53q0 -51 -28 -78t-67 -27q-11 0 -23.5 3.5t-23.5 12t-18 21t-7 30.5q0 21 13 34
t30 13q15 0 24.5 -10t9.5 -23q0 -29 -31 -37q9 -22 38 -22q22 0 42 19.5t20 52.5q0 43 -28 73.5t-74 30.5q-25 0 -47 -10.5t-38 -28.5t-25.5 -42.5t-9.5 -51.5q0 -33 10.5 -59t28.5 -44.5t42 -28.5t52 -10q77 0 120.5 66.5t63.5 192.5h4z" />
    <glyph glyph-name="uni2002" unicode="&#x2002;" horiz-adv-x="500" 
 />
    <glyph glyph-name="uni2003" unicode="&#x2003;" horiz-adv-x="1000" 
 />
    <glyph glyph-name="uni2009" unicode="&#x2009;" horiz-adv-x="100" 
 />
    <glyph glyph-name="uni200A" unicode="&#x200a;" horiz-adv-x="20" 
 />
    <glyph glyph-name="uni200B" unicode="&#x200b;" horiz-adv-x="0" 
 />
    <glyph glyph-name="uni200C" unicode="&#x200c;" horiz-adv-x="0" 
d="M-53 875l53 -53l52 52l16 -16l-52 -52l52 -52l-16 -16l-52 51l-53 -52l-16 17l52 52l-52 52z" />
    <glyph glyph-name="uni200D" unicode="&#x200d;" horiz-adv-x="0" 
d="M77 749v46h-153v-46h-23v69h199v-69h-23z" />
    <glyph glyph-name="uni200E" unicode="&#x200e;" horiz-adv-x="0" 
d="M10 858l16 17l69 -69l-69 -69l-16 17l41 41h-126v23h126z" />
    <glyph glyph-name="uni200F" unicode="&#x200f;" horiz-adv-x="0" 
d="M-10 754l-16 -16l-69 68l69 69l16 -16l-41 -41h127v-23h-126z" />
    <glyph glyph-name="endash" unicode="&#x2013;" horiz-adv-x="500" 
d="M20 168h460v-31h-460v31z" />
    <glyph glyph-name="emdash" unicode="&#x2014;" horiz-adv-x="1000" 
d="M20 168h960v-31h-960v31z" />
    <glyph glyph-name="quoteleft" unicode="&#x2018;" horiz-adv-x="183" 
d="M100 296q-3 -9 -9.5 -17t-19.5 -8q-9 0 -17 5t-8 17q0 8 3 14.5t7 13.5l83 140l11 -5z" />
    <glyph glyph-name="quoteright" unicode="&#x2019;" horiz-adv-x="183" 
d="M84 436q2 8 8.5 16.5t20.5 8.5q7 0 15.5 -5.5t8.5 -17.5q0 -8 -3 -14.5t-7 -12.5l-82 -140l-12 4z" />
    <glyph glyph-name="quotesinglbase" unicode="&#x201a;" horiz-adv-x="183" 
d="M71 49q2 9 8.5 17.5t20.5 8.5q7 0 15.5 -5.5t8.5 -17.5q0 -8 -3 -14.5t-7 -13.5l-82 -140l-12 5z" />
    <glyph glyph-name="quotedblleft" unicode="&#x201c;" horiz-adv-x="293" 
d="M209 296q-3 -9 -9.5 -17t-19.5 -8q-8 0 -16 5t-8 17q0 8 3 14.5t7 13.5l82 140l12 -5zM96 296q-3 -9 -9.5 -17t-19.5 -8q-9 0 -17 5t-8 17q0 8 3.5 14.5t6.5 13.5l83 140l12 -5z" />
    <glyph glyph-name="quotedblright" unicode="&#x201d;" horiz-adv-x="293" 
d="M197 436q3 8 9.5 16.5t19.5 8.5q8 0 16.5 -5.5t8.5 -17.5q0 -8 -3 -14.5t-7 -12.5l-83 -140l-11 4zM84 436q2 8 8.5 16.5t20.5 8.5q7 0 15.5 -5.5t8.5 -17.5q0 -8 -3 -14.5t-7 -12.5l-82 -140l-12 4z" />
    <glyph glyph-name="quotedblbase" unicode="&#x201e;" horiz-adv-x="293" 
d="M197 49q3 9 9.5 17.5t19.5 8.5q8 0 16.5 -5.5t8.5 -17.5q0 -8 -3 -14.5t-7 -13.5l-83 -140l-11 5zM84 49q2 9 8.5 17.5t20.5 8.5q7 0 15.5 -5.5t8.5 -17.5q0 -8 -3 -14.5t-7 -13.5l-82 -140l-12 5z" />
    <glyph glyph-name="dagger" unicode="&#x2020;" horiz-adv-x="330" 
d="M143 338q0 33 -1.5 65t-4.5 49q15 -3 28 -3t28 3q-5 -17 -5.5 -49t-0.5 -65v-42q29 0 57.5 0.5t57.5 5.5q-3 -12 -3 -25q0 -12 3 -24q-29 4 -57.5 5t-57.5 1q0 -66 2 -131t4 -131q-15 3 -28 3t-28 -3q1 66 3.5 131t2.5 131q-30 0 -58.5 -1t-56.5 -5q3 12 3 24q0 13 -3 25
q28 -5 56.5 -5.5t58.5 -0.5v42z" />
    <glyph glyph-name="daggerdbl" unicode="&#x2021;" horiz-adv-x="330" 
d="M145 224q0 17 -1 33.5t-1 33.5q-30 0 -58.5 -0.5t-56.5 -4.5q3 12 3 24t-3 24q28 -4 56.5 -4.5t58.5 -0.5v21q0 18 -1.5 42t-4.5 60q15 -3 28 -3t28 3q-5 -36 -5.5 -60t-0.5 -42v-21q29 0 57.5 0.5t57.5 4.5q-3 -12 -3 -24t3 -24q-29 4 -57.5 4.5t-57.5 0.5
q0 -17 -1 -33.5t-1 -33.5t1 -33.5t1 -32.5q29 0 57.5 0.5t57.5 4.5q-3 -12 -3 -24t3 -24q-29 4 -57.5 4.5t-57.5 0.5v-22q0 -17 0.5 -42t5.5 -59q-15 3 -28 3t-28 -3q6 67 6 101v22q-30 0 -58.5 -0.5t-56.5 -4.5q3 12 3 24t-3 24q28 -4 56.5 -4.5t58.5 -0.5q0 16 1 32.5
t1 33.5z" />
    <glyph glyph-name="bullet" unicode="&#x2022;" horiz-adv-x="400" 
d="M88 224q0 23 8.5 43.5t23.5 36t35.5 24.5t44.5 9q23 0 43.5 -9t35.5 -24.5t24 -36t9 -43.5q0 -24 -9 -44.5t-24 -35.5t-35.5 -23.5t-43.5 -8.5q-48 0 -80 32t-32 80z" />
    <glyph glyph-name="ellipsis" unicode="&#x2026;" horiz-adv-x="660" 
d="M73 30q0 15 11 26t26 11q16 0 27 -11t11 -26q0 -16 -11 -27t-27 -11q-15 0 -26 11t-11 27zM292 30q0 15 11.5 26t26.5 11t26.5 -11t11.5 -26q0 -16 -11.5 -27t-26.5 -11t-26.5 11t-11.5 27zM512 30q0 15 11 26t27 11q15 0 26 -11t11 -26q0 -16 -11 -27t-26 -11
q-16 0 -27 11t-11 27z" />
    <glyph glyph-name="uni202A" unicode="&#x202a;" horiz-adv-x="0" 
d="M-28 795h-57v23h57v-23zM1 818h50l-41 40l16 17l69 -69l-69 -69l-16 17l41 41h-50v23z" />
    <glyph glyph-name="uni202B" unicode="&#x202b;" horiz-adv-x="0" 
d="M28 818h57v-23h-57v23zM-1 795h-49l40 -41l-16 -16l-69 68l69 69l16 -16l-41 -41h50v-23z" />
    <glyph glyph-name="uni202C" unicode="&#x202c;" horiz-adv-x="0" 
d="M-52 797l-17 16l69 69l69 -69l-17 -16l-41 41v-102h-23v101z" />
    <glyph glyph-name="uni202D" unicode="&#x202d;" horiz-adv-x="0" 
d="M-37 858l16 17l69 -69l-69 -69l-16 17l41 41h-107v23h106zM28 858l16 17l69 -69l-69 -69l-16 17l53 52z" />
    <glyph glyph-name="uni202E" unicode="&#x202e;" horiz-adv-x="0" 
d="M38 754l-17 -17l-68 69l68 69l17 -17l-41 -41h107v-23h-107zM-28 754l-16 -17l-69 69l69 69l16 -17l-52 -52z" />
    <glyph glyph-name="perthousand" unicode="&#x2030;" horiz-adv-x="680" 
d="M260 95q0 30 8.5 50.5t22 32.5t29.5 17.5t32 5.5q15 0 31.5 -5.5t30 -17.5t22 -32.5t8.5 -50.5q0 -31 -8.5 -51.5t-22 -32.5t-30 -17t-31.5 -5q-16 0 -32 5t-29.5 17t-22 32.5t-8.5 51.5zM304 95q0 -40 9.5 -65t38.5 -25q27 0 37 25t10 65q0 38 -10 64t-37 26
q-29 0 -38.5 -26t-9.5 -64zM473 95q0 30 8.5 50.5t22 32.5t30 17.5t32.5 5.5q15 0 31.5 -5.5t30 -17.5t22 -32.5t8.5 -50.5q0 -31 -8.5 -51.5t-22 -32.5t-30 -17t-31.5 -5q-16 0 -32.5 5t-30 17t-22 32.5t-8.5 51.5zM518 95q0 -40 9.5 -65t38.5 -25q27 0 37 25t10 65
q0 38 -10 64t-37 26q-29 0 -38.5 -26t-9.5 -64zM22 308q0 30 8.5 50.5t22 32.5t29.5 17.5t32 5.5q15 0 31.5 -5.5t30 -17.5t22.5 -32.5t9 -50.5q0 -31 -9 -51.5t-22.5 -32.5t-30 -17t-31.5 -5q-16 0 -32 5t-29.5 17t-22 32.5t-8.5 51.5zM67 308q0 -40 9.5 -65t37.5 -25
q27 0 37.5 25t10.5 65q0 38 -10.5 64t-37.5 26q-28 0 -37.5 -26t-9.5 -64zM346 444q7 -4 16 -4q8 0 15 4l-256 -485q-4 1 -8 2.5t-7 1.5q-5 0 -8.5 -1.5t-7.5 -2.5z" />
    <glyph glyph-name="guilsinglleft" unicode="&#x2039;" horiz-adv-x="220" 
d="M139 277q4 -7 10 -12t15 -6l-74 -105l70 -110q-8 -1 -15 -6t-10 -11l-79 126z" />
    <glyph glyph-name="guilsinglright" unicode="&#x203a;" horiz-adv-x="220" 
d="M59 262q8 1 15 6t10 11l80 -126l-83 -123q-8 13 -25 18l73 104z" />
    <glyph glyph-name="fraction" unicode="&#x2044;" horiz-adv-x="110" 
d="M131 436q4 -2 7.5 -2.5t8.5 -0.5q4 0 7 0.5t8 2.5l-183 -469q-4 1 -7.5 2t-7.5 1q-5 0 -8 -1t-7 -2z" />
    <glyph glyph-name="fraction" unicode="&#x2215;" horiz-adv-x="110" 
d="M131 436q4 -2 7.5 -2.5t8.5 -0.5q4 0 7 0.5t8 2.5l-183 -469q-4 1 -7.5 2t-7.5 1q-5 0 -8 -1t-7 -2z" />
    <glyph glyph-name="Euro" unicode="&#x20ac;" 
d="M362 381q-6 -14 -9.5 -27t-6.5 -26h-9q-16 27 -42 42t-51 15q-44 0 -76 -31.5t-42 -101.5h110q18 0 36.5 0.5t33.5 3.5q-3 -5 -6.5 -17t-3.5 -17q-15 2 -31.5 2.5t-32.5 0.5h-109q0 -9 -0.5 -21t-0.5 -20v-4h130q19 0 34 3q-3 -6 -6 -17.5t-4 -17.5q-15 2 -31.5 3
t-32.5 1h-88q6 -65 41 -98.5t79 -33.5q53 0 102 51l5 -8q-4 -18 -6 -38q-8 -7 -21 -13.5t-28 -11t-31 -7t-31 -2.5q-67 0 -114 40.5t-57 119.5l-48 -3q6 17 9 35q4 -2 14 -2.5t23 -1.5v32q0 10 1 15q-17 -1 -28.5 -2t-18.5 -2q3 8 5 16.5t4 17.5q5 0 16 -0.5t26 -1.5
q7 34 23 63.5t40 51t53.5 33.5t63.5 12q29 0 61 -10.5t55 -22.5z" />
    <glyph glyph-name="uni2113" unicode="&#x2113;" horiz-adv-x="313" 
d="M261 26q-38 -35 -83 -35q-36 0 -58.5 19.5t-22.5 61.5v68l-36 -38h-2l-16 25l54 53v161q0 51 23.5 80.5t59.5 29.5q31 0 51 -22t20 -59q0 -48 -27 -96.5t-81 -102.5v-92q0 -33 15 -43t31 -10q27 0 55 24h1zM213 367q0 23 -10 37.5t-23 14.5q-15 0 -26 -17t-11 -54v-136
q34 40 52 79.5t18 75.5z" />
    <glyph glyph-name="trademark" unicode="&#x2122;" horiz-adv-x="627" 
d="M429 304q21 37 42 75t42 77h5l8 -84q4 -45 11 -98t13 -93q-5 1 -9.5 2.5t-8.5 1.5q-6 0 -10.5 -1.5t-8.5 -2.5q-2 27 -3.5 60t-6.5 72l-9 71h-2l-27 -50q-11 -19 -22 -39.5t-21 -40.5t-18.5 -38t-13.5 -30h-5q-15 33 -33.5 66.5t-36.5 68.5l-31 60h-2l-8 -73
q-4 -33 -6.5 -64t-2.5 -63q-5 1 -8.5 2.5t-7.5 1.5t-7.5 -1.5t-7.5 -2.5q8 40 15 86t14 94l12 95h7q17 -38 36.5 -75.5t41.5 -75.5l34 -61h1zM105 431q-43 0 -85 -3q3 6 3 12t-3 12q51 -3 102 -3t102 3q-3 -6 -3 -12t3 -12q-42 3 -85 3v-93q0 -39 1 -78t3 -79q-6 1 -11 2.5
t-10 1.5q-6 0 -11 -1.5t-9 -2.5q1 26 2 62t1 90v98z" />
    <glyph glyph-name="Omega" unicode="&#x2126;" horiz-adv-x="468" 
d="M270 0v114q55 11 82.5 49t27.5 93q0 32 -11.5 59.5t-31.5 47.5t-47.5 31.5t-59.5 11.5q-33 0 -60.5 -11.5t-47.5 -31.5t-31.5 -47.5t-11.5 -59.5q0 -26 7 -50t21 -43t35 -32t48 -17v-114h-161v42h121v45q-58 16 -89.5 64t-31.5 107q0 42 16 77.5t43.5 61t64 40t77.5 14.5
t77.5 -14t63.5 -39.5t43 -60.5t16 -77q0 -60 -31 -108.5t-89 -64.5v-45h120v-42h-160z" />
    <glyph glyph-name="estimated" unicode="&#x212e;" horiz-adv-x="375" 
d="M98 162v-113q37 -37 91 -37q39 0 68 17.5t53 57.5l22 -13q-30 -46 -62 -65.5t-81 -19.5q-38 0 -67.5 13.5t-50.5 37t-32 55t-11 67.5t11 67.5t32 55t50.5 37t67.5 13.5q36 0 65.5 -13t50.5 -36t33 -55t13 -69h-253zM280 185v90q-41 38 -92 38q-52 0 -90 -38v-90h182z" />
    <glyph glyph-name="partialdiff" unicode="&#x2202;" horiz-adv-x="320" 
d="M293 226q0 -36 -5.5 -77t-21 -76t-44 -58t-74.5 -23q-30 0 -53.5 11.5t-40 31t-25 45t-8.5 53.5q0 27 8.5 51.5t24.5 43t39 29t52 10.5t55.5 -13t45.5 -34v28q0 25 -5.5 53.5t-18 53t-33 41t-51.5 16.5q-21 0 -38 -8.5t-33 -21.5l-26 31q20 18 43.5 28t51.5 10
q46 0 76.5 -21t48.5 -54t25 -73t7 -77zM243 175q-17 22 -40.5 37.5t-51.5 15.5q-21 0 -37 -8t-26.5 -21.5t-15.5 -31t-5 -36.5q0 -18 5 -36t15 -32.5t25.5 -23.5t36.5 -9q26 0 44 14.5t29 36.5t16 47.5t5 46.5z" />
    <glyph glyph-name="Delta" unicode="&#x2206;" horiz-adv-x="422" 
d="M8 0l175 445h52l179 -445h-406zM208 393l-133 -348h269z" />
    <glyph glyph-name="product" unicode="&#x220f;" horiz-adv-x="450" 
d="M358 -177v581h-267v-581h-48v626h364v-626h-49z" />
    <glyph glyph-name="summation" unicode="&#x2211;" horiz-adv-x="385" 
d="M16 -177v40l201 275l-193 271v40h337v-45h-273l188 -266l-200 -270h292v-45h-352z" />
    <glyph glyph-name="minus" unicode="&#x2212;" horiz-adv-x="371" 
d="M27 133v45h317v-45h-317z" />
    <glyph glyph-name="radical" unicode="&#x221a;" horiz-adv-x="315" 
d="M190 -134h-47l-102 209l-29 -14l-18 38l70 32l95 -198l115 559h48z" />
    <glyph glyph-name="infinity" unicode="&#x221e;" horiz-adv-x="475" 
d="M448 160q0 -42 -24.5 -70.5t-66.5 -28.5q-38 0 -66 21.5t-53 46.5q-26 -24 -54.5 -45.5t-65.5 -21.5q-42 0 -67 27t-25 69q0 39 24 68t67 29q19 0 35.5 -6.5t31 -17t28 -23t26.5 -24.5l25 25q20 20 42 33.5t51 13.5q42 0 67 -28t25 -68zM408 158q0 24 -13 40t-38 16
q-13 0 -26 -6t-25 -14.5t-22.5 -18.5t-18.5 -18q18 -18 41 -35.5t52 -17.5q24 0 37 15.5t13 38.5zM211 157q-9 8 -20 17.5t-23.5 18t-25.5 14.5t-25 6q-23 0 -36.5 -17.5t-13.5 -37.5q0 -24 13.5 -39t38.5 -15q24 0 49 17.5t43 35.5z" />
    <glyph glyph-name="integral" unicode="&#x222b;" horiz-adv-x="347" 
d="M263 457q0 -12 -8 -18t-19 -6q-8 0 -13 4t-8.5 9.5t-6.5 9.5t-7 4q-10 0 -14 -12.5t-5 -28.5t0 -30t1 -17v-376q0 -22 -3 -45t-11.5 -41.5t-24 -30.5t-40.5 -12q-14 0 -28.5 7.5t-14.5 24.5q0 9 7 16t16 7q7 0 12 -4t8.5 -9t6.5 -9t6 -4q8 0 11.5 13.5t5 30.5t1 32
t-0.5 18v323q0 22 -0.5 53t5.5 59t22.5 47.5t51.5 19.5q16 0 33 -8.5t17 -26.5z" />
    <glyph glyph-name="approxequal" unicode="&#x2248;" horiz-adv-x="371" 
d="M351 260q-4 -36 -23 -64t-58 -28q-21 0 -44 7t-45.5 15.5t-43.5 15.5t-37 7q-21 0 -33 -15.5t-14 -32.5h-32q2 17 7 33.5t14.5 29.5t24 21t34.5 8t42.5 -7t45 -15t44 -15t40.5 -7q21 0 32 14t15 33h31zM350 146q-2 -18 -7.5 -34t-15 -28.5t-24 -20t-33.5 -7.5
q-20 0 -43.5 7t-46.5 15.5t-44 15.5t-37 7q-20 0 -32 -16t-14 -33h-33q2 17 7.5 33.5t15 29.5t24 21t34.5 8t42.5 -7t45 -15t44 -15t39.5 -7q21 0 32 13.5t15 32.5h31z" />
    <glyph glyph-name="notequal" unicode="&#x2260;" horiz-adv-x="371" 
d="M165 71l-48 -91l-39 20l37 71h-88v45h111l42 80h-153v44h177l48 93l39 -20l-38 -73h91v-44h-114l-42 -80h156v-45h-179z" />
    <glyph glyph-name="lessequal" unicode="&#x2264;" horiz-adv-x="371" 
d="M27 166v47l317 117v-49l-255 -91l255 -91v-48zM27 -19v45h317v-45h-317z" />
    <glyph glyph-name="greaterequal" unicode="&#x2265;" horiz-adv-x="371" 
d="M27 51v48l255 91l-255 91v49l317 -117v-47zM27 -19v45h317v-45h-317z" />
    <glyph glyph-name="filledbox" unicode="&#x25a0;" horiz-adv-x="586" 
d="M95 0v401h401v-401h-401z" />
    <glyph glyph-name="lozenge" unicode="&#x25ca;" horiz-adv-x="371" 
d="M208 -22h-45l-107 245l107 244h45l107 -244zM185 420l-82 -197l82 -197l83 197z" />
    <glyph glyph-name="uni25CC" unicode="&#x25cc;" horiz-adv-x="503" 
d="M40 207q0 13 5.5 19.5t19.5 6.5q27 0 27 -26t-27 -26q-14 0 -19.5 6t-5.5 20zM411 207q0 26 26 26t26 -26t-26 -26t-26 26zM225 393q0 26 26 26q27 0 27 -26q0 -27 -27 -27q-26 0 -26 27zM225 21q0 27 26 27q27 0 27 -27q0 -26 -27 -26q-26 0 -26 26zM387 300q0 26 27 26
q26 0 26 -26q0 -27 -26 -27q-27 0 -27 27zM387 114q0 27 27 27q26 0 26 -27q0 -26 -26 -26q-27 0 -27 26zM63 300q0 26 25 26q28 0 28 -26q0 -27 -28 -27q-25 0 -25 27zM63 114q0 27 25 27q28 0 28 -27q0 -26 -28 -26q-25 0 -25 26zM133 370q0 13 5.5 19.5t19.5 6.5
q28 0 28 -26q0 -27 -28 -27q-14 0 -19.5 6.5t-5.5 20.5zM318 370q0 26 27 26q26 0 26 -26q0 -27 -26 -27q-27 0 -27 27zM133 44q0 13 5.5 20t19.5 7q28 0 28 -27q0 -26 -28 -26q-14 0 -19.5 6.5t-5.5 19.5zM318 44q0 27 27 27q26 0 26 -27q0 -26 -26 -26q-27 0 -27 26z" />
    <glyph glyph-name="uniFB01" unicode="&#xfb01;" 
d="M198 442q-17 9 -36 9q-29 0 -41.5 -20t-12.5 -46q0 -12 2.5 -34.5t4.5 -42.5q17 0 34 0.5t34 0.5q0 -4 -0.5 -7t-0.5 -6q0 -4 0.5 -7.5t0.5 -6.5q-17 1 -34 1.5t-34 0.5v-143q0 -71 3 -144q-14 3 -28 3t-29 -3q4 73 5 143.5t1 143.5q-12 0 -24 -0.5t-24 -1.5q1 2 1 6v14
q0 4 -1 7q12 0 24 -0.5t24 -0.5q0 19 4 41.5t11.5 44.5t18 41.5t23.5 32.5q12 12 30 21t37 9q6 0 14 -2q-1 -14 -2 -26.5t-1 -25.5zM259 189q0 29 -1.5 62t-4.5 61q15 -3 30 -3t30 3q-3 -28 -4 -61t-1 -62v-69q0 -30 1 -62.5t4 -60.5q-15 3 -30 3t-30 -3q3 28 4.5 60.5
t1.5 62.5v69zM249 427q0 13 10 23.5t24 10.5t24 -10.5t10 -23.5q0 -14 -10 -24t-24 -10t-24 10t-10 24z" />
    <glyph glyph-name="uniFB02" unicode="&#xfb02;" 
d="M198 442q-17 9 -36 9q-29 0 -41.5 -20t-12.5 -46q0 -12 2.5 -34.5t4.5 -42.5q17 0 34 0.5t34 0.5q0 -4 -0.5 -7t-0.5 -6q0 -4 0.5 -7.5t0.5 -6.5q-17 1 -34 1.5t-34 0.5v-143q0 -71 3 -144q-14 3 -28 3t-29 -3q4 73 5 143.5t1 143.5q-12 0 -24 -0.5t-24 -1.5q1 2 1 6v14
q0 4 -1 7q12 0 24 -0.5t24 -0.5q0 19 4 41.5t11.5 44.5t18 41.5t23.5 32.5q12 12 30 21t37 9q6 0 14 -2q-1 -14 -2 -26.5t-1 -25.5zM263 306q0 23 -0.5 49t-1.5 52t-2 49t-2 40q15 -3 30 -3t30 3q-3 -25 -4 -64t-1 -77v-218q0 -38 1 -77t4 -63q-15 3 -30 3t-30 -3
q1 16 2 39.5t2 49t1.5 52t0.5 49.5v119z" />
    <glyph glyph-name="glyph17" horiz-adv-x="576" 
d="M508 90q0 -97 -97 -97q-46 0 -73.5 24.5t-27.5 72.5v195q0 42 -29 72t-93 30q-53 0 -86.5 -21.5t-37.5 -57.5h129v-23h-66v-189h2q4 3 11.5 6t20.5 3q10 0 19.5 -4.5t17 -12t12.5 -17t5 -19.5q0 -28 -18.5 -43.5t-41.5 -15.5q-35 0 -56 22.5t-21 55.5v214h-38v11
q0 21 9 42t28.5 38t48.5 27.5t70 10.5q49 0 81 -15t50 -36t25 -43.5t7 -36.5v-199q0 -68 50 -68t50 68v290l49 47v-331zM191 50q0 13 -9.5 22.5t-24.5 9.5q-11 0 -19.5 -4.5t-10.5 -7.5v-21q0 -12 9 -21.5t23 -9.5q13 0 22.5 9t9.5 23z" />
    <glyph glyph-name="glyph21" horiz-adv-x="373" 
d="M303 64q0 -27 -22.5 -49t-58.5 -22q-38 0 -61 23t-23 57v131h-2q-4 -3 -11.5 -6t-20.5 -3q-21 0 -37.5 15.5t-16.5 37.5q0 26 17.5 42.5t42.5 16.5q34 0 55.5 -22.5t21.5 -55.5v-170q0 -24 10.5 -33.5t24.5 -9.5q13 0 22.5 9.5t9.5 33.5v181q0 28 -10 47.5t-26.5 32
t-38 18t-44.5 5.5q-32 0 -55.5 -8t-41.5 -21l-12 17q35 110 138 110q19 0 34 -3t28 -7q13 -5 24.5 -8t25.5 -3q18 0 29 4t17.5 10t9.5 11.5t6 8.5l13 -8q-11 -28 -36 -43.5t-57 -15.5q-20 0 -56 11q-17 4 -33 7t-29 3q-35 0 -54 -17t-32 -40l2 -2q19 11 44 16t45 5
q39 0 69 -11.5t49.5 -31t29.5 -45t10 -54.5v-164zM74 250q0 -14 9.5 -23t24.5 -9q10 0 18.5 4.5t11.5 7.5v21q0 11 -9.5 21t-22.5 10q-14 0 -23 -9.5t-9 -22.5z" />
    <glyph glyph-name="uni0E1B_uni0E31.ccmp" horiz-adv-x="455" 
d="M387 78q0 -33 -23 -55.5t-59 -22.5h-237v23h49v288h-2q-4 -3 -11.5 -6t-20.5 -3q-21 0 -37.5 15.5t-16.5 37.5q0 26 17.5 42.5t42.5 16.5q34 0 55.5 -22.5t21.5 -55.5v-313h108q34 0 49 14t15 41v428q-49 -51 -111 -51q-22 0 -41 6t-33.5 16.5t-22.5 24.5t-8 31
q0 26 16.5 42t38.5 16q23 0 41 -16.5t18 -38.5q0 -15 -10.5 -30t-31.5 -20v-3q14 -5 34 -5q62 0 110 63v116l49 47v-626zM53 357q0 -14 9.5 -23t24.5 -9q10 0 18.5 4.5t11.5 7.5v21q0 11 -9.5 21t-22.5 10q-14 0 -23 -9.5t-9 -22.5zM179 505q13 0 22.5 8.5t9.5 21.5t-9.5 22
t-22.5 9q-14 0 -23 -9t-9 -22t9 -21.5t23 -8.5z" />
    <glyph glyph-name="uni0E1D_uni0E31.ccmp" horiz-adv-x="444" 
d="M327 506q-49 -51 -111 -51q-22 0 -41 6t-33.5 16.5t-22.5 24.5t-8 31q0 26 16.5 42t38.5 16q23 0 41 -16.5t18 -38.5q0 -15 -10.5 -30t-31.5 -20v-3q14 -5 34 -5q62 0 110 63v117l49 46v-657l-49 -47v34l-115 197l-107 -175v-17q0 -7 3.5 -11.5t15.5 -4.5h22v-23h-45
q-21 0 -33 13t-12 36v287q0 33 19 55.5t58 22.5q23 0 41.5 -16.5t18.5 -42.5q0 -22 -17 -37.5t-37 -15.5q-13 0 -20.5 3t-11.5 6h-2v-207h2l105 174l113 -195h2v423zM169 357q0 13 -9.5 22.5t-22.5 9.5q-14 0 -23 -10t-9 -21v-21q2 -3 10.5 -7.5t19.5 -4.5q15 0 24.5 9
t9.5 23zM168 505q13 0 22.5 8.5t9.5 21.5t-9.5 22t-22.5 9q-14 0 -23 -9t-9 -22t9 -21.5t23 -8.5z" />
    <glyph glyph-name="uni0E1F_uni0E31.ccmp" horiz-adv-x="512" 
d="M393 506q-49 -51 -111 -51q-22 0 -41 6t-33.5 16.5t-22.5 24.5t-8 31q0 26 16.5 42t38.5 16q23 0 41 -16.5t18 -38.5q0 -15 -10.5 -30t-31.5 -20v-3q14 -5 34 -5q62 0 110 63v117l49 46v-704h-55l-108 323h-2l-106 -323h-54v311h-2q-4 -3 -11.5 -6t-20.5 -3
q-21 0 -37.5 15.5t-16.5 37.5q0 26 17.5 42.5t42.5 16.5q34 0 55.5 -22.5t21.5 -55.5v-268h2l111 339l112 -339h2v438zM53 357q0 -14 9.5 -23t24.5 -9q10 0 18.5 4.5t11.5 7.5v21q0 11 -9.5 21t-22.5 10q-14 0 -23 -9.5t-9 -22.5zM234 505q13 0 22.5 8.5t9.5 21.5t-9.5 22
t-22.5 9q-14 0 -23 -9t-9 -22t9 -21.5t23 -8.5z" />
    <glyph glyph-name="glyph95" horiz-adv-x="0" 
d="M-40 868q4 -11 4 -26q0 -24 -17.5 -42.5t-52.5 -18.5q-20 0 -37.5 6.5t-39.5 6.5q-27 0 -40.5 -14t-13.5 -32q0 -22 21 -40l2 1q0 10 7.5 19t25.5 9q12 0 24.5 -5.5t24.5 -12.5t23 -12.5t21 -5.5q27 0 27 25q-6 -7 -13 -7q-9 0 -15 6.5t-6 16.5q0 8 5 14.5t15 6.5
q14 0 24 -11t10 -24q0 -23 -15 -35.5t-35 -12.5q-12 0 -25 5.5t-23 11.5q-12 7 -22 12.5t-18 5.5q-13 0 -13 -13q0 -9 11 -20h-32q-18 10 -32.5 27.5t-14.5 46.5q0 24 16 43.5t52 19.5q26 0 46 -8.5t42 -8.5q17 0 31 9.5t14 29.5q0 12 -2 22z" />
    <glyph glyph-name="glyph96" horiz-adv-x="0" 
d="M-56 857l-37 -182l-38 182h75z" />
    <glyph glyph-name="glyph97" horiz-adv-x="0" 
d="M-31 859q-1 -43 -12 -76.5t-34 -56t-60.5 -34.5t-91.5 -12v19q32 7 49.5 23t24.5 37q-7 -4 -17 -4q-21 0 -33 14t-12 31q0 23 16.5 36.5t31.5 13.5q23 0 37.5 -16.5t14.5 -36.5q0 -24 -15 -48.5t-36 -38.5l1 -3q39 2 69 38.5t32 113.5h35zM-169 825q-10 0 -17 -7t-7 -14
q0 -12 7 -19t17 -7t16.5 6t6.5 14q0 12 -6.5 19.5t-16.5 7.5z" />
    <glyph glyph-name="glyph98" horiz-adv-x="0" 
d="M-18 840q0 -40 -7.5 -68t-23.5 -47t-40.5 -30.5t-57.5 -17.5l-7 19q16 16 26.5 33.5t10.5 38.5q0 15 -9 26t-22 11q-12 0 -20.5 -9.5t-9.5 -23.5h-19q-2 15 -11 24t-24 9q-13 0 -22 -13t-9 -35q0 -23 11 -37t23 -14q8 0 12 4q-8 6 -8 20q0 19 20 19q9 0 16 -7.5t7 -17.5
q0 -19 -13 -28t-34 -9q-25 0 -41.5 21t-16.5 55q0 13 4.5 25.5t12.5 22.5t18.5 16.5t22.5 6.5q10 0 18.5 -5.5t18.5 -21.5h5q7 15 19 21t23 6q17 0 34.5 -17t17.5 -45q0 -37 -30 -68l2 -3q19 9 32 19t21 25.5t11.5 38t3.5 56.5h35z" />
    <glyph glyph-name="glyph99" horiz-adv-x="0" 
d="M-79 845v-68h68v-29h-68v-68h-29v68h-68v29h68v68h29z" />
    <glyph glyph-name="glyph100" horiz-adv-x="0" 
d="M-61 765q-17 16 -42 16q-18 0 -34 -13t-16 -36q0 -18 10 -25.5t25 -7.5q3 0 7.5 0.5t10.5 3.5q-12 9 -12 20q0 21 20 21q10 0 16.5 -7t6.5 -20q0 -14 -14.5 -25.5t-32.5 -11.5q-29 0 -45 18.5t-16 44.5q0 9 3.5 20t11.5 20t20.5 15t30.5 6q24 0 43 -14l38 77l33 -7z" />
    <glyph glyph-name="glyph101" horiz-adv-x="0" 
d="M-158 745q0 26 18.5 45t45.5 19t46 -19t19 -45q0 -27 -19 -46t-46 -19t-45.5 19t-18.5 46zM-134 745q0 -18 11 -29.5t29 -11.5t29.5 11.5t11.5 29.5q0 17 -11.5 28.5t-29.5 11.5t-29 -11.5t-11 -28.5z" />
    <glyph glyph-name="glyph102" horiz-adv-x="0" 
d="M-143 683q-9 -3 -19 -3q-22 0 -38.5 12t-16.5 36q0 22 18 40t48 18v2q-6 7 -8.5 16.5t-2.5 16.5q0 22 16 34.5t47 12.5q35 0 70 -16l-8 -17q-33 13 -58 13q-28 0 -36 -12.5t-8 -23.5q0 -25 22 -35l-7 -15q-11 6 -26 6q-43 0 -43 -37q0 -17 11 -25t27 -8h4q3 0 6 1z" />
    </font>
</defs>
</svg>
