<svg width="28" height="28" viewBox="0 0 28 28" fill="none" xmlns="http://www.w3.org/2000/svg">
<path d="M7.75783 2.73714L13.0394 0.3835L6.89602 0.95499L7.75783 2.73563V2.73714ZM3.49963 2.75819L7.44812 2.78225L6.60276 1.0362L3.50113 2.7597L3.49963 2.75819ZM20.5953 2.78225L24.4989 2.7597L21.478 1.00161L20.5968 2.78376L20.5953 2.78225ZM14.9935 0.392523L20.2781 2.74766L21.1818 0.921903L14.9935 0.392523ZM20.0058 2.9537L14.0808 0.31432L13.9581 0.303792L8.02865 2.94468L13.9955 6.11193L20.0058 2.9537ZM2.79791 7.3662L2.77995 3.46503L1.05034 6.51499L2.79791 7.3662ZM7.50647 7.74369C6.05515 7.72865 4.60383 7.71812 3.15251 7.70459L6.1913 13.5563L7.50647 7.74369ZM7.83564 7.41283L13.5826 6.23375C11.6674 5.2156 9.75228 4.19744 7.83564 3.1823V7.41283ZM3.07621 3.05597L3.09565 7.40531L7.5364 7.44441V3.08153L3.07621 3.05446V3.05597ZM20.5324 7.44441L24.8804 7.40531L24.8999 3.05597L20.5324 3.08153V7.4429V7.44441ZM14.4055 6.23676L20.2332 7.43238V3.17327C18.2911 4.19444 16.3475 5.2156 14.4055 6.23676ZM24.9178 7.70609C23.4665 7.71812 22.0137 7.73015 20.5624 7.74369L21.8775 13.5578L24.9163 7.70609H24.9178ZM25.1961 3.42443L25.1782 7.41283L26.9961 6.52702L25.1961 3.42443ZM0.390517 13.045C1.05932 11.502 2.39992 8.43248 2.73357 7.67L0.969548 6.81126L0.390517 13.0465V13.045ZM0.929147 21.1842L2.75752 20.2894C2.45528 19.6006 1.03986 16.3777 0.366572 14.8061L0.929147 21.1842ZM25.2634 7.70459C25.627 8.53475 26.9736 11.6193 27.6215 13.1157L27.0798 6.82028L25.2619 7.70459H25.2634ZM2.9565 19.9991L6.07909 13.988L2.94005 7.94521C2.36999 9.24611 0.306728 13.9594 0.305232 13.9684C0.303736 13.9865 2.40291 18.7464 2.9565 19.9991ZM25.2425 20.2488L25.2515 20.2668L27.0544 21.1451L27.6274 14.7775C26.9706 16.31 25.5806 19.4788 25.2425 20.2503V20.2488ZM21.9912 13.9895L25.0659 19.9089C25.6734 18.5313 27.6783 13.9865 27.6768 13.9684C27.6768 13.9594 25.7033 9.45365 25.0824 8.03695L21.9912 13.9895ZM3.19141 20.1947H7.49749L6.1913 14.4196L3.19141 20.1947ZM20.5713 20.1947H24.8774L21.8775 14.4196L20.5713 20.1947ZM14.0643 21.6098L14.0778 21.6023C16.1381 21.1481 18.1969 20.6894 20.2571 20.2322L21.6696 13.988L20.2556 7.74218L13.9865 6.45633L7.81619 7.72263L6.39778 13.988L7.80721 20.2172C9.88843 20.6774 11.9682 21.1421 14.0479 21.6023L14.0613 21.6098H14.0643ZM7.83713 24.8267C9.77621 23.8251 11.7183 22.8265 13.6559 21.8219L7.83713 20.5315V24.8267ZM20.2347 20.5436L14.4758 21.8204C16.3954 22.813 18.3151 23.8041 20.2347 24.7951V20.5421V20.5436ZM2.77098 24.5079V20.6233L1.03688 21.467L2.77098 24.5079ZM7.47954 25.2193H3.48317L6.52496 26.9593L7.47954 25.2193ZM13.1292 27.6165L7.80122 25.2553L6.82869 27.0285L13.1307 27.6165H13.1292ZM3.07022 20.4939V24.9185H7.53938V20.4939H3.07022ZM20.5339 24.9185H24.8804V20.4939H20.5339V24.9185ZM13.9746 27.6631L19.9818 25.0027L14.0643 21.9467L8.06455 25.0463L13.9746 27.6646V27.6631ZM20.311 25.2193H20.2347L14.802 27.6255L21.2895 27.0014L20.3125 25.2193H20.311ZM24.5064 25.2193H20.6506L21.5514 26.8615L24.5049 25.2193H24.5064ZM25.1782 20.5992V24.5455L26.9557 21.47L25.1782 20.5992ZM6.65363 0.678268L13.9357 0C16.4343 0.210549 18.9554 0.427114 21.4601 0.643678C22.7034 1.36556 23.9468 2.08895 25.1901 2.81384C25.9143 4.05908 26.637 5.30583 27.3596 6.55258C27.5736 9.03255 27.7905 11.5125 28 13.9925C27.7816 16.4694 27.5571 18.9449 27.3312 21.4203C26.6025 22.6821 25.8739 23.9439 25.1437 25.2057C23.8944 25.902 22.6451 26.5968 21.3943 27.2901C18.939 27.5278 16.4837 27.7669 14.0284 28C11.5253 27.7699 9.02212 27.5353 6.51897 27.3007C5.28161 26.5938 4.04574 25.8855 2.80838 25.1771C2.08871 23.9154 1.36754 22.6551 0.649357 21.3918C0.429415 18.9389 0.215454 16.4845 0 14.0316L0.008986 13.9368C0.236409 11.4689 0.463829 8.99946 0.697237 6.53153C1.40345 5.28478 2.11265 4.03803 2.81886 2.79128C4.08614 2.08744 5.35343 1.3821 6.62221 0.678268L6.65363 0.67526V0.678268Z" fill="#1A1A1A"/>
</svg>
