<svg width="28" height="28" viewBox="0 0 28 28" fill="none" xmlns="http://www.w3.org/2000/svg">
<path d="M4.01716 2.3516L0.462851 0.461177L2.35471 3.98924L6.20184 6.31529L4.01716 2.3516ZM23.9208 2.11765L27.4778 0.268908H0.673365L4.1494 2.11765H23.9208ZM27.5466 0.535126L24.0517 2.3516L21.867 6.31529L25.679 4.01076C25.6925 4.00269 25.7074 3.99731 25.7222 3.99462L27.5466 0.536471V0.535126ZM0.27123 27.2726L2.11856 23.8266V4.11698L0.27123 0.670924V27.2726ZM0.462851 27.4824L3.9362 25.635C3.9362 25.635 3.9497 25.6269 3.95644 25.6242L4.01716 25.5919L6.20184 21.6282L2.35471 23.9543L0.462851 27.4824ZM23.9559 25.5919L27.5102 27.4824L25.6345 23.9852C25.6345 23.9852 25.6264 23.9718 25.6237 23.9637L25.6183 23.9543L21.7712 21.6282L23.9559 25.5919ZM25.8828 23.879L27.7301 27.325V0.762353L25.9111 4.20975C25.9044 4.22319 25.8949 4.23664 25.8828 4.2474V23.879ZM4.98333 2.38655L14.0068 5.24639L22.9627 2.38655H4.98333ZM22.9101 25.6134L14.0081 22.7711L5.03731 25.6134H22.9101ZM4.04146 25.8824L0.566757 27.7311H27.4063L23.9316 25.8824H4.04281H4.04146ZM6.63364 6.53983L13.4454 5.34857L4.39635 2.48067L6.63364 6.53983ZM14.5695 5.34857L21.4311 6.54924L23.6995 2.43361L14.5695 5.34857ZM4.63384 14.2723L2.38844 5.41042V23.6208L2.43297 23.594L4.63384 14.2709V14.2723ZM6.38941 21.2034L4.77687 14.8383L2.75548 23.4003L6.38941 21.2034ZM13.4522 22.6676C11.1744 22.2561 8.89658 21.8434 6.6188 21.4306L4.34642 25.5529L13.4522 22.6676ZM21.3394 21.405C19.0791 21.8259 16.8189 22.2467 14.5573 22.6662L23.632 25.5637L21.3394 21.405ZM23.2164 14.7388L21.5661 21.1926L24.9477 23.2376L25.2688 23.4313L23.2164 14.7388ZM25.6129 5.36739L23.3608 14.1755L25.5927 23.6262L25.6143 23.6397V5.36605L25.6129 5.36739ZM23.2272 13.6094L25.5724 4.43698L21.6147 6.78185L23.2272 13.6094ZM4.91181 14.2696L6.65659 21.1576L6.66198 21.1644L14 22.4928L14.0095 22.4901L14.0175 22.4928L21.3016 21.1388L23.0828 14.1728L21.3434 6.8074L14.0162 5.52605L14.0081 5.52874L14 5.52605L6.67278 6.8074L4.91046 14.2709L4.91181 14.2696ZM2.3925 4.32403L4.76878 13.7035L6.40964 6.75361L2.3925 4.32538V4.32403ZM0.13494 0H28V28H0V0H0.13494Z" fill="#1A1A1A"/>
</svg>
