<svg width="28" height="28" viewBox="0 0 28 28" fill="none" xmlns="http://www.w3.org/2000/svg">
<path d="M14.3085 0.303271L18.0381 3.96054L19.1521 1.30166C17.6507 0.692118 16.0187 0.340804 14.307 0.303271M8.93045 1.26713L10.0535 3.93952L13.696 0.303271C12.0159 0.339303 10.4109 0.678606 8.93195 1.26863L8.93045 1.26713ZM27.6982 14.1396L24.0483 17.9455L26.7163 19.1031C27.3334 17.5672 27.6802 15.8932 27.6982 14.1396ZM4.62888 4.00708L9.77575 4.05362L8.65419 1.38424C7.15727 2.0193 5.79699 2.9126 4.62888 4.00858V4.00708ZM8.58813 26.5902L9.7217 23.8743L4.52979 23.9013C5.7024 25.0228 7.0747 25.9387 8.58813 26.5902ZM1.26119 19.0505L4.00579 17.926L0.301786 14.2177C0.328811 15.9217 0.666631 17.5507 1.26119 19.0505ZM4.1214 18.2023L1.3753 19.3268C2.03292 20.8821 2.96981 22.2919 4.1214 23.4915V18.2023ZM3.99528 9.97491L1.29873 8.85491C0.699662 10.3337 0.349831 11.9402 0.304788 13.6232L3.99528 9.97491ZM26.7043 8.86091L24.0227 9.98091L27.6922 13.5196C27.6352 11.8771 27.2898 10.3067 26.7043 8.86091ZM24.0963 4.73823L24.0182 9.65962L26.5887 8.58466C25.9761 7.16139 25.1278 5.86273 24.0948 4.73823H24.0963ZM18.3188 4.07013C20.0019 4.04761 21.6865 4.0266 23.3696 4.00408C22.224 2.92912 20.8923 2.04933 19.4299 1.41727L18.3188 4.06863V4.07013ZM13.9377 6.32815L17.8429 4.18724L14.0023 0.421877L10.2472 4.17222L13.9377 6.32815ZM8.82685 8.54263L13.6044 6.48129L10.0956 4.43196C9.60909 6.11496 9.22623 7.36407 8.82835 8.54413L8.82685 8.54263ZM4.41117 9.73019L8.57011 8.64172L9.80428 4.35239L4.40967 4.30434V9.73019H4.41117ZM1.41584 8.57866L4.11239 9.70016V4.51903C2.98633 5.69158 2.06896 7.06381 1.41584 8.57866ZM19.023 8.43753L17.996 4.44697C16.4601 5.28772 15.2965 5.89576 14.1719 6.44525L19.023 8.43753ZM23.5558 23.8173L18.2318 23.8683L19.3638 26.6083C20.9328 25.9402 22.3517 24.9883 23.5558 23.8158V23.8173ZM23.9432 18.2263C23.9507 19.9513 23.9582 21.6764 23.9657 23.4014C25.0662 22.2348 25.9641 20.8761 26.6037 19.3808L23.9432 18.2263ZM18.2843 4.3704L19.3653 8.56965L23.7164 9.83378L23.802 4.42745L23.6759 4.29984L18.2858 4.3704H18.2843ZM21.4058 13.6277L23.5468 10.098L19.4975 8.92096L21.4058 13.6277ZM4.49075 10.0184L6.60925 13.6412L8.44399 8.98402C7.12574 9.32633 5.809 9.67314 4.49075 10.0184ZM6.46212 13.982L4.2295 10.1656L0.429406 13.9219L4.24001 17.7368L6.46212 13.982ZM13.8131 27.6997C12.5429 26.4611 11.2712 25.2225 10.001 23.9839L8.86439 26.7058C10.3958 27.3259 12.0639 27.6757 13.8131 27.6997ZM17.99 24.068L14.4302 27.6937C16.0712 27.6427 17.6402 27.3034 19.0876 26.7254L17.99 24.068ZM23.8275 10.2106L21.5454 13.9715L23.82 17.7534L27.5811 13.8303L23.826 10.2091L23.8275 10.2106ZM8.73376 19.1616L4.42018 18.1677V23.6026L9.75924 23.574L8.73376 19.1631V19.1616ZM4.50426 17.8795L8.60164 18.8238L6.61676 14.3093L4.50426 17.8795ZM13.9482 21.3265L10.2277 23.7857L14.1224 27.5811L17.8669 23.7662L17.8519 23.7302L13.9482 21.325V21.3265ZM18.9885 19.3643L14.28 21.1809L18.0216 23.4855L18.9885 19.3643ZM23.6444 18.2338L19.3248 19.2472L18.3098 23.571L23.6684 23.5185L23.6459 18.2338H23.6444ZM19.4524 18.9079L23.5843 17.9395L21.3998 14.3078L19.4524 18.9079ZM13.9467 20.9872C15.6598 20.3296 17.3744 19.6691 19.0861 19.0055C19.7947 17.3255 20.5064 15.6455 21.2181 13.967C20.5169 12.2479 19.8203 10.5244 19.1251 8.80386C17.391 8.08472 15.6523 7.37759 13.9167 6.66445L13.8281 6.6119C12.3687 7.31603 10.9183 7.9526 8.74127 8.90595L8.69773 8.91646C8.18725 10.3998 7.63322 11.8366 6.79693 13.979C7.51161 15.629 8.2458 17.2759 8.97099 18.9214C10.6286 19.612 12.2876 20.2996 13.9467 20.9872ZM10.058 23.5365L13.6269 21.1779L9.07008 19.2862L10.058 23.535V23.5365ZM14.0007 0C17.8144 0 21.2736 1.52536 23.7975 3.99957L23.8321 4.0341C23.8546 4.05662 23.8771 4.07764 23.8996 4.10016C23.9552 4.15571 24.0107 4.21276 24.0663 4.26981L24.1008 4.30584C26.6142 6.92568 28 10.3788 28 14C28 17.866 26.4325 21.3656 23.8996 23.8998C21.2631 26.5362 17.7228 28 13.9992 28C10.2757 28 6.63328 26.4326 4.09888 23.8998C1.56748 21.3656 0 17.866 0 14C0 10.134 1.56748 6.63442 4.10038 4.10016C6.63478 1.5674 10.1346 0 14.0007 0Z" fill="#1A1A1A"/>
</svg>
