<svg width="32" height="28" viewBox="0 0 32 28" fill="none" xmlns="http://www.w3.org/2000/svg">
<path d="M0.314497 9.67863C0.389257 10.6114 0.609222 11.5733 0.995962 12.5422C1.34101 13.4068 1.72487 14.2492 2.14612 15.0694L4.31991 13.6724L0.314497 9.67863ZM1.92327 3.82775L5.11926 5.52088L5.12214 1.10178C4.89211 1.21438 4.66784 1.3381 4.44931 1.47155C3.46592 2.07207 2.60474 2.87554 1.92471 3.82775H1.92327ZM4.99276 5.77109L1.76225 4.05989C1.66305 4.21002 1.56672 4.36293 1.47615 4.51862C0.706981 5.8406 0.26848 7.39054 0.285732 9.04892L4.99276 5.77109ZM9.92836 6.48004L10.1081 3.1897L10.0664 3.16885L5.4068 1.16573L5.40394 5.64042L9.92836 6.48004ZM5.8525 20.5714L4.44355 13.9254L2.27407 15.3196C3.20858 17.0948 4.32278 18.7587 5.60952 20.2878C5.69003 20.3823 5.77055 20.4768 5.85106 20.5714H5.8525ZM10.3884 3.33149C10.3323 4.38517 10.2734 5.43747 10.2145 6.49116L15.5325 5.92817L10.3884 3.33149ZM9.65087 0.341405C9.2742 0.294142 8.90183 0.273291 8.53378 0.278851C7.47995 0.294142 6.46495 0.519337 5.52902 0.916902L10.0721 2.86998L9.65087 0.342795V0.341405ZM13.0122 1.50769C11.9929 0.914122 10.9621 0.549919 9.94849 0.384498L10.3668 2.89361L13.0122 1.50769ZM7.64098 10.8352L5.20553 5.96431L0.366251 9.33389L4.5485 13.5042L7.63954 10.8352H7.64098ZM10.3553 24.7152L13.0165 22.9109L6.86462 21.6751C7.92852 22.7747 9.09305 23.7922 10.3553 24.7152ZM13.3127 23.0485L10.5969 24.8904C11.1748 25.3046 11.7729 25.698 12.3911 26.0719L12.394 26.0747C13.0381 26.4876 13.6649 26.8323 14.2716 27.1076C14.6929 27.298 15.1055 27.4565 15.5095 27.5802L13.3113 23.0485H13.3127ZM5.51463 5.94346L7.82069 10.5572L9.84784 6.74693C8.40439 6.47726 6.95809 6.21036 5.5132 5.94346H5.51463ZM9.51718 16.807C7.96878 15.9215 6.42182 15.0055 4.74978 13.9865L6.23635 20.9995L6.53396 21.3262L13.0798 22.6412L9.54449 16.8946L9.51718 16.8084V16.807ZM13.3961 22.612L15.751 20.2419C13.675 19.1326 11.8247 18.1192 9.99161 17.0781L13.3975 22.6134L13.3961 22.612ZM4.77853 13.6765L9.42804 16.5206L7.74449 11.116L4.77853 13.6765ZM31.6835 9.68558L27.7141 13.6724L29.8605 15.0527C30.2789 14.2381 30.6585 13.4013 31.0021 12.5422C31.3874 11.5747 31.6073 10.6156 31.6835 9.68558ZM30.2458 4.07379L27.0412 5.77109L31.7123 9.0517C31.731 7.39193 31.2911 5.84199 30.5219 4.51862C30.4342 4.3671 30.3422 4.21975 30.2458 4.07379ZM26.9176 5.52088L30.0863 3.84165C29.4048 2.88388 28.5407 2.07485 27.5516 1.47155C27.3446 1.34505 27.1318 1.22689 26.9133 1.11985L26.9162 5.52088H26.9176ZM21.8195 6.48977C21.762 5.43608 21.7045 4.38378 21.647 3.3301L16.5029 5.92678L21.821 6.48977H21.8195ZM19.7593 26.3069C19.1066 26.7253 18.4683 27.0756 17.8486 27.3564C17.2246 27.6386 16.6208 27.8513 16.0342 27.9917L15.9997 28L15.9652 27.9917C15.3787 27.8513 14.7734 27.64 14.1509 27.3564C13.5298 27.0756 12.8929 26.7239 12.2402 26.3069C9.59049 24.7041 7.30024 22.7302 5.38955 20.4615C3.43141 18.1373 1.87152 15.5031 0.729992 12.6423C-0.476233 9.61886 -0.102438 6.67048 1.22743 4.38239C1.98078 3.08683 3.04179 2.00256 4.29546 1.23662C5.55057 0.470683 7.00122 0.023075 8.53092 0.000833608C10.975 -0.0339186 13.6204 1.0156 15.9997 3.58448C18.3791 1.0156 21.0245 -0.0339186 23.4685 0.000833608C24.9997 0.023075 26.4489 0.470683 27.704 1.23662C28.9577 2.00256 30.0187 3.08683 30.772 4.38239C31.6059 5.81557 32.0645 7.51009 31.9926 9.3186C31.9926 9.32277 31.9926 9.32694 31.9926 9.3325C31.9495 10.4056 31.7195 11.5191 31.2709 12.6423C30.128 15.5045 28.5681 18.1373 26.6114 20.4615C24.6762 22.7594 22.3659 24.7305 19.7607 26.3069H19.7593ZM27.5904 13.9254C27.116 16.1342 26.6401 18.3431 26.1628 20.5519C26.239 20.4643 26.3138 20.3754 26.3885 20.2878C27.6796 18.7545 28.7967 17.085 29.7326 15.3029L27.5904 13.9254ZM21.9259 3.1897L22.1056 6.48004L26.6301 5.64042L26.6272 1.16573L21.9676 3.16885L21.9259 3.1897ZM22.3845 0.335845L21.9633 2.8672L26.4877 0.922462C25.5475 0.520727 24.5253 0.292752 23.4657 0.277461C23.1091 0.271901 22.7483 0.291362 22.3845 0.335845ZM21.473 3.10629L18.7242 1.66616C17.8515 2.20968 16.9903 2.9228 16.1622 3.82775V5.78777L21.473 3.10629ZM19.0045 1.49657L21.6686 2.89222L22.0869 0.376157C21.069 0.538798 20.0296 0.901611 19.0045 1.49518V1.49657ZM24.2147 10.5572L26.5208 5.94346C25.0759 6.21036 23.631 6.47726 22.1861 6.74693L24.2133 10.5572H24.2147ZM21.4213 24.8765L18.7227 23.0471L16.5317 27.5663C16.9227 27.444 17.321 27.2911 17.7278 27.1062C18.3346 26.8309 18.9599 26.4862 19.6055 26.0733L19.6083 26.0706C20.2323 25.6925 20.8376 25.2949 21.4213 24.8765ZM19.0189 22.9095L21.6628 24.7013C22.9208 23.7797 24.081 22.7649 25.142 21.6681L19.0189 22.9095ZM26.8299 5.96431L24.3959 10.8338L27.4869 13.5028L31.6347 9.33667L26.8299 5.96292V5.96431ZM22.6074 16.5206L27.2569 13.6765L24.2909 11.116L22.6074 16.5206ZM16.0184 20.0668L22.2379 16.7431L24.0638 10.8811C23.3363 9.51182 22.6074 8.14397 21.8799 6.77474L16.0184 6.15476L10.1569 6.77474C9.42947 8.14397 8.70201 9.51182 7.9731 10.8811L9.79896 16.7417L16.0184 20.0654V20.0668ZM18.487 22.8595L16.0184 20.374L13.5499 22.8595L13.5614 22.8789L13.5513 22.8859L15.8775 27.6831C15.9178 27.6942 15.9595 27.7039 15.9997 27.7136C16.0544 27.7011 16.109 27.6872 16.1636 27.6719L18.4855 22.8859L18.4754 22.8789L18.487 22.8595ZM22.0438 17.0767C20.2107 18.1192 18.359 19.1312 16.2844 20.2405L18.6393 22.6106L22.0452 17.0753L22.0438 17.0767ZM27.2842 13.9865C25.6136 15.0055 24.0652 15.9201 22.5182 16.8056L22.4909 16.8918L18.9556 22.6384L25.4741 21.3165L25.5561 21.2289L25.7746 20.9898L27.2842 13.9865ZM15.8747 3.86389C15.0394 2.94643 14.1724 2.22359 13.2926 1.67311L10.5638 3.10351L15.8747 5.78499V3.86389Z" fill="#1A1A1A"/>
</svg>
