<svg width="22" height="28" viewBox="0 0 22 28" fill="none" xmlns="http://www.w3.org/2000/svg">
<path d="M0.37321 3.03895L2.49857 4.85098C3.27197 4.02538 4.04537 3.19978 4.81878 2.37418L2.97221 0.373742L0.37321 3.03895ZM16.8949 2.22101L18.6621 0.306346H3.32143L5.08857 2.22101H16.8949ZM0.301269 24.4142L2.35918 22.8993C2.35468 16.9761 2.35918 11.0545 2.35918 5.13129L0.301269 3.37593V24.4127V24.4142ZM3.19853 27.6109L4.68088 25.4895C3.95095 24.719 3.22101 23.9486 2.49257 23.1766L0.382207 24.7313L3.20003 27.6109H3.19853ZM19.8102 22.9805L21.6987 24.3713V3.35908L19.8072 4.97199L19.8102 4.97506V22.9805ZM17.4016 25.5247L18.8359 27.5772L21.6448 24.7068L19.6333 23.2256C18.8899 23.9915 18.145 24.7573 17.4016 25.5232V25.5247ZM18.5497 27.6937L17.1078 25.6289H4.95217L3.51029 27.6937H18.5512H18.5497ZM11.036 4.29956C12.6637 3.89519 14.4039 3.31313 16.2744 2.52888H5.76604C7.64259 3.31619 9.39325 3.89672 11.0345 4.29956H11.036ZM16.2504 25.3225C14.3874 24.5429 12.6502 23.9654 11.021 23.5656C9.39174 23.967 7.65309 24.5429 5.79153 25.3225H16.2504ZM5.05409 5.03173C5.03461 4.23676 4.98665 3.46477 4.91021 2.71729L2.89127 4.87243C3.58973 4.96433 4.30917 5.01947 5.05409 5.03173ZM5.20098 2.61772C5.28192 3.39737 5.33288 4.20306 5.35236 5.03479C6.51097 5.03632 7.72653 4.93676 9.01553 4.72079C9.46668 4.64573 9.92683 4.55536 10.396 4.44967C8.77272 4.01772 7.04606 3.41422 5.20098 2.61772ZM4.38711 13.6753C4.05437 11.0284 3.50579 8.44136 2.65894 5.93545V21.7429C3.39637 18.9184 3.97942 16.2225 4.38711 13.6753ZM4.81128 22.5348C4.84875 19.9921 4.77831 17.4801 4.53699 15.014C4.528 14.9252 4.51901 14.8379 4.51001 14.749C4.06786 17.2687 3.46233 19.9263 2.7129 22.7033C3.39038 22.6114 4.08884 22.5532 4.81128 22.5348ZM4.73934 25.1142C4.76931 24.3545 4.7933 23.5963 4.80679 22.8411C4.09783 22.8595 3.41137 22.9177 2.74588 23.0081L4.73934 25.1142ZM5.10505 22.835C5.09007 23.6591 5.06459 24.4862 5.03011 25.3164C6.93214 24.4847 8.70977 23.8597 10.378 23.4155C9.90435 23.3098 9.43971 23.221 8.98406 23.1444C7.61562 22.9177 6.32661 22.8212 5.10505 22.835ZM2.70241 5.1558C3.57774 7.57593 4.16828 10.0742 4.54449 12.6276C4.58796 12.3258 4.62842 12.0271 4.6659 11.73C4.95517 9.46608 5.09157 7.33085 5.05859 5.33807C4.24622 5.32429 3.46232 5.26302 2.70241 5.1558ZM16.7181 5.0256C16.7391 4.19387 16.79 3.38512 16.871 2.60394C15.0214 3.40503 13.2947 4.0116 11.676 4.44814C12.1451 4.5523 12.6053 4.64114 13.0564 4.71619C14.3439 4.9291 15.561 5.02713 16.7181 5.02713V5.0256ZM17.1497 2.82144C17.0808 3.5337 17.0358 4.26893 17.0163 5.02407C17.7883 5.01182 18.5332 4.95514 19.2526 4.85864L17.1482 2.82144H17.1497ZM17.1947 2.39256L17.1887 2.44004L19.5869 4.76214L21.6268 3.0221L19.0143 0.366083L17.1482 2.38643L17.1917 2.39103L17.1947 2.39256ZM17.5245 12.6291C17.9022 10.0726 18.4912 7.5744 19.368 5.15274C18.6096 5.25689 17.8242 5.31816 17.0104 5.33195C16.9774 7.32779 17.1138 9.46608 17.4031 11.7315C17.4405 12.0287 17.481 12.3274 17.5245 12.6291ZM16.9594 22.5302C16.9219 19.9814 16.9924 17.4602 17.2352 14.9849C17.2787 14.5484 17.3266 14.1149 17.3806 13.6814C17.2771 13.035 17.1857 12.3978 17.1063 11.7698C16.8155 9.49059 16.6776 7.34004 16.7106 5.33195C15.5415 5.33195 14.3109 5.23239 13.0084 5.01794C12.3684 4.91225 11.7105 4.77746 11.0345 4.61357C10.3585 4.77899 9.702 4.91532 9.062 5.02254C7.7595 5.24158 6.52895 5.34114 5.35686 5.34114C5.38833 7.34617 5.25194 9.49519 4.96117 11.7698C4.88173 12.3978 4.7888 13.0335 4.68688 13.6799C4.74083 14.1133 4.7888 14.5484 4.83226 14.9834C5.07508 17.4586 5.14553 19.9783 5.10806 22.5287C6.3431 22.5149 7.6456 22.6129 9.02903 22.8411C9.67503 22.9484 10.3375 23.0832 11.0195 23.2486C11.7 23.0832 12.3639 22.9468 13.0084 22.8411C14.4024 22.6098 15.7154 22.5118 16.9579 22.5287L16.9594 22.5302ZM17.0403 25.3225C17.0059 24.4908 16.9804 23.6621 16.9654 22.8365C15.7363 22.8197 14.4368 22.9162 13.0579 23.1444C12.6023 23.2195 12.1376 23.3098 11.664 23.4155C13.3367 23.8613 15.1188 24.4893 17.0268 25.3241H17.0418L17.0403 25.3225ZM17.2637 22.8427C17.2772 23.6131 17.3011 24.3867 17.3326 25.1632L19.4085 23.0249C18.716 22.9269 18.0026 22.8641 17.2637 22.8427ZM17.5604 14.7505C17.5514 14.8394 17.5424 14.9267 17.5335 15.0155C17.2906 17.4816 17.2217 19.9937 17.2592 22.5363C17.9816 22.5562 18.6801 22.6144 19.359 22.7079C18.6096 19.9293 18.0041 17.2718 17.5619 14.7505H17.5604ZM19.5104 5.64901C18.6066 8.24529 18.0281 10.9289 17.6833 13.6768C18.109 16.3359 18.725 19.1573 19.5104 22.1197V5.64748V5.64901ZM2.9737 0.00153176H19.0818L22 2.96849V24.7772L18.8464 28H3.15506L0 24.7757V2.98687C0.969751 1.99125 1.941 0.995624 2.91075 0H2.97221L2.9737 0.00153176Z" fill="#1A1A1A"/>
</svg>
