<svg width="28" height="28" viewBox="0 0 28 28" fill="none" xmlns="http://www.w3.org/2000/svg">
<path d="M18.8136 5.83401H9.18374L5.83322 9.22647V18.8155L9.15389 22.1673H18.7553L22.1654 18.8344V9.3171L18.8136 5.83401ZM3.92136 7.98203L5.67458 9.00193C6.77831 7.88328 7.88475 6.76599 8.98847 5.64734L7.94983 3.90377L3.92136 7.98203ZM2.01085 6.87014L3.67999 7.84135C5.05491 6.44812 6.43255 5.05623 7.80746 3.663L6.81898 2.00328L2.01085 6.87014ZM0.353896 5.9057L1.76949 6.72947C3.40475 5.07382 5.04136 3.41816 6.67526 1.76251L5.83593 0.354396L0.352539 5.9057H0.353896ZM21.0495 1.657L21.8753 0.270531H6.10169L6.92746 1.657H21.0481H21.0495ZM19.9119 3.56696L20.8881 1.92754H7.08881L8.06509 3.56696H19.9105H19.9119ZM18.7241 5.56213L19.7519 3.83749H8.22916L9.25695 5.56213H18.7254H18.7241ZM26.141 6.76734L27.5458 5.95034L22.1478 0.342222L21.3098 1.74899C22.9207 3.42222 24.5315 5.09411 26.141 6.7687V6.76734ZM24.2427 7.87111L25.8997 6.90667L21.1661 1.98841L20.1776 3.64812C21.5336 5.05623 22.8881 6.46299 24.2427 7.87111ZM22.2617 9.02357L24.0027 8.01043L20.0353 3.88754L18.9966 5.63111C20.0854 6.76193 21.1742 7.8914 22.2617 9.02357ZM1.74102 21.2989L0.319998 22.1254L5.82373 27.6808L6.6644 26.2686C5.02373 24.6116 3.3817 22.9559 1.74102 21.2989ZM3.65695 20.1843L1.98236 21.1583L6.80678 26.0292L7.79796 24.3641C6.41762 22.9708 5.03594 21.5776 3.65695 20.183V20.1843ZM5.65831 19.0197L3.8983 20.0437L7.9417 24.1246L8.98305 22.3757C7.87525 21.257 6.76611 20.1384 5.65831 19.0197ZM3.83864 19.7664L5.56203 18.7641V9.24811L3.83864 8.2458V19.7677V19.7664ZM1.92814 20.8783L3.56746 19.9246V8.08754L1.92814 7.13391V20.8796V20.8783ZM0.271187 21.8427L1.65695 21.0365V6.977L0.271187 6.17082V21.8441V21.8427ZM19.7424 24.1612L18.7146 22.4365H9.26102L8.23323 24.1612H19.741H19.7424ZM20.88 26.0711L19.9037 24.4317H8.07322L7.09696 26.0711H20.88ZM21.8671 27.7281L21.0414 26.3416H6.93559L6.10983 27.7281H21.8671ZM26.3431 21.0487L27.7288 21.8549V6.15729L26.3336 6.96889L26.3431 6.97836V21.0487ZM24.4326 19.9368L26.0719 20.8904V7.12174L24.4326 8.07536V19.9395V19.9368ZM22.438 18.7762L24.1614 19.7785V8.23362L22.438 9.23594V18.7789V18.7762ZM24.1085 20.0599L22.3458 19.0346C21.2203 20.1343 20.0963 21.234 18.9708 22.3337L20.0054 24.0705L24.1085 20.0599ZM26.0285 21.1772L24.3512 20.2019C22.9505 21.5722 21.5498 22.9411 20.1478 24.3099L21.1322 25.9629L26.0285 21.1772ZM27.6936 22.1457L26.2712 21.3179C24.6061 22.9465 22.941 24.5737 21.2746 26.201L22.1098 27.6023L27.6936 22.1457ZM5.8644 0H22.1925C24.1288 2.0114 26.0651 4.02145 28 6.03285V22.2228C26.0298 24.149 24.0597 26.0752 22.0881 28H5.75729C3.83865 26.0616 1.91864 24.126 0 22.1876C0 16.7513 0.0040678 11.315 0 5.88C1.93627 3.92 3.87119 1.96 5.80882 0H5.8644Z" fill="#1A1A1A"/>
</svg>
