<svg xmlns="http://www.w3.org/2000/svg" viewBox="0 0 58.2 20">
  <title>engagement-three</title>
  <g id="Layer_2" data-name="Layer 2">
    <g id="Layer_1-2" data-name="Layer 1">
      <path d="M15.1,13.88a4,4,0,0,1-4-3.91V9.78a4,4,0,0,1,8-.18V10A3.86,3.86,0,0,1,15.1,13.88Z" fill="none" stroke="#1a1a1a" stroke-miterlimit="10" stroke-width="0.2"/>
      <path d="M43.1,13.88a4,4,0,0,1-4-3.91V9.78a4,4,0,0,1,8-.18V10A3.86,3.86,0,0,1,43.1,13.88Z" fill="none" stroke="#1a1a1a" stroke-miterlimit="10" stroke-width="0.2"/>
      <path d="M29.32.22,32,2.83l.8-1.9A9.5,9.5,0,0,0,29.32.22M25.48.91l.8,1.9L28.88.22a9.42,9.42,0,0,0-3.4.69Zm13.4,9.19-2.6,2.72,1.9.83A9.76,9.76,0,0,0,38.88,10.1ZM22.41,2.86l3.67,0L25.28,1a9.67,9.67,0,0,0-2.87,1.87ZM25.23,19,26,17.05l-3.7,0A9.6,9.6,0,0,0,25.23,19ZM20,13.61l2-.81-2.64-2.64A9.68,9.68,0,0,0,20,13.61ZM22,13l-2,.8a9.82,9.82,0,0,0,2,3ZM22,7.12,20,6.32a9.7,9.7,0,0,0-.71,3.41Zm16.22-.79-1.91.8,2.62,2.53A9.66,9.66,0,0,0,38.17,6.33ZM36.31,3.38,36.26,6.9l1.83-.77a10,10,0,0,0-1.78-2.75Zm-4.13-.47,3.61-.05A9.79,9.79,0,0,0,33,1l-.8,1.9ZM29.06,4.52,31.84,3,29.1.3,26.42,3ZM25.4,6.1l3.42-1.47L26.31,3.17c-.35,1.2-.62,2.09-.9,2.93ZM22.25,7l3-.78.88-3.06-3.85,0V7Zm-2.14-.82,1.93.8V3.23A9.8,9.8,0,0,0,20.11,6.13ZM32.69,6,32,3.18c-1.09.6-1.92,1-2.73,1.42Zm3.24,11-3.81,0,.81,2a9.85,9.85,0,0,0,3-2Zm.27-4c0,1.23,0,2.46,0,3.7a9.88,9.88,0,0,0,1.88-2.88Zm-4-9.9.77,3L36,7l.06-3.86L36,3.07l-3.85.05Zm2.23,6.61,1.53-2.52L33,6.37ZM22.31,7.16l1.51,2.58,1.31-3.32ZM23.72,10l-1.6-2.73L19.41,9.94l2.72,2.73ZM29,19.79l-2.73-2.66-.81,1.95A9.93,9.93,0,0,0,29,19.79Zm3-2.6-2.54,2.59a9.88,9.88,0,0,0,3.32-.69Zm4.17-9.9L34.49,10l1.62,2.7,2.69-2.8L36.12,7.29Zm-10.78,6.4L22.26,13v3.88l3.81,0-.73-3.15Zm-3-.92,2.92.68-1.41-3.23Zm6.74,2.46L26.41,17l2.78,2.71L31.86,17v0l-2.79-1.72Zm3.6-1.4-3.36,1.3L32,16.78ZM36,13l-3.09.73-.72,3.09,3.83,0L36,13Zm-3,.49,3-.7-1.56-2.59ZM29.06,15l3.67-1.41L34.26,10c-.51-1.23-1-2.46-1.5-3.69-1.24-.52-2.48-1-3.72-1.53l-.06,0c-1.05.51-2.08,1-3.64,1.64h0C25,7.43,24.55,8.45,24,10c.51,1.18,1,2.36,1.55,3.54Zm-2.78,1.82,2.55-1.68-3.25-1.35.7,3ZM29.1,0a10,10,0,0,1,7,2.86l0,0,.05.05.12.12,0,0A10,10,0,0,1,29.1,20,10.15,10.15,0,0,1,22,17.07,10,10,0,0,1,29.1,0Z" fill="#1a1a1a"/>
      <path d="M1.52,8H9.27C10,8,11.1,9.3,11.1,10s-1,2-1.83,2H1.52A1.35,1.35,0,0,1,.1,10.8V9.2A1.43,1.43,0,0,1,1.52,8Z" fill="none" stroke="#1a1a1a" stroke-miterlimit="10" stroke-width="0.2"/>
      <path d="M56.68,12H48.93c-.71,0-1.83-1.3-1.83-2s1-2,1.83-2h7.75A1.35,1.35,0,0,1,58.1,9.2v1.6A1.43,1.43,0,0,1,56.68,12Z" fill="none" stroke="#1a1a1a" stroke-miterlimit="10" stroke-width="0.2"/>
    </g>
  </g>
</svg>
