<svg xmlns="http://www.w3.org/2000/svg" viewBox="0 0 58.2 27.3">
  <title>engagement-halo</title>
  <g id="Layer_2" data-name="Layer 2">
    <g id="Layer_1-2" data-name="Layer 1">
      <path d="M29.32,4.63,31.8,7l.74-1.75a9.07,9.07,0,0,0-3.22-.66m-3.59.63L26.48,7l2.43-2.39a9.33,9.33,0,0,0-3.18.63Zm12.51,8.48-2.43,2.51,1.77.76A8.87,8.87,0,0,0,38.24,13.74ZM22.87,7.07l3.43,0-.75-1.76a9.2,9.2,0,0,0-2.68,1.73Zm2.64,14.87.75-1.78H22.8A8.94,8.94,0,0,0,25.51,21.94Zm-4.89-5,1.83-.74L20,13.79A9.11,9.11,0,0,0,20.62,17Zm1.91-.56-1.83.74a9.07,9.07,0,0,0,1.83,2.74ZM22.45,11l-1.8-.74A8.9,8.9,0,0,0,20,13.4Zm15.13-.73L35.79,11l2.44,2.33A8.67,8.67,0,0,0,37.58,10.27ZM35.84,7.55l-.05,3.24,1.71-.71a9.08,9.08,0,0,0-1.66-2.53ZM32,7.11l3.36,0a9.19,9.19,0,0,0-2.62-1.71L32,7.11ZM29.07,8.6l2.6-1.41L29.11,4.71l-2.5,2.47Zm-3.41,1.46L28.85,8.7,26.51,7.35c-.32,1.11-.58,1.93-.84,2.71Zm-2.94.78,2.77-.72.83-2.82-3.6,0v3.58Zm-2-.76,1.79.74V7.41A8.82,8.82,0,0,0,20.73,10.08ZM32.46,10l-.69-2.63c-1,.55-1.79,1-2.54,1.31Zm3,10.13-3.55,0L32.69,22a9.21,9.21,0,0,0,2.79-1.84Zm.26-3.69v3.41a9.1,9.1,0,0,0,1.76-2.64ZM32,7.31l.72,2.76,2.9.84,0-3.56-.08-.09L32,7.31Zm2.08,6.1,1.42-2.33-2.7-.77ZM22.78,11l1.41,2.38,1.22-3.06Zm1.31,2.61L22.6,11.13,20.07,13.6l2.54,2.51Zm4.9,9-2.54-2.45L25.69,22A9.24,9.24,0,0,0,29,22.68Zm2.78-2.4L29.4,22.67A9.12,9.12,0,0,0,32.5,22Zm3.89-9.13-1.52,2.48,1.51,2.49,2.51-2.58-2.5-2.39ZM25.6,17.05l-2.87-.65V20l3.56,0-.69-2.91Zm-2.82-.84,2.73.62-1.32-3Zm6.3,2.27L26.6,20.1l2.59,2.5,2.5-2.52v0l-2.6-1.58Zm3.36-1.3-3.14,1.2,2.49,1.52Zm3.1-.74-2.88.67L32,20l3.57,0V16.44Zm-2.8.44,2.76-.63L34,13.85Zm-3.66,1.37L32.5,17c.47-1.11,1-2.22,1.42-3.32-.47-1.13-.93-2.27-1.39-3.4L29.06,8.82l-.06,0c-1,.47-1.94.89-3.39,1.52h0c-.34,1-.71,1.93-1.27,3.34l1.45,3.25Zm-2.6,1.68,2.38-1.55-3-1.25.65,2.8Zm2.63-15.5a9.35,9.35,0,0,1,6.53,2.63l0,0,.05,0,.11.11,0,0a9.14,9.14,0,0,1-.13,12.9,9.35,9.35,0,0,1-6.6,2.7,9.53,9.53,0,0,1-6.6-2.7,9.14,9.14,0,0,1,0-13A9.33,9.33,0,0,1,29.11,4.43Z" fill="#1a1a1a"/>
      <path d="M38.44,13.65a2.3,2.3,0,0,1,2.27-2.31h.11a2.31,2.31,0,0,1,2.28,2.31A2.28,2.28,0,0,1,40.93,16h-.22A2.23,2.23,0,0,1,38.44,13.65Z" fill="none" stroke="#1a1a1a" stroke-miterlimit="10" stroke-width="0.2"/>
      <path d="M37.52,17.65a2.32,2.32,0,0,1,3.06-1.1l.1,0a2.31,2.31,0,0,1-1.92,4.2l-.2-.09A2.21,2.21,0,0,1,37.52,17.65Z" fill="none" stroke="#1a1a1a" stroke-miterlimit="10" stroke-width="0.2"/>
      <path d="M34.93,20.86a2.34,2.34,0,0,1,3.25.32l.06.08a2.27,2.27,0,0,1-.39,3.2,2.32,2.32,0,0,1-3.17-.23l-.14-.17A2.21,2.21,0,0,1,34.93,20.86Z" fill="none" stroke="#1a1a1a" stroke-miterlimit="10" stroke-width="0.2"/>
      <path d="M31.19,22.65A2.31,2.31,0,0,1,34,24.33l0,.1a2.33,2.33,0,0,1-4.52,1.14l0-.21A2.22,2.22,0,0,1,31.19,22.65Z" fill="none" stroke="#1a1a1a" stroke-miterlimit="10" stroke-width="0.2"/>
      <path d="M27,22.64a2.29,2.29,0,0,1,1.76,2.71l0,.1A2.31,2.31,0,0,1,26,27.13a2.29,2.29,0,0,1-1.79-2.61l.05-.21A2.26,2.26,0,0,1,27,22.64Z" fill="none" stroke="#1a1a1a" stroke-miterlimit="10" stroke-width="0.2"/>
      <path d="M23.27,20.84a2.28,2.28,0,0,1,.39,3.2l-.07.09a2.33,2.33,0,0,1-3.24.31,2.26,2.26,0,0,1-.46-3.12l.13-.16A2.27,2.27,0,0,1,23.27,20.84Z" fill="none" stroke="#1a1a1a" stroke-miterlimit="10" stroke-width="0.2"/>
      <path d="M20.69,17.63a2.28,2.28,0,0,1-1,3.06l-.1,0a2.32,2.32,0,0,1-3.06-1.1,2.26,2.26,0,0,1,.94-3l.2-.1A2.26,2.26,0,0,1,20.69,17.63Z" fill="none" stroke="#1a1a1a" stroke-miterlimit="10" stroke-width="0.2"/>
      <path d="M19.78,13.58a2.3,2.3,0,0,1-2.29,2.29h-.11a2.31,2.31,0,0,1-2.26-2.32,2.28,2.28,0,0,1,2.19-2.29h.21A2.23,2.23,0,0,1,19.78,13.58Z" fill="none" stroke="#1a1a1a" stroke-miterlimit="10" stroke-width="0.2"/>
      <path d="M20.73,9.6a2.33,2.33,0,0,1-3.07,1.08l-.1,0a2.28,2.28,0,0,1-1-3.06,2.33,2.33,0,0,1,3-1.13l.19.1A2.21,2.21,0,0,1,20.73,9.6Z" fill="none" stroke="#1a1a1a" stroke-miterlimit="10" stroke-width="0.2"/>
      <path d="M23.31,6.43a2.34,2.34,0,0,1-3.24-.34L20,6a2.29,2.29,0,0,1,.42-3.2,2.33,2.33,0,0,1,3.18.25l.13.17A2.21,2.21,0,0,1,23.31,6.43Z" fill="none" stroke="#1a1a1a" stroke-miterlimit="10" stroke-width="0.2"/>
      <path d="M27.05,4.66A2.34,2.34,0,0,1,24.27,3l0-.11a2.33,2.33,0,0,1,4.53-1.1l0,.21A2.23,2.23,0,0,1,27.05,4.66Z" fill="none" stroke="#1a1a1a" stroke-miterlimit="10" stroke-width="0.2"/>
      <path d="M31.27,4.68A2.3,2.3,0,0,1,29.53,2l0-.1A2.31,2.31,0,0,1,32.35.19a2.28,2.28,0,0,1,1.77,2.62l0,.21A2.27,2.27,0,0,1,31.27,4.68Z" fill="none" stroke="#1a1a1a" stroke-miterlimit="10" stroke-width="0.2"/>
      <path d="M35,6.49a2.26,2.26,0,0,1-.37-3.2l.06-.08a2.33,2.33,0,0,1,3.25-.29A2.26,2.26,0,0,1,38.37,6l-.14.16A2.26,2.26,0,0,1,35,6.49Z" fill="none" stroke="#1a1a1a" stroke-miterlimit="10" stroke-width="0.2"/>
      <path d="M37.54,9.71a2.29,2.29,0,0,1,1.07-3.05l.09,0a2.33,2.33,0,0,1,3.06,1.12,2.26,2.26,0,0,1-1,3l-.19.09A2.27,2.27,0,0,1,37.54,9.71Z" fill="none" stroke="#1a1a1a" stroke-miterlimit="10" stroke-width="0.2"/>
      <path d="M56.16,16.66H45.6c-1,0-2.5-1.95-2.5-3,0-.9,1.37-3,2.5-3H56.16a1.9,1.9,0,0,1,1.94,1.8v2.4A2,2,0,0,1,56.16,16.66Z" fill="none" stroke="#1a1a1a" stroke-miterlimit="10" stroke-width="0.2"/>
      <path d="M2,10.66H12.6c1,0,2.5,1.95,2.5,3,0,.9-1.37,3-2.5,3H2A1.9,1.9,0,0,1,.1,14.86v-2.4A2,2,0,0,1,2,10.66Z" fill="none" stroke="#1a1a1a" stroke-miterlimit="10" stroke-width="0.2"/>
    </g>
  </g>
</svg>
