<svg xmlns="http://www.w3.org/2000/svg" viewBox="0 0 58.2 22">
  <title>engagement-accent</title>
  <g id="Layer_2" data-name="Layer 2">
    <g id="Layer_1-2" data-name="Layer 1">
      <path d="M29.34.24l2.93,2.87L33.15,1A10.7,10.7,0,0,0,29.34.24M25.12,1,26,3.1,28.86.24A10.57,10.57,0,0,0,25.12,1ZM39.86,11.11,37,14.1l2.09.91A10.55,10.55,0,0,0,39.86,11.11Zm-18.12-8,4,0L24.9,1.09a10.65,10.65,0,0,0-3.16,2.06Zm3.11,17.74.89-2.13-4.08,0A10.74,10.74,0,0,0,24.85,20.89ZM19.09,15l2.16-.89-2.91-2.91A10.67,10.67,0,0,0,19.09,15Zm2.25-.67-2.16.89a10.76,10.76,0,0,0,2.16,3.27Zm-.1-6.46L19.12,7a10.58,10.58,0,0,0-.78,3.74ZM39.08,7,37,7.84l2.88,2.78A10.88,10.88,0,0,0,39.08,7ZM37,3.72,37,7.59l2-.84a10.87,10.87,0,0,0-2-3ZM32.49,3.2l4-.05a10.71,10.71,0,0,0-3.09-2L32.49,3.2ZM29.05,5l3.07-1.68-3-3-3,2.95ZM25,6.71l3.75-1.62L26,3.48c-.38,1.32-.68,2.31-1,3.23Zm-3.47.94,3.26-.86,1-3.37-4.24,0V7.65Zm-2.36-.91,2.12.88V3.55A11,11,0,0,0,19.21,6.74Zm13.84-.11-.81-3.14c-1.21.66-2.12,1.14-3,1.57Zm3.56,12.08-4.18,0,.88,2.16a10.89,10.89,0,0,0,3.3-2.2Zm.3-4.39,0,4.07A10.94,10.94,0,0,0,39,15.23ZM32.47,3.43l.85,3.3,3.41,1,.07-4.25-.1-.1-4.23.05Zm2.45,7.28L36.6,7.93,33.42,7ZM21.63,7.87l1.66,2.85,1.44-3.66ZM23.18,11,21.42,8l-3,2.95,3,3ZM29,21.76l-3-2.92L25.06,21A10.54,10.54,0,0,0,29,21.76Zm3.28-2.85-2.79,2.85A10.86,10.86,0,0,0,33.1,21ZM36.82,8,35,11l1.79,3,3-3.08L36.82,8ZM25,15.06l-3.39-.79v4.27l4.2,0L25,15.06Zm-3.32-1,3.22.74L23.3,11.24Zm7.42,2.71-2.92,1.93,3.06,3,2.94-3v0l-3.07-1.89Zm4-1.55-3.7,1.43,2.94,1.81Zm3.66-.88-3.4.79-.79,3.4,4.21,0,0-4.15Zm-3.3.53,3.25-.76-1.72-2.86Zm-4.32,1.63,4-1.56c.55-1.32,1.11-2.64,1.67-4-.55-1.35-1.1-2.7-1.64-4.05L29,5.24,29,5.2c-1.14.55-2.28,1-4,1.8h0c-.4,1.16-.83,2.29-1.49,4,.56,1.3,1.14,2.59,1.71,3.89Zm-3.06,2,2.81-1.85-3.58-1.49L26,18.49ZM29.1,0a11,11,0,0,1,7.7,3.14l0,0,.05.05.13.13,0,0A11,11,0,0,1,29.1,22a11.16,11.16,0,0,1-7.78-3.22A11,11,0,0,1,29.1,0Z" fill="#1a1a1a"/>
      <path d="M3.1,14a3,3,0,0,1-3-2.93v-.14A3,3,0,0,1,3.1,8a3,3,0,0,1,3,2.79v.28A2.9,2.9,0,0,1,3.1,14Z" fill="none" stroke="#1a1a1a" stroke-miterlimit="10" stroke-width="0.2"/>
      <path d="M43.1,14a3,3,0,0,1-3-2.93v-.14a3,3,0,0,1,6-.14v.28A2.9,2.9,0,0,1,43.1,14Z" fill="none" stroke="#1a1a1a" stroke-miterlimit="10" stroke-width="0.2"/>
      <path d="M9.1,14a3,3,0,0,1-3-2.93v-.14a3,3,0,0,1,6-.14v.28A2.9,2.9,0,0,1,9.1,14Z" fill="none" stroke="#1a1a1a" stroke-miterlimit="10" stroke-width="0.2"/>
      <path d="M49.1,14a3,3,0,0,1-3-2.93v-.14a3,3,0,0,1,6-.14v.28A2.9,2.9,0,0,1,49.1,14Z" fill="none" stroke="#1a1a1a" stroke-miterlimit="10" stroke-width="0.2"/>
      <path d="M15.1,14a3,3,0,0,1-3-2.93v-.14a3,3,0,0,1,6-.14v.28A2.9,2.9,0,0,1,15.1,14Z" fill="none" stroke="#1a1a1a" stroke-miterlimit="10" stroke-width="0.2"/>
      <path d="M55.1,14a3,3,0,0,1-3-2.93v-.14a3,3,0,0,1,6-.14v.28A2.9,2.9,0,0,1,55.1,14Z" fill="none" stroke="#1a1a1a" stroke-miterlimit="10" stroke-width="0.2"/>
    </g>
  </g>
</svg>
