<svg width="228" height="32" viewBox="0 0 228 32" fill="none" xmlns="http://www.w3.org/2000/svg">
<path d="M31.5778 6.90526C31.5778 5.47368 31.7467 1.76842 32 0.421053C32 0.336842 32 0.252632 31.9156 0.252632C31.8311 0.168421 31.8311 0.168421 31.7467 0.168421C30.1425 0.421053 27.4406 0.505263 26.0897 0.505263H5.23483C4.05277 0.505263 2.87071 0.421053 1.77309 0.336842C1.09763 0.168421 0.591029 0.0842105 0.253298 0C0.253298 0 0.168865 0 0.0844327 0.0842105C0 0.0842105 0 0.168421 0 0.252632C0.0844327 0.505263 0.0844327 0.926316 0.168865 1.51579C0.253298 2.61053 0.337731 3.70526 0.337731 4.88421V26.9474C0.337731 28.0421 0.168865 30.6526 0 31.7474C0 31.8316 0 31.9158 0.0844327 32C0.168865 32 0.253298 32 0.337731 32C1.51979 31.6632 3.20844 31.4947 4.30607 31.4947H26.7652C28.0317 31.4947 30.4802 31.6632 31.6623 32C31.6623 32 31.6623 32 31.7467 32C31.8311 32 31.8311 32 31.9156 31.9158C32 31.8316 32 31.7474 32 31.6632C31.7467 30.6526 31.5778 28.8 31.5778 27.6211V6.90526ZM9.87863 30.1474H2.61741C2.19525 30.1474 1.85752 29.8105 1.85752 29.3895V22.2316C2.61741 23.9158 3.71504 25.5158 4.98153 26.8632C6.50132 28.4632 8.44327 29.4737 9.87863 30.1474ZM15.2823 8.50526C15.2823 9.26316 15.029 10.1053 14.5224 10.7789C14.1003 11.3684 13.5937 12.0421 13.1715 12.8842C12.9182 12.2105 12.7493 11.5368 12.5805 10.8632C12.5805 10.7789 11.2296 5.64211 10.8074 3.53684V3.45263C10.723 2.94737 10.5541 2.44211 10.5541 1.85263L15.1979 1.76842C15.2823 1.85263 15.4512 2.27368 15.4512 3.2C15.3668 4.46316 15.2823 8.50526 15.2823 8.50526ZM4.30607 6.31579C4.55937 6.14737 4.6438 6.06316 4.72823 6.06316C4.8971 5.89474 4.98153 5.89474 5.06596 5.81053C5.06596 5.81053 5.1504 5.81053 5.23483 5.72632L5.40369 5.47368H5.31926C5.31926 5.47368 4.05277 4.12632 3.54617 3.28421C3.20844 2.77895 3.03958 2.27368 2.95515 1.93684L8.94987 1.85263C9.2876 2.52632 9.45646 3.2 9.5409 3.78947L11.2296 10.9474C11.314 11.3684 11.3984 11.7053 11.4829 12.1263L11.8206 13.4737C9.87863 12.2947 8.61214 11.7895 8.61214 11.7895C8.44327 11.7053 7.76781 11.5368 7.76781 11.5368L7.51451 11.7053L7.34565 12.2105C7.34565 12.2105 6.83905 14.0632 6.75462 16.6737C4.6438 15.9158 2.61741 15.6632 1.77309 15.5789L1.85752 2.94737C2.11082 3.11579 2.53298 3.45263 2.87071 3.95789C3.37731 4.71579 3.71504 5.55789 3.8839 5.97895C3.96834 6.06316 3.96834 6.23158 3.96834 6.23158L4.30607 6.31579ZM2.02639 16.8421C2.02639 16.8421 2.11082 16.7579 2.19525 16.7579C3.54617 16.8421 7.09235 17.0105 10.3852 20.2105C10.8918 20.7158 10.9763 21.7263 11.0607 22.1474C11.314 25.6842 13.0871 28.6316 14.1003 30.0632V30.1474L14.0158 30.2316C13.0026 30.0632 9.2876 29.3053 5.99472 25.8526C2.70185 22.4 2.02639 19.0316 1.94195 17.2632C1.94195 17.0947 1.94195 16.9263 2.02639 16.8421ZM8.18997 17.0947C8.02111 15.7474 8.02111 13.4737 8.10554 12.8842C8.10554 12.7158 8.10554 12.6316 8.18997 12.6316C8.18997 12.6316 8.27441 12.6316 8.52771 12.7158C9.37203 13.1368 10.8074 13.9789 12.1583 14.9895C11.7361 16.1684 11.314 17.6 11.1451 18.8632C10.2164 18.1895 9.2876 17.6 8.18997 17.0947ZM12.1583 20.5474C12.1583 16.6737 14.5224 12.9684 15.8734 11.2L15.9578 11.1158C16.0422 11.1158 16.0422 11.1158 16.1266 11.2C17.562 13.0526 19.9261 16.7579 19.9261 20.5474C19.9261 24.6737 17.2243 28.2105 16.2111 29.5579C16.1266 29.6421 16.1266 29.6421 16.0422 29.6421C15.9578 29.6421 15.8734 29.6421 15.8734 29.5579C14.8602 28.3789 12.1583 24.7579 12.1583 20.5474ZM21.277 2.52632C21.1926 3.03158 21.0237 3.70526 21.0237 3.70526V3.78947L21.1082 3.95789C21.4459 4.04211 21.5303 4.04211 21.6148 4.04211H21.6992C21.8681 4.04211 21.9525 4.04211 22.1214 4.12632L22.3747 4.04211L22.4591 3.11579C22.4591 2.69474 22.5435 2.27368 22.628 1.85263H29.2137C29.0449 2.44211 28.6227 3.11579 28.3694 3.62105C27.0185 5.97895 24.5699 9.68421 23.7256 10.9474C23.4723 11.3684 22.8813 11.8737 22.4591 12.0421C21.8681 12.2947 20.8549 12.8 19.9261 13.3895C20.0106 13.0526 20.095 12.4632 20.2639 11.9579C20.4327 11.5368 20.686 10.6947 20.686 10.6947V10.6105L20.5171 10.4421C20.0106 10.3579 19.5884 10.2737 19.5884 10.2737L19.3351 10.3579V10.4421C19.3351 10.4421 19.3351 11.2842 19.2507 11.4526C19.2507 11.7895 19.0818 12.4632 18.9129 13.1368C18.4063 12.2105 17.7309 11.3684 17.3931 10.8632V10.7789C16.8865 10.1053 16.6332 9.26316 16.6332 8.50526L16.4644 3.36842C16.4644 2.77895 16.5488 2.18947 16.7177 1.85263H21.277C21.3615 2.02105 21.277 2.35789 21.277 2.52632ZM24.9077 11.5368C26.343 8.92632 27.6095 6.82105 29.0449 4.8C29.467 4.21053 29.8892 3.70526 30.1425 3.45263V15.4105C29.2982 15.4947 27.1873 15.7474 24.9921 16.5895C24.9921 15.2421 24.8232 13.9789 24.6544 13.2211C24.5699 12.7158 24.6544 12.0421 24.9077 11.5368ZM23.219 12.7158C23.3034 12.6316 23.4723 12.6316 23.4723 12.6316C23.4723 12.6316 23.5567 12.7158 23.5567 12.9684C23.6412 13.9789 23.6412 15.6632 23.4723 17.0947C22.4591 17.6 21.5303 18.1053 20.7704 18.7789C20.6016 17.5158 20.2639 16.1684 19.7573 14.9895C21.0237 13.9789 22.4591 13.1368 23.219 12.7158ZM30.058 17.0105C30.058 18.7789 29.5515 22.1474 26.0897 25.7684C22.628 29.3053 18.7441 30.0632 17.9842 30.1474C17.8997 30.1474 17.8997 30.1474 17.8997 30.0632C17.8997 30.0632 17.8997 29.9789 17.8997 29.8947C19.8417 27.0316 20.8549 24.3368 21.0237 21.6421C21.0237 21.2211 21.1926 20.5474 21.6148 20.1263C24.0633 17.2632 28.285 16.7579 29.5515 16.5895H29.6359C29.7203 16.5895 29.8892 16.5895 29.9736 16.6737C29.9736 16.7579 30.058 16.9263 30.058 17.0105ZM30.1425 22.2316V29.3895C30.1425 29.8105 29.8048 30.1474 29.3826 30.1474H21.9525C23.9789 29.3053 25.752 28.1263 27.1029 26.7789C28.3694 25.4316 29.3826 23.9158 30.1425 22.2316Z" fill="#1A1A1A"/>
<path d="M21.0228 9.09394C20.0096 9.09394 19.1653 8.25183 19.1653 7.2413C19.1653 6.23078 20.0096 5.38867 21.0228 5.38867C22.036 5.38867 22.8803 6.23078 22.8803 7.2413C22.7959 8.25183 22.036 9.09394 21.0228 9.09394ZM21.0228 6.23078C20.4318 6.23078 20.0096 6.65183 20.0096 7.2413C20.0096 7.83078 20.4318 8.25183 21.0228 8.25183C21.6138 8.25183 22.036 7.83078 22.036 7.2413C22.036 6.65183 21.5294 6.23078 21.0228 6.23078Z" fill="#1A1A1A"/>
<path d="M8.35852 8.84232C7.59863 9.01074 6.83873 9.76864 6.66987 10.5265C6.66987 10.6107 6.58544 10.6107 6.58544 10.5265C6.41657 9.76864 5.57224 8.92653 4.81235 8.84232C4.72792 8.84232 4.72792 8.84232 4.81235 8.84232C5.57224 8.6739 6.41657 7.91601 6.58544 7.0739C6.58544 6.98969 6.66987 6.98969 6.66987 7.0739C6.83873 7.8318 7.59863 8.58969 8.35852 8.75811C8.44295 8.75811 8.44295 8.75811 8.35852 8.84232Z" fill="#1A1A1A"/>
<path d="M45.2791 8.50781C45.8694 8.50781 46.5581 8.50781 47.4436 8.50781C48.3291 8.50781 49.0178 8.50781 49.6082 8.50781C50.7888 8.50781 51.9695 8.68963 53.0518 9.14417C54.1341 9.59871 55.118 10.1442 55.9051 10.8714C56.6922 11.5987 57.2825 12.4169 57.7744 13.4168C58.2664 14.4168 58.4632 15.4168 58.4632 16.5077C58.4632 17.3259 58.3648 18.0531 58.168 18.7804C57.9712 19.5077 57.7745 20.0531 57.3809 20.5986C56.9873 21.144 56.6922 21.5076 56.2002 21.9622C55.7083 22.3258 55.3147 22.6894 54.8228 22.9622C54.3308 23.2349 53.8389 23.4167 53.2486 23.5985C52.6582 23.7803 52.1663 23.8712 51.5759 23.9622C51.084 24.0531 50.4937 24.0531 50.0017 24.0531C49.0178 24.0531 48.1323 24.0531 47.3452 24.0531C46.5581 24.0531 45.8694 24.0531 45.2791 24.0531C44.9839 24.0531 44.7871 24.0531 44.5903 24.0531C44.3936 24.0531 44.1968 24.0531 44.0984 24.0531H44V23.9622C44.1968 22.8713 44.2952 21.3258 44.2952 19.2349V13.4168C44.2952 11.326 44.1968 9.78052 44 8.68963L44.0984 8.59872C44.1968 8.50781 44.6887 8.50781 45.2791 8.50781ZM46.3613 21.9622C46.3613 22.2349 46.4597 22.4167 46.5581 22.5985C46.6565 22.6894 46.9517 22.7804 47.3452 22.8713C47.7388 22.9622 48.3291 22.9622 49.2146 22.9622C49.8049 22.9622 50.2969 22.9622 50.6904 22.8713C51.1824 22.8713 51.5759 22.7804 52.0679 22.5985C52.5598 22.5076 52.9534 22.3258 53.3469 22.144C53.7405 21.9622 54.0357 21.6895 54.3308 21.4167C54.626 21.144 54.9212 20.7804 55.1179 20.4167C55.3147 20.0531 55.5115 19.5077 55.6099 18.9622C55.7083 18.4168 55.8067 17.7804 55.8067 17.1441C55.8067 16.3259 55.7083 15.5986 55.6099 14.9623C55.5115 14.235 55.2163 13.5987 54.8228 12.8714C54.4292 12.235 54.0357 11.5987 53.4453 11.1441C52.9534 10.6896 52.1663 10.2351 51.3792 9.96234C50.4937 9.68962 49.6082 9.5078 48.5259 9.5078C48.1323 9.5078 47.8372 9.5078 47.6404 9.5078C47.4436 9.5078 47.1484 9.59871 46.9517 9.59871C46.7549 9.68961 46.5581 9.78052 46.4597 9.87143C46.3613 9.96234 46.2629 10.1442 46.2629 10.4169V21.9622H46.3613Z" fill="#1A1A1A"/>
<path d="M63.0886 13.3259C63.0886 11.235 62.9902 9.68962 62.7935 8.59872L62.8918 8.50781C63.187 8.59872 63.6789 8.59872 64.1709 8.59872C64.6628 8.59872 65.1548 8.59872 65.4499 8.50781L65.5483 8.59872C65.3516 9.68962 65.2532 11.326 65.2532 13.3259V19.144C65.2532 21.144 65.3516 22.6894 65.5483 23.8712L65.4499 23.9622C65.1548 23.8712 64.6628 23.8712 64.1709 23.8712C63.6789 23.8712 63.187 23.8712 62.8918 23.9622L62.7935 23.8712C62.9902 22.7804 63.0886 21.2349 63.0886 19.144V13.3259Z" fill="#1A1A1A"/>
<path d="M73.2207 18.5069C72.1384 20.8705 71.4497 22.6886 71.0562 24.0523C70.8594 23.9613 70.4658 23.9613 69.8755 23.9613C69.4819 23.9613 69.1868 23.9613 68.99 24.0523L76.5659 8.3252H77.2547L79.7144 13.9615L82.5677 20.325C83.3548 22.1432 83.9451 23.325 84.3386 24.0523C84.0435 23.9613 83.5515 23.9613 82.7644 23.9613C82.1741 23.9613 81.7805 23.9613 81.4854 24.0523C81.0918 22.7795 80.4031 20.8705 79.5176 18.5069C78.5337 18.5069 77.5498 18.5069 76.4675 18.5069C75.3853 18.5069 74.2046 18.5069 73.2207 18.5069ZM79.124 17.416C78.3369 15.416 77.4514 13.5069 76.4675 11.507H76.3692L73.811 17.416C74.0078 17.416 74.4014 17.416 75.0901 17.416C75.7788 17.416 76.2708 17.416 76.5659 17.416C77.4514 17.416 78.3369 17.416 79.124 17.416Z" fill="#1A1A1A"/>
<path d="M90.5364 8.14355H91.2251C91.7171 9.14354 92.7009 11.0526 93.98 13.7798C95.2591 16.5071 96.3413 18.6889 97.2268 20.2343L103.819 8.14355H104.409C105.196 14.1435 105.885 19.4161 106.574 23.9615C106.279 23.8706 105.885 23.8706 105.196 23.8706C104.606 23.8706 104.212 23.8706 103.917 23.9615C103.425 18.9616 103.13 15.2344 102.737 12.598H102.638C100.375 16.4162 98.4075 20.1434 96.6365 23.8706H96.1446C95.6526 22.8706 94.7671 21.0525 93.5864 18.5071C92.4058 15.9616 91.4219 13.9617 90.6348 12.5071H90.5364C90.3396 13.7798 89.9461 15.7798 89.5525 18.598C89.0606 21.4161 88.7654 23.1434 88.667 23.9615C88.4702 23.8706 88.1751 23.8706 87.8799 23.8706C87.4863 23.8706 87.1912 23.8706 86.9944 23.9615C88.5686 17.9616 89.6509 12.6889 90.5364 8.14355Z" fill="#1A1A1A"/>
<path d="M126.746 16.1433C126.746 17.6887 126.451 19.1432 125.762 20.325C125.073 21.5068 124.089 22.5068 122.81 23.1432C121.531 23.7795 120.154 24.1432 118.481 24.1432C117.005 24.1432 115.628 23.8704 114.447 23.2341C113.168 22.5977 112.184 21.7796 111.496 20.5978C110.709 19.416 110.413 18.0523 110.413 16.5978C110.413 15.0524 110.807 13.6888 111.496 12.416C112.184 11.1433 113.168 10.1434 114.447 9.41609C115.726 8.68883 117.104 8.3252 118.58 8.3252C120.154 8.3252 121.531 8.68883 122.81 9.32518C124.089 9.96154 125.073 10.8706 125.762 12.0524C126.451 13.2342 126.746 14.5978 126.746 16.1433ZM118.186 9.32518C117.694 9.32518 117.202 9.41609 116.71 9.507C116.218 9.68881 115.726 9.87063 115.333 10.2343C114.841 10.5979 114.447 11.0524 114.152 11.507C113.857 12.0524 113.562 12.6888 113.365 13.416C113.168 14.2342 113.07 15.0524 113.07 16.0524C113.07 17.1433 113.267 18.1432 113.562 19.0523C113.857 19.9614 114.349 20.6887 114.939 21.2341C115.53 21.7796 116.12 22.2341 116.907 22.5068C117.596 22.7795 118.383 22.9614 119.17 22.9614C120.646 22.9614 121.925 22.4159 122.81 21.2341C123.794 20.0523 124.188 18.5069 124.188 16.416C124.188 13.9615 123.696 12.2342 122.614 10.9615C121.531 9.96154 120.055 9.32518 118.186 9.32518Z" fill="#1A1A1A"/>
<path d="M131.566 8.59734C131.763 8.59734 132.156 8.59734 132.747 8.59734L133.14 8.50643L141.995 19.0518C142.586 19.779 142.979 20.1426 143.078 20.2336C143.274 20.4154 143.471 20.3245 143.471 20.0517C143.471 19.9608 143.471 19.779 143.471 19.5972V13.2336C143.471 11.1428 143.373 9.59733 143.176 8.50643L143.274 8.41553C143.57 8.50644 143.865 8.50643 144.16 8.50643C144.455 8.50643 144.75 8.50644 145.045 8.41553L145.144 8.50643C145.045 9.77915 144.947 11.0519 144.947 12.4155C144.849 13.7791 144.849 14.87 144.849 15.7791C144.849 16.6881 144.75 17.9609 144.75 19.5972C144.75 21.2335 144.652 22.5063 144.652 23.3244C144.652 23.779 144.455 24.0517 144.16 24.0517C143.766 24.0517 143.373 23.8699 143.078 23.5062L134.124 12.9609L133.731 12.5064C133.632 12.4155 133.534 12.3246 133.436 12.2337C133.337 12.1428 133.337 12.1428 133.239 12.1428C133.239 12.1428 133.14 12.2337 133.14 12.3246C133.14 12.4155 133.14 12.5973 133.14 12.6882C133.14 12.87 133.14 13.0518 133.14 13.3246V19.0518C133.14 21.1426 133.239 22.6881 133.436 23.779L133.337 23.8699C133.042 23.779 132.747 23.779 132.452 23.779C132.156 23.779 131.861 23.779 131.566 23.8699L131.468 23.779C131.665 21.9608 131.763 19.5063 131.861 16.4154C131.665 13.4155 131.665 10.7791 131.566 8.59734Z" fill="#1A1A1A"/>
<path d="M151.833 8.50781C152.423 8.50781 153.112 8.50781 153.997 8.50781C154.883 8.50781 155.571 8.50781 156.162 8.50781C157.342 8.50781 158.523 8.68963 159.605 9.14417C160.687 9.59871 161.671 10.1442 162.458 10.8714C163.246 11.5987 163.836 12.4169 164.328 13.4168C164.82 14.4168 165.017 15.4168 165.017 16.5077C165.017 17.3259 164.918 18.0531 164.721 18.7804C164.525 19.5077 164.328 20.0531 163.934 20.5986C163.541 21.144 163.246 21.5076 162.754 21.9622C162.262 22.3258 161.868 22.6894 161.376 22.9622C160.884 23.2349 160.392 23.4167 159.802 23.5985C159.212 23.7803 158.72 23.8712 158.129 23.9622C157.637 24.0531 157.047 24.0531 156.555 24.0531C155.571 24.0531 154.686 24.0531 153.899 24.0531C153.112 24.0531 152.423 24.0531 151.833 24.0531C151.537 24.0531 151.341 24.0531 151.144 24.0531C150.947 24.0531 150.75 24.0531 150.652 24.0531H150.553V23.9622C150.75 22.8713 150.849 21.3258 150.849 19.2349V13.4168C150.849 11.326 150.75 9.78052 150.553 8.68963L150.652 8.59872C150.849 8.50781 151.242 8.50781 151.833 8.50781ZM153.013 21.9622C153.013 22.2349 153.112 22.4167 153.21 22.5985C153.308 22.6894 153.604 22.7804 153.997 22.8713C154.391 22.9622 154.981 22.9622 155.866 22.9622C156.457 22.9622 156.949 22.9622 157.342 22.8713C157.834 22.8713 158.228 22.7804 158.72 22.5985C159.212 22.5076 159.605 22.3258 159.999 22.144C160.392 21.9622 160.687 21.6895 160.983 21.4167C161.278 21.144 161.573 20.7804 161.77 20.4167C161.967 20.0531 162.163 19.5077 162.262 18.9622C162.36 18.4168 162.458 17.7804 162.458 17.1441C162.458 16.3259 162.36 15.5986 162.262 14.9623C162.163 14.235 161.868 13.5987 161.475 12.8714C161.081 12.235 160.687 11.5987 160.097 11.1441C159.605 10.6896 158.818 10.2351 158.031 9.96234C157.146 9.68962 156.26 9.5078 155.178 9.5078C154.784 9.5078 154.489 9.5078 154.292 9.5078C154.095 9.5078 153.8 9.59871 153.604 9.59871C153.407 9.68961 153.21 9.78052 153.112 9.87143C153.013 9.96234 152.915 10.1442 152.915 10.4169V21.9622H153.013Z" fill="#1A1A1A"/>
<path d="M172.004 13.3259V19.144C172.004 20.8713 172.102 21.9622 172.2 22.4167C173.184 22.4167 174.365 22.4167 175.546 22.3258C176.726 22.2349 177.71 22.144 178.399 22.0531L179.481 21.9622L179.58 22.0531C179.58 22.3258 179.481 22.5985 179.481 22.8713C179.481 23.144 179.481 23.5076 179.58 23.9622L179.481 24.0531C179.088 24.0531 178.596 23.9622 177.907 23.9622H170.823C170.528 23.9622 170.331 23.9622 170.134 23.9622C169.937 23.9622 169.741 23.9622 169.642 23.9622H169.544V23.8712C169.741 22.7804 169.839 21.2349 169.839 19.144V13.3259C169.839 11.235 169.741 9.68962 169.544 8.59872L169.642 8.50781C169.937 8.59872 170.429 8.59872 170.921 8.59872C171.512 8.59872 171.905 8.59872 172.299 8.50781V8.59872C172.004 9.68962 172.004 11.235 172.004 13.3259Z" fill="#1A1A1A"/>
<path d="M185.58 18.5069C184.498 20.8705 183.809 22.6886 183.416 24.0523C183.219 23.9613 182.825 23.9613 182.235 23.9613C181.841 23.9613 181.546 23.9613 181.349 24.0523L188.925 8.3252H189.614L192.074 13.9615L194.927 20.325C195.714 22.1432 196.304 23.325 196.698 24.0523C196.403 23.9613 195.911 23.9613 195.124 23.9613C194.533 23.9613 194.14 23.9613 193.845 24.0523C193.451 22.7795 192.762 20.8705 191.877 18.5069C190.893 18.5069 189.909 18.5069 188.827 18.5069C187.646 18.5069 186.564 18.5069 185.58 18.5069ZM191.483 17.416C190.696 15.416 189.811 13.5069 188.827 11.507H188.729L185.974 17.416C186.17 17.416 186.564 17.416 187.253 17.416C187.941 17.416 188.433 17.416 188.729 17.416C189.712 17.416 190.598 17.416 191.483 17.416Z" fill="#1A1A1A"/>
<path d="M200.537 13.3259C200.537 11.235 200.438 9.68962 200.241 8.59872L200.34 8.50781C200.635 8.59872 201.127 8.59872 201.619 8.59872C202.209 8.59872 202.603 8.59872 202.898 8.50781L202.996 8.59872C202.8 9.68962 202.701 11.326 202.701 13.3259V15.6895C202.898 15.6895 203.095 15.5986 203.292 15.5077C205.358 13.8714 207.817 11.5078 210.671 8.50781C210.867 8.59872 211.359 8.59872 211.95 8.59872C212.54 8.59872 213.032 8.59872 213.229 8.50781L208.9 12.1441C207.325 13.5077 206.243 14.5986 205.358 15.5077V15.5986L213.426 24.0531C213.13 23.9622 212.54 23.9622 211.851 23.9622C211.064 23.9622 210.572 23.9622 210.277 24.0531C206.538 19.7804 204.177 17.235 203.193 16.3259C203.095 16.235 202.898 16.1441 202.701 16.1441V19.2349C202.701 21.2349 202.8 22.7804 202.996 23.9622L202.898 24.0531C202.603 23.9622 202.111 23.9622 201.619 23.9622C201.029 23.9622 200.635 23.9622 200.34 24.0531L200.241 23.9622C200.438 22.8713 200.537 21.3258 200.537 19.2349V13.3259Z" fill="#1A1A1A"/>
<path d="M219.625 19.1432C219.625 20.9614 219.723 22.0523 219.822 22.5068C220.806 22.5068 221.986 22.5068 223.167 22.5068C224.348 22.5068 225.332 22.5068 226.02 22.4159L227.103 22.325L227.201 22.4159C227.201 22.6886 227.103 22.9614 227.103 23.2341C227.103 23.2341 227.103 23.5068 227.201 23.9613L227.103 24.0523C226.709 24.0523 226.217 23.9613 225.528 23.9613H218.444C218.149 23.9613 217.952 23.9613 217.756 23.9613C217.559 23.9613 217.362 23.9613 217.264 23.9613H217.165V23.8704C217.362 22.7795 217.46 21.2341 217.46 19.0523V13.2342C217.46 11.1433 217.362 9.59791 217.165 8.4161L217.264 8.3252C217.559 8.4161 217.952 8.4161 218.543 8.4161H225.332C225.922 8.4161 226.512 8.4161 226.906 8.3252L227.004 8.4161C227.004 8.87064 226.906 9.14337 226.906 9.32518C226.906 9.507 226.906 9.68881 227.004 9.96154L226.807 10.1434C224.446 9.96154 222.085 9.87063 219.822 9.87063C219.723 10.3252 219.625 11.507 219.625 13.3251V15.1433C221.396 15.1433 223.364 15.0524 225.43 14.8706L225.528 14.9615C225.43 15.1433 225.43 15.416 225.43 15.6887C225.43 15.9615 225.43 16.2342 225.528 16.416L225.43 16.5069C223.757 16.3251 221.79 16.2342 219.625 16.2342V19.1432Z" fill="#1A1A1A"/>
</svg>
