<svg width="228" height="32" viewBox="0 0 228 32" fill="none" xmlns="http://www.w3.org/2000/svg">
<path d="M31.5778 6.90526C31.5778 5.47368 31.7467 1.76842 32 0.421053C32 0.336842 32 0.252632 31.9156 0.252632C31.8311 0.168421 31.8311 0.168421 31.7467 0.168421C30.1425 0.421053 27.4406 0.505263 26.0897 0.505263H5.23483C4.05277 0.505263 2.87071 0.421053 1.77309 0.336842C1.09763 0.168421 0.591029 0.0842105 0.253298 0C0.253298 0 0.168865 0 0.0844327 0.0842105C0 0.0842105 0 0.168421 0 0.252632C0.0844327 0.505263 0.0844327 0.926316 0.168865 1.51579C0.253298 2.61053 0.337731 3.70526 0.337731 4.88421V26.9474C0.337731 28.0421 0.168865 30.6526 0 31.7474C0 31.8316 0 31.9158 0.0844327 32C0.168865 32 0.253298 32 0.337731 32C1.51979 31.6632 3.20844 31.4947 4.30607 31.4947H26.7652C28.0317 31.4947 30.4802 31.6632 31.6623 32C31.6623 32 31.6623 32 31.7467 32C31.8311 32 31.8311 32 31.9156 31.9158C32 31.8316 32 31.7474 32 31.6632C31.7467 30.6526 31.5778 28.8 31.5778 27.6211V6.90526ZM9.87863 30.1474H2.61741C2.19525 30.1474 1.85752 29.8105 1.85752 29.3895V22.2316C2.61741 23.9158 3.71504 25.5158 4.98153 26.8632C6.50132 28.4632 8.44327 29.4737 9.87863 30.1474ZM15.2823 8.50526C15.2823 9.26316 15.029 10.1053 14.5224 10.7789C14.1003 11.3684 13.5937 12.0421 13.1715 12.8842C12.9182 12.2105 12.7493 11.5368 12.5805 10.8632C12.5805 10.7789 11.2296 5.64211 10.8074 3.53684V3.45263C10.723 2.94737 10.5541 2.44211 10.5541 1.85263L15.1979 1.76842C15.2823 1.85263 15.4512 2.27368 15.4512 3.2C15.3668 4.46316 15.2823 8.50526 15.2823 8.50526ZM4.30607 6.31579C4.55937 6.14737 4.6438 6.06316 4.72823 6.06316C4.8971 5.89474 4.98153 5.89474 5.06596 5.81053C5.06596 5.81053 5.1504 5.81053 5.23483 5.72632L5.40369 5.47368H5.31926C5.31926 5.47368 4.05277 4.12632 3.54617 3.28421C3.20844 2.77895 3.03958 2.27368 2.95515 1.93684L8.94987 1.85263C9.2876 2.52632 9.45646 3.2 9.5409 3.78947L11.2296 10.9474C11.314 11.3684 11.3984 11.7053 11.4829 12.1263L11.8206 13.4737C9.87863 12.2947 8.61214 11.7895 8.61214 11.7895C8.44327 11.7053 7.76781 11.5368 7.76781 11.5368L7.51451 11.7053L7.34565 12.2105C7.34565 12.2105 6.83905 14.0632 6.75462 16.6737C4.6438 15.9158 2.61741 15.6632 1.77309 15.5789L1.85752 2.94737C2.11082 3.11579 2.53298 3.45263 2.87071 3.95789C3.37731 4.71579 3.71504 5.55789 3.8839 5.97895C3.96834 6.06316 3.96834 6.23158 3.96834 6.23158L4.30607 6.31579ZM2.02639 16.8421C2.02639 16.8421 2.11082 16.7579 2.19525 16.7579C3.54617 16.8421 7.09235 17.0105 10.3852 20.2105C10.8918 20.7158 10.9763 21.7263 11.0607 22.1474C11.314 25.6842 13.0871 28.6316 14.1003 30.0632V30.1474L14.0158 30.2316C13.0026 30.0632 9.2876 29.3053 5.99472 25.8526C2.70185 22.4 2.02639 19.0316 1.94195 17.2632C1.94195 17.0947 1.94195 16.9263 2.02639 16.8421ZM8.18997 17.0947C8.02111 15.7474 8.02111 13.4737 8.10554 12.8842C8.10554 12.7158 8.10554 12.6316 8.18997 12.6316C8.18997 12.6316 8.27441 12.6316 8.52771 12.7158C9.37203 13.1368 10.8074 13.9789 12.1583 14.9895C11.7361 16.1684 11.314 17.6 11.1451 18.8632C10.2164 18.1895 9.2876 17.6 8.18997 17.0947ZM12.1583 20.5474C12.1583 16.6737 14.5224 12.9684 15.8734 11.2L15.9578 11.1158C16.0422 11.1158 16.0422 11.1158 16.1266 11.2C17.562 13.0526 19.9261 16.7579 19.9261 20.5474C19.9261 24.6737 17.2243 28.2105 16.2111 29.5579C16.1266 29.6421 16.1266 29.6421 16.0422 29.6421C15.9578 29.6421 15.8734 29.6421 15.8734 29.5579C14.8602 28.3789 12.1583 24.7579 12.1583 20.5474ZM21.277 2.52632C21.1926 3.03158 21.0237 3.70526 21.0237 3.70526V3.78947L21.1082 3.95789C21.4459 4.04211 21.5303 4.04211 21.6148 4.04211H21.6992C21.8681 4.04211 21.9525 4.04211 22.1214 4.12632L22.3747 4.04211L22.4591 3.11579C22.4591 2.69474 22.5435 2.27368 22.628 1.85263H29.2137C29.0449 2.44211 28.6227 3.11579 28.3694 3.62105C27.0185 5.97895 24.5699 9.68421 23.7256 10.9474C23.4723 11.3684 22.8813 11.8737 22.4591 12.0421C21.8681 12.2947 20.8549 12.8 19.9261 13.3895C20.0106 13.0526 20.095 12.4632 20.2639 11.9579C20.4327 11.5368 20.686 10.6947 20.686 10.6947V10.6105L20.5171 10.4421C20.0106 10.3579 19.5884 10.2737 19.5884 10.2737L19.3351 10.3579V10.4421C19.3351 10.4421 19.3351 11.2842 19.2507 11.4526C19.2507 11.7895 19.0818 12.4632 18.9129 13.1368C18.4063 12.2105 17.7309 11.3684 17.3931 10.8632V10.7789C16.8865 10.1053 16.6332 9.26316 16.6332 8.50526L16.4644 3.36842C16.4644 2.77895 16.5488 2.18947 16.7177 1.85263H21.277C21.3615 2.02105 21.277 2.35789 21.277 2.52632ZM24.9077 11.5368C26.343 8.92632 27.6095 6.82105 29.0449 4.8C29.467 4.21053 29.8892 3.70526 30.1425 3.45263V15.4105C29.2982 15.4947 27.1873 15.7474 24.9921 16.5895C24.9921 15.2421 24.8232 13.9789 24.6544 13.2211C24.5699 12.7158 24.6544 12.0421 24.9077 11.5368ZM23.219 12.7158C23.3034 12.6316 23.4723 12.6316 23.4723 12.6316C23.4723 12.6316 23.5567 12.7158 23.5567 12.9684C23.6412 13.9789 23.6412 15.6632 23.4723 17.0947C22.4591 17.6 21.5303 18.1053 20.7704 18.7789C20.6016 17.5158 20.2639 16.1684 19.7573 14.9895C21.0237 13.9789 22.4591 13.1368 23.219 12.7158ZM30.058 17.0105C30.058 18.7789 29.5515 22.1474 26.0897 25.7684C22.628 29.3053 18.7441 30.0632 17.9842 30.1474C17.8997 30.1474 17.8997 30.1474 17.8997 30.0632C17.8997 30.0632 17.8997 29.9789 17.8997 29.8947C19.8417 27.0316 20.8549 24.3368 21.0237 21.6421C21.0237 21.2211 21.1926 20.5474 21.6148 20.1263C24.0633 17.2632 28.285 16.7579 29.5515 16.5895H29.6359C29.7203 16.5895 29.8892 16.5895 29.9736 16.6737C29.9736 16.7579 30.058 16.9263 30.058 17.0105ZM30.1425 22.2316V29.3895C30.1425 29.8105 29.8048 30.1474 29.3826 30.1474H21.9525C23.9789 29.3053 25.752 28.1263 27.1029 26.7789C28.3694 25.4316 29.3826 23.9158 30.1425 22.2316Z" fill="#66A9CB"/>
<path d="M21.0235 9.09394C20.0103 9.09394 19.166 8.25183 19.166 7.2413C19.166 6.23078 20.0103 5.38867 21.0235 5.38867C22.0367 5.38867 22.881 6.23078 22.881 7.2413C22.7966 8.25183 22.0367 9.09394 21.0235 9.09394ZM21.0235 6.23078C20.4325 6.23078 20.0103 6.65183 20.0103 7.2413C20.0103 7.83078 20.4325 8.25183 21.0235 8.25183C21.6145 8.25183 22.0367 7.83078 22.0367 7.2413C22.0367 6.65183 21.5301 6.23078 21.0235 6.23078Z" fill="#66A9CB"/>
<path d="M8.35755 8.84257C7.59765 9.01099 6.83776 9.76888 6.66889 10.5268C6.66889 10.611 6.58446 10.611 6.58446 10.5268C6.41559 9.76888 5.57127 8.92678 4.81137 8.84257C4.72694 8.84257 4.72694 8.84257 4.81137 8.84257C5.57127 8.67415 6.41559 7.91625 6.58446 7.07414C6.58446 6.98993 6.66889 6.98993 6.66889 7.07414C6.83776 7.83204 7.59765 8.58993 8.35755 8.75836C8.44198 8.75836 8.44198 8.75836 8.35755 8.84257Z" fill="#66A9CB"/>
<path d="M45.2791 8.50806C45.8694 8.50806 46.5581 8.50806 47.4436 8.50806C48.3291 8.50806 49.0178 8.50806 49.6082 8.50806C50.7888 8.50806 51.9695 8.68987 53.0518 9.14441C54.1341 9.59895 55.118 10.1444 55.9051 10.8717C56.6922 11.5989 57.2825 12.4171 57.7744 13.4171C58.2664 14.4171 58.4632 15.4171 58.4632 16.508C58.4632 17.3261 58.3648 18.0534 58.168 18.7806C57.9712 19.5079 57.7745 20.0534 57.3809 20.5988C56.9873 21.1443 56.6922 21.5079 56.2002 21.9624C55.7083 22.3261 55.3147 22.6897 54.8228 22.9624C54.3308 23.2351 53.8389 23.4169 53.2486 23.5988C52.6582 23.7806 52.1663 23.8715 51.5759 23.9624C51.084 24.0533 50.4937 24.0533 50.0017 24.0533C49.0178 24.0533 48.1323 24.0533 47.3452 24.0533C46.5581 24.0533 45.8694 24.0533 45.2791 24.0533C44.9839 24.0533 44.7871 24.0533 44.5903 24.0533C44.3936 24.0533 44.1968 24.0533 44.0984 24.0533H44V23.9624C44.1968 22.8715 44.2952 21.3261 44.2952 19.2352V13.4171C44.2952 11.3262 44.1968 9.78077 44 8.68987L44.0984 8.59896C44.1968 8.50806 44.6887 8.50806 45.2791 8.50806ZM46.3613 21.9624C46.3613 22.2351 46.4597 22.417 46.5581 22.5988C46.6565 22.6897 46.9517 22.7806 47.3452 22.8715C47.7388 22.9624 48.3291 22.9624 49.2146 22.9624C49.8049 22.9624 50.2969 22.9624 50.6904 22.8715C51.1824 22.8715 51.5759 22.7806 52.0679 22.5988C52.5598 22.5079 52.9534 22.3261 53.3469 22.1442C53.7405 21.9624 54.0357 21.6897 54.3308 21.417C54.626 21.1443 54.9212 20.7806 55.1179 20.417C55.3147 20.0534 55.5115 19.5079 55.6099 18.9625C55.7083 18.417 55.8067 17.7807 55.8067 17.1443C55.8067 16.3261 55.7083 15.5989 55.6099 14.9625C55.5115 14.2353 55.2163 13.5989 54.8228 12.8716C54.4292 12.2353 54.0357 11.5989 53.4453 11.1444C52.9534 10.6898 52.1663 10.2353 51.3792 9.96258C50.4937 9.68986 49.6082 9.50804 48.5259 9.50804C48.1323 9.50804 47.8372 9.50804 47.6404 9.50804C47.4436 9.50804 47.1484 9.59895 46.9517 9.59895C46.7549 9.68986 46.5581 9.78077 46.4597 9.87168C46.3613 9.96258 46.2629 10.1444 46.2629 10.4171V21.9624H46.3613Z" fill="#8A9199"/>
<path d="M63.0881 13.3262C63.0881 11.2353 62.9897 9.68986 62.793 8.59896L62.8914 8.50806C63.1865 8.59896 63.6785 8.59896 64.1704 8.59896C64.6623 8.59896 65.1543 8.59896 65.4495 8.50806L65.5478 8.59896C65.3511 9.68986 65.2527 11.3262 65.2527 13.3262V19.1443C65.2527 21.1443 65.3511 22.6897 65.5478 23.8715L65.4495 23.9624C65.1543 23.8715 64.6623 23.8715 64.1704 23.8715C63.6785 23.8715 63.1865 23.8715 62.8914 23.9624L62.793 23.8715C62.9897 22.7806 63.0881 21.2352 63.0881 19.1443V13.3262Z" fill="#8A9199"/>
<path d="M73.221 18.5066C72.1387 20.8702 71.45 22.6884 71.0564 24.052C70.8596 23.9611 70.4661 23.9611 69.8757 23.9611C69.4822 23.9611 69.187 23.9611 68.9902 24.052L76.5662 8.32495H77.2549L79.7146 13.9612L82.5679 20.3248C83.355 22.1429 83.9453 23.3247 84.3389 24.052C84.0437 23.9611 83.5518 23.9611 82.7647 23.9611C82.1743 23.9611 81.7808 23.9611 81.4856 24.052C81.0921 22.7793 80.4033 20.8702 79.5178 18.5066C78.534 18.5066 77.5501 18.5066 76.4678 18.5066C75.3855 18.5066 74.2048 18.5066 73.221 18.5066ZM79.1243 17.4157C78.3372 15.4158 77.4517 13.5067 76.4678 11.5067H76.3694L73.8113 17.4157C74.0081 17.4157 74.4016 17.4157 75.0903 17.4157C75.7791 17.4157 76.271 17.4157 76.5662 17.4157C77.4517 17.4157 78.3372 17.4157 79.1243 17.4157Z" fill="#8A9199"/>
<path d="M90.5361 8.1438H91.2249C91.7168 9.14379 92.7007 11.0529 93.9798 13.7801C95.2588 16.5073 96.3411 18.6891 97.2266 20.2345L103.819 8.1438H104.409C105.196 14.1437 105.885 19.4164 106.574 23.9618C106.278 23.8709 105.885 23.8709 105.196 23.8709C104.606 23.8709 104.212 23.8709 103.917 23.9618C103.425 18.9618 103.13 15.2346 102.736 12.5983H102.638C100.375 16.4164 98.4073 20.1436 96.6363 23.8709H96.1443C95.6524 22.8709 94.7669 21.0527 93.5862 18.5073C92.4055 15.9619 91.4216 13.9619 90.6345 12.5074H90.5361C90.3394 13.7801 89.9458 15.7801 89.5523 18.5982C89.0603 21.4163 88.7651 23.1436 88.6668 23.9618C88.47 23.8709 88.1748 23.8709 87.8796 23.8709C87.4861 23.8709 87.1909 23.8709 86.9941 23.9618C88.5684 17.9619 89.6506 12.6892 90.5361 8.1438Z" fill="#8A9199"/>
<path d="M126.746 16.143C126.746 17.6885 126.45 19.143 125.762 20.3248C125.073 21.5066 124.089 22.5066 122.81 23.1429C121.531 23.7793 120.154 24.1429 118.481 24.1429C117.005 24.1429 115.628 23.8702 114.447 23.2338C113.168 22.5975 112.184 21.7793 111.495 20.5975C110.708 19.4157 110.413 18.0521 110.413 16.5976C110.413 15.0521 110.807 13.6885 111.495 12.4158C112.184 11.1431 113.168 10.1431 114.447 9.41585C115.726 8.68858 117.104 8.32495 118.579 8.32495C120.154 8.32495 121.531 8.68858 122.81 9.32494C124.089 9.96129 125.073 10.8704 125.762 12.0522C126.45 13.234 126.746 14.5976 126.746 16.143ZM118.186 9.32494C117.694 9.32494 117.202 9.41585 116.71 9.50675C116.218 9.68857 115.726 9.87039 115.333 10.234C114.841 10.5976 114.447 11.0522 114.152 11.5067C113.857 12.0522 113.562 12.6885 113.365 13.4158C113.168 14.234 113.07 15.0521 113.07 16.0521C113.07 17.143 113.266 18.143 113.562 19.0521C113.857 19.9612 114.349 20.6884 114.939 21.2339C115.529 21.7793 116.12 22.2339 116.907 22.5066C117.595 22.7793 118.383 22.9611 119.17 22.9611C120.646 22.9611 121.925 22.4157 122.81 21.2339C123.794 20.0521 124.188 18.5066 124.188 16.4158C124.188 13.9612 123.696 12.234 122.613 10.9613C121.531 9.96129 120.055 9.32494 118.186 9.32494Z" fill="#8A9199"/>
<path d="M131.566 8.59759C131.763 8.59759 132.156 8.59759 132.747 8.59759L133.14 8.50668L141.995 19.052C142.586 19.7793 142.979 20.1429 143.078 20.2338C143.274 20.4156 143.471 20.3247 143.471 20.052C143.471 19.9611 143.471 19.7793 143.471 19.5974V13.2339C143.471 11.143 143.373 9.59757 143.176 8.50668L143.274 8.41577C143.57 8.50668 143.865 8.50668 144.16 8.50668C144.455 8.50668 144.75 8.50668 145.045 8.41577L145.144 8.50668C145.045 9.77939 144.947 11.0521 144.947 12.4157C144.849 13.7793 144.849 14.8702 144.849 15.7793C144.849 16.6884 144.75 17.9611 144.75 19.5974C144.75 21.2338 144.652 22.5065 144.652 23.3247C144.652 23.7792 144.455 24.0519 144.16 24.0519C143.766 24.0519 143.373 23.8701 143.078 23.5065L134.124 12.9612L133.731 12.5066C133.632 12.4157 133.534 12.3248 133.436 12.2339C133.337 12.143 133.337 12.143 133.239 12.143C133.239 12.143 133.14 12.2339 133.14 12.3248C133.14 12.4157 133.14 12.5975 133.14 12.6884C133.14 12.8703 133.14 13.0521 133.14 13.3248V19.052C133.14 21.1429 133.239 22.6883 133.436 23.7792L133.337 23.8701C133.042 23.7792 132.747 23.7792 132.452 23.7792C132.156 23.7792 131.861 23.7792 131.566 23.8701L131.468 23.7792C131.665 21.961 131.763 19.5065 131.861 16.4157C131.665 13.4157 131.665 10.7794 131.566 8.59759Z" fill="#8A9199"/>
<path d="M151.833 8.50781C152.423 8.50781 153.112 8.50781 153.997 8.50781C154.883 8.50781 155.572 8.50781 156.162 8.50781C157.343 8.50781 158.523 8.68963 159.605 9.14417C160.688 9.59871 161.672 10.1442 162.459 10.8714C163.246 11.5987 163.836 12.4169 164.328 13.4168C164.82 14.4168 165.017 15.4168 165.017 16.5077C165.017 17.3259 164.918 18.0531 164.722 18.7804C164.525 19.5077 164.328 20.0531 163.935 20.5986C163.541 21.144 163.246 21.5076 162.754 21.9622C162.262 22.3258 161.868 22.6894 161.376 22.9622C160.885 23.2349 160.393 23.4167 159.802 23.5985C159.212 23.7803 158.72 23.8712 158.13 23.9622C157.638 24.0531 157.047 24.0531 156.555 24.0531C155.572 24.0531 154.686 24.0531 153.899 24.0531C153.112 24.0531 152.423 24.0531 151.833 24.0531C151.538 24.0531 151.341 24.0531 151.144 24.0531C150.947 24.0531 150.75 24.0531 150.652 24.0531H150.554V23.9622C150.75 22.8713 150.849 21.3258 150.849 19.2349V13.4168C150.849 11.326 150.75 9.78052 150.554 8.68963L150.652 8.59872C150.849 8.50781 151.242 8.50781 151.833 8.50781ZM153.013 21.9622C153.013 22.2349 153.112 22.4167 153.21 22.5985C153.309 22.6894 153.604 22.7804 153.997 22.8713C154.391 22.9622 154.981 22.9622 155.867 22.9622C156.457 22.9622 156.949 22.9622 157.343 22.8713C157.834 22.8713 158.228 22.7804 158.72 22.5985C159.212 22.5076 159.605 22.3258 159.999 22.144C160.393 21.9622 160.688 21.6895 160.983 21.4167C161.278 21.144 161.573 20.7804 161.77 20.4167C161.967 20.0531 162.164 19.5077 162.262 18.9622C162.36 18.4168 162.459 17.7804 162.459 17.1441C162.459 16.3259 162.36 15.5986 162.262 14.9623C162.164 14.235 161.868 13.5987 161.475 12.8714C161.081 12.235 160.688 11.5987 160.097 11.1441C159.605 10.6896 158.818 10.2351 158.031 9.96234C157.146 9.68962 156.26 9.5078 155.178 9.5078C154.784 9.5078 154.489 9.5078 154.292 9.5078C154.096 9.5078 153.801 9.59871 153.604 9.59871C153.407 9.68961 153.21 9.78052 153.112 9.87143C153.013 9.96234 152.915 10.1442 152.915 10.4169V21.9622H153.013Z" fill="#8A9199"/>
<path d="M172.004 13.3259V19.144C172.004 20.8713 172.102 21.9622 172.2 22.4167C173.184 22.4167 174.365 22.4167 175.546 22.3258C176.726 22.2349 177.71 22.144 178.399 22.0531L179.481 21.9622L179.58 22.0531C179.58 22.3258 179.481 22.5985 179.481 22.8713C179.481 23.144 179.481 23.5076 179.58 23.9622L179.481 24.0531C179.088 24.0531 178.596 23.9622 177.907 23.9622H170.823C170.528 23.9622 170.331 23.9622 170.134 23.9622C169.937 23.9622 169.741 23.9622 169.642 23.9622H169.544V23.8712C169.741 22.7804 169.839 21.2349 169.839 19.144V13.3259C169.839 11.235 169.741 9.68962 169.544 8.59872L169.642 8.50781C169.937 8.59872 170.429 8.59872 170.921 8.59872C171.512 8.59872 171.905 8.59872 172.299 8.50781V8.59872C172.004 9.68962 172.004 11.235 172.004 13.3259Z" fill="#8A9199"/>
<path d="M185.58 18.5066C184.498 20.8702 183.809 22.6884 183.416 24.052C183.219 23.9611 182.825 23.9611 182.235 23.9611C181.842 23.9611 181.546 23.9611 181.35 24.052L188.926 8.32495H189.614L192.074 13.9612L194.927 20.3248C195.714 22.1429 196.305 23.3247 196.698 24.052C196.403 23.9611 195.911 23.9611 195.124 23.9611C194.534 23.9611 194.14 23.9611 193.845 24.052C193.451 22.7793 192.763 20.8702 191.877 18.5066C190.893 18.5066 189.909 18.5066 188.827 18.5066C187.646 18.5066 186.564 18.5066 185.58 18.5066ZM191.484 17.4157C190.697 15.4158 189.811 13.5067 188.827 11.5067H188.729L185.974 17.4157C186.171 17.4157 186.564 17.4157 187.253 17.4157C187.942 17.4157 188.434 17.4157 188.729 17.4157C189.713 17.4157 190.598 17.4157 191.484 17.4157Z" fill="#8A9199"/>
<path d="M200.536 13.3262C200.536 11.2353 200.438 9.68986 200.241 8.59896L200.34 8.50806C200.635 8.59896 201.127 8.59896 201.619 8.59896C202.209 8.59896 202.603 8.59896 202.898 8.50806L202.996 8.59896C202.799 9.68986 202.701 11.3262 202.701 13.3262V15.6898C202.898 15.6898 203.094 15.5989 203.291 15.508C205.357 13.8716 207.817 11.508 210.67 8.50806C210.867 8.59896 211.359 8.59896 211.949 8.59896C212.54 8.59896 213.032 8.59896 213.229 8.50806L208.899 12.1444C207.325 13.508 206.243 14.5989 205.357 15.508V15.5989L213.425 24.0533C213.13 23.9624 212.54 23.9624 211.851 23.9624C211.064 23.9624 210.572 23.9624 210.277 24.0533C206.538 19.7806 204.177 17.2352 203.193 16.3261C203.094 16.2352 202.898 16.1443 202.701 16.1443V19.2352C202.701 21.2352 202.799 22.7806 202.996 23.9624L202.898 24.0533C202.603 23.9624 202.111 23.9624 201.619 23.9624C201.028 23.9624 200.635 23.9624 200.34 24.0533L200.241 23.9624C200.438 22.8715 200.536 21.3261 200.536 19.2352V13.3262Z" fill="#8A9199"/>
<path d="M219.625 19.143C219.625 20.9611 219.723 22.052 219.822 22.5066C220.805 22.5066 221.986 22.5066 223.167 22.5066C224.347 22.5066 225.331 22.5066 226.02 22.4157L227.102 22.3248L227.201 22.4157C227.201 22.6884 227.102 22.9611 227.102 23.2338C227.102 23.2338 227.102 23.5066 227.201 23.9611L227.102 24.052C226.709 24.052 226.217 23.9611 225.528 23.9611H218.444C218.149 23.9611 217.952 23.9611 217.755 23.9611C217.559 23.9611 217.362 23.9611 217.263 23.9611H217.165V23.8702C217.362 22.7793 217.46 21.2339 217.46 19.0521V13.234C217.46 11.1431 217.362 9.59766 217.165 8.41586L217.263 8.32495C217.559 8.41586 217.952 8.41586 218.542 8.41586H225.331C225.922 8.41586 226.512 8.41586 226.906 8.32495L227.004 8.41586C227.004 8.8704 226.906 9.14312 226.906 9.32494C226.906 9.50675 226.906 9.68857 227.004 9.96129L226.807 10.1431C224.446 9.96129 222.084 9.87038 219.822 9.87038C219.723 10.3249 219.625 11.5067 219.625 13.3249V15.143C221.396 15.143 223.364 15.0521 225.43 14.8703L225.528 14.9612C225.43 15.143 225.43 15.4158 225.43 15.6885C225.43 15.9612 225.43 16.2339 225.528 16.4158L225.43 16.5067C223.757 16.3248 221.789 16.2339 219.625 16.2339V19.143Z" fill="#8A9199"/>
</svg>
