<svg width="165" height="14" viewBox="0 0 165 14" fill="none" xmlns="http://www.w3.org/2000/svg">
    <path d="M1.15198 0.318848C1.68366 0.318848 2.30396 0.318848 3.10149 0.318848C3.89901 0.318848 4.51931 0.318848 5.05099 0.318848C6.11436 0.318848 7.17773 0.477944 8.15248 0.875684C9.12723 1.27342 10.0134 1.75071 10.7223 2.3871C11.4312 3.02348 11.9629 3.73941 12.4059 4.61444C12.849 5.48947 13.0262 6.3645 13.0262 7.31908C13.0262 8.03501 12.9376 8.67139 12.7604 9.30778C12.5832 9.94416 12.406 10.4214 12.0515 10.8987C11.697 11.376 11.4312 11.6942 10.9881 12.092C10.5451 12.4102 10.1906 12.7283 9.74753 12.967C9.30446 13.2056 8.86139 13.3647 8.32971 13.5238C7.79802 13.6829 7.35496 13.7625 6.82327 13.842C6.3802 13.9216 5.84852 13.9216 5.40545 13.9216C4.51931 13.9216 3.72178 13.9216 3.01287 13.9216C2.30396 13.9216 1.68366 13.9216 1.15198 13.9216C0.886138 13.9216 0.70891 13.9216 0.531682 13.9216C0.354454 13.9216 0.177226 13.9216 0.0886126 13.9216H0V13.842C0.177228 12.8874 0.265841 11.5351 0.265841 9.70552V4.61444C0.265841 2.78484 0.177228 1.43252 0 0.477944L0.0886126 0.398396C0.177226 0.318848 0.620297 0.318848 1.15198 0.318848ZM2.12673 12.092C2.12673 12.3306 2.21535 12.4897 2.30396 12.6488C2.39257 12.7283 2.65842 12.8079 3.01287 12.8874C3.36733 12.967 3.89901 12.967 4.69654 12.967C5.22822 12.967 5.67129 12.967 6.02575 12.8874C6.46882 12.8874 6.82327 12.8079 7.26634 12.6488C7.70941 12.5692 8.06387 12.4102 8.41832 12.2511C8.77278 12.092 9.03862 11.8533 9.30446 11.6147C9.5703 11.376 9.83614 11.0578 10.0134 10.7396C10.1906 10.4214 10.3678 9.94416 10.4564 9.46687C10.5451 8.98958 10.6337 8.43275 10.6337 7.87591C10.6337 7.15998 10.5451 6.52359 10.4564 5.96676C10.3678 5.33037 10.102 4.77354 9.74753 4.13715C9.39307 3.58032 9.03862 3.02348 8.50693 2.62574C8.06386 2.228 7.35496 1.83026 6.64604 1.59162C5.84852 1.35297 5.05099 1.19388 4.07624 1.19388C3.72178 1.19388 3.45594 1.19388 3.27872 1.19388C3.10149 1.19388 2.83565 1.27342 2.65842 1.27342C2.48119 1.35297 2.30396 1.43252 2.21535 1.51207C2.12673 1.59162 2.03812 1.75071 2.03812 1.98936V12.092H2.12673Z" fill="#8A9199"/>
    <path d="M17.1921 4.53489C17.1921 2.70529 17.1035 1.35297 16.9263 0.398396L17.0149 0.318848C17.2807 0.398396 17.7238 0.398396 18.1669 0.398396C18.6099 0.398396 19.053 0.398396 19.3188 0.318848L19.4074 0.398396C19.2302 1.35297 19.1416 2.78484 19.1416 4.53489V9.62597C19.1416 11.376 19.2302 12.7283 19.4074 13.7625L19.3188 13.842C19.053 13.7625 18.6099 13.7625 18.1669 13.7625C17.7238 13.7625 17.2807 13.7625 17.0149 13.842L16.9263 13.7625C17.1035 12.8079 17.1921 11.4556 17.1921 9.62597V4.53489Z" fill="#8A9199"/>
    <path d="M26.3172 9.06807C25.3425 11.1363 24.7222 12.7273 24.3677 13.9205C24.1905 13.841 23.836 13.841 23.3044 13.841C22.9499 13.841 22.6841 13.841 22.5068 13.9205L29.3301 0.158691H29.9504L32.1657 5.09067L34.7355 10.659C35.4445 12.25 35.9761 13.2841 36.3306 13.9205C36.0648 13.841 35.6217 13.841 34.9128 13.841C34.3811 13.841 34.0266 13.841 33.7608 13.9205C33.4063 12.8068 32.786 11.1363 31.9885 9.06807C31.1024 9.06807 30.2162 9.06807 29.2415 9.06807C28.2667 9.06807 27.2034 9.06807 26.3172 9.06807ZM31.6341 8.11349C30.9252 6.36344 30.1276 4.69293 29.2415 2.94287H29.1529L26.8489 8.11349C27.0261 8.11349 27.3806 8.11349 28.0009 8.11349C28.6212 8.11349 29.0643 8.11349 29.3301 8.11349C30.1276 8.11349 30.9252 8.11349 31.6341 8.11349Z" fill="#8A9199"/>
    <path d="M41.9132 0H42.5335C42.9766 0.875028 43.8628 2.54554 45.0147 4.93198C46.1667 7.31842 47.1415 9.22757 47.939 10.5799L53.8761 0H54.4078C55.1167 5.25017 55.737 9.86396 56.3573 13.8414C56.0915 13.7618 55.737 13.7618 55.1167 13.7618C54.585 13.7618 54.2306 13.7618 53.9647 13.8414C53.5217 9.46622 53.2558 6.20475 52.9014 3.89785H52.8128C50.7746 7.23887 49.0024 10.5003 47.4073 13.7618H46.9642C46.5212 12.8868 45.7236 11.2958 44.6603 9.06848C43.5969 6.84113 42.7108 5.09107 42.0019 3.81831H41.9132C41.736 4.93198 41.3816 6.68203 41.0271 9.14802C40.584 11.614 40.3182 13.1254 40.2296 13.8414C40.0524 13.7618 39.7865 13.7618 39.5207 13.7618C39.1662 13.7618 38.9004 13.7618 38.7231 13.8414C40.141 8.59119 41.1157 3.9774 41.9132 0Z" fill="#8A9199"/>
    <path d="M74.5253 6.99982C74.5253 8.35214 74.2595 9.62491 73.6392 10.659C73.0189 11.6932 72.1328 12.5682 70.9808 13.125C69.8288 13.6819 68.5882 14 67.0818 14C65.7526 14 64.512 13.7614 63.4486 13.2046C62.2966 12.6477 61.4105 11.9318 60.7902 10.8977C60.0813 9.86355 59.8154 8.67033 59.8154 7.39756C59.8154 6.04525 60.1699 4.85203 60.7902 3.73835C61.4105 2.62468 62.2966 1.74965 63.4486 1.11327C64.6006 0.476883 65.8412 0.158691 67.1704 0.158691C68.5882 0.158691 69.8288 0.476884 70.9808 1.03372C72.1328 1.59056 73.0189 2.38604 73.6392 3.42016C74.2595 4.45429 74.5253 5.64751 74.5253 6.99982ZM66.8159 1.03372C66.3729 1.03372 65.9298 1.11327 65.4867 1.19282C65.0436 1.35191 64.6006 1.51101 64.2461 1.8292C63.8031 2.14739 63.4486 2.54513 63.1828 2.94287C62.9169 3.42016 62.6511 3.977 62.4738 4.61338C62.2966 5.32931 62.208 6.04525 62.208 6.92027C62.208 7.87485 62.3852 8.74988 62.6511 9.54536C62.9169 10.3408 63.36 10.9772 63.8917 11.4545C64.4234 11.9318 64.955 12.3295 65.6639 12.5682C66.2842 12.8068 66.9932 12.9659 67.7021 12.9659C69.0313 12.9659 70.1833 12.4886 70.9808 11.4545C71.8669 10.4204 72.2214 9.06807 72.2214 7.23847C72.2214 5.09067 71.7783 3.57926 70.8036 2.46558C69.8288 1.59056 68.4996 1.03372 66.8159 1.03372Z" fill="#8A9199"/>
    <path d="M78.8659 0.396889C79.0432 0.396889 79.3976 0.396889 79.9293 0.396889L80.2838 0.317341L88.259 9.54491C88.7907 10.1813 89.1452 10.4995 89.2338 10.579C89.411 10.7381 89.5882 10.6586 89.5882 10.4199C89.5882 10.3404 89.5882 10.1813 89.5882 10.0222V4.45384C89.5882 2.62423 89.4996 1.27192 89.3224 0.317341L89.411 0.237793C89.6769 0.317341 89.9427 0.317341 90.2085 0.317341C90.4744 0.317341 90.7402 0.317341 91.006 0.237793L91.0947 0.317341C91.0061 1.43101 90.9174 2.54469 90.9174 3.73791C90.8288 4.93113 90.8288 5.8857 90.8288 6.68119C90.8288 7.47667 90.7402 8.59034 90.7402 10.0222C90.7402 11.4541 90.6516 12.5677 90.6516 13.2837C90.6516 13.6814 90.4744 13.9201 90.2085 13.9201C89.8541 13.9201 89.4996 13.761 89.2338 13.4428L81.1699 4.2152L80.8155 3.81746C80.7268 3.73791 80.6382 3.65836 80.5496 3.57881C80.461 3.49926 80.461 3.49926 80.3724 3.49926C80.3724 3.49926 80.2838 3.57881 80.2838 3.65836C80.2838 3.73791 80.2838 3.897 80.2838 3.97655C80.2838 4.13565 80.2838 4.29474 80.2838 4.53339V9.54491C80.2838 11.3745 80.3724 12.7268 80.5496 13.6814L80.461 13.761C80.1952 13.6814 79.9293 13.6814 79.6635 13.6814C79.3976 13.6814 79.1318 13.6814 78.8659 13.761L78.7773 13.6814C78.9546 12.0905 79.0432 9.94266 79.1318 7.23802C78.9546 4.61294 78.9546 2.30604 78.8659 0.396889Z" fill="#8A9199"/>
    <path d="M97.1188 0.318359C97.6505 0.318359 98.2707 0.318359 99.0683 0.318359C99.8658 0.318359 100.486 0.318359 101.018 0.318359C102.081 0.318359 103.144 0.477455 104.119 0.875196C105.094 1.27294 105.98 1.75022 106.689 2.38661C107.398 3.02299 107.93 3.73893 108.373 4.61395C108.816 5.48898 108.993 6.36401 108.993 7.31859C108.993 8.03452 108.904 8.6709 108.727 9.30729C108.55 9.94367 108.373 10.421 108.018 10.8982C107.664 11.3755 107.398 11.6937 106.955 12.0915C106.512 12.4097 106.157 12.7279 105.714 12.9665C105.271 13.2051 104.828 13.3642 104.296 13.5233C103.765 13.6824 103.322 13.762 102.79 13.8415C102.347 13.9211 101.815 13.9211 101.372 13.9211C100.486 13.9211 99.6886 13.9211 98.9797 13.9211C98.2707 13.9211 97.6505 13.9211 97.1188 13.9211C96.8529 13.9211 96.6757 13.9211 96.4985 13.9211C96.3213 13.9211 96.144 13.9211 96.0554 13.9211H95.9668V13.8415C96.144 12.887 96.2326 11.5346 96.2326 9.70503V4.61395C96.2326 2.78435 96.144 1.43203 95.9668 0.477455L96.0554 0.397908C96.2326 0.31836 96.5871 0.318359 97.1188 0.318359ZM98.1821 12.0915C98.1821 12.3301 98.2707 12.4892 98.3594 12.6483C98.448 12.7279 98.7138 12.8074 99.0683 12.887C99.4227 12.9665 99.9544 12.9665 100.752 12.9665C101.284 12.9665 101.727 12.9665 102.081 12.887C102.524 12.887 102.879 12.8074 103.322 12.6483C103.765 12.5688 104.119 12.4097 104.474 12.2506C104.828 12.0915 105.094 11.8528 105.36 11.6142C105.626 11.3755 105.892 11.0573 106.069 10.7392C106.246 10.421 106.423 9.94367 106.512 9.46638C106.6 8.9891 106.689 8.43226 106.689 7.87542C106.689 7.15949 106.6 6.52311 106.512 5.96627C106.423 5.32989 106.157 4.77305 105.803 4.13667C105.448 3.57983 105.094 3.02299 104.562 2.62525C104.119 2.22751 103.41 1.82977 102.701 1.59113C101.904 1.35248 101.106 1.19339 100.132 1.19339C99.7772 1.19339 99.5113 1.19339 99.3341 1.19339C99.1569 1.19339 98.891 1.27294 98.7138 1.27294C98.5366 1.35248 98.3594 1.43203 98.2708 1.51158C98.1821 1.59113 98.0935 1.75022 98.0935 1.98887V12.0915H98.1821Z" fill="#8A9199"/>
    <path d="M115.287 4.53441V9.62548C115.287 11.1369 115.375 12.0915 115.464 12.4892C116.35 12.4892 117.413 12.4892 118.477 12.4097C119.54 12.3301 120.426 12.2506 121.047 12.171L122.021 12.0915L122.11 12.171C122.11 12.4097 122.021 12.6483 122.021 12.887C122.021 13.1256 122.021 13.4438 122.11 13.8415L122.021 13.9211C121.667 13.9211 121.224 13.8415 120.603 13.8415H114.223C113.957 13.8415 113.78 13.8415 113.603 13.8415C113.426 13.8415 113.249 13.8415 113.16 13.8415H113.071V13.762C113.249 12.8074 113.337 11.4551 113.337 9.62548V4.53441C113.337 2.7048 113.249 1.35248 113.071 0.397908L113.16 0.318359C113.426 0.397907 113.869 0.397908 114.312 0.397908C114.844 0.397908 115.198 0.397907 115.552 0.318359V0.397908C115.287 1.35248 115.287 2.7048 115.287 4.53441Z" fill="#8A9199"/>
    <path d="M127.514 9.06807C126.539 11.1363 125.918 12.7273 125.564 13.9205C125.387 13.841 125.032 13.841 124.501 13.841C124.146 13.841 123.88 13.841 123.703 13.9205L130.526 0.158691H131.147L133.362 5.09067L135.932 10.659C136.641 12.25 137.172 13.2841 137.527 13.9205C137.261 13.841 136.818 13.841 136.109 13.841C135.577 13.841 135.223 13.841 134.957 13.9205C134.603 12.8068 133.982 11.1363 133.185 9.06807C132.299 9.06807 131.413 9.06807 130.438 9.06807C129.374 9.06807 128.4 9.06807 127.514 9.06807ZM132.83 8.11349C132.121 6.36344 131.324 4.69293 130.438 2.94287H130.349L127.868 8.11349C128.045 8.11349 128.4 8.11349 129.02 8.11349C129.64 8.11349 130.083 8.11349 130.349 8.11349C131.235 8.11349 132.033 8.11349 132.83 8.11349Z" fill="#8A9199"/>
    <path d="M140.985 4.53489C140.985 2.70529 140.896 1.35297 140.719 0.398396L140.807 0.318848C141.073 0.398396 141.516 0.398396 141.959 0.398396C142.491 0.398396 142.845 0.398396 143.111 0.318848L143.2 0.398396C143.023 1.35297 142.934 2.78484 142.934 4.53489V6.60314C143.111 6.60314 143.289 6.52359 143.466 6.44405C145.327 5.01218 147.542 2.94393 150.112 0.318848C150.289 0.398396 150.732 0.398396 151.264 0.398396C151.795 0.398396 152.239 0.398396 152.416 0.318848L148.517 3.50077C147.099 4.69399 146.124 5.64857 145.327 6.44405V6.5236L152.593 13.9216C152.327 13.842 151.795 13.842 151.175 13.842C150.466 13.842 150.023 13.842 149.757 13.9216C146.39 10.1828 144.263 7.95546 143.377 7.15998C143.289 7.08043 143.111 7.00088 142.934 7.00088V9.70552C142.934 11.4556 143.023 12.8079 143.2 13.842L143.111 13.9216C142.845 13.842 142.402 13.842 141.959 13.842C141.428 13.842 141.073 13.842 140.807 13.9216L140.719 13.842C140.896 12.8874 140.985 11.5351 140.985 9.70552V4.53489Z" fill="#8A9199"/>
    <path d="M158.176 9.62491C158.176 11.2159 158.265 12.1704 158.354 12.5682C159.24 12.5682 160.303 12.5682 161.366 12.5682C162.43 12.5682 163.316 12.5682 163.936 12.4886L164.911 12.4091L165 12.4886C165 12.7273 164.911 12.9659 164.911 13.2046C164.911 13.2046 164.911 13.4432 165 13.841L164.911 13.9205C164.556 13.9205 164.113 13.841 163.493 13.841H157.113C156.847 13.841 156.67 13.841 156.493 13.841C156.315 13.841 156.138 13.841 156.05 13.841H155.961V13.7614C156.138 12.8068 156.227 11.4545 156.227 9.54536V4.45428C156.227 2.62468 156.138 1.27236 155.961 0.23824L156.05 0.158691C156.315 0.238239 156.67 0.23824 157.202 0.23824H163.316C163.848 0.23824 164.379 0.238239 164.734 0.158691L164.822 0.23824C164.822 0.63598 164.734 0.874624 164.734 1.03372C164.734 1.19282 164.734 1.35191 164.822 1.59056L164.645 1.74965C162.518 1.59056 160.392 1.51101 158.354 1.51101C158.265 1.90875 158.176 2.94287 158.176 4.53383V6.12479C159.771 6.12479 161.544 6.04525 163.404 5.88615L163.493 5.9657C163.404 6.12479 163.404 6.36344 163.404 6.60208C163.404 6.84073 163.404 7.07937 163.493 7.23847L163.404 7.31801C161.898 7.15892 160.126 7.07937 158.176 7.07937V9.62491Z" fill="#8A9199"/>
</svg>
