<svg width="88" height="16" viewBox="0 0 88 16" fill="none" xmlns="http://www.w3.org/2000/svg">
<g clip-path="url(#clip0_1339_63752)">
<path d="M18.6667 8.84792C18.8129 8.49704 19.3099 7.18125 19.3099 7.18125C19.3099 7.21049 19.4561 6.83038 19.5146 6.6257L19.6316 7.15201C19.6316 7.15201 19.9532 8.58476 20.0117 8.87716H18.6667V8.84792Z" fill="black"/>
<path fill-rule="evenodd" clip-rule="evenodd" d="M2 0C0.895431 0 0 0.895431 0 2V14C0 15.1046 0.89543 16 2 16H22C23.1046 16 24 15.1046 24 14V2C24 0.895431 23.1046 0 22 0H2ZM16.269 9.02338C16.269 10.2514 15.1579 11.0702 13.4327 11.0702C12.7018 11.0702 12 10.924 11.6199 10.7485L11.8538 9.40349L12.0585 9.49121C12.5848 9.72513 12.9357 9.81285 13.5789 9.81285C14.0468 9.81285 14.5439 9.63741 14.5439 9.22806C14.5439 8.9649 14.3392 8.78946 13.6959 8.49706C13.0819 8.20466 12.2632 7.73683 12.2632 6.88887C12.2632 5.71928 13.4035 4.92981 15.0117 4.92981C15.6257 4.92981 16.152 5.04677 16.4737 5.19297L16.2398 6.47952L16.1228 6.36256C15.8304 6.2456 15.4503 6.12864 14.8947 6.12864C14.2807 6.15788 13.9883 6.42104 13.9883 6.65496C13.9883 6.91811 14.3392 7.12279 14.8947 7.38595C15.8304 7.82455 16.269 8.32162 16.269 9.02338ZM20.655 5.01751H19.3977C19.0175 5.01751 18.7251 5.13447 18.5497 5.51459L16.152 10.9824H17.848C17.848 10.9824 18.1404 10.2514 18.1988 10.076H20.2749C20.3333 10.2807 20.4795 10.9532 20.4795 10.9532H22L20.655 5.01751ZM2.02924 4.95907L2 5.07603C3.95906 5.54386 5.24561 6.68421 5.80117 8.08772L5.24561 5.45614C5.15789 5.07603 4.89474 4.95907 4.54386 4.95907H2.02924ZM9.33918 5.01753L6.79532 10.9532H5.07017L3.60819 5.98244C4.66082 6.65496 5.53801 7.70759 5.85965 8.43858L6.03509 9.05262L7.61403 4.98829H9.33918V5.01753ZM11.6199 4.98829H10.0117L8.98831 10.9532H10.5965L11.6199 4.98829Z" fill="black"/>
</g>
<g clip-path="url(#clip1_1339_63752)">
<path fill-rule="evenodd" clip-rule="evenodd" d="M34 0C32.8954 0 32 0.895431 32 2V14C32 15.1046 32.8954 16 34 16H54C55.1046 16 56 15.1046 56 14V2C56 0.895431 55.1046 0 54 0H34ZM47.8213 13.9873C51.1004 13.976 53.7086 11.2747 53.6533 7.94694C53.5983 4.63595 50.9003 1.93604 47.6212 1.94727C46.237 1.95201 44.9763 2.4413 43.9845 3.24741L44.0156 3.27224L43.839 3.27285C42.8237 2.48262 41.5542 2.00807 40.1787 2.01278C36.8996 2.02401 34.2914 4.72537 34.3467 8.05309C34.402 11.3808 37.0997 14.064 40.3788 14.0528C41.763 14.048 43.0237 13.5587 44.0155 12.7526L43.984 12.7278L44.161 12.7272C45.1763 13.5174 46.4458 13.992 47.8213 13.9873Z" fill="black"/>
</g>
<g clip-path="url(#clip2_1339_63752)">
<path fill-rule="evenodd" clip-rule="evenodd" d="M64 2C64 0.895431 64.8954 0 66 0H86C87.1046 0 88 0.895431 88 2V14C88 15.1046 87.1046 16 86 16H66C64.8954 16 64 15.1046 64 14V2ZM83.9439 5.10281H80.0935C80.3178 6.37384 81.5514 7.57011 82.8972 7.57011H85.9626C86 7.45798 86 7.27113 86 7.15897C86 6.03748 85.0654 5.10281 83.9439 5.10281ZM80.4299 10.8972V7.79439H85.8878C85.6262 8.61682 84.8411 9.25233 83.9439 9.25233H82.2991V10.8972H80.4299ZM73.8505 5.10281V10.8598H75.4953C75.4953 10.8598 75.9065 10.8598 76.1308 10.4486C77.2523 8.243 77.5888 7.57011 77.5888 7.57011H77.8131V10.8598H79.6822V5.10281H78.0374C78.0374 5.10281 77.6262 5.1402 77.4019 5.51403C76.4673 7.42057 75.9439 8.39253 75.9439 8.39253H75.7196V5.10281H73.8505ZM66 5.1402V10.8972H67.7944V7.79441H68.0187L69.0654 10.8972H69.8879L70.9346 7.79441H71.1589V10.8972H73.028V5.1402H71.1589C71.1589 5.1402 70.6355 5.1402 70.3365 5.96263C69.6636 7.90655 69.514 8.42992 69.514 8.42992C69.514 8.42992 69.4393 8.13085 68.6916 5.96263C68.3925 5.1402 67.8692 5.1402 67.8692 5.1402H66Z" fill="black"/>
</g>
<defs>
<clipPath id="clip0_1339_63752">
<rect width="24" height="16" fill="white"/>
</clipPath>
<clipPath id="clip1_1339_63752">
<rect width="24" height="16" fill="white" transform="translate(32)"/>
</clipPath>
<clipPath id="clip2_1339_63752">
<rect width="24" height="16" fill="white" transform="translate(64)"/>
</clipPath>
</defs>
</svg>
