<svg width="48" height="8" viewBox="0 0 48 8" fill="none" xmlns="http://www.w3.org/2000/svg">
<path d="M43.5596 7H4.44044C2.52909 7 1 5.66667 1 4C1 2.33333 2.52909 1 4.44044 1H43.5596C45.4709 1 47 2.33333 47 4C47 5.66667 45.4709 7 43.5596 7Z" stroke="#1A1A1A" stroke-width="0.4" stroke-miterlimit="10"/>
<path d="M34 6C32.9524 6 32 5.16279 32 4.04651V3.95349C32 2.83721 32.9524 2 34 2C35.0476 2 36 2.83721 36 3.86047V4.04651C36 5.06977 35.1429 6 34 6Z" stroke="#1A1A1A" stroke-width="0.4"/>
<path d="M39 6C37.9524 6 37 5.16279 37 4.04651V3.95349C37 2.83721 37.9524 2 39 2C40.0476 2 41 2.83721 41 3.86047V4.04651C41 5.06977 40.1429 6 39 6Z" stroke="#1A1A1A" stroke-width="0.4"/>
<path d="M44 6C42.9524 6 42 5.16279 42 4.04651V3.95349C42 2.83721 42.9524 2 44 2C45.0476 2 46 2.83721 46 3.86047V4.04651C46 5.06977 45.1429 6 44 6Z" stroke="#1A1A1A" stroke-width="0.4"/>
<path d="M29 6C27.8571 6 27 5.16279 27 4.04651V3.95349C27 2.83721 27.9524 2 29 2C30.0476 2 31 2.83721 31 3.86047V4.04651C31 5.06977 30.0476 6 29 6Z" stroke="#1A1A1A" stroke-width="0.4"/>
<path d="M24 6C22.9524 6 22 5.16279 22 4.04651V3.95349C22 2.83721 22.9524 2 24 2C25.0476 2 26 2.83721 26 3.86047V4.04651C26 5.06977 25.1429 6 24 6Z" stroke="#1A1A1A" stroke-width="0.4"/>
<path d="M19 6C17.9524 6 17 5.16279 17 4.04651V3.95349C17 2.83721 17.9524 2 19 2C20.0476 2 21 2.83721 21 3.86047V4.04651C21 5.06977 20.1429 6 19 6Z" stroke="#1A1A1A" stroke-width="0.4"/>
<path d="M14 6C12.9524 6 12 5.16279 12 4.04651V3.95349C12 2.83721 12.9524 2 14 2C15.0476 2 16 2.83721 16 3.86047V4.04651C16 5.06977 15.0476 6 14 6Z" stroke="#1A1A1A" stroke-width="0.4"/>
<path d="M9 6C7.95238 6 7 5.16279 7 4.04651V3.95349C7 2.83721 7.95238 2 9 2C10.0476 2 11 2.83721 11 3.86047V4.04651C11 5.06977 10.1429 6 9 6Z" stroke="#1A1A1A" stroke-width="0.4"/>
<path d="M4.09179 6C2.95082 6 2.09508 5.16279 2 4.04651V3.95349C2 2.83721 2.95082 2 3.99671 2C5.04261 2 5.99343 2.83721 5.99343 3.86047V4.04651C6.08851 5.06977 5.13769 6 4.09179 6Z" stroke="#1A1A1A" stroke-width="0.4"/>
</svg>
