<svg width="60" height="22" viewBox="0 0 60 22" fill="none" xmlns="http://www.w3.org/2000/svg">
<path d="M33.7821 4.58386H26.2158L23.5832 7.24937V14.7836L26.1923 17.4172H33.7363L36.4157 14.7985V7.32058L33.7821 4.58386ZM22.0811 6.27159L23.4586 7.07295C24.3258 6.19401 25.1952 5.31614 26.0624 4.4372L25.2463 3.06725L22.0811 6.27159ZM20.58 5.39797L21.8914 6.16106C22.9717 5.06638 24.0541 3.97275 25.1344 2.87807L24.3578 1.57401L20.58 5.39797ZM19.2781 4.64019L20.3903 5.28744C21.6752 3.98657 22.9611 2.6857 24.2448 1.38483L23.5854 0.278454L19.277 4.64019H19.2781ZM35.5389 1.30193L36.1877 0.21256H23.7942L24.443 1.30193H35.5378H35.5389ZM34.645 2.80261L35.4121 1.51449H24.5698L25.3369 2.80261H34.644H34.645ZM33.7118 4.37024L34.5193 3.01517H25.4658L26.2733 4.37024H33.7128H33.7118ZM39.5394 5.3172L40.6431 4.67527L36.4018 0.268889L35.7434 1.3742C37.0091 2.68889 38.2748 4.00251 39.5394 5.31826V5.3172ZM38.0478 6.18444L39.3497 5.42667L35.6305 1.56232L34.8539 2.86638C35.9192 3.97275 36.9835 5.07807 38.0478 6.18444ZM36.4913 7.08995L37.8593 6.29391L34.742 3.05449L33.9259 4.42444C34.7814 5.31295 35.6369 6.20039 36.4913 7.08995ZM20.3679 16.7349L19.2514 17.3843L23.5758 21.7492L24.2363 20.6396C22.9472 19.3377 21.657 18.0368 20.3679 16.7349ZM21.8733 15.8591L20.5576 16.6243L24.3482 20.4515L25.127 19.1432C24.0424 18.0485 22.9568 16.9538 21.8733 15.8581V15.8591ZM23.4458 14.9441L22.0629 15.7486L25.2399 18.9551L26.0581 17.5809C25.1877 16.7019 24.3162 15.823 23.4458 14.9441ZM22.0161 15.5307L23.3702 14.7432V7.26638L22.0161 6.47884V15.5318V15.5307ZM20.515 16.4043L21.803 15.6551V6.35449L20.515 5.60522V16.4054V16.4043ZM19.2131 17.1621L20.3019 16.5287V5.48193L19.2131 4.8485V17.1632V17.1621ZM34.5119 18.9838L33.7043 17.6287H26.2765L25.469 18.9838H34.5108H34.5119ZM35.4057 20.4844L34.6386 19.1963H25.3432L24.5762 20.4844H35.4057ZM36.1813 21.7864L35.5325 20.697H24.4494L23.8006 21.7864H36.1813ZM39.6981 16.5383L40.7869 17.1717V4.83787L39.6907 5.47556L39.6981 5.483V16.5383ZM38.197 15.6646L39.485 16.4139V5.59565L38.197 6.34493V15.6668V15.6646ZM36.6298 14.7528L37.9839 15.5403V6.46927L36.6298 7.25681V14.7549V14.7528ZM37.9424 15.7614L36.5574 14.9557C35.6731 15.8198 34.7899 16.6839 33.9057 17.5479L34.7185 18.9126L37.9424 15.7614ZM39.451 16.6392L38.1331 15.8729C37.0326 16.9496 35.932 18.0251 34.8304 19.1007L35.6039 20.3994L39.451 16.6392ZM40.7592 17.4002L39.6416 16.7498C38.3334 18.0294 37.0251 19.3079 35.7157 20.5865L36.372 21.6875L40.7592 17.4002ZM23.6077 0H36.437C37.9584 1.58039 39.4797 3.15971 41 4.7401V17.4608C39.452 18.9742 37.904 20.4876 36.355 22H23.5236C22.0161 20.477 20.5075 18.9561 19 17.4331C19 13.1617 19.0032 8.89034 19 4.62C20.5214 3.08 22.0417 1.54 23.5641 0H23.6077Z" fill="#2B2A29"/>
<path d="M56.6774 14H44C42.8387 14 41 12.05 41 11C41 10.1 42.6452 8 44 8H56.6774C57.8387 8 59 8.75 59 9.8V12.2C58.8065 13.25 57.8387 14 56.6774 14Z" stroke="#1A1A1A" stroke-width="0.4" stroke-miterlimit="10"/>
<path d="M3.32258 8L16 8C17.1613 8 19 9.95 19 11C19 11.9 17.3548 14 16 14L3.32258 14C2.16129 14 1 13.25 1 12.2L1 9.8C1.19355 8.75 2.16129 8 3.32258 8Z" stroke="#1A1A1A" stroke-width="0.4" stroke-miterlimit="10"/>
</svg>
