<svg width="60" height="26" viewBox="0 0 60 26" fill="none" xmlns="http://www.w3.org/2000/svg">
<path d="M49.5596 7H10.4404C8.52909 7 7 5.66667 7 4C7 2.33333 8.52909 1 10.4404 1H49.5596C51.4709 1 53 2.33333 53 4C53 5.66667 51.4709 7 49.5596 7Z" stroke="#1A1A1A" stroke-width="0.4" stroke-miterlimit="10"/>
<path d="M7 4H28" stroke="#1A1A1A" stroke-width="0.4" stroke-miterlimit="10"/>
<path d="M32 4H53" stroke="#1A1A1A" stroke-width="0.4" stroke-miterlimit="10"/>
<path d="M30 6C28.9524 6 28 5.16279 28 4.04651V3.95349C28 2.83721 28.9524 2 30 2C31.0476 2 32 2.83721 32 3.86047V4.04651C32 5.06977 31.0476 6 30 6Z" stroke="#1A1A1A" stroke-width="0.4"/>
<path d="M54.6621 25H5.33795C2.92798 25 1 22.7778 1 20C1 17.2222 2.92798 15 5.33795 15H54.6621C57.072 15 59 17.2222 59 20C59 22.7778 57.072 25 54.6621 25Z" stroke="#1A1A1A" stroke-width="0.4" stroke-miterlimit="10"/>
<path d="M1 20H52.6957" stroke="#1A1A1A" stroke-width="0.4" stroke-miterlimit="10"/>
<path d="M33 20H59" stroke="#1A1A1A" stroke-width="0.4" stroke-miterlimit="10"/>
</svg>
