<svg width="60" height="22" viewBox="0 0 60 22" fill="none" xmlns="http://www.w3.org/2000/svg">
<mask id="path-1-inside-1_319_34149" fill="white">
<path d="M30.2424 0.238284L33.1728 3.11185L34.0481 1.02273C32.8684 0.543807 31.5861 0.267775 30.2412 0.238284M26.0168 0.995603L26.8992 3.09534L29.7611 0.238284C28.441 0.266595 27.18 0.53319 26.018 0.996783L26.0168 0.995603ZM40.7629 11.1097L37.8951 14.1001L39.9914 15.0095C40.4762 13.8028 40.7487 12.4875 40.7629 11.1097ZM22.637 3.14842L26.6809 3.18499L25.7997 1.08761C24.6236 1.5866 23.5548 2.28847 22.637 3.1496V3.14842ZM25.7478 20.8923L26.6385 18.7584L22.5591 18.7796C23.4805 19.6608 24.5587 20.3804 25.7478 20.8923ZM19.9909 14.9683L22.1474 14.0847L19.2371 11.171C19.2584 12.5099 19.5238 13.7898 19.9909 14.9683ZM22.2382 14.3018L20.0806 15.1853C20.5973 16.4074 21.3334 17.5151 22.2382 18.4576V14.3018ZM22.1391 7.83743L20.0204 6.95743C19.5497 8.11936 19.2749 9.38155 19.2395 10.7039L22.1391 7.83743ZM39.9819 6.96214L37.875 7.84214L40.7582 10.6225C40.7133 9.33201 40.442 8.09812 39.9819 6.96214ZM37.9328 3.7229L37.8715 7.5897L39.8911 6.74509C39.4098 5.62681 38.7433 4.60643 37.9316 3.7229H37.9328ZM33.3934 3.19796C34.7158 3.18027 36.0394 3.16375 37.3618 3.14606C36.4617 2.30145 35.4154 1.61019 34.2663 1.11357L33.3934 3.19678V3.19796ZM29.951 4.97212L33.0194 3.28997L30.0018 0.331475L27.0514 3.27818L29.951 4.97212ZM25.9354 6.71206L29.6892 5.09244L26.9322 3.48225C26.55 4.80461 26.2492 5.78606 25.9366 6.71324L25.9354 6.71206ZM22.4659 7.64515L25.7337 6.78992L26.7034 3.41973L22.4647 3.38198V7.64515H22.4659ZM20.1124 6.74038L22.2312 7.62155V3.55067C21.3464 4.47196 20.6256 5.55013 20.1124 6.74038ZM33.9466 6.62949L33.1397 3.49405C31.9329 4.15464 31.0187 4.63239 30.1351 5.06413L33.9466 6.62949ZM37.5081 18.7136L33.325 18.7537L34.2144 20.9065C35.4472 20.3816 36.562 19.6337 37.5081 18.7124V18.7136ZM37.8125 14.3206C37.8184 15.676 37.8243 17.0314 37.8302 18.3868C38.6949 17.4702 39.4003 16.4027 39.9029 15.2278L37.8125 14.3206ZM33.3662 3.43389L34.2156 6.7333L37.6344 7.72654L37.7016 3.47871L37.6025 3.37844L33.3674 3.43389H33.3662ZM35.8188 10.7075L37.501 7.93416L34.3194 7.00933L35.8188 10.7075ZM22.5284 7.87164L24.193 10.7181L25.6346 7.05887C24.5988 7.32783 23.5642 7.60032 22.5284 7.87164ZM24.0774 10.9858L22.3232 7.98724L19.3374 10.9387L22.3314 13.9361L24.0774 10.9858ZM29.8531 21.7641C28.8551 20.7909 27.8559 19.8177 26.8579 18.8445L25.9649 20.9832C27.1682 21.4703 28.4788 21.7452 29.8531 21.7641ZM33.135 18.9106L30.338 21.7594C31.6274 21.7192 32.8602 21.4527 33.9974 20.9985L33.135 18.9106ZM37.7216 8.02263L35.9285 10.9776L37.7157 13.9491L40.6709 10.8667L37.7205 8.02145L37.7216 8.02263ZM25.8622 15.0555L22.473 14.2746V18.5449L26.668 18.5225L25.8622 15.0567V15.0555ZM22.5391 14.0481L25.7584 14.7901L24.1989 11.243L22.5391 14.0481ZM29.9593 16.7566L27.036 18.6888L30.0961 21.6709L33.0383 18.6735L33.0265 18.6451L29.9593 16.7554V16.7566ZM33.9195 15.2148L30.22 16.6421L33.1598 18.4529L33.9195 15.2148ZM37.5777 14.3265L34.1838 15.1228L33.3863 18.5201L37.5966 18.4788L37.5789 14.3265H37.5777ZM34.284 14.8562L37.5305 14.0953L35.8141 11.2418L34.284 14.8562ZM29.9581 16.49C31.3041 15.9733 32.6513 15.4543 33.9962 14.9329C34.553 13.6129 35.1122 12.2929 35.6714 10.974C35.1204 9.62338 34.5731 8.26917 34.0269 6.91732C32.6643 6.35228 31.2982 5.79668 29.9345 5.23635L29.8649 5.19507C28.7183 5.74831 27.5787 6.24847 25.8681 6.99753L25.8339 7.00579C25.4328 8.17126 24.9975 9.30016 24.3404 10.9835C24.902 12.2799 25.4788 13.5739 26.0486 14.8668C27.351 15.4094 28.6546 15.9497 29.9581 16.49ZM26.9027 18.493L29.7068 16.6398L26.1265 15.1535L26.9027 18.4918V18.493ZM30.0006 0C32.997 0 35.715 1.1985 37.6981 3.14252L37.7252 3.16965C37.7429 3.18735 37.7606 3.20386 37.7783 3.22155C37.8219 3.2652 37.8656 3.31003 37.9092 3.35485L37.9363 3.38316C39.9111 5.44161 41 8.15475 41 11C41 14.0375 39.7684 16.7872 37.7783 18.7784C35.7067 20.8499 32.925 22 29.9994 22C27.0738 22 24.2119 20.7685 22.2205 18.7784C20.2316 16.7872 19 14.0375 19 11C19 7.96247 20.2316 5.21276 22.2217 3.22155C24.213 1.23153 26.9629 0 30.0006 0Z"/>
</mask>
<path d="M30.2424 0.238284L33.1728 3.11185L34.0481 1.02273C32.8684 0.543807 31.5861 0.267775 30.2412 0.238284M26.0168 0.995603L26.8992 3.09534L29.7611 0.238284C28.441 0.266595 27.18 0.53319 26.018 0.996783L26.0168 0.995603ZM40.7629 11.1097L37.8951 14.1001L39.9914 15.0095C40.4762 13.8028 40.7487 12.4875 40.7629 11.1097ZM22.637 3.14842L26.6809 3.18499L25.7997 1.08761C24.6236 1.5866 23.5548 2.28847 22.637 3.1496V3.14842ZM25.7478 20.8923L26.6385 18.7584L22.5591 18.7796C23.4805 19.6608 24.5587 20.3804 25.7478 20.8923ZM19.9909 14.9683L22.1474 14.0847L19.2371 11.171C19.2584 12.5099 19.5238 13.7898 19.9909 14.9683ZM22.2382 14.3018L20.0806 15.1853C20.5973 16.4074 21.3334 17.5151 22.2382 18.4576V14.3018ZM22.1391 7.83743L20.0204 6.95743C19.5497 8.11936 19.2749 9.38155 19.2395 10.7039L22.1391 7.83743ZM39.9819 6.96214L37.875 7.84214L40.7582 10.6225C40.7133 9.33201 40.442 8.09812 39.9819 6.96214ZM37.9328 3.7229L37.8715 7.5897L39.8911 6.74509C39.4098 5.62681 38.7433 4.60643 37.9316 3.7229H37.9328ZM33.3934 3.19796C34.7158 3.18027 36.0394 3.16375 37.3618 3.14606C36.4617 2.30145 35.4154 1.61019 34.2663 1.11357L33.3934 3.19678V3.19796ZM29.951 4.97212L33.0194 3.28997L30.0018 0.331475L27.0514 3.27818L29.951 4.97212ZM25.9354 6.71206L29.6892 5.09244L26.9322 3.48225C26.55 4.80461 26.2492 5.78606 25.9366 6.71324L25.9354 6.71206ZM22.4659 7.64515L25.7337 6.78992L26.7034 3.41973L22.4647 3.38198V7.64515H22.4659ZM20.1124 6.74038L22.2312 7.62155V3.55067C21.3464 4.47196 20.6256 5.55013 20.1124 6.74038ZM33.9466 6.62949L33.1397 3.49405C31.9329 4.15464 31.0187 4.63239 30.1351 5.06413L33.9466 6.62949ZM37.5081 18.7136L33.325 18.7537L34.2144 20.9065C35.4472 20.3816 36.562 19.6337 37.5081 18.7124V18.7136ZM37.8125 14.3206C37.8184 15.676 37.8243 17.0314 37.8302 18.3868C38.6949 17.4702 39.4003 16.4027 39.9029 15.2278L37.8125 14.3206ZM33.3662 3.43389L34.2156 6.7333L37.6344 7.72654L37.7016 3.47871L37.6025 3.37844L33.3674 3.43389H33.3662ZM35.8188 10.7075L37.501 7.93416L34.3194 7.00933L35.8188 10.7075ZM22.5284 7.87164L24.193 10.7181L25.6346 7.05887C24.5988 7.32783 23.5642 7.60032 22.5284 7.87164ZM24.0774 10.9858L22.3232 7.98724L19.3374 10.9387L22.3314 13.9361L24.0774 10.9858ZM29.8531 21.7641C28.8551 20.7909 27.8559 19.8177 26.8579 18.8445L25.9649 20.9832C27.1682 21.4703 28.4788 21.7452 29.8531 21.7641ZM33.135 18.9106L30.338 21.7594C31.6274 21.7192 32.8602 21.4527 33.9974 20.9985L33.135 18.9106ZM37.7216 8.02263L35.9285 10.9776L37.7157 13.9491L40.6709 10.8667L37.7205 8.02145L37.7216 8.02263ZM25.8622 15.0555L22.473 14.2746V18.5449L26.668 18.5225L25.8622 15.0567V15.0555ZM22.5391 14.0481L25.7584 14.7901L24.1989 11.243L22.5391 14.0481ZM29.9593 16.7566L27.036 18.6888L30.0961 21.6709L33.0383 18.6735L33.0265 18.6451L29.9593 16.7554V16.7566ZM33.9195 15.2148L30.22 16.6421L33.1598 18.4529L33.9195 15.2148ZM37.5777 14.3265L34.1838 15.1228L33.3863 18.5201L37.5966 18.4788L37.5789 14.3265H37.5777ZM34.284 14.8562L37.5305 14.0953L35.8141 11.2418L34.284 14.8562ZM29.9581 16.49C31.3041 15.9733 32.6513 15.4543 33.9962 14.9329C34.553 13.6129 35.1122 12.2929 35.6714 10.974C35.1204 9.62338 34.5731 8.26917 34.0269 6.91732C32.6643 6.35228 31.2982 5.79668 29.9345 5.23635L29.8649 5.19507C28.7183 5.74831 27.5787 6.24847 25.8681 6.99753L25.8339 7.00579C25.4328 8.17126 24.9975 9.30016 24.3404 10.9835C24.902 12.2799 25.4788 13.5739 26.0486 14.8668C27.351 15.4094 28.6546 15.9497 29.9581 16.49ZM26.9027 18.493L29.7068 16.6398L26.1265 15.1535L26.9027 18.4918V18.493ZM30.0006 0C32.997 0 35.715 1.1985 37.6981 3.14252L37.7252 3.16965C37.7429 3.18735 37.7606 3.20386 37.7783 3.22155C37.8219 3.2652 37.8656 3.31003 37.9092 3.35485L37.9363 3.38316C39.9111 5.44161 41 8.15475 41 11C41 14.0375 39.7684 16.7872 37.7783 18.7784C35.7067 20.8499 32.925 22 29.9994 22C27.0738 22 24.2119 20.7685 22.2205 18.7784C20.2316 16.7872 19 14.0375 19 11C19 7.96247 20.2316 5.21276 22.2217 3.22155C24.213 1.23153 26.9629 0 30.0006 0Z" fill="#1A1A1A"/>
<path d="M56.6774 14H44C42.8387 14 41 12.05 41 11C41 10.1 42.6452 8 44 8H56.6774C57.8387 8 59 8.75 59 9.8V12.2C58.8065 13.25 57.8387 14 56.6774 14Z" stroke="#1A1A1A" stroke-width="0.4" stroke-miterlimit="10"/>
<path d="M3.32258 8L16 8C17.1613 8 19 9.95 19 11C19 11.9 17.3548 14 16 14L3.32258 14C2.16129 14 1 13.25 1 12.2L1 9.8C1.19355 8.75 2.16129 8 3.32258 8Z" stroke="#1A1A1A" stroke-width="0.4" stroke-miterlimit="10"/>
</svg>
