<svg width="60" height="20" viewBox="0 0 60 20" fill="none" xmlns="http://www.w3.org/2000/svg">
<path d="M16 13.8789C13.9048 13.8789 12 12.2045 12 9.97193V9.78588C12 7.55332 13.9048 5.87891 16 5.87891C18.0952 5.87891 20 7.55332 20 9.59984V9.97193C20 12.2045 18.2857 13.8789 16 13.8789Z" stroke="#1A1A1A" stroke-width="0.4" stroke-miterlimit="10"/>
<path d="M44 13.8789C41.9048 13.8789 40 12.2045 40 9.97193V9.78588C40 7.55332 41.9048 5.87891 44 5.87891C46.0952 5.87891 48 7.55332 48 9.59984V9.97193C48 12.2045 46.2857 13.8789 44 13.8789Z" stroke="#1A1A1A" stroke-width="0.4" stroke-miterlimit="10"/>
<path d="M30.2204 0.216622L32.8843 2.82895L33.6801 0.929759C32.6076 0.49437 31.4419 0.243432 30.2193 0.216622M26.3789 0.905094L27.1811 2.81394L29.7828 0.216622C28.5828 0.242359 27.4363 0.484718 26.38 0.906166L26.3789 0.905094ZM39.7844 10.0997L37.1773 12.8182L39.0831 13.645C39.5238 12.548 39.7716 11.3523 39.7844 10.0997ZM23.3063 2.8622L26.9827 2.89544L26.1816 0.98874C25.1123 1.44236 24.1407 2.08043 23.3063 2.86327V2.8622ZM26.1344 18.993L26.9441 17.0531L23.2356 17.0724C24.0731 17.8735 25.0534 18.5276 26.1344 18.993ZM20.9009 13.6075L22.8613 12.8043L20.2156 10.1555C20.2349 11.3727 20.4762 12.5362 20.9009 13.6075ZM22.9439 13.0016L20.9824 13.8048C21.4521 14.9158 22.1213 15.9228 22.9439 16.7796V13.0016ZM22.8538 7.12493L20.9277 6.32493C20.4998 7.38123 20.2499 8.52869 20.2177 9.73083L22.8538 7.12493ZM39.0745 6.32922L37.1591 7.12922L39.7801 9.65684C39.7394 8.48365 39.4927 7.36193 39.0745 6.32922ZM37.2116 3.38445L37.1559 6.89973L38.9919 6.1319C38.5543 5.11528 37.9484 4.18767 37.2106 3.38445H37.2116ZM33.0849 2.90724C34.2871 2.89115 35.4904 2.87614 36.6926 2.86005C35.8743 2.09223 34.9231 1.46381 33.8785 1.01233L33.0849 2.90617V2.90724ZM29.9555 4.52011L32.7449 2.99088L30.0016 0.30134L27.3194 2.98016L29.9555 4.52011ZM26.3049 6.10188L29.7174 4.62949L27.2111 3.16568C26.8636 4.36783 26.5902 5.26005 26.306 6.10295L26.3049 6.10188ZM23.1508 6.95013L26.1215 6.17265L27.0031 3.10885L23.1498 3.07453V6.95013H23.1508ZM21.0113 6.12761L22.9374 6.92869V3.22788C22.1331 4.06542 21.4778 5.04558 21.0113 6.12761ZM33.5879 6.02681L32.8543 3.17641C31.7572 3.77694 30.9261 4.21126 30.1228 4.60375L33.5879 6.02681ZM36.8256 17.0123L33.0227 17.0488L33.8313 19.0059C34.952 18.5287 35.9655 17.8488 36.8256 17.0113V17.0123ZM37.1023 13.0188C37.1076 14.2509 37.113 15.4831 37.1183 16.7153C37.9044 15.882 38.5458 14.9115 39.0026 13.8434L37.1023 13.0188ZM33.0602 3.12172L33.8324 6.12118L36.9403 7.02413L37.0014 3.16247L36.9114 3.07131L33.0613 3.12172H33.0602ZM35.2898 9.73405L36.8191 7.21287L33.9268 6.37212L35.2898 9.73405ZM23.2077 7.15603L24.7209 9.7437L26.0314 6.41716C25.0898 6.66166 24.1493 6.90938 23.2077 7.15603ZM24.6158 9.98713L23.0211 7.26113L20.3067 9.94424L23.0286 12.6692L24.6158 9.98713ZM29.8665 19.7855C28.9592 18.9008 28.0508 18.0161 27.1435 17.1314L26.3317 19.0756C27.4256 19.5185 28.6171 19.7684 29.8665 19.7855ZM32.85 17.1914L30.3073 19.7812C31.4794 19.7448 32.6001 19.5024 33.634 19.0895L32.85 17.1914ZM37.0197 7.2933L35.3896 9.97962L37.0143 12.681L39.7008 9.87882L37.0186 7.29223L37.0197 7.2933ZM26.2384 13.6869L23.1573 12.9769V16.859L26.9709 16.8386L26.2384 13.6879V13.6869ZM23.2173 12.771L26.144 13.4456L24.7263 10.2209L23.2173 12.771ZM29.963 15.2332L27.3055 16.9898L30.0874 19.7008L32.7621 16.9759L32.7514 16.9501L29.963 15.2322V15.2332ZM33.5632 13.8316L30.2 15.1292L32.8725 16.7753L33.5632 13.8316ZM36.8888 13.0241L33.8034 13.748L33.0784 16.8365L36.906 16.7989L36.8899 13.0241H36.8888ZM33.8946 13.5056L36.8459 12.8139L35.2855 10.2198L33.8946 13.5056ZM29.9619 14.9909C31.1856 14.5212 32.4103 14.0493 33.6329 13.5753C34.1391 12.3753 34.6474 11.1753 35.1558 9.97641C34.6549 8.74853 34.1573 7.51743 33.6608 6.28847C32.4221 5.7748 31.1802 5.2697 29.9405 4.76032L29.8772 4.72279C28.8348 5.22574 27.7988 5.68043 26.2438 6.36139L26.2127 6.3689C25.848 7.42842 25.4523 8.45469 24.855 9.98499C25.3654 11.1635 25.8899 12.3399 26.4078 13.5153C27.5918 14.0086 28.7769 14.4997 29.9619 14.9909ZM27.1843 16.8118L29.7335 15.1271L26.4786 13.7759L27.1843 16.8107V16.8118ZM30.0005 0C32.7245 0 35.1955 1.08954 36.9982 2.85684L37.0229 2.8815C37.039 2.89759 37.0551 2.9126 37.0712 2.92869C37.1108 2.96836 37.1505 3.00912 37.1902 3.04987L37.2149 3.0756C39.0101 4.94692 40 7.4134 40 10C40 12.7614 38.8804 15.2611 37.0712 17.0713C35.1879 18.9544 32.6591 20 29.9995 20C27.3398 20 24.7381 18.8804 22.9278 17.0713C21.1196 15.2611 20 12.7614 20 10C20 7.23861 21.1196 4.73887 22.9288 2.92869C24.7391 1.11957 27.239 0 30.0005 0Z" fill="#1A1A1A"/>
<path d="M2.41936 8L10.1667 8C10.8763 8 12 9.3 12 10C12 10.6 10.9946 12 10.1667 12L2.41935 12C1.70968 12 0.999999 11.5 0.999999 10.8L0.999999 9.2C1.11828 8.5 1.70968 8 2.41936 8Z" stroke="#1A1A1A" stroke-width="0.4" stroke-miterlimit="10"/>
<path d="M57.5806 12L49.8333 12C49.1237 12 48 10.7 48 10C48 9.4 49.0054 8 49.8333 8L57.5806 8C58.2903 8 59 8.5 59 9.2V10.8C58.8817 11.5 58.2903 12 57.5806 12Z" stroke="#1A1A1A" stroke-width="0.4" stroke-miterlimit="10"/>
</svg>
