<svg width="60" height="28" viewBox="0 0 60 28" fill="none" xmlns="http://www.w3.org/2000/svg">
<path d="M30.2169 4.97516L32.7018 7.38421L33.444 5.6328C32.4437 5.23129 31.3563 4.99988 30.2159 4.97516M26.6337 5.61006L27.3819 7.37037L29.8088 4.97516C28.6894 4.99889 27.62 5.22239 26.6347 5.61104L26.6337 5.61006ZM39.138 14.0892L36.7061 16.5962L38.4838 17.3587C38.8949 16.347 39.126 15.2443 39.138 14.0892ZM23.7677 7.41487L27.1968 7.44553L26.4496 5.68719C25.4522 6.10551 24.5459 6.69393 23.7677 7.41586V7.41487ZM26.4056 22.2905L27.1608 20.5015L23.7016 20.5193C24.4829 21.258 25.3972 21.8613 26.4056 22.2905ZM21.5239 17.324L23.3525 16.5833L20.8847 14.1406C20.9027 15.2631 21.1277 16.3361 21.5239 17.324ZM23.4295 16.7653L21.5999 17.506C22.0381 18.5305 22.6623 19.4592 23.4295 20.2493V16.7653ZM23.3455 11.3459L21.5489 10.6082C21.1498 11.5823 20.9167 12.6404 20.8867 13.749L23.3455 11.3459ZM38.4758 10.6121L36.6891 11.3499L39.134 13.6808C39.096 12.5989 38.8659 11.5645 38.4758 10.6121ZM36.7382 7.89648L36.6861 11.1382L38.3987 10.4301C37.9906 9.49263 37.4254 8.6372 36.7372 7.89648H36.7382ZM32.8888 7.45641C34.0102 7.44157 35.1326 7.42773 36.254 7.41289C35.4907 6.70481 34.6034 6.12529 33.6291 5.70895L32.8888 7.45542V7.45641ZM29.9698 8.94377L32.5717 7.53354L30.0128 5.05328L27.511 7.52365L29.9698 8.94377ZM26.5646 10.4025L29.7477 9.04464L27.4099 7.69474C27.0858 8.80334 26.8307 9.62614 26.5656 10.4034L26.5646 10.4025ZM23.6226 11.1847L26.3936 10.4677L27.2159 7.64233L23.6216 7.61068V11.1847H23.6226ZM21.6269 10.4262L23.4235 11.1649V7.7521C22.6733 8.52446 22.0621 9.42835 21.6269 10.4262ZM33.358 10.3332L32.6737 7.70463C31.6504 8.25844 30.8751 8.65896 30.1259 9.02091L33.358 10.3332ZM36.378 20.4639L32.8308 20.4975L33.5851 22.3024C34.6304 21.8623 35.5758 21.2353 36.378 20.4629V20.4639ZM36.6361 16.7811C36.6411 17.9174 36.6461 19.0537 36.6511 20.19C37.3844 19.4216 37.9826 18.5266 38.4087 17.5416L36.6361 16.7811ZM32.8658 7.65419L33.5861 10.4203L36.4851 11.2529L36.5421 7.69177L36.4581 7.60771L32.8668 7.65419H32.8658ZM34.9455 13.752L36.372 11.427L33.6741 10.6517L34.9455 13.752ZM23.6756 11.3746L25.0871 13.7609L26.3095 10.6932C25.4312 10.9187 24.5539 11.1471 23.6756 11.3746ZM24.9891 13.9854L23.5016 11.4715L20.9697 13.9458L23.5086 16.4587L24.9891 13.9854ZM29.8868 23.0213C29.0405 22.2054 28.1932 21.3896 27.3469 20.5737L26.5896 22.3666C27.61 22.7751 28.7214 23.0055 29.8868 23.0213ZM32.6697 20.6291L30.2979 23.0174C31.3913 22.9837 32.4367 22.7602 33.401 22.3795L32.6697 20.6291ZM36.5591 11.5012L35.0386 13.9785L36.5541 16.4696L39.06 13.8855L36.5581 11.5002L36.5591 11.5012ZM26.5026 17.3972L23.6286 16.7425V20.3225L27.1858 20.3037L26.5026 17.3982V17.3972ZM23.6846 16.5527L26.4146 17.1747L25.0921 14.201L23.6846 16.5527ZM29.9768 18.8233L27.498 20.4432L30.0929 22.9432L32.5877 20.4303L32.5777 20.4066L29.9768 18.8223V18.8233ZM33.335 17.5307L30.1979 18.7273L32.6908 20.2454L33.335 17.5307ZM36.437 16.7861L33.5591 17.4536L32.8828 20.3017L36.4531 20.2671L36.438 16.7861H36.437ZM33.6441 17.2301L36.397 16.5922L34.9415 14.2L33.6441 17.2301ZM29.9758 18.5998C31.1172 18.1666 32.2596 17.7315 33.4 17.2944C33.8722 16.1877 34.3463 15.0811 34.8205 13.9755C34.3533 12.8432 33.8892 11.7079 33.426 10.5745C32.2706 10.1008 31.1122 9.63504 29.9558 9.16529L29.8968 9.13068C28.9244 9.59449 27.9581 10.0138 26.5076 10.6418L26.4786 10.6487C26.1385 11.6258 25.7694 12.5722 25.2122 13.9834C25.6883 15.0702 26.1775 16.1551 26.6607 17.239C27.765 17.6939 28.8704 18.1468 29.9758 18.5998ZM27.3849 20.279L29.7627 18.7254L26.7267 17.4793L27.3849 20.278V20.279ZM30.0118 4.77539C32.5527 4.77539 34.8575 5.78015 36.5391 7.40992L36.5621 7.43267C36.5771 7.4475 36.5921 7.46135 36.6071 7.47618C36.6441 7.51277 36.6811 7.55035 36.7181 7.58793L36.7412 7.61167C38.4157 9.33737 39.3391 11.6119 39.3391 13.9972C39.3391 16.5438 38.2947 18.849 36.6071 20.5183C34.8505 22.2549 32.4917 23.2191 30.0108 23.2191C27.53 23.2191 25.1031 22.1867 23.4145 20.5183C21.728 18.849 20.6836 16.5438 20.6836 13.9972C20.6836 11.4507 21.728 9.14551 23.4155 7.47618C25.1041 5.80784 27.4359 4.77539 30.0118 4.77539Z" fill="#1A1A1A"/>
<path d="M39.3361 13.9969C39.3361 12.7892 40.3123 11.6914 41.6138 11.6914H41.7223C43.0238 11.6914 44 12.7892 44 13.9969C44 15.2045 43.0238 16.3023 41.8308 16.3023H41.6138C40.3123 16.3023 39.3361 15.3143 39.3361 13.9969Z" stroke="#1A1A1A" stroke-width="0.4" stroke-miterlimit="10"/>
<path d="M38.419 17.9958C38.9488 16.9076 40.3099 16.3369 41.4827 16.8949L41.5804 16.9414C42.7532 17.4994 43.1512 18.9072 42.6215 19.9954C42.0918 21.0835 40.7307 21.6542 39.6556 21.1427L39.4601 21.0497C38.2874 20.4917 37.8412 19.1828 38.419 17.9958Z" stroke="#1A1A1A" stroke-width="0.4" stroke-miterlimit="10"/>
<path d="M35.8325 21.2025C36.7851 20.4466 38.2621 20.5121 39.0768 21.5156L39.1447 21.5993C39.9593 22.6028 39.7043 24.0426 38.7517 24.7985C37.799 25.5544 36.322 25.4889 35.5752 24.569L35.4395 24.4017C34.6248 23.3982 34.7932 22.0271 35.8325 21.2025Z" stroke="#1A1A1A" stroke-width="0.4" stroke-miterlimit="10"/>
<path d="M32.086 22.9898C33.2763 22.7185 34.5776 23.4122 34.8701 24.6661L34.8945 24.7706C35.1869 26.0244 34.3242 27.2115 33.1339 27.4829C31.9437 27.7542 30.6423 27.0605 30.3742 25.9111L30.3255 25.7021C30.033 24.4483 30.7875 23.2859 32.086 22.9898Z" stroke="#1A1A1A" stroke-width="0.4" stroke-miterlimit="10"/>
<path d="M27.8967 22.9811C29.087 23.2525 29.9497 24.4396 29.6572 25.6934L29.6329 25.7979C29.3404 27.0518 28.039 27.7455 26.8488 27.4742C25.6585 27.2028 24.7958 26.0157 25.0639 24.8664L25.1126 24.6574C25.4051 23.4035 26.5983 22.6851 27.8967 22.9811Z" stroke="#1A1A1A" stroke-width="0.4" stroke-miterlimit="10"/>
<path d="M24.1669 21.1856C25.1196 21.9414 25.3746 23.3812 24.5599 24.3848L24.4921 24.4684C23.6774 25.472 22.2004 25.5375 21.2478 24.7816C20.2951 24.0257 20.0401 22.5859 20.7869 21.666L20.9226 21.4987C21.7373 20.4952 23.1277 20.361 24.1669 21.1856Z" stroke="#1A1A1A" stroke-width="0.4" stroke-miterlimit="10"/>
<path d="M21.5935 17.9796C22.1233 19.0678 21.7252 20.4756 20.5525 21.0336L20.4547 21.0801C19.2819 21.6381 17.9208 21.0674 17.3911 19.9792C16.8613 18.8911 17.2594 17.4833 18.3344 16.9718L18.5299 16.8788C19.7027 16.3208 21.0157 16.7926 21.5935 17.9796Z" stroke="#1A1A1A" stroke-width="0.4" stroke-miterlimit="10"/>
<path d="M20.6817 13.9236C20.6723 15.1311 19.6876 16.2215 18.3861 16.2116L18.2776 16.2107C16.9761 16.2008 16.0086 15.0955 16.018 13.888C16.0274 12.6804 17.0121 11.59 18.2052 11.5991L18.4221 11.6008C19.7236 11.6107 20.692 12.6062 20.6817 13.9236Z" stroke="#1A1A1A" stroke-width="0.4" stroke-miterlimit="10"/>
<path d="M21.6283 9.94681C21.0904 11.031 19.725 11.5918 18.5564 11.0251L18.459 10.9779C17.2905 10.4113 16.903 9.00065 17.4409 7.91641C17.9788 6.83217 19.3442 6.27147 20.4154 6.79087L20.6101 6.88531C21.7787 7.45193 22.215 8.764 21.6283 9.94681Z" stroke="#1A1A1A" stroke-width="0.4" stroke-miterlimit="10"/>
<path d="M24.214 6.773C23.2559 7.52199 21.7794 7.44585 20.9721 6.43647L20.9049 6.35235C20.0976 5.34297 20.3633 3.90504 21.3214 3.15605C22.2796 2.40706 23.7561 2.48319 24.4961 3.40846L24.6306 3.57669C25.4378 4.58607 25.2593 5.95592 24.214 6.773Z" stroke="#1A1A1A" stroke-width="0.4" stroke-miterlimit="10"/>
<path d="M27.9458 5.00185C26.7535 5.26422 25.4574 4.56072 25.1747 3.30468L25.1511 3.20001C24.8683 1.94398 25.7402 0.763434 26.9325 0.501063C28.1248 0.238692 29.4208 0.9422 29.68 2.09356L29.7271 2.3029C30.0099 3.55894 29.2465 4.71563 27.9458 5.00185Z" stroke="#1A1A1A" stroke-width="0.4" stroke-miterlimit="10"/>
<path d="M32.174 5.02403C30.9859 4.74373 30.1323 3.55019 30.4344 2.29856L30.4596 2.19426C30.7617 0.942628 32.0684 0.258722 33.2565 0.539019C34.4447 0.819316 35.2982 2.01285 35.0213 3.16018L34.9709 3.36878C34.6688 4.62041 33.4702 5.3298 32.174 5.02403Z" stroke="#1A1A1A" stroke-width="0.4" stroke-miterlimit="10"/>
<path d="M35.8858 6.83372C34.9388 6.07101 34.6944 4.6294 35.5164 3.63175L35.5849 3.54861C36.4069 2.55097 37.8844 2.49611 38.8314 3.25882C39.7784 4.02154 40.0229 5.46315 39.2693 6.37765L39.1323 6.54393C38.3103 7.54157 36.9189 7.66577 35.8858 6.83372Z" stroke="#1A1A1A" stroke-width="0.4" stroke-miterlimit="10"/>
<path d="M38.4423 10.0515C37.9208 8.95947 38.3294 7.55468 39.5063 7.00528L39.6044 6.95949C40.7814 6.4101 42.1382 6.99079 42.6597 8.08281C43.1812 9.17483 42.7726 10.5796 41.6938 11.0832L41.4976 11.1748C40.3207 11.7242 39.0112 11.2428 38.4423 10.0515Z" stroke="#1A1A1A" stroke-width="0.4" stroke-miterlimit="10"/>
<path d="M57.0645 17H46.5C45.5323 17 44 15.05 44 14C44 13.1 45.371 11 46.5 11H57.0645C58.0323 11 59 11.75 59 12.8V15.2C58.8387 16.25 58.0323 17 57.0645 17Z" stroke="#1A1A1A" stroke-width="0.4" stroke-miterlimit="10"/>
<path d="M2.93549 11L13.5 11C14.4677 11 16 12.95 16 14C16 14.9 14.629 17 13.5 17L2.93548 17C1.96774 17 0.999999 16.25 0.999999 15.2L1 12.8C1.16129 11.75 1.96774 11 2.93549 11Z" stroke="#1A1A1A" stroke-width="0.4" stroke-miterlimit="10"/>
</svg>
