<svg xmlns="http://www.w3.org/2000/svg" viewBox="0 0 48.2 6.2">
  <title>wedding-track</title>
  <g id="Layer_2" data-name="Layer 2">
    <g id="Layer_1-2" data-name="Layer 1">
      <path d="M44.51,6.1H3.69C1.7,6.1.1,4.77.1,3.1S1.7.1,3.69.1H44.51c2,0,3.59,1.33,3.59,3S46.5,6.1,44.51,6.1Z" fill="none" stroke="#1a1a1a" stroke-miterlimit="10" stroke-width="0.2"/>
      <path d="M34.1,5.1a2,2,0,0,1-2-1.95v-.1a2,2,0,0,1,4-.09v.19A2,2,0,0,1,34.1,5.1Z" fill="none" stroke="#1a1a1a" stroke-width="0.2"/>
      <path d="M39.1,5.1a2,2,0,0,1-2-1.95v-.1a2,2,0,0,1,4-.09v.19A2,2,0,0,1,39.1,5.1Z" fill="none" stroke="#1a1a1a" stroke-width="0.2"/>
      <path d="M44.1,5.1a2,2,0,0,1-2-1.95v-.1a2,2,0,0,1,4-.09v.19A2,2,0,0,1,44.1,5.1Z" fill="none" stroke="#1a1a1a" stroke-width="0.2"/>
      <path d="M29.1,5.1a1.93,1.93,0,0,1-2-1.95v-.1a2,2,0,0,1,4-.09v.19A2.05,2.05,0,0,1,29.1,5.1Z" fill="none" stroke="#1a1a1a" stroke-width="0.2"/>
      <path d="M24.1,5.1a2,2,0,0,1-2-1.95v-.1a2,2,0,0,1,4-.09v.19A2,2,0,0,1,24.1,5.1Z" fill="none" stroke="#1a1a1a" stroke-width="0.2"/>
      <path d="M19.1,5.1a2,2,0,0,1-2-1.95v-.1a2,2,0,0,1,4-.09v.19A2,2,0,0,1,19.1,5.1Z" fill="none" stroke="#1a1a1a" stroke-width="0.2"/>
      <path d="M14.1,5.1a2,2,0,0,1-2-1.95v-.1a2,2,0,0,1,4-.09v.19A2.05,2.05,0,0,1,14.1,5.1Z" fill="none" stroke="#1a1a1a" stroke-width="0.2"/>
      <path d="M9.1,5.1a2,2,0,0,1-2-1.95v-.1a2,2,0,0,1,4-.09v.19A2,2,0,0,1,9.1,5.1Z" fill="none" stroke="#1a1a1a" stroke-width="0.2"/>
      <path d="M4.19,5.1A2.08,2.08,0,0,1,2.1,3.15v-.1a2,2,0,0,1,4-.09v.19A1.9,1.9,0,0,1,4.19,5.1Z" fill="none" stroke="#1a1a1a" stroke-width="0.2"/>
    </g>
  </g>
</svg>
