<svg xmlns="http://www.w3.org/2000/svg" viewBox="0 0 58.2 24.2">
  <title>wedding-couples</title>
  <g id="Layer_2" data-name="Layer 2">
    <g id="Layer_1-2" data-name="Layer 1">
      <path d="M48.66,6.1H9.54a3.23,3.23,0,0,1-3.44-3A3.23,3.23,0,0,1,9.54.1H48.66a3.23,3.23,0,0,1,3.44,3A3.23,3.23,0,0,1,48.66,6.1Z" fill="none" stroke="#1a1a1a" stroke-miterlimit="10" stroke-width="0.2"/>
      <path d="M6.1,3.1h21" fill="none" stroke="#1a1a1a" stroke-miterlimit="10" stroke-width="0.2"/>
      <path d="M31.1,3.1h21" fill="none" stroke="#1a1a1a" stroke-miterlimit="10" stroke-width="0.2"/>
      <path d="M29.1,5.1a2,2,0,0,1-2-1.95v-.1a2,2,0,0,1,4-.09v.19A2.05,2.05,0,0,1,29.1,5.1Z" fill="none" stroke="#1a1a1a" stroke-width="0.2"/>
      <path d="M53.76,24.1H4.44C2,24.1.1,21.88.1,19.1s1.93-5,4.34-5H53.76c2.41,0,4.34,2.22,4.34,5S56.17,24.1,53.76,24.1Z" fill="none" stroke="#1a1a1a" stroke-miterlimit="10" stroke-width="0.2"/>
      <path d="M.1,19.1H51.8" fill="none" stroke="#1a1a1a" stroke-miterlimit="10" stroke-width="0.2"/>
      <path d="M32.1,19.1h26" fill="none" stroke="#1a1a1a" stroke-miterlimit="10" stroke-width="0.2"/>
    </g>
  </g>
</svg>
