<svg width="50" height="72" viewBox="0 0 50 72" fill="none" xmlns="http://www.w3.org/2000/svg">
<path fill-rule="evenodd" clip-rule="evenodd" d="M50 25.1093C50 39.3778 33.6907 61.752 25 72C16.3093 61.752 0 38.9771 0 25.1093C0 11.2415 11.1926 0 25 0C38.8074 0 50 10.8409 50 25.1093Z" fill="#3B61A5"/>
<path fill-rule="evenodd" clip-rule="evenodd" d="M45 25C45 36.0457 36.0457 45 25 45C13.9543 45 5 36.0457 5 25C5 13.9543 13.9543 5 25 5C36.0457 5 45 13.9543 45 25ZM16.1968 8.13578C4.89868 14.1153 2.61145 29.3092 11.7964 38.194C3.01006 29.0379 5.59626 13.9653 17.1393 8.45832C22.7631 5.76136 29.7017 6.20292 34.9317 9.60567C42.132 14.1855 45.2081 23.2357 42.4466 31.2457C41.8567 32.9693 41.0162 34.5984 39.9516 36.0814C39.4152 36.8237 38.8292 37.5294 38.1975 38.194C42.9209 33.7463 44.9211 26.7146 43.3759 20.4388C40.4739 8.50117 27.2056 2.43478 16.1968 8.13578ZM24.931 43.0547C34.8644 43.0547 42.9171 35.0021 42.9171 25.0686C42.9171 15.1352 34.8644 7.0825 24.931 7.0825C14.9975 7.0825 6.94488 15.1352 6.94488 25.0686C6.94488 35.0021 14.9975 43.0547 24.931 43.0547ZM30.2794 22.2213C30.2794 19.9969 32.0827 18.1936 34.3072 18.1936C36.5317 18.1936 38.335 19.9969 38.335 22.2213C38.335 24.4458 36.5317 26.2491 34.3072 26.2491C32.0827 26.2491 30.2794 24.4458 30.2794 22.2213ZM34.3072 16.5269C31.1622 16.5269 28.6128 19.0764 28.6128 22.2213C28.6128 25.3663 31.1622 27.9158 34.3072 27.9158C37.4522 27.9158 40.0016 25.3663 40.0016 22.2213C40.0016 19.0764 37.4522 16.5269 34.3072 16.5269ZM30.8333 29.3054C28.6088 29.3054 26.8055 31.1087 26.8055 33.3332C26.8055 35.5577 28.6088 37.361 30.8333 37.361C33.0578 37.361 34.8611 35.5577 34.8611 33.3332C34.8611 31.1087 33.0578 29.3054 30.8333 29.3054ZM25.1388 33.3332C25.1388 30.1883 27.6883 27.6388 30.8333 27.6388C33.9782 27.6388 36.5277 30.1882 36.5277 33.3332C36.5277 36.4782 33.9782 39.0276 30.8333 39.0276C27.6883 39.0276 25.1388 36.4782 25.1388 33.3332ZM15.1382 33.3332C15.1382 31.1087 16.9415 29.3054 19.166 29.3054C21.3905 29.3054 23.1938 31.1087 23.1938 33.3332C23.1938 35.5577 21.3905 37.361 19.166 37.361C16.9415 37.361 15.1382 35.5577 15.1382 33.3332ZM19.166 27.6388C16.021 27.6388 13.4716 30.1883 13.4716 33.3332C13.4716 36.4782 16.021 39.0276 19.166 39.0276C22.3109 39.0276 24.8604 36.4782 24.8604 33.3332C24.8604 30.1883 22.3109 27.6388 19.166 27.6388ZM15.4163 18.1936C13.1918 18.1936 11.3885 19.9969 11.3885 22.2213C11.3885 24.4458 13.1918 26.2491 15.4163 26.2491C17.6408 26.2491 19.4441 24.4458 19.4441 22.2213C19.4441 19.9969 17.6408 18.1936 15.4163 18.1936ZM9.72187 22.2213C9.72187 19.0764 12.2714 16.5269 15.4163 16.5269C18.5613 16.5269 21.1108 19.0764 21.1108 22.2213C21.1108 25.3663 18.5613 27.9158 15.4163 27.9158C12.2714 27.9158 9.72187 25.3663 9.72187 22.2213ZM20.8325 15.2771C20.8325 13.0527 22.6357 11.2494 24.8602 11.2494C27.0847 11.2494 28.888 13.0527 28.888 15.2771C28.888 17.5016 27.0847 19.3049 24.8602 19.3049C22.6357 19.3049 20.8325 17.5016 20.8325 15.2771ZM24.8602 9.58269C21.7153 9.58269 19.1658 12.1322 19.1658 15.2771C19.1658 18.4221 21.7153 20.9716 24.8602 20.9716C28.0052 20.9716 30.5547 18.4221 30.5547 15.2771C30.5547 12.1322 28.0052 9.58269 24.8602 9.58269Z" fill="white"/>
</svg>
