<svg xmlns="http://www.w3.org/2000/svg" xmlns:xlink="http://www.w3.org/1999/xlink"><symbol id="burger-close" viewBox="0 0 22 22"><path d="M21 22c-.3 0-.5-.1-.7-.3l-20-20C-.1 1.3-.1.7.3.3s1-.4 1.4 0l20 20c.4.4.4 1 0 1.4-.2.2-.4.3-.7.3z"/><path d="M1 22c-.3 0-.5-.1-.7-.3-.4-.4-.4-1 0-1.4l20-20c.4-.4 1-.4 1.4 0s.4 1 0 1.4l-20 20c-.2.2-.4.3-.7.3z"/></symbol><symbol id="burger"><path d="M21 12H3M21 8H3M21 16H3" stroke="#304352" stroke-width="2" stroke-linecap="round" stroke-linejoin="round"/></symbol><symbol id="dzen-footer" viewBox="0 0 30 30"><path d="M17.8 17.7c-2.2 2.3-2.4 5.1-2.6 11.3C21 29 25 29 27 27c2-2.1 2-6.2 2-11.8-6.2.2-9 .3-11.2 2.5zM1 15.1c0 5.6 0 9.8 2 11.8 2.1 2 6 2 11.8 2-.2-6.2-.4-9-2.6-11.3-2.2-2.1-5-2.3-11.2-2.5zM14.9 1C9.1 1 5.1 1 3 3 1 5.1 1 9.3 1 14.9c6.2-.2 9-.4 11.3-2.6C14.5 10 14.7 7.2 14.9 1zm2.9 11.3C15.5 10 15.3 7.2 15.1 1 21 1 25 1 27 3c2 2.1 2 6.2 2 11.8-6.2-.2-9-.3-11.2-2.5z"/><path fill="#121212" d="M29 15.1v-.3c-6.2-.2-9-.4-11.3-2.6-2.2-2.2-2.4-5-2.6-11.2h-.3c-.2 6.2-.4 9-2.6 11.3-2.2 2.2-5 2.4-11.2 2.6v.3c6.2.2 9 .4 11.3 2.6 2.2 2.3 2.4 5.1 2.6 11.3h.3c.2-6.2.4-9 2.6-11.3s5-2.5 11.2-2.7z"/></symbol><symbol id="dzen" viewBox="0 0 30 30"><path d="M17.8 17.7c-2.2 2.3-2.4 5.1-2.6 11.3C21 29 25 29 27 27c2-2.1 2-6.2 2-11.8-6.2.2-9 .3-11.2 2.5zM1 15.1c0 5.6 0 9.8 2 11.8 2.1 2 6 2 11.8 2-.2-6.2-.4-9-2.6-11.3-2.2-2.1-5-2.3-11.2-2.5zM14.9 1C9.1 1 5.1 1 3 3 1 5.1 1 9.3 1 14.9c6.2-.2 9-.4 11.3-2.6C14.5 10 14.7 7.2 14.9 1zm2.9 11.3C15.5 10 15.3 7.2 15.1 1 21 1 25 1 27 3c2 2.1 2 6.2 2 11.8-6.2-.2-9-.3-11.2-2.5z"/><path fill="#FFF" d="M29 15.1v-.3c-6.2-.2-9-.4-11.3-2.6-2.2-2.2-2.4-5-2.6-11.2h-.3c-.2 6.2-.4 9-2.6 11.3-2.2 2.2-5 2.4-11.2 2.6v.3c6.2.2 9 .4 11.3 2.6 2.2 2.3 2.4 5.1 2.6 11.3h.3c.2-6.2.4-9 2.6-11.3s5-2.5 11.2-2.7z"/></symbol><symbol id="email" viewBox="0 0 31 35"><path d="M25.8 30.9H5.2c-2 0-3.6-1.6-3.6-3.6V12c0-2 1.6-3.6 3.6-3.6h20.7c2 0 3.6 1.6 3.6 3.6v15.3c-.1 2-1.7 3.6-3.7 3.6zM5.2 10.5c-.9 0-1.6.7-1.6 1.6v15.3c0 .9.7 1.6 1.6 1.6h20.7c.9 0 1.6-.7 1.6-1.6V12c0-.9-.7-1.6-1.6-1.6H5.2z"/><path d="M15.5 22c-.2 0-.4-.1-.6-.2L2 12.9c-.5-.3-.6-.9-.3-1.4.3-.5.9-.6 1.4-.3l12.3 8.5 12.3-8.5c.5-.3 1.1-.2 1.4.3.3.5.2 1.1-.3 1.4l-12.9 8.9c0 .1-.2.2-.4.2z"/></symbol><symbol id="phone" viewBox="0 0 31 35"><path d="M25.8 33h-.3c-4.1-.5-8.2-2.1-11.6-4.7-3.2-2.3-6-5.4-8-9.1-2.2-3.9-3.7-8.4-4.1-13 0-.5 0-1.1.2-1.6s.4-1 .7-1.4c.3-.4.7-.7 1.2-1 .5-.2 1-.4 1.5-.4h3.9c.9 0 1.7.3 2.4 1 .6.6 1.1 1.5 1.2 2.4.2 1.3.4 2.7.9 3.9.2.7.3 1.4.1 2.1-.1.7-.5 1.4-.9 1.9l-1.2 1.3c1.6 3 3.8 5.5 6.4 7.3l1.1-1.2c.5-.5 1.1-.9 1.8-1.1.7-.2 1.4-.1 2.1.2 1.1.5 2.2.8 3.4 1 .9.1 1.7.6 2.3 1.4.5.7.8 1.6.8 2.6V29c0 .5-.1 1-.3 1.5-.2.5-.5.9-.8 1.3-.4.4-.8.7-1.3.9-.7.2-1.1.3-1.5.3zM9.2 3.9H5.3c-.2 0-.4 0-.6.1-.2.2-.4.3-.5.5-.2.2-.3.4-.4.7-.1.3-.1.5-.1.8.4 4.3 1.7 8.6 3.8 12.2 1.9 3.4 4.5 6.3 7.5 8.4 3.2 2.3 6.9 3.8 10.7 4.3.2 0 .4 0 .6-.1.2-.1.4-.2.6-.4.2-.2.3-.4.4-.6.1-.3.1-.5.1-.8v-4.4c0-.5-.1-1-.4-1.3-.3-.3-.6-.6-1-.6-1.3-.2-2.6-.6-3.9-1.1-.3-.1-.6-.1-.8-.1-.3.1-.6.2-.8.5l-1.6 1.8c-.3.4-.9.4-1.3.2-3.4-2.2-6.2-5.3-8.1-9.1-.2-.4-.1-.8.1-1.1l1.6-1.9c.2-.3.4-.6.5-1 .1-.4 0-.8-.1-1.1-.5-1.4-.8-2.8-.9-4.3-.1-.5-.3-.9-.6-1.2-.2-.2-.5-.4-.9-.4z"/></symbol><symbol id="search" viewBox="0 0 24 25"><path d="M11 20.8c-5 0-9-4.2-9-9.3 0-5.1 4-9.3 9-9.3s9 4.2 9 9.3c0 5.1-4 9.3-9 9.3zm0-16.7c-3.9 0-7 3.3-7 7.3s3.1 7.3 7 7.3 7-3.3 7-7.3-3.1-7.3-7-7.3z"/><path d="M21 22.9c-.3 0-.5-.1-.7-.3L15.9 18c-.4-.4-.4-1 0-1.4.4-.4 1-.4 1.4 0l4.3 4.5c.4.4.4 1 0 1.4-.1.3-.4.4-.6.4z"/></symbol><symbol id="tg" viewBox="0 0 30 30"><path d="M27.565 2.661L.986 12.963c-1.07.48-1.431 1.44-.259 1.962l6.819 2.178L24.032 6.862c.9-.643 1.822-.472 1.03.236l-14.16 12.886-.445 5.454c.412.842 1.166.846 1.647.428l3.918-3.726 6.709 5.05c1.558.927 2.406.328 2.741-1.371l4.401-20.946c.457-2.092-.322-3.014-2.308-2.212z"/></symbol><symbol id="vk" viewBox="0 0 30 30"><path d="M17.023 24C7.285 24 1.73 17.243 1.5 6h4.878c.16 8.252 3.756 11.748 6.604 12.468V6h4.593v7.117c2.812-.306 5.767-3.55 6.764-7.117h4.593c-.766 4.396-3.97 7.64-6.249 8.973C24.962 16.054 28.611 18.883 30 24h-5.056c-1.086-3.423-3.791-6.072-7.37-6.433V24h-.551z"/></symbol></svg>