<svg width="17" height="19" viewBox="0 0 17 19" fill="none" xmlns="http://www.w3.org/2000/svg">
<path d="M1.37498 4.75V19H15.625V4.75H1.37498ZM5.33331 15.8333C5.33331 16.2703 4.97865 16.625 4.54165 16.625C4.10465 16.625 3.74998 16.2703 3.74998 15.8333V7.91667C3.74998 7.47967 4.10465 7.125 4.54165 7.125C4.97865 7.125 5.33331 7.47967 5.33331 7.91667V15.8333ZM9.29165 15.8333C9.29165 16.2703 8.93698 16.625 8.49998 16.625C8.06298 16.625 7.70831 16.2703 7.70831 15.8333V7.91667C7.70831 7.47967 8.06298 7.125 8.49998 7.125C8.93698 7.125 9.29165 7.47967 9.29165 7.91667V15.8333ZM13.25 15.8333C13.25 16.2703 12.8953 16.625 12.4583 16.625C12.0213 16.625 11.6666 16.2703 11.6666 15.8333V7.91667C11.6666 7.47967 12.0213 7.125 12.4583 7.125C12.8953 7.125 13.25 7.47967 13.25 7.91667V15.8333ZM16.4166 1.58333V3.16667H0.583313V1.58333H5.10452C5.81702 1.58333 6.39573 0.713292 6.39573 0H10.6034C10.6034 0.713292 11.1814 1.58333 11.8946 1.58333H16.4166Z" fill="#EB5757"/>
</svg>
