<svg width="13" height="17" viewBox="0 0 13 17" fill="none" xmlns="http://www.w3.org/2000/svg">
<path d="M0.65 4.25V17H12.35V4.25H0.65ZM3.9 14.1667C3.9 14.5577 3.6088 14.875 3.25 14.875C2.8912 14.875 2.6 14.5577 2.6 14.1667V7.08333C2.6 6.69233 2.8912 6.375 3.25 6.375C3.6088 6.375 3.9 6.69233 3.9 7.08333V14.1667ZM7.15 14.1667C7.15 14.5577 6.8588 14.875 6.5 14.875C6.1412 14.875 5.85 14.5577 5.85 14.1667V7.08333C5.85 6.69233 6.1412 6.375 6.5 6.375C6.8588 6.375 7.15 6.69233 7.15 7.08333V14.1667ZM10.4 14.1667C10.4 14.5577 10.1088 14.875 9.75 14.875C9.3912 14.875 9.1 14.5577 9.1 14.1667V7.08333C9.1 6.69233 9.3912 6.375 9.75 6.375C10.1088 6.375 10.4 6.69233 10.4 7.08333V14.1667ZM13 1.41667V2.83333H0V1.41667H3.71215C4.29715 1.41667 4.7723 0.638208 4.7723 0H8.22705C8.22705 0.638208 8.70155 1.41667 9.2872 1.41667H13Z" fill="black"/>
</svg>
