<svg width="7" height="9" viewBox="0 0 7 9" fill="none" xmlns="http://www.w3.org/2000/svg">
<path d="M0.35 2.25V9H6.65V2.25H0.35ZM2.1 7.5C2.1 7.707 1.9432 7.875 1.75 7.875C1.5568 7.875 1.4 7.707 1.4 7.5V3.75C1.4 3.543 1.5568 3.375 1.75 3.375C1.9432 3.375 2.1 3.543 2.1 3.75V7.5ZM3.85 7.5C3.85 7.707 3.6932 7.875 3.5 7.875C3.3068 7.875 3.15 7.707 3.15 7.5V3.75C3.15 3.543 3.3068 3.375 3.5 3.375C3.6932 3.375 3.85 3.543 3.85 3.75V7.5ZM5.6 7.5C5.6 7.707 5.4432 7.875 5.25 7.875C5.0568 7.875 4.9 7.707 4.9 7.5V3.75C4.9 3.543 5.0568 3.375 5.25 3.375C5.4432 3.375 5.6 3.543 5.6 3.75V7.5ZM7 0.75V1.5H0V0.75H1.99885C2.31385 0.75 2.5697 0.337875 2.5697 0H4.42995C4.42995 0.337875 4.68545 0.75 5.0008 0.75H7Z" fill="white"/>
</svg>
