<svg width="27" height="27" viewBox="0 0 27 27" fill="none" xmlns="http://www.w3.org/2000/svg">
<path d="M13.5 2.68058C19.4661 2.68058 24.3199 7.53438 24.3199 13.5005C24.3199 19.4666 19.4661 24.3204 13.5 24.3204C7.5339 24.3204 2.68009 19.4666 2.68009 13.5005C2.68009 7.53438 7.5339 2.68058 13.5 2.68058ZM13.5 0.516602C6.32964 0.516602 0.516113 6.33013 0.516113 13.5005C0.516113 20.6708 6.32964 26.4843 13.5 26.4843C20.6703 26.4843 26.4839 20.6708 26.4839 13.5005C26.4839 6.33013 20.6703 0.516602 13.5 0.516602ZM18.2532 8.63152L12.1475 14.8897L9.28672 12.1783L7.27855 14.1886L12.1475 18.9104L20.2624 10.6408L18.2532 8.63152Z" fill="#666666"/>
</svg>
