<svg width="34" height="29" viewBox="0 0 34 29" fill="none" xmlns="http://www.w3.org/2000/svg">
<path d="M7.08333 2.83333H2.83333V1.41667H7.08333V2.83333ZM18.4167 11.3333C16.0735 11.3333 14.1667 13.2402 14.1667 15.5833C14.1667 17.9265 16.0735 19.8333 18.4167 19.8333C20.7598 19.8333 22.6667 17.9265 22.6667 15.5833C22.6667 13.2402 20.7598 11.3333 18.4167 11.3333ZM34 4.25V28.3333H0V4.25H8.40083C9.34858 4.25 10.2326 3.77683 10.7582 2.98775L12.75 0H24.0833L26.0752 2.98775C26.6007 3.77683 27.4847 4.25 28.4325 4.25H34ZM7.08333 9.91667C7.08333 9.13467 6.45008 8.5 5.66667 8.5C4.88325 8.5 4.25 9.13467 4.25 9.91667C4.25 10.6987 4.88325 11.3333 5.66667 11.3333C6.45008 11.3333 7.08333 10.6987 7.08333 9.91667ZM25.5 15.5833C25.5 11.6719 22.3281 8.5 18.4167 8.5C14.5052 8.5 11.3333 11.6719 11.3333 15.5833C11.3333 19.4948 14.5052 22.6667 18.4167 22.6667C22.3281 22.6667 25.5 19.4948 25.5 15.5833Z" fill="#372E5E"/>
</svg>
