<svg width="75" height="75" viewBox="0 0 75 75" fill="none" xmlns="http://www.w3.org/2000/svg">
<path opacity="0.4" d="M71.6518 24.7769L73.6608 34.1519L71.6518 47.5447L68.3036 54.9108L62.9465 62.2769L57.5893 66.2947L53.5715 68.3036L46.2054 62.9465L38.8393 51.5626L36.1608 46.2054L34.8215 36.1608L35.4911 26.7858L38.8393 18.0804L42.8572 11.384L49.5536 4.68757L54.2411 1.33935L59.5983 5.35721L68.3036 16.0715L71.6518 24.7769Z" fill="white"/>
<path fill-rule="evenodd" clip-rule="evenodd" d="M72.5459 34.9647C72.5459 21.2468 65.1812 9.32318 54.2205 2.74285C43.6623 9.15549 36.5507 20.6264 36.1482 33.791C49.6989 34.1936 61.5566 41.3464 68.4826 52.0065C71.0811 46.8895 72.5459 41.0983 72.5459 34.9647ZM69.9141 54.3865C73.1073 48.6345 74.926 42.0122 74.926 34.9647C74.926 20.0874 66.2206 6.9001 54.2028 0C42.6379 6.75323 34.1779 19.5131 33.7671 33.79C19.4551 34.2029 6.72794 42.7357 0 54.3851C6.91081 66.3529 20.1351 75 34.9402 75C41.9791 75 48.5932 73.179 54.3381 69.9818C60.0831 73.179 67.9612 74.9179 75 74.9179C75 67.8704 73.1073 60.1386 69.9141 54.3865ZM67.1634 54.3865C60.7756 43.7849 49.3162 36.5917 36.1494 36.1753C36.5653 49.3584 43.7496 60.832 54.3381 67.2277C59.5859 64.0579 63.9975 59.6408 67.1634 54.3865ZM33.7681 36.1741C20.5874 36.5781 9.1124 43.7726 2.71686 54.3866C9.30128 65.314 21.2696 72.6169 34.9402 72.6169C41.0663 72.6169 46.8503 71.1503 51.961 68.5485C41.3141 61.614 34.1701 49.7416 33.7681 36.1741ZM68.4826 56.7666C70.9095 61.5457 72.3475 66.9128 72.5269 72.5978C66.8489 72.4182 61.4884 70.9784 56.7153 68.5485C61.4121 65.4894 65.4272 61.4693 68.4826 56.7666Z" fill="white"/>
</svg>
