<svg width="22" height="17" viewBox="0 0 22 17" fill="none" xmlns="http://www.w3.org/2000/svg">
<path d="M22 2.07051C21.2143 2.39743 20.3163 2.61538 19.4184 2.72436C20.3163 2.17949 21.102 1.3077 21.4388 0.326926C20.5408 0.871798 19.6429 1.19872 18.5204 1.41667C17.7347 0.544875 16.5 0 15.2653 0C12.7959 0 10.7755 1.96154 10.7755 4.35897C10.7755 4.6859 10.7755 5.01281 10.8878 5.33973C7.18367 5.12179 3.81632 3.3782 1.57142 0.762817C1.23469 1.41666 1.0102 2.17948 1.0102 2.9423C1.0102 4.46794 1.79592 5.77564 3.03061 6.53846C2.2449 6.53846 1.57142 6.32051 1.0102 5.99359C1.0102 8.0641 2.58162 9.91666 4.60203 10.2436C4.2653 10.3526 3.81633 10.3526 3.36735 10.3526C3.03061 10.3526 2.80612 10.3526 2.46939 10.2436C3.03061 11.9872 4.71429 13.2949 6.7347 13.2949C5.16327 14.4936 3.2551 15.1474 1.12245 15.1474C0.785715 15.1474 0.44898 15.1474 0 15.0385C2.02041 16.2372 4.37755 17 6.95918 17C15.2653 17 19.7551 10.3526 19.7551 4.57692V4.03205C20.6531 3.70512 21.4388 2.9423 22 2.07051Z" fill="black"/>
</svg>
