<svg width="18" height="17" viewBox="0 0 18 17" fill="none" xmlns="http://www.w3.org/2000/svg">
<path d="M18 10.4245V17H14.1256V10.8255C14.1256 9.30189 13.5605 8.25944 12.1883 8.25944C11.139 8.25944 10.4933 8.98113 10.2511 9.62264C10.1704 9.86321 10.0897 10.184 10.0897 10.5849V17H6.21525C6.21525 17 6.29596 6.57547 6.21525 5.53302H10.0897V7.13679C10.574 6.33491 11.5426 5.21227 13.5605 5.21227C16.0628 5.21227 18 6.89623 18 10.4245ZM2.17937 0C0.88789 0 0 0.882076 0 2.00472C0 3.12736 0.807174 4.00943 2.09865 4.00943C3.47085 4.00943 4.27803 3.12736 4.27803 2.00472C4.35874 0.801887 3.55157 0 2.17937 0ZM0.242152 17H4.11659V5.53302H0.242152V17Z" fill="black"/>
</svg>
