<svg width="19" height="19" viewBox="0 0 19 19" fill="none" xmlns="http://www.w3.org/2000/svg">
<path d="M9.50006 0C4.25337 0 0 4.25337 0 9.50006C0 14.2057 3.42496 18.1028 7.91564 18.8574V11.482H5.62395V8.82792H7.91564V6.87088C7.91564 4.60015 9.30253 3.36274 11.3285 3.36274C12.2988 3.36274 13.1326 3.43504 13.3747 3.46689V5.8404L11.9696 5.84108C10.868 5.84108 10.6556 6.36442 10.6556 7.13266V8.82656H13.284L12.9412 11.4807H10.6556V18.9209C15.356 18.3488 19 14.3525 19 9.49734C19 4.25337 14.7466 0 9.50006 0Z" fill="#010002"/>
</svg>
