<svg width="12" height="12" viewBox="0 0 12 12" fill="none" xmlns="http://www.w3.org/2000/svg">
<path d="M2.70435 11.9994H0.206543V3.99942H2.70435V11.9994ZM6.74718 11.9994H4.24938V3.99942H6.64418V5.08329H6.66993C7.20211 4.22308 8.00038 3.79297 9.06473 3.79297C11.0218 3.79297 12.0003 4.93705 12.0003 7.22523V11.9994H9.52824V7.79297C9.52824 6.58867 9.10765 5.98652 8.26647 5.98652C7.25361 5.98652 6.74718 6.58007 6.74718 7.76716V11.9994Z" fill="white"/>
<path d="M1.44203 2.89032C2.23844 2.89032 2.88406 2.2433 2.88406 1.44516C2.88406 0.647021 2.23844 0 1.44203 0C0.645619 0 0 0.647021 0 1.44516C0 2.2433 0.645619 2.89032 1.44203 2.89032Z" fill="white"/>
</svg>
