<svg width="62" height="57" viewBox="0 0 62 57" fill="none" xmlns="http://www.w3.org/2000/svg">
<path d="M31.5 0C23.4787 0 17 6.37 17 14.2567C17 25.3067 31.5 39 31.5 39C31.5 39 46 25.2633 46 14.2567C46 6.37 39.5213 0 31.5 0Z" fill="black"/>
<circle cx="31.6504" cy="14.5" r="3.5" fill="white"/>
<path d="M31.4326 2.00003C24.5772 1.98466 19.0038 7.58627 19 14.4903C18.9962 21.3406 24.5391 26.9652 31.3336 26.9998C38.17 27.0382 43.7776 21.4328 43.8081 14.5403C43.8347 7.63622 38.288 2.01156 31.4326 2.00003Z" fill="black"/>
<path fill-rule="evenodd" clip-rule="evenodd" d="M37.8402 13.1226C37.8402 10.2201 36.283 7.69725 33.9655 6.30496C31.7331 7.66178 30.2294 10.0888 30.1443 12.8743C33.0095 12.9595 35.5167 14.4729 36.9811 16.7284C37.5305 15.6457 37.8402 14.4204 37.8402 13.1226ZM37.2837 17.232C37.9589 16.0149 38.3435 14.6138 38.3435 13.1226C38.3435 9.97481 36.5028 7.18457 33.9618 5.72461C31.5165 7.15349 29.7277 9.85329 29.6409 12.8741C26.6148 12.9614 23.9238 14.7669 22.5012 17.2317C23.9624 19.7639 26.7586 21.5935 29.8889 21.5935C31.3772 21.5935 32.7757 21.2082 33.9904 20.5317C35.2051 21.2082 36.8708 21.5761 38.3591 21.5761C38.3591 20.085 37.9589 18.449 37.2837 17.232ZM36.7021 17.232C35.3515 14.9888 32.9285 13.4669 30.1446 13.3788C30.2325 16.1681 31.7516 18.5958 33.9904 19.949C35.1 19.2783 36.0328 18.3437 36.7021 17.232ZM29.6411 13.3785C26.8542 13.464 24.4279 14.9862 23.0757 17.232C24.4679 19.5441 26.9984 21.0893 29.8889 21.0893C31.1842 21.0893 32.4072 20.7789 33.4878 20.2285C31.2366 18.7612 29.7261 16.2492 29.6411 13.3785ZM36.9811 17.7356C37.4942 18.7468 37.7983 19.8824 37.8362 21.0852C36.6356 21.0472 35.5022 20.7426 34.493 20.2285C35.4861 19.5812 36.335 18.7306 36.9811 17.7356Z" fill="white" stroke="white" stroke-width="0.5"/>
<path d="M5.75547 51.7969C5.75547 51.5664 5.70664 51.3691 5.60898 51.2051C5.51133 51.041 5.33164 50.8906 5.06992 50.7539C4.81211 50.6172 4.43711 50.4727 3.94492 50.3203C3.40586 50.1562 2.92344 49.9629 2.49766 49.7402C2.07578 49.5137 1.7418 49.2363 1.4957 48.9082C1.24961 48.5801 1.12656 48.1797 1.12656 47.707C1.12656 47.2461 1.25547 46.8379 1.51328 46.4824C1.77109 46.127 2.12852 45.8496 2.58555 45.6504C3.04258 45.4512 3.57187 45.3516 4.17344 45.3516C4.81016 45.3516 5.35898 45.4688 5.81992 45.7031C6.28477 45.9336 6.64023 46.2461 6.88633 46.6406C7.13633 47.0352 7.26133 47.4746 7.26133 47.959H5.74961C5.74961 47.5527 5.61875 47.2188 5.35703 46.957C5.09922 46.6914 4.69883 46.5586 4.15586 46.5586C3.64414 46.5586 3.26328 46.6699 3.01328 46.8926C2.76328 47.1113 2.63828 47.3828 2.63828 47.707C2.63828 48.0195 2.78672 48.2812 3.08359 48.4922C3.38437 48.6992 3.83945 48.8926 4.44883 49.0723C5.39805 49.3535 6.10508 49.7051 6.56992 50.127C7.03477 50.5449 7.26719 51.0977 7.26719 51.7852C7.26719 52.5078 6.98984 53.0781 6.43516 53.4961C5.88437 53.9102 5.14609 54.1172 4.22031 54.1172C3.81016 54.1172 3.40586 54.0625 3.00742 53.9531C2.60898 53.8398 2.24766 53.6719 1.92344 53.4492C1.60312 53.2227 1.34531 52.9395 1.15 52.5996C0.958593 52.2598 0.86289 51.8594 0.86289 51.3984H2.37461C2.37461 51.9414 2.55234 52.3301 2.90781 52.5645C3.26328 52.7988 3.70078 52.916 4.22031 52.916C4.72812 52.916 5.11094 52.8125 5.36875 52.6055C5.62656 52.3945 5.75547 52.125 5.75547 51.7969ZM14.7578 54H9.16211V45.4688H14.7285V46.6875H10.6738V49.0078H14.166V50.2031H10.6738V52.7871H14.7578V54ZM21.9145 54H16.5473V45.4688H18.059V52.7871H21.9145V54ZM29.2352 54H23.6395V45.4688H29.2059V46.6875H25.1512V49.0078H28.6434V50.2031H25.1512V52.7871H29.2352V54ZM37.5578 51.2109C37.507 51.7734 37.3488 52.2734 37.0832 52.7109C36.8176 53.1484 36.4445 53.4922 35.9641 53.7422C35.4836 53.9922 34.8957 54.1172 34.2004 54.1172C33.4973 54.1172 32.8879 53.9531 32.3723 53.625C31.8566 53.293 31.4582 52.8242 31.177 52.2188C30.8957 51.6133 30.7551 50.8984 30.7551 50.0742V49.4004C30.7551 48.5762 30.8977 47.8613 31.1828 47.2559C31.468 46.6504 31.8723 46.1816 32.3957 45.8496C32.923 45.5176 33.5441 45.3516 34.259 45.3516C34.9426 45.3516 35.5187 45.4785 35.9875 45.7324C36.4602 45.9824 36.8254 46.3301 37.0832 46.7754C37.3449 47.2168 37.5031 47.7246 37.5578 48.2988H36.052C35.9934 47.7559 35.8312 47.334 35.5656 47.0332C35.3039 46.7324 34.8684 46.582 34.259 46.582C33.5988 46.582 33.1027 46.8242 32.7707 47.3086C32.4426 47.7891 32.2785 48.4824 32.2785 49.3887V50.0742C32.2785 50.9375 32.4289 51.623 32.7297 52.1309C33.0305 52.6348 33.5207 52.8867 34.2004 52.8867C34.8215 52.8867 35.2668 52.7441 35.5363 52.459C35.8098 52.1699 35.9797 51.7539 36.0461 51.2109H37.5578ZM42.8219 54H41.3219V46.6875H38.6852V45.4688H45.482V46.6875H42.8219V54ZM52.7969 54H47.2012V45.4688H52.7676V46.6875H48.7129V49.0078H52.2051V50.2031H48.7129V52.7871H52.7969V54ZM54.5863 54V45.4688H57.1234C57.8812 45.4688 58.5492 45.6367 59.1273 45.9727C59.7055 46.3086 60.1566 46.7793 60.4809 47.3848C60.8051 47.9902 60.9672 48.7012 60.9672 49.5176V49.9512C60.9672 50.7676 60.8051 51.4805 60.4809 52.0898C60.1566 52.6953 59.7016 53.166 59.1156 53.502C58.5336 53.834 57.852 54 57.0707 54H54.5863ZM57.1234 46.6875H56.098V52.7871H57.0707C57.8559 52.7871 58.4477 52.5371 58.8461 52.0371C59.2484 51.5332 59.4496 50.8379 59.4496 49.9512V49.5059C59.4496 48.5996 59.2484 47.9043 58.8461 47.4199C58.4477 46.9316 57.8734 46.6875 57.1234 46.6875Z" fill="black"/>
</svg>
