<svg width="24" height="24" viewBox="0 0 24 24" fill="none" xmlns="http://www.w3.org/2000/svg">
<path fill-rule="evenodd" clip-rule="evenodd" d="M4.83821 4.1518L11.9995 11.711L19.1618 4.1518C19.3535 3.9494 19.6644 3.9494 19.8562 4.1518C20.0479 4.35421 20.0479 4.68237 19.8562 4.88478L12.6937 12.4439L19.8562 20.0041C20.0479 20.2065 20.0479 20.5347 19.8562 20.7371C19.6644 20.9395 19.3535 20.9395 19.1618 20.7371L11.9995 13.1767L4.83821 20.7371C4.64646 20.9395 4.33557 20.9395 4.14381 20.7371C3.95206 20.5347 3.95206 20.2065 4.14381 20.0041L11.3052 12.4439L4.14381 4.88478C3.95206 4.68237 3.95206 4.35421 4.14381 4.1518C4.33557 3.9494 4.64646 3.9494 4.83821 4.1518Z" fill="black"/>
<circle cx="12" cy="12" r="11" stroke="black"/>
</svg>
