<svg width="35" height="28" viewBox="0 0 35 28" fill="none" xmlns="http://www.w3.org/2000/svg">
<path d="M0 19.7958C0 17.4669 0.434028 15.0674 1.30208 12.5974C2.17014 10.1273 3.33333 7.79836 4.79167 5.61059C6.25 3.42281 7.84722 1.55261 9.58333 0L16.875 4.28733C15.625 6.36925 14.5486 8.64524 13.6458 11.1153C12.7431 13.5501 12.2917 16.4436 12.2917 19.7958V28H0V19.7958ZM18.125 19.7958C18.125 17.4669 18.559 15.0674 19.4271 12.5974C20.2951 10.1273 21.4583 7.79836 22.9167 5.61059C24.375 3.42281 25.9722 1.55261 27.7083 0L35 4.28733C33.75 6.36925 32.6736 8.64524 31.7708 11.1153C30.8681 13.5501 30.4167 16.4436 30.4167 19.7958V28H18.125V19.7958Z" fill="black"/>
</svg>
