<svg xmlns="http://www.w3.org/2000/svg" width="1733.333" height="1733.333"
     viewBox="0 0 1300.000000 1300.000000">
  <path
    d="M377 353.4c0 .4 17.1 22.5 42.9 55.5 3.6 4.5 7.7 9.8 9.1 11.6 1.4 1.8 12 15.4 23.5 30.2 11.6 14.7 30.9 39.4 42.9 54.8 12.1 15.4 23.1 29.5 24.7 31.4 1.6 1.9 2.5 4 2.2 4.9-.4.8-3.4 6.3-6.8 12.1s-6.4 11.3-6.8 12.1c-.4.8-1.3 2.4-2 3.5-1 1.7-8.2 14.3-13.7 24-1.6 2.9-7.8 13.7-71.3 125-15.6 27.5-29.4 51.7-30.6 53.9-3.8 6.8-35 61.6-43.4 76.1-4.4 7.7-9.4 16.5-11 19.5-1.7 3-4.8 8.4-6.9 11.9-2.1 3.4-3.8 6.5-3.8 6.8 0 .2-1.6 2.9-3.5 5.9-1.9 3-3.5 5.6-3.5 5.9 0 .3-.6 1.5-1.3 2.8-3.2 5.1-14.7 25.7-14.7 26.2 0 .3 19.7.4 43.7.3l43.6-.3 1.6-2.7c.9-1.5 7.6-13.2 15-26s15-26 16.9-29.3c4.7-8.2 5.1-8.8 20.4-35.5 7.4-12.9 17.8-30.9 23-40 9-15.6 10.7-18.5 15.9-27.8 1.2-2 2.5-4.2 2.9-4.7.4-.6 1.8-3 3.2-5.5 2.4-4.3 22-38.6 37.3-65 20-34.7 30.7-53.3 33.1-57.7 1.5-2.6 4.2-7.2 6-10.1 1.9-2.8 3.1-5.2 2.7-5.2-.3 0 .1-.8.9-1.8.9-.9 2.3-3.2 3.2-5 .9-1.7 2-3.2 2.4-3.2.7 0 12.8 15.1 31.7 39.6 8.4 10.8 34.3 43.9 40.9 52.2 10 12.7 10.2 13 8.7 15.4-.7 1.2-2.1 3.5-3.1 5.2-1 1.7-6 10.3-11.2 19.1-5.3 8.8-13.2 22.3-17.8 30-4.5 7.7-9.1 15.2-10.1 16.7-1.1 1.4-1.9 2.9-1.9 3.2 0 .5-4.4 8.1-9 15.6-.8 1.4-7.6 12.8-26.7 45-16 27-24.6 41.6-26.3 44.5-.9 1.6-3.5 5.9-5.7 9.5-2.2 3.6-6.3 10.4-9.1 15.3L530 928l37.6-.2 37.6-.3 5.5-9.5c3.1-5.2 6.5-11.1 7.6-13 1-1.9 5.6-9.8 10-17.5 4.4-7.7 9.4-16.5 11-19.5 1.7-3 3.8-6.6 4.7-8 .9-1.4 3.1-5 4.7-8 2.5-4.4 49.3-86.1 49.7-86.7 0 0 8.2 10.3 18.1 23 32.2 41.2 58.7 75.1 61.5 78.7 1.5 1.9 5.7 7.2 9.1 11.7 3.5 4.4 13.6 17.4 22.4 28.7l16 20.5 61.2.1H948l-16.1-20.2c-24.4-30.9-95.4-120.8-104.4-132.3-4.4-5.6-9.2-11.7-10.7-13.6-1.5-1.9-17.3-21.8-35.1-44.4l-32.4-41 4.7-8c2.6-4.4 5.8-9.8 7-12 10.1-18 15.4-26.5 16-25.8.5.4 7.1 8.9 14.9 18.8 15.8 20.2 27.8 35.5 45.9 58.4 6.7 8.6 14.8 18.9 18 23 3.1 4 7.5 9.6 9.8 12.5 10 12.6 28.6 36.2 35.9 45.6 8.7 11.3 19.9 25.5 31.1 39.5 7.3 9.2 42.5 54.1 65.2 83.2l12.7 16.2h45.4c43.2.1 45.3 0 43.9-1.7-.9-.9-14.5-18.4-30.4-38.7-15.8-20.4-31.4-40.4-34.7-44.5-10.7-13.7-18.1-23.3-22.7-29.1-5.1-6.5-41.2-52.8-73.1-93.4-11.6-14.9-23-29.4-25.2-32.4-2.3-3-5.5-7.1-7.2-9.2-1.6-2.1-7.9-10.2-14-18-6-7.8-14.6-18.7-19-24.3-11.2-14.2-21.3-27.1-26-33.2-2.2-2.8-10.3-13.2-18-23-13-16.6-14.9-19.9-12.3-21.5.5-.3.8-.8.7-1-.2-.2.4-1.5 1.3-2.9s4.8-8 8.7-14.8l7-12.3-5.2-6.7c-2.8-3.7-5.6-7.2-6.2-7.8-.5-.7-6.8-8.6-13.9-17.7-12.8-16.4-12.9-16.6-14.6-14.4-.9 1.2-5.4 8.7-10.1 16.6l-8.4 14.3-3.2-3.8c-1.8-2.2-9.5-12-17.3-21.9-7.7-9.9-19-24.3-25-32.1l-11-14-39.3-10.2c-21.5-5.6-47-12.2-56.6-14.7-9.6-2.5-17.8-4.4-18.3-4.3-.8.3 3.5 6.1 19 25.8 1.5 1.9 22.2 28.2 45.9 58.5 23.8 30.2 47.9 60.8 53.5 67.9 5.7 7.1 10.7 13.6 11.2 14.4.8 1.3-1 5.8-4.4 11.2-.5.8-3.4 5.5-6.3 10.5-11 18.7-15.2 25.5-15.7 25.5-.3 0-3-3.2-6-7.1-3-3.9-9.5-12.1-14.4-18.2-4.9-6.2-17-21.6-27-34.2-18.6-23.7-29-36.8-33.2-41.9-1.3-1.7-2.4-3.6-2.4-4.4 0-.8 2.2-5.1 4.8-9.6 8.1-13.4 10.2-17.8 9.5-19-.7-1.1-22.8-30.8-25-33.6-.7-.8-6.5-8.5-12.9-17-6.3-8.5-11.9-15.6-12.2-15.8-.4-.1-2.3 2.6-4.2 6-7.9 14-10.6 18.6-12 20.6-1.4 2-2.6.7-25.7-28.7l-24.1-30.7-17.9-4.7c-9.8-2.6-42.1-11-71.8-18.7-29.7-7.8-54.8-14.3-55.7-14.6-1-.3-1.8-.3-1.8 0z"/>
  <path
    d="M367.2 368.1c-.6 1.3-2.4 4.6-4 7.4-8.4 14.5-58.3 101.9-61.2 107-1.8 3.3-3.8 6.7-4.5 7.5-.6.8-2.4 4-3.9 7-1.6 3-3.5 6.3-4.4 7.2-.8 1-1.2 1.8-.8 1.8.4 0-.1 1.2-1.2 2.7-1.8 2.5-10.8 18.2-17.7 30.8-1.5 2.7-3.1 5.4-3.5 6-.4.5-1.7 2.7-2.9 4.8-1.2 2.1-10.3 18.1-20.3 35.5-9.9 17.4-19.1 33.5-20.4 35.7-1.2 2.2-9.1 15.9-17.4 30.5-8.4 14.6-16.3 28.3-17.6 30.6-6.4 11.3-25.5 44.6-28.3 49.2-1.7 2.9-3.1 5.4-3.1 5.6 0 .2-2.3 4.3-5.1 9.2-2.9 4.9-10.3 17.9-16.5 28.9-6.3 11-11.8 20.7-12.3 21.5-.6.8-1.9 3.1-2.9 5-1.1 1.9-17.7 31.1-37 64.8L47.1 928h115.4l8-14.1c8.2-14.5 11.1-19.7 16-28.4 1.6-2.8 12.1-21.4 23.5-41.5s21.9-38.7 23.3-41.3c1.5-2.6 3.3-5.8 4.1-7 .7-1.2 2.7-4.7 4.3-7.7 1.7-3 5.3-9.5 8.2-14.3 2.8-4.9 5.1-9 5.1-9.3 0-.2 1.3-2.5 2.9-5.1 1.6-2.7 9.8-17 18.1-31.8 8.4-14.9 16.2-28.6 17.3-30.5 1.1-1.9 3.1-5.5 4.5-7.9 1.4-2.5 3.8-6.7 5.3-9.3 1.6-2.7 2.9-5.1 2.9-5.3 0-.2 2.2-4.2 4.9-8.7 2.6-4.6 5.9-10.3 7.3-12.8 1.4-2.5 10.1-17.8 19.3-34 9.2-16.2 17.9-31.5 19.3-34 9.9-17.8 16.7-29.9 18.1-32 .9-1.4 2.9-5 4.5-8s3.8-6.9 4.8-8.5c.9-1.7 3.1-5.5 4.8-8.5 1.6-3 4.2-7.5 5.6-10 2.6-4.4 8.8-15.3 14.7-26 1.7-3 4.1-7.2 5.4-9.2 1.3-2.1 2.3-4 2.3-4.2 0-.3 3.2-6 7.1-12.8 3.9-6.8 7.9-13.8 9-15.5l1.8-3.3-7.7-9.4c-4.2-5.1-13.1-16-19.7-24.1-6.6-8.1-12.5-15.3-13-15.9-.6-.6-4.9-5.8-9.5-11.6-8.5-10.5-9.7-12-14.2-17.4l-2.4-2.8-1.2 2.3zM805 464.6c0 .5 28.3 36.6 59.5 75.9 6.1 7.7 22.1 27.9 35.5 45 13.4 17 26 33 28 35.5s8.8 11 15 19c6.3 8 16.6 21 22.9 29 19.3 24.4 23.7 30 34.7 44 5.9 7.4 15.4 19.6 21.3 27 5.9 7.4 22.6 28.6 37.1 47s30.3 38.4 35.1 44.5c32.7 41.3 61.2 77.5 68 86.2l8 10.3h78l-2.1-2.7c-7.3-9.2-33.9-43-36-45.8-1.4-1.8-8.1-10.5-15-19.2-6.8-8.7-28.8-36.7-48.9-62.3-20.1-25.6-60.3-76.9-89.5-114-29.1-37.1-57.7-73.6-63.5-81-5.8-7.4-11.1-14.2-11.8-15-1.3-1.6-25.8-32.8-60.6-77.2-11.9-15.2-22.5-27.9-23.4-28.2-2.4-.7-90.3-18.6-91.4-18.6-.5 0-.9.3-.9.6z"/>
</svg>
