<svg id="Группа_48" data-name="Группа 48" xmlns="http://www.w3.org/2000/svg" width="22" height="18" viewBox="0 0 22 18">
  <defs>
    <style>
      .cls-1 {
        fill-rule: evenodd;
      }
    </style>
  </defs>
  <path id="Прямоугольник_скругл._углы_973_копия_2" data-name="Прямоугольник, скругл. углы 973 копия 2" class="cls-1" d="M277,209a1,1,0,0,1,1,1v16a1,1,0,0,1-2,0V210A1,1,0,0,1,277,209Zm-2,4h4a1,1,0,0,1,0,2h-4A1,1,0,0,1,275,213Z" transform="translate(-274 -209)"/>
  <path id="Прямоугольник_скругл._углы_973_копия_4" data-name="Прямоугольник, скругл. углы 973 копия 4" class="cls-1" d="M285,209a1,1,0,0,1,1,1v16a1,1,0,0,1-2,0V210A1,1,0,0,1,285,209Zm-2,12h4a1,1,0,0,1,0,2h-4A1,1,0,0,1,283,221Z" transform="translate(-274 -209)"/>
  <path id="Прямоугольник_скругл._углы_973_копия_3" data-name="Прямоугольник, скругл. углы 973 копия 3" class="cls-1" d="M293,209a1,1,0,0,1,1,1v16a1,1,0,0,1-2,0V210A1,1,0,0,1,293,209Zm-2,4h4a1,1,0,0,1,0,2h-4A1,1,0,0,1,291,213Z" transform="translate(-274 -209)"/>
</svg>
