<svg width="100%" height="100%" viewBox="0 0 26 26" fill="none" xmlns="http://www.w3.org/2000/svg">
<path d="M17.3337 8.66764L2.16699 23.8343M19.5003 16.251H9.75033M7.15033 20.5843H14.449C14.714 20.5843 14.8465 20.5843 14.9712 20.5544C15.0817 20.5278 15.1874 20.4841 15.2843 20.4247C15.3936 20.3577 15.4873 20.264 15.6747 20.0766L21.1253 14.626C21.3842 14.3671 21.5136 14.2377 21.6178 14.1231C23.8713 11.6439 23.8713 7.85804 21.6178 5.37888C21.5136 5.26429 21.3842 5.13485 21.1253 4.87597C20.8665 4.6171 20.737 4.48766 20.6224 4.38349C18.1433 2.12998 14.3574 2.12998 11.8782 4.38349C11.7636 4.48766 11.6342 4.61709 11.3753 4.87597L5.92467 10.3266C5.73731 10.514 5.64363 10.6077 5.57663 10.717C5.51723 10.8139 5.47346 10.9196 5.44692 11.0301C5.41699 11.1548 5.41699 11.2873 5.41699 11.5523V18.851C5.41699 19.4577 5.41699 19.7611 5.53507 19.9928C5.63893 20.1966 5.80466 20.3624 6.0085 20.4662C6.24024 20.5843 6.5436 20.5843 7.15033 20.5843Z" stroke="currentColor" stroke-linecap="round" stroke-linejoin="round" />
</svg>
