<svg width="100%" height="100%" viewBox="0 0 24 24" fill="none" xmlns="http://www.w3.org/2000/svg">
    <rect x="1" y="1" width="22.1641" height="22.1641" rx="11.082" stroke="currentColor" stroke-width="1.15" fill="transparent"/>
    <path d="M15.9836 9.66555C15.7566 9.43845 15.4871 9.2583 15.1904 9.13539C14.8938 9.01248 14.5759 8.94922 14.2548 8.94922C13.9337 8.94922 13.6158 9.01248 13.3191 9.13539C13.0225 9.2583 12.753 9.43845 12.526 9.66555L12.0549 10.1366L11.5838 9.66555C11.1253 9.20704 10.5035 8.94946 9.85504 8.94946C9.20661 8.94946 8.58475 9.20704 8.12625 9.66555C7.66774 10.124 7.41016 10.7459 7.41016 11.3943C7.41016 12.0428 7.66774 12.6646 8.12625 13.1231L8.59733 13.5942L12.0549 17.0518L15.5125 13.5942L15.9836 13.1231C16.2107 12.8961 16.3908 12.6266 16.5137 12.33C16.6366 12.0334 16.6999 11.7154 16.6999 11.3943C16.6999 11.0732 16.6366 10.7553 16.5137 10.4587C16.3908 10.162 16.2107 9.89254 15.9836 9.66555V9.66555Z" stroke="currentColor" stroke-width="1.15" stroke-linecap="round" stroke-linejoin="round"/>
</svg>
