<svg width="100%" height="100%" viewBox="0 0 24 24" fill="none" xmlns="http://www.w3.org/2000/svg">
    <circle cx="12" cy="12" r="11.5" stroke="#fff" fill="transparent"/>
    <path d="M16.224 9.38327C15.9782 9.13736 15.6864 8.94229 15.3652 8.8092C15.044 8.67611 14.6997 8.6076 14.352 8.6076C14.0043 8.6076 13.6601 8.67611 13.3389 8.8092C13.0177 8.94229 12.7258 9.13736 12.48 9.38327L11.9699 9.89337L11.4598 9.38327C10.9633 8.88678 10.29 8.60786 9.58783 8.60786C8.8857 8.60786 8.21232 8.88678 7.71583 9.38327C7.21935 9.87975 6.94043 10.5531 6.94043 11.2553C6.94043 11.9574 7.21935 12.6308 7.71583 13.1273L8.22594 13.6374L11.9699 17.3813L15.7139 13.6374L16.224 13.1273C16.4699 12.8815 16.665 12.5896 16.7981 12.2684C16.9312 11.9472 16.9997 11.6029 16.9997 11.2553C16.9997 10.9076 16.9312 10.5633 16.7981 10.2421C16.665 9.92089 16.4699 9.62906 16.224 9.38327V9.38327Z" stroke="#fff" stroke-linecap="round" stroke-linejoin="round"/>
</svg>
