<svg width="100%" height="100%" viewBox="0 0 24 24" fill="none" xmlns="http://www.w3.org/2000/svg">
<rect width="24" height="24" rx="12" fill="currentColor"/>
<path d="M10.0005 12C10.0005 10.8955 10.8957 9.99984 12.0002 9.99984C13.1048 9.99984 14.0005 10.8955 14.0005 12C14.0005 13.1045 13.1048 14.0002 12.0002 14.0002C10.8957 14.0002 10.0005 13.1045 10.0005 12ZM8.91919 12C8.91919 13.7016 10.2986 15.0809 12.0002 15.0809C13.7019 15.0809 15.0813 13.7016 15.0813 12C15.0813 10.2984 13.7019 8.91907 12.0002 8.91907C10.2986 8.91907 8.91919 10.2984 8.91919 12ZM14.4832 8.79691C14.4832 8.93931 14.5254 9.07854 14.6044 9.19697C14.6835 9.31541 14.7959 9.40774 14.9275 9.46228C15.059 9.51683 15.2038 9.53115 15.3435 9.50342C15.4831 9.4757 15.6115 9.40717 15.7122 9.30652C15.8129 9.20587 15.8816 9.0776 15.9094 8.93795C15.9372 8.79829 15.923 8.65352 15.8686 8.52193C15.8141 8.39035 15.7219 8.27786 15.6035 8.1987C15.4852 8.11954 15.346 8.07726 15.2036 8.0772H15.2033C15.0124 8.07729 14.8293 8.15314 14.6943 8.28808C14.5593 8.42302 14.4834 8.60603 14.4832 8.79691ZM9.57614 16.8839C8.99114 16.8572 8.67318 16.7598 8.46187 16.6775C8.18174 16.5684 7.98186 16.4385 7.7717 16.2287C7.56155 16.0188 7.43147 15.8191 7.32288 15.539C7.24051 15.3278 7.14307 15.0097 7.11648 14.4248C7.08739 13.7923 7.08158 13.6023 7.08158 12C7.08158 10.3978 7.08787 10.2083 7.11648 9.57533C7.14312 8.99035 7.24128 8.67293 7.32288 8.4611C7.43195 8.18098 7.56184 7.9811 7.7717 7.77096C7.98157 7.56082 8.18126 7.43074 8.46187 7.32216C8.67308 7.23979 8.99114 7.14235 9.57614 7.11576C10.2086 7.08667 10.3986 7.08086 12.0002 7.08086C13.6019 7.08086 13.7921 7.08715 14.4251 7.11576C15.0101 7.1424 15.3275 7.24056 15.5393 7.32216C15.8195 7.43074 16.0193 7.5611 16.2295 7.77096C16.4396 7.98082 16.5693 8.18098 16.6783 8.4611C16.7607 8.6723 16.8581 8.99035 16.8847 9.57533C16.9138 10.2083 16.9196 10.3978 16.9196 12C16.9196 13.6023 16.9138 13.7918 16.8847 14.4248C16.8581 15.0097 16.7602 15.3277 16.6783 15.539C16.5693 15.8191 16.4394 16.019 16.2295 16.2287C16.0196 16.4383 15.8195 16.5684 15.5393 16.6775C15.3281 16.7598 15.0101 16.8573 14.4251 16.8839C13.7926 16.9129 13.6026 16.9188 12.0002 16.9188C10.3979 16.9188 10.2084 16.9129 9.57614 16.8839ZM9.52646 6.03634C8.8877 6.06542 8.45122 6.1667 8.07003 6.31502C7.67527 6.46819 7.34108 6.67368 7.00713 7.00709C6.67318 7.3405 6.46821 7.6752 6.31504 8.06995C6.16671 8.45136 6.06543 8.88758 6.03634 9.52632C6.00677 10.1661 6 10.3706 6 12C6 13.6294 6.00677 13.8339 6.03634 14.4737C6.06543 15.1125 6.16671 15.5486 6.31504 15.93C6.46821 16.3246 6.67323 16.6596 7.00713 16.9929C7.34103 17.3262 7.67527 17.5314 8.07003 17.685C8.45194 17.8333 8.8877 17.9346 9.52646 17.9637C10.1666 17.9928 10.3708 18 12.0002 18C13.6297 18 13.8342 17.9932 14.474 17.9637C15.1128 17.9346 15.549 17.8333 15.9304 17.685C16.325 17.5314 16.6594 17.3263 16.9934 16.9929C17.3273 16.6595 17.5318 16.3246 17.6854 15.93C17.8338 15.5486 17.9355 15.1124 17.9641 14.4737C17.9932 13.8335 18 13.6294 18 12C18 10.3706 17.9932 10.1661 17.9641 9.52632C17.9351 8.88754 17.8338 8.45112 17.6854 8.06995C17.5318 7.67544 17.3268 7.34102 16.9934 7.00709C16.6599 6.67315 16.325 6.46819 15.9309 6.31502C15.549 6.1667 15.1128 6.06494 14.4745 6.03634C13.8347 6.00725 13.6302 6 12.0007 6C10.3712 6 10.1666 6.00677 9.52646 6.03634Z" fill="white"/>
<path d="M10.0005 12C10.0005 10.8955 10.8957 9.99984 12.0002 9.99984C13.1048 9.99984 14.0005 10.8955 14.0005 12C14.0005 13.1045 13.1048 14.0002 12.0002 14.0002C10.8957 14.0002 10.0005 13.1045 10.0005 12ZM8.91919 12C8.91919 13.7016 10.2986 15.0809 12.0002 15.0809C13.7019 15.0809 15.0813 13.7016 15.0813 12C15.0813 10.2984 13.7019 8.91907 12.0002 8.91907C10.2986 8.91907 8.91919 10.2984 8.91919 12ZM14.4832 8.79691C14.4832 8.93931 14.5254 9.07854 14.6044 9.19697C14.6835 9.31541 14.7959 9.40774 14.9275 9.46228C15.059 9.51683 15.2038 9.53115 15.3435 9.50342C15.4831 9.4757 15.6115 9.40717 15.7122 9.30652C15.8129 9.20587 15.8816 9.0776 15.9094 8.93795C15.9372 8.79829 15.923 8.65352 15.8686 8.52193C15.8141 8.39035 15.7219 8.27786 15.6035 8.1987C15.4852 8.11954 15.346 8.07726 15.2036 8.0772H15.2033C15.0124 8.07729 14.8293 8.15314 14.6943 8.28808C14.5593 8.42302 14.4834 8.60603 14.4832 8.79691ZM9.57614 16.8839C8.99114 16.8572 8.67318 16.7598 8.46187 16.6775C8.18174 16.5684 7.98186 16.4385 7.7717 16.2287C7.56155 16.0188 7.43147 15.8191 7.32288 15.539C7.24051 15.3278 7.14307 15.0097 7.11648 14.4248C7.08739 13.7923 7.08158 13.6023 7.08158 12C7.08158 10.3978 7.08787 10.2083 7.11648 9.57533C7.14312 8.99035 7.24128 8.67293 7.32288 8.4611C7.43195 8.18098 7.56184 7.9811 7.7717 7.77096C7.98157 7.56082 8.18126 7.43074 8.46187 7.32216C8.67308 7.23979 8.99114 7.14235 9.57614 7.11576C10.2086 7.08667 10.3986 7.08086 12.0002 7.08086C13.6019 7.08086 13.7921 7.08715 14.4251 7.11576C15.0101 7.1424 15.3275 7.24056 15.5393 7.32216C15.8195 7.43074 16.0193 7.5611 16.2295 7.77096C16.4396 7.98082 16.5693 8.18098 16.6783 8.4611C16.7607 8.6723 16.8581 8.99035 16.8847 9.57533C16.9138 10.2083 16.9196 10.3978 16.9196 12C16.9196 13.6023 16.9138 13.7918 16.8847 14.4248C16.8581 15.0097 16.7602 15.3277 16.6783 15.539C16.5693 15.8191 16.4394 16.019 16.2295 16.2287C16.0196 16.4383 15.8195 16.5684 15.5393 16.6775C15.3281 16.7598 15.0101 16.8573 14.4251 16.8839C13.7926 16.9129 13.6026 16.9188 12.0002 16.9188C10.3979 16.9188 10.2084 16.9129 9.57614 16.8839ZM9.52646 6.03634C8.8877 6.06542 8.45122 6.1667 8.07003 6.31502C7.67527 6.46819 7.34108 6.67368 7.00713 7.00709C6.67318 7.3405 6.46821 7.6752 6.31504 8.06995C6.16671 8.45136 6.06543 8.88758 6.03634 9.52632C6.00677 10.1661 6 10.3706 6 12C6 13.6294 6.00677 13.8339 6.03634 14.4737C6.06543 15.1125 6.16671 15.5486 6.31504 15.93C6.46821 16.3246 6.67323 16.6596 7.00713 16.9929C7.34103 17.3262 7.67527 17.5314 8.07003 17.685C8.45194 17.8333 8.8877 17.9346 9.52646 17.9637C10.1666 17.9928 10.3708 18 12.0002 18C13.6297 18 13.8342 17.9932 14.474 17.9637C15.1128 17.9346 15.549 17.8333 15.9304 17.685C16.325 17.5314 16.6594 17.3263 16.9934 16.9929C17.3273 16.6595 17.5318 16.3246 17.6854 15.93C17.8338 15.5486 17.9355 15.1124 17.9641 14.4737C17.9932 13.8335 18 13.6294 18 12C18 10.3706 17.9932 10.1661 17.9641 9.52632C17.9351 8.88754 17.8338 8.45112 17.6854 8.06995C17.5318 7.67544 17.3268 7.34102 16.9934 7.00709C16.6599 6.67315 16.325 6.46819 15.9309 6.31502C15.549 6.1667 15.1128 6.06494 14.4745 6.03634C13.8347 6.00725 13.6302 6 12.0007 6C10.3712 6 10.1666 6.00677 9.52646 6.03634Z" fill="white"/>
</svg>
