<svg width="100%" height="100%" viewBox="0 0 26 26" fill="none" xmlns="http://www.w3.org/2000/svg">
<path d="M3.25 8.45C3.25 6.62983 3.25 5.71974 3.60423 5.02453C3.91582 4.413 4.413 3.91582 5.02453 3.60423C5.71974 3.25 6.62983 3.25 8.45 3.25H17.55C19.3702 3.25 20.2803 3.25 20.9755 3.60423C21.587 3.91582 22.0842 4.413 22.3958 5.02453C22.75 5.71974 22.75 6.62983 22.75 8.45V14.3C22.75 16.1202 22.75 17.0303 22.3958 17.7255C22.0842 18.337 21.587 18.8342 20.9755 19.1458C20.2803 19.5 19.3702 19.5 17.55 19.5H14.8241C14.148 19.5 13.81 19.5 13.4866 19.5664C13.1998 19.6252 12.9222 19.7226 12.6614 19.8558C12.3675 20.006 12.1036 20.2172 11.5756 20.6395L8.9914 22.7069C8.54064 23.0675 8.31526 23.2478 8.12558 23.248C7.96063 23.2482 7.80457 23.1732 7.70166 23.0442C7.58333 22.896 7.58333 22.6074 7.58333 22.0301V19.5C6.57586 19.5 6.07213 19.5 5.65884 19.3893C4.53729 19.0887 3.66126 18.2127 3.36074 17.0912C3.25 16.6779 3.25 16.1741 3.25 15.1667V8.45Z" stroke="currentColor" stroke-linecap="round" stroke-linejoin="round"/>
<path fill-rule="evenodd" clip-rule="evenodd" d="M12.9967 8.34086C12.022 7.21543 10.3966 6.9127 9.17541 7.94325C7.9542 8.9738 7.78227 10.6968 8.7413 11.9157C9.33545 12.6708 10.8267 14.0499 11.8755 14.99C12.2607 15.3354 12.4533 15.508 12.6845 15.5776C12.8828 15.6373 13.1106 15.6373 13.3089 15.5776C13.54 15.508 13.7326 15.3354 14.1179 14.99C15.1666 14.0499 16.6579 12.6708 17.252 11.9157C18.2111 10.6968 18.0601 8.96296 16.8179 7.94325C15.5757 6.92354 13.9713 7.21543 12.9967 8.34086Z" stroke="currentColor" stroke-linecap="round" stroke-linejoin="round"/>
</svg>
