<svg width="100%" height="100%" viewBox="0 0 19 20" fill="none" xmlns="http://www.w3.org/2000/svg">
    <path fill="currentColor" stroke="none" d="M 3.7421875,0.40429688 C 3.3253292,0.41579847 2.9122553,0.58593774 2.6074219,0.91015625 L 1.9335938,1.6269531 a 0.60006002,0.60006002 0 0 0 -0.00977,0.00977 l -0.1581988,0.17773 a 0.60006002,0.60006002 0 0 0 -0.00977,0.011719 C 0.36571851,3.4590524 0.01411442,5.8062194 0.84179688,7.8730469 1.9633463,10.673694 3.3404844,12.957151 4.9921875,14.710938 6.6438862,16.464719 8.800184,17.932485 11.443359,19.125 c 2.053221,0.926457 4.427155,0.461541 5.964844,-1.173828 l 0.75,-0.796875 c 0.587121,-0.624436 0.585607,-1.6124 -0.002,-2.236328 l -3.011719,-3.197266 a 0.60006002,0.60006002 0 0 0 -0.02344,-0.02148 c -0.644327,-0.614116 -1.683279,-0.585876 -2.292969,0.0625 l -1.085937,1.15625 C 9.4619172,11.95714 7.6760585,9.9879336 6.7792969,7.5351562 L 7.9375,6.3027344 c 0.5870982,-0.6244413 0.5876333,-1.6123899 0,-2.2363282 L 4.9238281,0.86914062 A 0.60006002,0.60006002 0 0 0 4.9023438,0.84765625 C 4.580189,0.54061954 4.1590458,0.39279528 3.7421875,0.40429688 Z M 4.0703125,1.7148438 7.0625,4.8886719 c 0.1588667,0.1686817 0.1587418,0.4229581 0,0.5917969 L 5.6074219,7.0292969 A 0.60006002,0.60006002 0 0 0 5.4746094,7.6269531 C 6.4415955,10.583284 8.6042804,12.9566 11.367188,14.083984 a 0.60006002,0.60006002 0 0 0 0.0098,0.0039 l 0.291016,0.111328 a 0.60006002,0.60006002 0 0 0 0.654297,-0.148438 l 1.378906,-1.466797 c 0.164621,-0.175066 0.415316,-0.180704 0.589844,-0.01758 l 2.992187,3.173828 c 0.15884,0.168672 0.15868,0.423033 0,0.591797 l -0.748047,0.796875 C 15.336846,18.403338 13.543679,18.755993 11.9375,18.03125 9.4078753,16.889965 7.3906488,15.50629 5.8671875,13.888672 4.3437306,12.271058 3.0340687,10.122107 1.9550781,7.4277344 1.2885059,5.7632195 1.5862158,3.8795081 2.6699219,2.6054688 c 3.891e-4,-4.575e-4 -3.893e-4,-0.0015 0,-0.00195 L 2.8144531,2.4433594 3.4824219,1.7324219 C 3.6469429,1.5574385 3.8957688,1.5517204 4.0703125,1.7148438 Z" />
</svg>
