<svg width="100%" height="100%" viewBox="0 0 24 24" fill="none" xmlns="http://www.w3.org/2000/svg">
<path fill-rule="evenodd" clip-rule="evenodd" d="M0 12C0 5.37258 5.37258 0 12 0C18.6274 0 24 5.37258 24 12C24 18.6274 18.6274 24 12 24C5.37258 24 0 18.6274 0 12ZM6 12C6 8.7 8.7 6 12 6C15.3 6 18 8.7 17.925 11.7C17.925 15 15.225 17.7 11.925 17.7C11.325 17.7 10.725 17.625 10.2 17.475C10.425 17.1 10.65 16.65 10.8 16.2C10.875 15.9 11.25 14.55 11.25 14.55C11.475 14.925 12.075 15.3 12.75 15.3C14.7 15.3 15.975 13.5 15.975 11.175C15.975 9.375 14.475 7.725 12.15 7.725C9.3 7.725 7.875 9.75 7.875 11.475C7.875 12.525 8.25001 13.425 9.075 13.8C9.22501 13.875 9.3 13.8 9.375 13.65C9.45 13.575 9.525 13.275 9.525 13.2C9.57803 13.0939 9.55607 13.0629 9.51213 13.0007C9.49394 12.975 9.47197 12.9439 9.45 12.9C9.22501 12.6 9.075 12.225 9.075 11.7C9.075 10.2 10.2 8.85 12 8.85C13.575 8.85 14.475 9.825 14.475 11.175C14.475 12.975 13.725 14.4 12.6 14.4C11.925 14.4 11.475 13.875 11.625 13.275C11.6876 12.9619 11.7894 12.6358 11.8868 12.3239C12.0227 11.8885 12.15 11.4809 12.15 11.175C12.15 10.65 11.85 10.275 11.325 10.275C10.725 10.275 10.2 10.95 10.2 11.85C10.2 12.45 10.425 12.825 10.425 12.825C10.425 12.825 9.825 15.6 9.675 16.125C9.6 16.575 9.6 17.0249 9.6 17.4749C7.5 16.5749 6 14.475 6 12Z" fill="currentColor"/>
</svg>
