<svg width="100%" height="100%" viewBox="0 0 16 22" fill="none" xmlns="http://www.w3.org/2000/svg">
    <path fill="currentColor" fill-rule="evenodd" clip-rule="evenodd"
          d="M1.60039 7.9999C1.60039 5.88483 2.32874 4.30043 3.46047 3.24206C4.59858 2.17772 6.1938 1.5999 8.00039 1.5999C9.80555 1.5999 11.401 2.18257 12.5398 3.25014C13.6725 4.31196 14.4004 5.89695 14.4004 7.9999C14.4004 11.0678 12.7432 14.189 11.0132 16.5958C10.156 17.7883 9.29776 18.7825 8.65377 19.4784C8.39671 19.7562 8.1743 19.9859 8.00039 20.1611C7.82648 19.9859 7.60407 19.7562 7.34701 19.4784C6.70302 18.7825 5.84476 17.7883 4.98759 16.5958C3.25761 14.189 1.60039 11.0678 1.60039 7.9999ZM7.5926 21.44C7.59276 21.4402 7.59289 21.4403 8.00039 20.9999L7.59289 21.4403C7.82288 21.6531 8.1779 21.6531 8.40789 21.4403L8.00039 20.9999C8.40789 21.4403 8.40802 21.4402 8.40819 21.44L8.40864 21.4396L8.41003 21.4383L8.41471 21.434L8.4315 21.4182C8.44594 21.4046 8.46682 21.3849 8.4937 21.3592C8.54747 21.3078 8.62528 21.2325 8.7237 21.1348C8.9205 20.9396 9.19995 20.655 9.53451 20.2934C10.203 19.571 11.0948 18.5383 11.9876 17.2962C13.7576 14.8337 15.6004 11.4549 15.6004 7.9999C15.6004 5.60285 14.7613 3.68784 13.3605 2.37467C11.9658 1.06723 10.0612 0.399902 8.00039 0.399902C5.94098 0.399902 4.03621 1.06066 2.64082 2.36561C1.23904 3.67652 0.400391 5.59212 0.400391 7.9999C0.400391 11.4549 2.24317 14.8337 4.01319 17.2962C4.90603 18.5383 5.79776 19.571 6.46627 20.2934C6.80083 20.655 7.08028 20.9396 7.27708 21.1348C7.3755 21.2325 7.45331 21.3078 7.50708 21.3592C7.53396 21.3849 7.55484 21.4046 7.56929 21.4182L7.58607 21.434L7.59075 21.4383L7.59214 21.4396L7.5926 21.44ZM5.60039 7.9999C5.60039 6.67442 6.67491 5.5999 8.00039 5.5999C9.32587 5.5999 10.4004 6.67442 10.4004 7.9999C10.4004 9.32539 9.32587 10.3999 8.00039 10.3999C6.67491 10.3999 5.60039 9.32539 5.60039 7.9999ZM8.00039 4.3999C6.01217 4.3999 4.40039 6.01168 4.40039 7.9999C4.40039 9.98813 6.01217 11.5999 8.00039 11.5999C9.98862 11.5999 11.6004 9.98813 11.6004 7.9999C11.6004 6.01168 9.98862 4.3999 8.00039 4.3999Z"/>
</svg>
