<svg width="100%" height="100%" viewBox="0 0 24 24" fill="none" xmlns="http://www.w3.org/2000/svg">
<path d="M0 12C0 5.37258 5.37258 0 12 0C18.6274 0 24 5.37258 24 12C24 18.6274 18.6274 24 12 24C5.37258 24 0 18.6274 0 12Z" fill="currentColor"/>
<path d="M5.7357 11.355C5.7357 11.355 11.043 9.15984 12.8837 8.38686C13.5893 8.07769 15.9822 7.08827 15.9822 7.08827C15.9822 7.08827 17.0866 6.65544 16.9946 7.70665C16.9639 8.13952 16.7184 9.6545 16.473 11.2932C16.1049 13.6121 15.7061 16.1474 15.7061 16.1474C15.7061 16.1474 15.6447 16.8585 15.1232 16.9822C14.6017 17.1059 13.7427 16.5494 13.5893 16.4256C13.4665 16.3329 11.2884 14.9416 10.4908 14.2614C10.276 14.0759 10.0306 13.7049 10.5215 13.272C11.6259 12.2517 12.945 10.984 13.7427 10.1802C14.1108 9.80911 14.4789 8.9434 12.945 9.99461C10.7669 11.5096 8.61944 12.9319 8.61944 12.9319C8.61944 12.9319 8.12858 13.241 7.20825 12.9628C6.28787 12.6845 5.21414 12.3135 5.21414 12.3135C5.21414 12.3135 4.47791 11.8497 5.7357 11.355Z" fill="white"/>
</svg>
