<svg width="100%" height="100%" viewBox="0 0 24 24" fill="none" xmlns="http://www.w3.org/2000/svg">
<path d="M0 12C0 5.37258 5.37258 0 12 0C18.6274 0 24 5.37258 24 12C24 18.6274 18.6274 24 12 24C5.37258 24 0 18.6274 0 12Z" fill="currentColor"/>
<path fill-rule="evenodd" clip-rule="evenodd" d="M18.6787 9.47399C18.7761 9.20077 18.6787 9 18.2156 9H16.684C16.2945 9 16.115 9.17343 16.0176 9.36468C16.0176 9.36468 15.2387 10.963 14.1354 12.0013C13.7784 12.3018 13.6161 12.3974 13.4214 12.3974C13.3241 12.3974 13.1831 12.3018 13.1831 12.0286V9.474C13.1831 9.14612 13.0701 9 12.7456 9H10.3387C10.0954 9 9.94902 9.15217 9.94902 9.29639C9.94902 9.60721 10.5007 9.67888 10.5575 10.5532V12.4521C10.5575 12.8684 10.4682 12.9439 10.2735 12.9439C9.7543 12.9439 8.49129 11.3384 7.74221 9.50131C7.59541 9.14424 7.44817 9 7.05673 9H5.52513C5.08752 9 5 9.17343 5 9.36468C5 9.70622 5.51925 11.4002 7.41771 13.6406C8.68334 15.1706 10.4665 16 12.0891 16C13.0627 16 13.1832 15.8158 13.1832 15.4985V14.3421C13.1832 13.9737 13.2754 13.9002 13.5837 13.9002C13.8108 13.9002 14.2003 13.9958 15.109 14.7335C16.1474 15.6078 16.3186 16 16.9028 16H18.4344C18.872 16 19.0908 15.8158 18.9646 15.4523C18.8264 15.0899 18.3306 14.5643 17.6727 13.9411C17.3157 13.586 16.7803 13.2035 16.618 13.0122C16.3908 12.7663 16.4557 12.657 16.618 12.4384C16.618 12.4384 18.484 10.2253 18.6787 9.47399Z" fill="white"/>
</svg>
