<svg width="100%" height="100%" viewBox="0 0 24 24" xmlns="http://www.w3.org/2000/svg">
    <path d="m11.13,0c-1.81.17-3.18.57-4.67,1.33-2.27,1.17-4.09,3.04-5.23,5.33-.44.88-.64,1.42-.87,2.28-.28,1.09-.37,1.75-.37,2.95,0,.6.02,1.25.06,1.5.26,1.92.86,3.58,1.87,5.13l.34.52-.75,2.2c-.41,1.22-.74,2.21-.73,2.22,0,0,1.03-.31,2.28-.71s2.29-.73,2.31-.73c.02,0,.21.11.43.24.22.13.67.38,1,.54,3.04,1.45,6.51,1.58,9.62.34,3.52-1.39,6.23-4.45,7.2-8.12.3-1.13.37-1.74.37-3.05s-.07-1.92-.37-3.05C22.5,4.65,19.04,1.3,14.68.28,13.95.11,13.19.02,12.26,0c-.52,0-1.02-.01-1.13,0Zm-2.87,5.57c.08.04.19.15.24.26.14.25,1.28,2.99,1.32,3.16.04.21-.17.57-.63,1.1-.49.55-.59.72-.55.92.08.36,1.17,1.8,1.84,2.43,1.04.98,2.61,1.91,3.31,1.97.36.02.49-.08,1.04-.81.25-.33.51-.67.59-.74.18-.18.45-.22.75-.11.39.15,2.75,1.3,2.92,1.42l.16.12-.03.5c-.07,1.28-.52,1.94-1.7,2.52-1.13.55-2.01.54-3.74-.06-2.32-.8-3.55-1.57-5.22-3.24-.84-.84-1.43-1.54-2.11-2.52-1.12-1.6-1.55-2.83-1.42-4.08.1-1,.46-1.75,1.17-2.45.34-.34.79-.48,1.47-.46.29,0,.5.04.59.08Z"/>
</svg>