<svg xmlns="http://www.w3.org/2000/svg" xmlns:xlink="http://www.w3.org/1999/xlink"><defs><clipPath id="clip0_1781_3257"><path d="M0 0h24v24H0z"/></clipPath></defs><symbol id="burger-close" viewBox="0 0 22 22"><path d="M21 22c-.3 0-.5-.1-.7-.3l-20-20C-.1 1.3-.1.7.3.3s1-.4 1.4 0l20 20c.4.4.4 1 0 1.4-.2.2-.4.3-.7.3z"/><path d="M1 22c-.3 0-.5-.1-.7-.3-.4-.4-.4-1 0-1.4l20-20c.4-.4 1-.4 1.4 0s.4 1 0 1.4l-20 20c-.2.2-.4.3-.7.3z"/></symbol><symbol id="burger" viewBox="0 0 22.4 20.4"><path d="M21.2 20.4h-20c-.7 0-1.2-.5-1.2-1.2S.5 18 1.2 18h20c.7 0 1.2.5 1.2 1.2s-.5 1.2-1.2 1.2zm0-9h-20c-.7 0-1.2-.5-1.2-1.2S.5 9 1.2 9h20c.7 0 1.2.5 1.2 1.2s-.5 1.2-1.2 1.2zm0-9h-20C.5 2.4 0 1.9 0 1.2S.5 0 1.2 0h20c.7 0 1.2.5 1.2 1.2s-.5 1.2-1.2 1.2z"/></symbol><symbol id="call-mobile" viewBox="0 0 24 24"><g clip-path="url(#clip0_1781_3257)"><path d="M15.79 15.7l-.725-.689.725.689zm.556-.586l.726.688-.726-.688zm2.954-.41l-.499.867.5-.867zm2.335 1.344l-.499.867.5-.867zm.658 4.212l.725.689-.725-.689zm-1.736 1.828l-.725-.689.725.69zm-1.62.867l.099.995-.098-.995zM6.886 17.47l.726-.689-.726.689zM1.004 5.847l-.999.054.999-.054zm7.913 1.879l.725.689-.725-.689zm.192-3.434l.816-.578-.816.578zm-1.542-2.18l-.816.577.816-.577zm-3.803-.368l.725.689-.725-.69zm-1.918 2.02l-.725-.69.725.69zm9.009 9.527l.725-.69-.725.69zm5.66 3.098l.556-.586-1.45-1.378-.556.586 1.45 1.378zm2.286-.818l2.335 1.344.998-1.734-2.335-1.344-.998 1.734zm2.767 4L19.832 21.4l1.45 1.378 1.736-1.828-1.45-1.377zM18.84 21.96c-1.732.17-6.281.03-11.228-5.179l-1.45 1.377c5.433 5.721 10.624 6.014 12.875 5.792l-.197-1.99zM7.611 16.78C2.886 11.808 2.1 7.621 2.002 5.794L.005 5.9c.122 2.279 1.09 6.924 6.155 12.257l1.45-1.377zm1.68-7.997l.351-.37-1.45-1.377-.35.37 1.45 1.377zm.634-5.07l-1.541-2.18L6.75 2.69l1.541 2.18 1.633-1.155zM3.039 1.055L1.12 3.075l1.45 1.377 1.918-2.02-1.45-1.377zm5.527 7.04a36.105 36.105 0 00-.726-.687l-.002.002a.907.907 0 00-.07.081 2.028 2.028 0 00-.294.546c-.124.349-.19.807-.107 1.375.163 1.114.89 2.596 2.763 4.567l1.45-1.377c-1.74-1.831-2.156-2.948-2.234-3.48-.038-.256.001-.383.012-.415.007-.018.01-.02 0-.006a.385.385 0 01-.053.068 1.13 1.13 0 01-.006.007l-.004.004-.002.002s-.002.002-.727-.687zm1.564 5.884c1.866 1.965 3.287 2.75 4.386 2.93.565.09 1.026.018 1.377-.12a1.939 1.939 0 00.54-.323l.047-.042.019-.019a.325.325 0 00.012-.013l.002-.002s.002-.001-.723-.69-.724-.69-.723-.69l.001-.003c.002 0 .003-.002.004-.003a.446.446 0 00.007-.007l.013-.013a.61.61 0 01.055-.047c.017-.012.021-.013.013-.01-.01.005-.105.042-.323.007-.466-.075-1.512-.495-3.257-2.332l-1.45 1.377zM8.384 1.534C7.117-.257 4.577-.564 3.039 1.055l1.45 1.378c.6-.632 1.663-.59 2.262.256l1.633-1.155zm-6.382 4.26c-.025-.46.175-.927.569-1.342L1.12 3.075C.454 3.776-.057 4.755.005 5.9l1.997-.107zM19.832 21.4c-.332.349-.672.528-.993.56l.197 1.99c.939-.093 1.695-.593 2.246-1.173l-1.45-1.378zM9.642 8.415c1.212-1.276 1.296-3.269.283-4.7L8.292 4.868c.494.7.415 1.626-.1 2.168l1.45 1.378zm11.494 8.5c.959.551 1.143 1.909.432 2.657l1.45 1.377c1.634-1.72 1.157-4.593-.884-5.768l-.998 1.734zm-4.064-1.112c.443-.468 1.135-.574 1.73-.232l.997-1.734c-1.375-.791-3.083-.565-4.178.588l1.45 1.377z"/></g></symbol><symbol id="price-star" viewBox="0 0 56 56"><path d="M35.503 0l-1.98 24.811L56 35.503l-24.811-1.98L20.497 56l1.98-24.811L0 20.497l24.811 1.98L35.503 0z"/></symbol></svg>