<?xml version="1.0" encoding="utf-8"?>
<svg version="1.1" xmlns="http://www.w3.org/2000/svg" xmlns:xlink="http://www.w3.org/1999/xlink" x="0px" y="0px"
	 viewBox="0 0 25.1 27.7">
<path d="M19.6,27.7c-0.4,0-0.6,0-0.6,0c-0.3,0-9.3-1.1-14.2-7.6C-0.3,14.2,0,5.6,0,5.2c0,0,0-1.8,1.2-3.4c1-1.3,2.7-2,4.3-1.8
	c1,0.1,1.9,0.6,2.4,1.3c0,0,0,0.1,0.1,0.1l1.9,3.3c0.6,1.1,0.8,2.3,0.6,3.4c-0.1,0.4-0.2,0.8-0.4,1.2c-0.4,0.7-0.7,1.3-0.9,1.6
	c-0.3,0.5-0.3,1.2,0,1.6l0,0l4.2,5l0,0c0.4,0.3,1,0.4,1.5,0.2l0.3-0.1c0.4-0.1,0.9-0.3,1.5-0.6c0.4-0.2,0.8-0.2,1.2-0.3
	c1.1-0.1,2.3,0.3,3.3,1.1l2.9,2.4c0.1,0,0.1,0.1,0.1,0.1c0.6,0.7,0.9,1.6,0.9,2.6c-0.1,1.6-1,3.1-2.5,3.9
	C21.4,27.6,20.3,27.7,19.6,27.7z M5,1.3c-1,0-2,0.5-2.7,1.4C1.4,3.9,1.4,5.3,1.4,5.3c0,0.1-0.3,8.5,4.5,13.9c4.6,6,13.2,7,13.3,7
	c0,0,1.3,0.2,2.6-0.5c1.1-0.6,1.8-1.6,1.8-2.8c0-0.7-0.2-1.2-0.5-1.6L20.2,19c-0.7-0.6-1.6-0.9-2.3-0.8c-0.3,0-0.5,0.1-0.8,0.2
	c-0.6,0.3-1.1,0.5-1.5,0.6l-0.3,0.1c-1.1,0.4-2.2,0.2-3-0.5l-0.1-0.1l-4.3-5.1l-0.1-0.1c-0.5-0.9-0.5-2.1,0-3c0.2-0.4,0.5-1,1-1.7
	C8.9,8.4,9,8.1,9.1,7.9c0.2-0.8,0-1.7-0.5-2.5L6.8,2.1C6.4,1.7,5.9,1.4,5.3,1.3C5.2,1.3,5.1,1.3,5,1.3z"/>
</svg>
