<svg viewBox="0 0 24 24" fill="none" xmlns="http://www.w3.org/2000/svg">
<g clip-path="url(#clip0_1781_3257)">
<path d="M15.7898 15.6999L15.0647 15.0112L15.7898 15.6999ZM16.3464 15.1139L17.0715 15.8025L16.3464 15.1139ZM19.3001 14.7039L18.8013 15.5706H18.8013L19.3001 14.7039ZM21.6352 16.048L21.1363 16.9147L21.6352 16.048ZM22.2932 20.2603L23.0182 20.949L22.2932 20.2603ZM20.5569 22.0882L19.8319 21.3995L20.5569 22.0882ZM18.9377 22.9549L19.0359 23.9501L18.9377 22.9549ZM6.88544 17.4697L7.6105 16.781L6.88544 17.4697ZM1.00353 5.84726L0.00496656 5.90085L0.00496662 5.90085L1.00353 5.84726ZM8.91697 7.72603L9.64202 8.41471L8.91697 7.72603ZM9.10852 4.29157L9.92504 3.71426V3.71426L9.10852 4.29157ZM7.56731 2.11175L6.75079 2.68906L6.75079 2.68906L7.56731 2.11175ZM3.76399 1.7439L4.48905 2.43258L4.48905 2.43258L3.76399 1.7439ZM1.84559 3.76361L1.12054 3.07492H1.12054L1.84559 3.76361ZM10.8549 13.2905L11.58 12.6019L10.8549 13.2905ZM16.5148 16.3886L17.0715 15.8025L15.6214 14.4252L15.0647 15.0112L16.5148 16.3886ZM18.8013 15.5706L21.1363 16.9147L22.134 15.1813L19.799 13.8373L18.8013 15.5706ZM21.5681 19.5716L19.8319 21.3995L21.282 22.7769L23.0182 20.949L21.5681 19.5716ZM18.8394 21.9597C17.1071 22.1307 12.5575 21.9893 7.6105 16.781L6.16038 18.1584C11.5944 23.8793 16.7851 24.1722 19.0359 23.9501L18.8394 21.9597ZM7.6105 16.781C2.88729 11.8083 2.10013 7.62013 2.00209 5.79366L0.00496662 5.90085C0.127292 8.17987 1.09446 12.8249 6.16038 18.1584L7.6105 16.781ZM9.29147 8.78378L9.64202 8.41471L8.19191 7.03734L7.84136 7.4064L9.29147 8.78378ZM9.92504 3.71426L8.38384 1.53444L6.75079 2.68906L8.29199 4.86888L9.92504 3.71426ZM3.03894 1.05521L1.12054 3.07492L2.57065 4.4523L4.48905 2.43258L3.03894 1.05521ZM8.56642 8.09509C7.84136 7.4064 7.84043 7.40738 7.83951 7.40836C7.83919 7.40869 7.83826 7.40968 7.83763 7.41035C7.83636 7.4117 7.83508 7.41307 7.83377 7.41448C7.83116 7.41728 7.82847 7.42021 7.8257 7.42325C7.82016 7.42934 7.81431 7.43591 7.80819 7.44295C7.79593 7.45705 7.78255 7.47307 7.76829 7.49109C7.73978 7.52711 7.70776 7.5711 7.6743 7.62339C7.60719 7.72826 7.53497 7.86552 7.47398 8.03692C7.34985 8.38573 7.28364 8.84389 7.36686 9.41189C7.53017 10.5265 8.25757 12.0081 10.1299 13.9792L11.58 12.6019C9.84061 10.7706 9.42375 9.65445 9.34573 9.12194C9.30828 8.86637 9.34713 8.73862 9.35823 8.70742C9.36486 8.6888 9.36779 8.68752 9.35893 8.70136C9.3546 8.70813 9.34747 8.71848 9.33658 8.73224C9.33114 8.73912 9.32474 8.74687 9.31727 8.75545C9.31354 8.75975 9.30953 8.76426 9.30524 8.76898C9.30309 8.77134 9.30087 8.77375 9.29858 8.77622C9.29743 8.77745 9.29627 8.7787 9.29508 8.77996C9.29449 8.78059 9.29359 8.78155 9.29329 8.78186C9.29239 8.78282 9.29147 8.78378 8.56642 8.09509ZM10.1299 13.9792C11.9962 15.9441 13.4175 16.7297 14.5164 16.9082C15.0812 16.9999 15.5419 16.9271 15.8935 16.7884C16.0652 16.7207 16.2015 16.641 16.3044 16.568C16.3557 16.5316 16.3986 16.497 16.4335 16.4664C16.4509 16.4511 16.4664 16.4368 16.4799 16.4237C16.4867 16.4172 16.4929 16.411 16.4988 16.4051C16.5017 16.4022 16.5045 16.3994 16.5071 16.3966C16.5085 16.3952 16.5098 16.3939 16.5111 16.3925C16.5117 16.3919 16.5126 16.3909 16.513 16.3905C16.5139 16.3896 16.5148 16.3886 15.7898 15.6999C15.0647 15.0112 15.0656 15.0103 15.0665 15.0093C15.0668 15.009 15.0677 15.008 15.0683 15.0074C15.0695 15.0062 15.0707 15.0049 15.0719 15.0037C15.0743 15.0013 15.0766 14.999 15.0788 14.9967C15.0833 14.9921 15.0877 14.9879 15.0918 14.9839C15.1001 14.9759 15.1077 14.9689 15.1146 14.9629C15.1283 14.9508 15.1392 14.9424 15.1473 14.9367C15.1637 14.925 15.1685 14.9244 15.1597 14.9279C15.1503 14.9316 15.0545 14.9694 14.837 14.9341C14.3714 14.8585 13.3254 14.4394 11.58 12.6019L10.1299 13.9792ZM8.38384 1.53444C7.11716 -0.2571 4.57668 -0.563747 3.03894 1.05521L4.48905 2.43258C5.089 1.80096 6.15243 1.84277 6.75079 2.68906L8.38384 1.53444ZM2.00209 5.79366C1.97743 5.3342 2.17698 4.86676 2.57065 4.4523L1.12054 3.07492C0.454248 3.7764 -0.0565047 4.75557 0.00496656 5.90085L2.00209 5.79366ZM19.8319 21.3995C19.4999 21.749 19.1605 21.928 18.8394 21.9597L19.0359 23.9501C19.9747 23.8574 20.731 23.357 21.282 22.7769L19.8319 21.3995ZM9.64202 8.41471C10.8536 7.13913 10.9375 5.14627 9.92504 3.71426L8.29199 4.86888C8.78636 5.56809 8.70745 6.49457 8.19191 7.03734L9.64202 8.41471ZM21.1363 16.9147C22.0945 17.4662 22.2786 18.8236 21.5681 19.5716L23.0182 20.949C24.6516 19.2293 24.1749 16.356 22.134 15.1813L21.1363 16.9147ZM17.0715 15.8025C17.5154 15.3351 18.2072 15.2287 18.8013 15.5706L19.799 13.8373C18.4239 13.0458 16.7164 13.2723 15.6214 14.4252L17.0715 15.8025Z" fill="#3C3C3C"/>
</g>
<defs>
<clipPath id="clip0_1781_3257">
<rect width="24" height="24"/>
</clipPath>
</defs>
</svg>
