<svg width="22" height="22" viewBox="0 0 22 22" fill="none" xmlns="http://www.w3.org/2000/svg">
<path d="M2.75 4.9125H19.25C19.6811 4.9125 20.0375 4.55606 20.0375 4.125C20.0375 3.69394 19.6811 3.3375 19.25 3.3375H2.75C2.31894 3.3375 1.9625 3.69394 1.9625 4.125C1.9625 4.55606 2.31894 4.9125 2.75 4.9125Z" fill="white" stroke="white" stroke-width="0.2"/>
<path d="M2.75 12.2455H11.4308C11.8719 12.2455 12.2183 11.8882 12.2183 11.458C12.2183 11.0269 11.8619 10.6705 11.4308 10.6705H2.75C2.31894 10.6705 1.9625 11.0269 1.9625 11.458C1.9625 11.8891 2.31894 12.2455 2.75 12.2455Z" fill="white" stroke="white" stroke-width="0.2"/>
<path d="M2.75 19.5795H19.25C19.6811 19.5795 20.0375 19.2231 20.0375 18.792C20.0375 18.3609 19.6811 18.0045 19.25 18.0045H2.75C2.31894 18.0045 1.9625 18.3609 1.9625 18.792C1.9625 19.2231 2.31894 19.5795 2.75 19.5795Z" fill="white" stroke="white" stroke-width="0.2"/>
</svg>
