<?xml version="1.0" encoding="utf-8"?>
<svg version="1.1" xmlns="http://www.w3.org/2000/svg" xmlns:xlink="http://www.w3.org/1999/xlink" x="0px" y="0px"
	 viewBox="0 0 30 29" xml:space="preserve">

	<path d="M13.9,16.3c-0.2,0-0.4-0.1-0.6-0.3c-0.2-0.2-0.2-0.5-0.1-0.8l1.9-3.7c-0.6-1.1-0.9-2.4-0.9-3.7
		c0-4.4,3.6-8,7.9-8s7.9,3.6,7.9,8s-3.6,8-7.9,8c-1.2,0-2.3-0.3-3.4-0.8l-4.8,1.2C14,16.3,14,16.3,13.9,16.3z M16.6,11.9l-1.3,2.6
		l3.6-0.9c0.2,0,0.3,0,0.5,0.1c0.9,0.5,1.9,0.7,3,0.7c3.6,0,6.5-3,6.5-6.6c0-3.7-2.9-6.6-6.5-6.6s-6.5,3-6.5,6.6
		c0,1.2,0.3,2.3,0.9,3.3C16.7,11.4,16.7,11.6,16.6,11.9L16.6,11.9z"/>
	<path d="M19.4,29.2c-0.4,0-0.6,0-0.6,0c-0.3,0-9.3-1.1-14.2-7.6C-0.5,15.7-0.2,7.1-0.2,6.7c0,0,0-1.8,1.2-3.4
		c1-1.3,2.7-2,4.3-1.8c1,0.1,1.9,0.6,2.4,1.3c0,0,0,0.1,0.1,0.1l1.9,3.3c0.6,1.1,0.8,2.3,0.6,3.4c-0.1,0.4-0.2,0.8-0.4,1.2
		c-0.4,0.7-0.7,1.3-0.9,1.6c-0.3,0.5-0.3,1.2,0,1.6l0,0l4.2,5l0,0c0.4,0.3,1,0.4,1.5,0.2l0.3-0.1c0.4-0.1,0.9-0.3,1.5-0.6
		c0.4-0.2,0.8-0.2,1.2-0.3c1.1-0.1,2.3,0.3,3.3,1.1l2.9,2.4c0.1,0,0.1,0.1,0.1,0.1c0.6,0.7,0.9,1.6,0.9,2.6
		c-0.1,1.6-1,3.1-2.5,3.9C21.2,29.1,20.1,29.2,19.4,29.2z M4.8,2.8c-1,0-2,0.5-2.7,1.4C1.2,5.4,1.2,6.8,1.2,6.8
		c0,0.1-0.3,8.5,4.5,13.9c4.6,6,13.2,7,13.3,7c0,0,1.3,0.2,2.6-0.5c1.1-0.6,1.8-1.6,1.8-2.8c0-0.7-0.2-1.2-0.5-1.6L20,20.5
		c-0.7-0.6-1.6-0.9-2.3-0.8c-0.3,0-0.5,0.1-0.8,0.2c-0.6,0.3-1.1,0.5-1.5,0.6l-0.3,0.1c-1.1,0.4-2.2,0.2-3-0.5L12,20l-4.3-5.1
		l-0.1-0.1c-0.5-0.9-0.5-2.1,0-3c0.2-0.4,0.5-1,1-1.7c0.1-0.2,0.2-0.5,0.3-0.7c0.2-0.8,0-1.7-0.5-2.5L6.6,3.6
		C6.2,3.2,5.7,2.9,5.1,2.8C5,2.8,4.9,2.8,4.8,2.8z"/>
	<path d="M25.5,7.1h-6.4c-0.4,0-0.7-0.3-0.7-0.7s0.3-0.7,0.7-0.7h6.4c0.4,0,0.7,0.3,0.7,0.7S25.9,7.1,25.5,7.1z"/>
	<path d="M25.5,10.3h-6.4c-0.4,0-0.7-0.3-0.7-0.7s0.3-0.7,0.7-0.7h6.4c0.4,0,0.7,0.3,0.7,0.7S25.9,10.3,25.5,10.3z"/>

</svg>
