<?xml version="1.0" encoding="utf-8"?>
<svg version="1.1" xmlns="http://www.w3.org/2000/svg" xmlns:xlink="http://www.w3.org/1999/xlink" x="0px" y="0px"
	 viewBox="0 0 31 35" xml:space="preserve">

		<path d="M19.7,12c0-2.6-2.1-4.7-4.7-4.7s-4.7,2.1-4.7,4.7s2.1,4.7,4.7,4.7S19.7,14.6,19.7,12z M11.7,12
			c0-1.8,1.5-3.3,3.3-3.3c1.8,0,3.3,1.5,3.3,3.3s-1.5,3.3-3.3,3.3C13.2,15.3,11.7,13.8,11.7,12z M30.6,31.7l-5.4-10
			c-0.1-0.2-0.4-0.4-0.6-0.4h-3.9c2.1-3.3,4.1-7,4.1-9.4c0-5.3-4.4-9.6-9.7-9.6s-9.7,4.3-9.7,9.6c0,2.4,1.9,6.1,4,9.4h-4
			c-0.3,0-0.5,0.2-0.6,0.4l-4.4,10c-0.1,0.2-0.1,0.5,0.1,0.7c0.1,0.2,0.3,0.3,0.6,0.3h29c0.2,0,0.5-0.1,0.6-0.3
			C30.7,32.1,30.7,31.9,30.6,31.7z M6.7,11.9c0-4.5,3.7-8.2,8.3-8.2c4.6,0,8.3,3.7,8.3,8.2c0,3.6-5.6,11.4-8.3,15
			C12.3,23.4,6.7,15.5,6.7,11.9z M2.1,31.3l1.6-3.7c0.1,0.1,0.2,0.1,0.3,0.1h5.2c0.3,0,0.6-0.2,0.7-0.5l0.8-3
			c0.1-0.4-0.1-0.8-0.5-0.9c-0.4-0.1-0.8,0.1-0.9,0.5l-0.7,2.5H4.3l1.6-3.6h4.4c2.1,3.1,4,5.5,4.2,5.7c0.1,0.2,0.3,0.3,0.5,0.3
			s0.4-0.1,0.5-0.3c0.2-0.2,2.1-2.7,4.2-5.7h4.4l1.4,2.6h-4.8c-0.3,0-0.5,0.2-0.6,0.4l-0.8,2c-0.1,0.4,0,0.8,0.4,0.9
			c0.1,0,0.2,0.1,0.3,0.1c0.3,0,0.5-0.2,0.6-0.4l0.6-1.6H26c0.1,0,0.2,0,0.3-0.1l2.5,4.7H2.1z"/>

</svg>
