<?xml version="1.0" encoding="utf-8"?>
<svg version="1.1" xmlns="http://www.w3.org/2000/svg" xmlns:xlink="http://www.w3.org/1999/xlink" x="0px" y="0px"
	 viewBox="0 0 30 29" xml:space="preserve">

		<path  d="M0.5,11.1c-0.4,0-0.7-0.3-0.7-0.7V6.8c0-0.4,0.3-0.7,0.7-0.7s0.7,0.3,0.7,0.7v3.7C1.2,10.8,0.9,11.1,0.5,11.1
			z"/>
		<path  d="M15,10.8c-0.4,0-0.7-0.3-0.7-0.7V7.5H0.5C0.3,7.5,0,7.3-0.1,7.1c-0.1-0.2-0.1-0.5,0-0.7l3.3-6.2
			C3.3,0,3.6-0.2,3.8-0.2H15c0.4,0,0.7,0.3,0.7,0.7v9.6C15.7,10.5,15.4,10.8,15,10.8z M1.7,6.1h12.6V1.2H4.2L1.7,6.1z"/>
		<path  d="M5.3,11.1c-0.4,0-0.7-0.3-0.7-0.7V6.8c0-0.1,0-0.2,0.1-0.3l2.9-6.2c0.2-0.4,0.6-0.5,0.9-0.3
			C8.8,0,9,0.5,8.8,0.8L6,6.9v3.4C6,10.7,5.7,11.1,5.3,11.1z"/>
		<path  d="M10.2,11.8c-0.4,0-0.7-0.3-0.7-0.7V6.8c0-0.1,0-0.2,0-0.2l2.1-6.2c0.1-0.4,0.5-0.6,0.9-0.4
			C12.9,0,13.1,0.4,13,0.8l-2.1,6.1v4.2C10.9,11.5,10.6,11.8,10.2,11.8z"/>
		<path  d="M3.2,13.3H2.6c-1.5,0-2.8-1.3-2.8-3c0-0.4,0.3-0.7,0.7-0.7s0.7,0.3,0.7,0.7c0,0.9,0.6,1.6,1.4,1.6h0.6
			c0.8,0,1.4-0.7,1.4-1.6C4.6,10,5,9.7,5.3,9.7S6,10,6,10.4C6,12,4.8,13.3,3.2,13.3z"/>
		<path  d="M8.1,13.3H7.4c-1.5,0-2.8-1.3-2.8-3C4.6,10,5,9.7,5.3,9.7S6,10,6,10.4c0,0.9,0.6,1.6,1.4,1.6h0.6
			c0.8,0,1.4-0.7,1.4-1.6c0-0.4,0.3-0.7,0.7-0.7s0.7,0.3,0.7,0.7C10.9,12,9.6,13.3,8.1,13.3z"/>
		<path  d="M12.9,13.3h-0.6c-1.5,0-2.8-1.3-2.8-3c0-0.4,0.3-0.7,0.7-0.7s0.7,0.3,0.7,0.7c0,0.9,0.6,1.6,1.4,1.6h0.6
			c0.8,0,1.4-0.7,1.4-1.6c0-0.4,0.3-0.7,0.7-0.7s0.7,0.3,0.7,0.7C15.7,12,14.5,13.3,12.9,13.3z"/>
		<path  d="M15,10.8c-0.4,0-0.7-0.3-0.7-0.7V0.5c0-0.4,0.3-0.7,0.7-0.7h11.2c0.3,0,0.5,0.1,0.6,0.4l3.3,6.2
			c0.1,0.2,0.1,0.5,0,0.7c-0.1,0.2-0.4,0.3-0.6,0.3H15.7v2.7C15.7,10.5,15.4,10.8,15,10.8z M15.7,6.1h12.6l-2.6-4.8H15.7V6.1z"/>
		<path  d="M24.7,11.1c-0.4,0-0.7-0.3-0.7-0.7V6.9l-2.8-6.1c-0.2-0.4,0-0.8,0.3-0.9c0.3-0.2,0.8,0,0.9,0.3l2.9,6.2
			c0,0.1,0.1,0.2,0.1,0.3v3.6C25.4,10.7,25,11.1,24.7,11.1z"/>
		<path  d="M19.8,11.8c-0.4,0-0.7-0.3-0.7-0.7V6.9L17,0.7c-0.1-0.4,0.1-0.8,0.4-0.9c0.4-0.1,0.8,0.1,0.9,0.4l2.1,6.2
			c0,0.1,0,0.1,0,0.2v4.4C20.5,11.5,20.2,11.8,19.8,11.8z"/>
		<path  d="M27.4,13.3h-0.6c-1.5,0-2.8-1.3-2.8-3c0-0.4,0.3-0.7,0.7-0.7s0.7,0.3,0.7,0.7c0,0.9,0.6,1.6,1.4,1.6h0.6
			c0.8,0,1.4-0.7,1.4-1.6c0-0.4,0.3-0.7,0.7-0.7s0.7,0.3,0.7,0.7C30.2,12,28.9,13.3,27.4,13.3z"/>
		<path  d="M22.6,13.3h-0.6c-1.5,0-2.8-1.3-2.8-3c0-0.4,0.3-0.7,0.7-0.7s0.7,0.3,0.7,0.7c0,0.9,0.6,1.6,1.4,1.6h0.6
			c0.8,0,1.4-0.7,1.4-1.6c0-0.4,0.3-0.7,0.7-0.7s0.7,0.3,0.7,0.7C25.4,12,24.1,13.3,22.6,13.3z"/>
		<path  d="M17.7,13.3h-0.6c-1.5,0-2.8-1.3-2.8-3c0-0.4,0.3-0.7,0.7-0.7s0.7,0.3,0.7,0.7c0,0.9,0.6,1.6,1.4,1.6h0.6
			c0.8,0,1.4-0.7,1.4-1.6c0-0.4,0.3-0.7,0.7-0.7s0.7,0.3,0.7,0.7C20.5,12,19.3,13.3,17.7,13.3z"/>
		<path  d="M29.5,10.8c-0.4,0-0.7-0.3-0.7-0.7V6.8c0-0.4,0.3-0.7,0.7-0.7s0.7,0.3,0.7,0.7v3.4
			C30.2,10.5,29.9,10.8,29.5,10.8z"/>
		<path  d="M27.2,29.2H2.8c-0.4,0-0.7-0.3-0.7-0.7V12.6c0-0.4,0.3-0.7,0.7-0.7s0.7,0.3,0.7,0.7v15.2h23.1V12.6
			c0-0.4,0.3-0.7,0.7-0.7s0.7,0.3,0.7,0.7v15.9C27.9,28.9,27.6,29.2,27.2,29.2z"/>
		<path  d="M20.8,19.4H9.2c-1.1,0-2.1-0.9-2.1-2.1s0.9-2.1,2.1-2.1h11.7c1.1,0,2.1,0.9,2.1,2.1
			C22.9,18.4,22,19.4,20.8,19.4C20.9,19.4,20.8,19.4,20.8,19.4z M9.2,16.6c-0.4,0-0.7,0.3-0.7,0.7S8.8,18,9.2,18h11.7
			c0.4,0,0.7-0.3,0.7-0.7s-0.3-0.7-0.7-0.7H9.2z"/>
		<path  d="M11.3,28.6c-0.4,0-0.7-0.3-0.7-0.7v-8.8c0-0.4,0.3-0.7,0.7-0.7s0.7,0.3,0.7,0.7v8.8
			C12,28.3,11.7,28.6,11.3,28.6z"/>
		<path  d="M18.7,28.6c-0.4,0-0.7-0.3-0.7-0.7v-8.8c0-0.4,0.3-0.7,0.7-0.7s0.7,0.3,0.7,0.7v8.8
			C19.4,28.3,19.1,28.6,18.7,28.6z"/>

</svg>
