<svg width="21" height="22" viewBox="0 0 21 22" fill="none" xmlns="http://www.w3.org/2000/svg">
<path d="M20.1491 15.3931C19.5915 14.6268 18.8189 14.0665 17.9165 13.7675L13.9642 12.441C14.6964 11.7146 15.3055 10.8841 15.769 9.97388C15.8429 9.84544 15.928 9.72806 16.0266 9.62619C16.5998 9.0216 16.8932 8.19998 16.8327 7.38057C16.817 6.94207 16.5953 6.54123 16.2326 6.29319L16.2482 6.08945C16.2841 5.65317 16.3199 5.2036 16.3132 4.7496C16.2841 2.54606 15.0323 1.01797 12.6945 0.331443C11.0061 -0.186777 9.18106 -0.0937629 7.56654 0.594983C6.72681 0.885098 6.008 1.41439 5.49072 2.12971C4.97345 2.84503 4.69354 3.68659 4.68682 4.56358C4.67338 5.07294 4.70697 5.57787 4.74056 6.08502C4.74504 6.15367 4.75176 6.22454 4.75624 6.29541C4.31958 6.59881 4.08445 7.12367 4.15163 7.63968C4.16955 8.33728 4.4293 9.01495 4.8794 9.54646C5.00032 9.70149 5.11452 9.86537 5.21529 10.0359C5.33397 10.2286 5.45713 10.4146 5.58925 10.5895C5.72585 10.7667 5.8602 10.9483 5.99232 11.1299L6.00352 11.1454C6.32374 11.5994 6.67978 12.0335 7.06046 12.4365L3.08573 13.7697C2.18106 14.0687 1.40627 14.629 0.848688 15.3953C0.291107 16.1593 0 17.0629 0 18.0063V20.5974C0 21.3703 0.635956 21.9993 1.41747 21.9993H19.5825C20.364 21.9993 21 21.3681 21 20.5952V18.0019C21 17.0584 20.7067 16.1571 20.1491 15.3908V15.3931ZM11.9869 20.6705H8.99968L10.4933 18.0882L11.9869 20.6705ZM13.7111 2.92033C13.2901 2.80738 12.8468 2.89154 12.4885 3.15508C10.921 4.53479 8.87204 5.24789 6.04607 5.39184C6.03263 5.13273 6.02143 4.86033 6.03039 4.59237C6.03263 3.32561 6.85445 2.21387 8.07486 1.8241L8.08381 1.81967C8.84069 1.49633 9.64235 1.33245 10.4664 1.33024C11.0912 1.33245 11.7115 1.42546 12.3205 1.60485C13.3305 1.80195 14.1724 2.4309 14.636 3.31896C14.3493 3.14179 14.0403 3.00891 13.7111 2.91812V2.92033ZM13.3148 4.21367C13.3327 4.21367 13.3484 4.21367 13.3596 4.21367C14.1702 4.41963 14.7793 5.07958 14.9136 5.89677V5.90563C14.9136 5.92778 14.9136 5.94993 14.9114 5.97207L14.9069 6.02079C14.889 6.2334 14.8733 6.44821 14.8576 6.66525L14.8509 6.78262H14.8621C14.8935 7.05059 15.0905 7.2787 15.3615 7.34735C15.4846 7.37835 15.4869 7.39607 15.4914 7.46251L15.4958 7.53338C15.5115 7.9763 15.3458 8.41258 15.0323 8.73591C14.8576 8.92194 14.7076 9.1279 14.5845 9.35379C14.1366 10.2574 13.5275 11.0613 12.7774 11.7411C12.1526 12.2882 11.3509 12.5893 10.5179 12.5893H10.5134C9.68042 12.5893 8.87876 12.2904 8.26072 11.75C7.82406 11.327 7.4277 10.8553 7.07838 10.3482C6.93282 10.1422 6.79399 9.95174 6.65067 9.77014C6.54095 9.62619 6.4469 9.48002 6.37076 9.35601L6.35509 9.32943C6.22521 9.11018 6.07742 8.89979 5.91619 8.69826C5.64971 8.39043 5.49744 7.99845 5.48848 7.59317C5.48177 7.38278 5.48624 7.38057 5.58477 7.36064L5.96321 7.14139C6.06398 7.02623 6.1222 6.87564 6.1222 6.71618C9.23481 6.55452 11.5211 5.75504 13.3103 4.20702L13.3148 4.21367ZM9.51472 15.0741C9.49904 15.0631 9.49008 15.0454 9.49008 15.0254C9.49008 15.0143 9.49008 15.0033 9.4968 14.9922L10.4776 13.9137C10.4776 13.9137 10.4955 13.9137 10.5067 13.9137L11.4718 14.9745C11.4853 14.9878 11.492 15.0077 11.4898 15.0276C11.4898 15.0476 11.4786 15.0653 11.4629 15.0786L10.4888 15.8847L9.75208 15.2735H9.76328L9.51472 15.0764V15.0741ZM8.36596 13.3977C8.54511 13.4885 8.7332 13.5682 8.92354 13.6346L8.516 14.0798C8.26072 14.361 8.1286 14.7397 8.15323 15.1162C8.1801 15.4949 8.36372 15.8493 8.65707 16.0929L9.63116 16.9012L7.45234 20.6683H1.41747C1.37716 20.6683 1.34357 20.635 1.34357 20.593V17.9997C1.34357 17.3353 1.54958 16.7019 1.94146 16.1637C2.33333 15.6256 2.87748 15.2314 3.51568 15.0232L8.36596 13.3955V13.3977ZM12.5646 15.898H12.5221C12.7012 15.6765 12.8109 15.4041 12.8311 15.1184C12.858 14.7397 12.7258 14.3633 12.4683 14.082L12.0608 13.6324C12.2534 13.566 12.4415 13.4885 12.6251 13.3977L17.4843 15.0276L17.5022 15.0343C18.1315 15.2447 18.6667 15.6367 19.0541 16.1682C19.4459 16.7063 19.652 17.3419 19.652 18.0041V20.5974C19.652 20.6173 19.643 20.635 19.6296 20.6505C19.6161 20.6661 19.596 20.6727 19.5781 20.6727H13.5297L11.3509 16.9056L12.5601 15.9024L12.5646 15.898Z" fill="#FF683C"/>
</svg>
