<svg viewBox="0 0 63 66" xmlns="http://www.w3.org/2000/svg">

<path fill-rule="evenodd" clip-rule="evenodd" d="M54.63 37.3876C53.25 36.0067 51 36.0067 49.605 37.3876C48.21 38.7537 48.21 40.9809 49.605 42.3618C50.985 43.7426 53.235 43.7426 54.63 42.3618C55.29 41.7084 55.665 40.8027 55.665 39.8821C55.665 38.9467 55.29 38.0558 54.63 37.4025V37.3876ZM52.125 34.3586C55.2 34.3586 57.69 36.8234 57.69 39.8673C57.69 42.9111 55.2 45.3759 52.125 45.3759C49.05 45.3759 46.56 42.9111 46.56 39.8673C46.56 38.4121 47.145 37.0016 48.195 35.9622C49.245 34.9228 50.655 34.3438 52.14 34.3438L52.125 34.3586ZM53.13 55.6508V63.1046C53.13 64.7082 51.81 66.0148 50.19 66.0148H2.94C1.32 66.0148 0 64.7082 0 63.1046V10.1858V10.1561V10.1264V10.0967V10.067C0 10.067 0 10.0373 0 10.0225C0 10.0225 0 9.9928 0 9.97795C0 9.97795 0.03 9.85917 0.045 9.81462V9.77008V9.72553V9.69584V9.66614V9.63645H0.15C0.15 9.63645 0.18 9.5919 0.195 9.57705V9.54736V9.51766L7.89 0.371204C8.085 0.133633 8.37 0 8.67 0H50.19C51.81 0 53.13 1.30664 53.13 2.91024V28.8351C53.61 29.0281 54.075 29.2657 54.495 29.5627C54.78 29.7705 55.095 29.9339 55.41 30.0675C55.755 30.1566 56.115 30.2011 56.475 30.2011C58.185 30.0229 59.76 31.1514 60.105 32.8292C60.21 33.1559 60.36 33.4677 60.555 33.7647C60.78 34.0319 61.035 34.2547 61.32 34.4625C62.025 34.908 62.565 35.5613 62.88 36.3334C63.09 37.1352 63.045 37.9816 62.775 38.7685C62.67 39.1249 62.595 39.5109 62.58 39.8821C62.61 40.2533 62.67 40.6245 62.775 40.9957C63.06 41.7827 63.09 42.629 62.88 43.4308C62.565 44.1881 62.025 44.8414 61.32 45.3017C61.035 45.5096 60.78 45.7323 60.555 45.9995C60.375 46.2965 60.225 46.6083 60.12 46.935C59.91 47.7071 59.46 48.4049 58.845 48.9246V58.3532C58.845 58.8432 58.455 59.2292 57.96 59.2292C57.735 59.2292 57.525 59.155 57.375 59.0065L53.16 55.6805L53.13 55.6508ZM51.18 53.6612C51.33 53.29 51.69 53.0524 52.095 53.0376C52.365 52.9633 52.65 53.0376 52.86 53.2009L57.06 56.512V49.4889C56.865 49.5037 56.67 49.5186 56.475 49.5334C56.115 49.5334 55.755 49.578 55.41 49.667C55.08 49.8007 54.78 49.9789 54.495 50.1719C53.805 50.7064 52.98 51.0182 52.125 51.0776C51.255 51.0182 50.43 50.7064 49.755 50.1719C49.47 49.964 49.155 49.8007 48.84 49.667C48.495 49.578 48.135 49.5334 47.775 49.5334H47.58V56.512L51.195 53.6612H51.18ZM3.15 9.17615H6.975C7.485 9.17615 7.89 8.76041 7.89 8.27042V3.50416L3.15 9.191V9.17615ZM8.01 50.9737H28.08C28.635 50.9737 29.085 50.5282 29.085 49.9789C29.085 49.4295 28.635 48.984 28.08 48.984H8.01C7.455 48.984 7.005 49.4295 7.005 49.9789C7.005 50.5282 7.455 50.9737 8.01 50.9737ZM43.26 37.4619C43.23 37.2985 43.23 37.1204 43.275 36.9422C43.5 36.571 43.815 36.2443 44.175 36.0216C44.595 35.7098 44.985 35.3534 45.315 34.9377C45.615 34.5071 45.855 34.0319 46.02 33.5271C46.125 33.1114 46.335 32.7402 46.62 32.4135C47.01 32.2353 47.445 32.1611 47.88 32.1759C48.42 32.1759 48.945 32.0868 49.455 31.9384C49.95 31.7602 50.4 31.5226 50.835 31.2256C51.21 30.9287 51.645 30.7208 52.125 30.6317C52.59 30.7208 53.04 30.9287 53.415 31.2256C53.835 31.5226 54.3 31.7602 54.795 31.9384C55.305 32.0868 55.845 32.1611 56.37 32.1759C56.805 32.1611 57.24 32.2353 57.63 32.4135C57.915 32.7253 58.125 33.1114 58.23 33.5271C58.395 34.0319 58.635 34.4922 58.92 34.9377C59.25 35.3534 59.625 35.7098 60.06 36.0216C60.435 36.2592 60.735 36.571 60.96 36.9422C61.005 37.3876 60.96 37.8479 60.795 38.2637C60.645 38.7834 60.555 39.3179 60.54 39.8524C60.555 40.387 60.645 40.9215 60.795 41.4412C60.945 41.8718 61.005 42.3172 60.96 42.7627C60.735 43.1339 60.42 43.4605 60.06 43.6832C59.64 43.9951 59.25 44.3514 58.92 44.7672C58.62 45.1978 58.38 45.6729 58.215 46.1777C58.11 46.5935 57.9 46.9647 57.615 47.2913C57.225 47.4695 56.79 47.5438 56.355 47.5289C55.815 47.5289 55.29 47.618 54.78 47.7665C54.285 47.9447 53.835 48.1822 53.4 48.4792C53.025 48.7762 52.59 48.984 52.11 49.0731C51.645 48.984 51.195 48.7762 50.82 48.4792C50.4 48.1822 49.935 47.9447 49.44 47.7665C48.93 47.618 48.39 47.5438 47.865 47.5289C47.43 47.5438 46.995 47.4695 46.605 47.2913C46.32 46.9795 46.125 46.5935 46.005 46.1777C45.84 45.6729 45.6 45.1978 45.3 44.7672C44.97 44.3514 44.595 43.9951 44.16 43.6832C43.785 43.4457 43.485 43.1339 43.26 42.7627C43.215 42.3172 43.26 41.8569 43.425 41.4412C43.575 40.9215 43.665 40.387 43.68 39.8524C43.665 39.3179 43.575 38.7834 43.425 38.2637L43.395 38.1449C43.395 38.1449 43.395 38.0409 43.395 37.9816C43.395 37.7885 43.335 37.6103 43.23 37.447L43.26 37.4619ZM8.01 39.0061H14.25C14.805 39.0209 15.27 38.5903 15.285 38.0261C15.3 37.4767 14.865 37.0164 14.295 37.0016C14.28 37.0016 14.265 37.0016 14.235 37.0016H7.995C7.44 37.0164 6.99 37.4767 7.005 38.0261C7.005 38.5606 7.455 38.9912 7.995 39.0061H8.01ZM8.01 44.9899H42.57C42.69 45.0938 42.81 45.1829 42.93 45.272C43.215 45.4799 43.47 45.7026 43.695 45.9699C43.875 46.2668 44.025 46.5786 44.13 46.9053C44.34 47.6922 44.79 48.3901 45.42 48.9098C45.45 48.9246 45.48 48.9543 45.51 48.9692H31.92C31.365 48.9692 30.915 49.4146 30.915 49.964C30.915 50.5134 31.365 50.9588 31.92 50.9588H45.795V54.9381H8.01C7.455 54.953 7.005 55.4133 7.02 55.9627C7.02 56.4972 7.47 56.9278 8.01 56.9426H45.81V58.3087C45.81 58.7838 46.2 59.1847 46.695 59.1847C46.89 59.1847 47.085 59.1105 47.25 58.9917L51.12 55.933V63.0749C51.12 63.5798 50.7 63.9807 50.205 63.9807H2.94C2.43 63.9807 2.025 63.5649 2.025 63.0749V11.1807H6.975C8.595 11.1807 9.915 9.87402 9.915 8.27042V2.0045H50.205C50.715 2.0045 51.12 2.42025 51.12 2.91024V28.8351C50.64 29.0281 50.175 29.2657 49.755 29.5627C49.47 29.7705 49.155 29.9339 48.84 30.0675C48.495 30.1566 48.135 30.2011 47.775 30.2011C46.065 30.0229 44.49 31.1514 44.145 32.8292C44.04 33.1559 43.89 33.4677 43.71 33.7647C43.485 34.0319 43.23 34.2547 42.945 34.4625C42.24 34.908 41.7 35.5613 41.385 36.3334C41.31 36.5561 41.265 36.7789 41.25 37.0164H18.105C17.55 37.0016 17.085 37.4322 17.07 37.9964C17.055 38.5458 17.49 39.0061 18.06 39.0209C18.075 39.0209 18.09 39.0209 18.12 39.0209H41.565C41.64 39.303 41.685 39.5852 41.7 39.8821C41.67 40.2533 41.61 40.6245 41.505 40.9957C41.295 41.649 41.22 42.3321 41.295 43.0002H8.01C7.455 43.0151 7.005 43.4754 7.02 44.0247C7.02 44.5593 7.47 44.9899 8.01 45.0047V44.9899Z" />
<path d="M18.7354 18.3795C18.1504 17.8004 17.4604 17.3401 16.6804 17.0134C15.9004 16.6868 15.0304 16.5234 14.1004 16.5234C13.1704 16.5234 12.3154 16.6868 11.5354 17.0134C10.7554 17.3401 10.0654 17.8004 9.48039 18.3795C8.89539 18.9585 8.44539 19.6564 8.13039 20.4285C7.81539 21.2155 7.65039 22.0766 7.65039 22.9972C7.65039 23.9178 7.81539 24.7642 8.13039 25.5511C8.44539 26.3381 8.91039 27.0359 9.49539 27.615C10.0804 28.1941 10.7704 28.6544 11.5504 28.981C12.3304 29.3077 13.2004 29.471 14.1154 29.471C15.0304 29.471 15.9154 29.3077 16.6954 28.981C17.4754 28.6544 18.1654 28.1941 18.7504 27.615C19.3354 27.0359 19.7854 26.3381 20.1154 25.5511C20.4304 24.7642 20.5954 23.903 20.5954 22.9972C20.5954 22.0915 20.4304 21.2155 20.1154 20.4285C19.8004 19.6415 19.3354 18.9585 18.7654 18.3795H18.7354ZM14.1154 27.8229C13.2154 27.8229 12.4054 27.615 11.7004 27.1844C10.9954 26.7687 10.4404 26.1896 10.0204 25.462C9.61539 24.7345 9.40539 23.903 9.40539 22.9824C9.40539 22.0618 9.61539 21.2303 10.0204 20.5027C10.4254 19.7752 10.9954 19.1961 11.7004 18.7804C12.4054 18.3646 13.2154 18.1419 14.1154 18.1419C15.0154 18.1419 15.8404 18.3498 16.5304 18.7804C17.2354 19.1961 17.7904 19.7752 18.1954 20.5027C18.6004 21.2303 18.8104 22.0618 18.8104 22.9824C18.8104 23.903 18.6004 24.7345 18.1954 25.462C17.7904 26.1896 17.2354 26.7687 16.5304 27.1844C15.8254 27.6002 15.0154 27.8229 14.1154 27.8229Z" />
<path d="M31.5612 16.6875H29.4612L24.6312 21.9437V16.6875H22.9512V29.3084H24.6312V23.384L29.7162 29.2936L29.7312 29.3084H31.8312L26.0412 22.6119L31.5612 16.6875Z" />
<path d="M35.6859 16.6875V24.6016C35.6859 25.0619 35.6559 25.5073 35.5809 25.9082C35.5059 26.3091 35.4009 26.6506 35.2659 26.9476C35.1159 27.2445 34.9509 27.4673 34.7559 27.6306C34.5759 27.7791 34.3359 27.8682 34.0809 27.8682H34.0059V29.3233H34.0809C34.7859 29.3233 35.3709 29.1154 35.8509 28.7145C36.3159 28.3136 36.6759 27.7791 36.9159 27.1109C37.1559 26.4576 37.2759 25.73 37.2759 24.9728V18.2763H42.7059V29.3233H44.3859V16.7023H35.6859V16.6875Z" />

</svg>
