<svg viewBox="0 0 58 66" fill="none" xmlns="http://www.w3.org/2000/svg">

<path d="M57.3362 40.3776C56.3407 38.7849 54.5295 38.0572 52.6769 38.5515C50.4232 39.1419 47.4921 40.9542 43.1784 43.865C42.9157 44.0435 42.653 44.1945 42.3765 44.373C42.5424 43.5767 42.5009 42.849 42.3765 42.3272C41.9755 41.1327 41.2289 40.2403 40.192 39.746C38.7403 39.0458 36.7908 39.1281 34.3713 39.9931C30.9286 41.2151 27.3753 42.0389 23.5179 42.492C23.0754 42.5469 22.3841 42.6156 21.5684 42.6979C18.0151 43.0412 15.2361 43.3432 14.3651 43.6728C10.2449 45.2792 7.79771 48.7117 6.73311 50.5515L6.18007 50.0023C5.8206 49.6453 5.17078 49.6453 4.8113 50.0023L0.248726 54.5332C-0.124575 54.9039 -0.124575 55.5217 0.248726 55.8924L10.1481 65.7231C10.3279 65.9016 10.5767 66.0114 10.8394 66.0114C11.1021 66.0114 11.3372 65.9153 11.5307 65.7231L16.0933 61.1922C16.4666 60.8215 16.4666 60.2037 16.0933 59.8329L15.8168 59.5583C16.909 58.9542 18.5129 58.3776 19.3009 58.3776H19.3148C21.3334 58.3913 24.6654 58.405 29.0206 58.3501C36.6249 58.2403 41.8511 55.0824 42.0585 54.9588L53.5202 48.0664C54.9443 47.2288 56.0642 46.3501 56.8661 45.4577C58.1519 44.016 58.3317 42.0252 57.3086 40.405L57.3362 40.3776ZM10.8671 63.6773L2.33645 55.2059L5.53025 52.0343L14.0609 60.5057L10.8671 63.6773ZM55.4421 44.167C54.7784 44.9085 53.8106 45.6636 52.5524 46.405L41.0769 53.2975C41.0769 53.2975 36.058 56.3181 29.0206 56.4142C24.6792 56.4691 21.361 56.4691 19.3562 56.4416C18.0013 56.4279 15.7891 57.2929 14.4342 58.1579L8.18484 51.9519C8.93144 50.5652 11.1851 46.9817 15.0978 45.4577C15.7891 45.1831 19.8263 44.7986 21.7758 44.6064C22.6053 44.524 23.3105 44.4554 23.7667 44.4005C27.7763 43.9336 31.454 43.0824 35.0349 41.8055C36.9152 41.1327 38.4223 41.0229 39.3624 41.476C39.9293 41.7506 40.3164 42.2174 40.5238 42.8352C40.5653 43.0549 40.9109 45.0595 38.7126 46.3089C32.5047 49 26.9329 48.8215 26.8637 48.8215C26.3245 48.7529 25.8821 49.2059 25.8544 49.7414C25.8268 50.2769 26.2416 50.7162 26.7808 50.7437C27.1541 50.7712 36.0027 51.0732 44.2707 45.4577C48.294 42.7254 51.1975 40.9268 53.1608 40.405C54.3636 40.0892 55.2485 40.7071 55.6771 41.3936C56.1195 42.1075 56.2854 43.2059 55.4282 44.167H55.4421Z" />
<path d="M13.4813 22.9291L12.4858 27.5149C12.3752 27.9954 12.6655 28.476 13.1356 28.627L17.6291 30.0687L19.0808 34.5309C19.2329 34.9977 19.7168 35.286 20.2007 35.1762L24.8186 34.1876L28.3304 37.3318C28.5101 37.4966 28.7452 37.5789 28.9802 37.5789C29.2152 37.5789 29.4503 37.4966 29.63 37.3318L33.1418 34.1876L37.7597 35.1762C38.2574 35.286 38.7275 34.9977 38.8796 34.5309L40.3313 30.0687L44.8248 28.627C45.2949 28.476 45.5714 27.9954 45.4746 27.5149L44.4791 22.9291L47.6453 19.4416C47.9771 19.0709 47.9771 18.5217 47.6453 18.151L44.4791 14.6636L45.4746 10.0778C45.5852 9.59725 45.2949 9.11671 44.8248 8.96568L40.3313 7.52403L38.8796 3.06178C38.7275 2.59497 38.2574 2.30664 37.7597 2.41648L33.1418 3.40503L29.6438 0.24714C29.2705 -0.0823799 28.7175 -0.0823799 28.3442 0.24714L24.8324 3.3913L20.2145 2.40275C19.7306 2.29291 19.2467 2.58124 19.0946 3.04806L17.6429 7.5103L13.1494 8.95195C12.6794 9.10297 12.4028 9.58352 12.4996 10.0641L13.4951 14.6499L10.3289 18.1373C9.99712 18.508 9.99712 19.0572 10.3289 19.4279L13.4951 22.9153L13.4813 22.9291ZM15.251 15.5973C15.4584 15.3638 15.5413 15.0481 15.486 14.746L14.5735 10.5172L18.7075 9.18536C18.9978 9.08924 19.2329 8.85583 19.3297 8.56751L20.6708 4.46224L24.9292 5.36842C25.2334 5.43707 25.5514 5.35469 25.7864 5.13501L29.0078 2.23799L32.2293 5.13501C32.4643 5.34096 32.7823 5.42334 33.0865 5.36842L37.3449 4.46224L38.686 8.56751C38.7828 8.85583 39.0179 9.08924 39.3082 9.18536L43.4422 10.5172L42.5297 14.746C42.4605 15.0481 42.5435 15.3638 42.7647 15.5973L45.682 18.7963L42.7647 21.9954C42.5573 22.2288 42.4744 22.5446 42.5297 22.8467L43.4422 27.0755L39.3082 28.3936C39.0179 28.4897 38.7828 28.7231 38.686 29.0114L37.3449 33.1167L33.0865 32.2105C32.7823 32.1419 32.4643 32.2243 32.2293 32.4439L29.0078 35.341L25.7864 32.4439C25.6067 32.2792 25.3716 32.1968 25.1366 32.1968C25.0674 32.1968 24.9983 32.1968 24.9292 32.2243L20.6708 33.1304L19.3297 29.0252C19.2329 28.7368 18.9978 28.5034 18.7075 28.4073L14.5735 27.0892L15.486 22.8604C15.5552 22.5584 15.4722 22.2426 15.251 22.0092L12.3337 18.8101L15.251 15.611V15.5973Z" />
<path d="M23.698 17.9695C26.0484 17.9695 27.9702 16.061 27.9702 13.7269C27.9702 11.3928 26.0484 9.48438 23.698 9.48438C21.3476 9.48438 19.4258 11.3928 19.4258 13.7269C19.4258 16.061 21.3476 17.9695 23.698 17.9695ZM23.698 11.4066C24.9838 11.4066 26.0346 12.4501 26.0346 13.7269C26.0346 15.0038 24.9838 16.0473 23.698 16.0473C22.4122 16.0473 21.3614 15.0038 21.3614 13.7269C21.3614 12.4501 22.4122 11.4066 23.698 11.4066Z" />
<path d="M30.0293 23.8754C30.0293 26.2095 31.9511 28.1179 34.3015 28.1179C36.6519 28.1179 38.5738 26.2095 38.5738 23.8754C38.5738 21.5413 36.6519 19.6328 34.3015 19.6328C31.9511 19.6328 30.0293 21.5413 30.0293 23.8754ZM36.6381 23.8754C36.6381 25.1523 35.5873 26.1957 34.3015 26.1957C33.0157 26.1957 31.9649 25.1523 31.9649 23.8754C31.9649 22.5985 33.0157 21.555 34.3015 21.555C35.5873 21.555 36.6381 22.5985 36.6381 23.8754Z" />
<path d="M22.5233 27.9408C22.6892 28.0643 22.8827 28.1192 23.0901 28.1192C23.3943 28.1192 23.6846 27.9819 23.8782 27.7211L35.893 11.0117C36.1971 10.5861 36.1004 9.98194 35.6718 9.66615C35.2432 9.35036 34.6348 9.4602 34.3168 9.88583L22.302 26.5952C21.9979 27.0208 22.0946 27.625 22.5233 27.9408Z" />

</svg>
