<?xml version="1.0" encoding="utf-8"?>
<svg version="1.1" xmlns="http://www.w3.org/2000/svg" xmlns:xlink="http://www.w3.org/1999/xlink" x="0px" y="0px"
	 viewBox="0 0 54 57" xml:space="preserve">

		<path fill-rule="evenodd" clip-rule="evenodd" d="M46.8,32.3c-1.2-1.2-3.1-1.2-4.3,0c-1.2,1.2-1.2,3.1,0,4.3c1.2,1.2,3.1,1.2,4.3,0c0.6-0.6,0.9-1.3,0.9-2.1
			C47.7,33.6,47.4,32.9,46.8,32.3L46.8,32.3z M44.7,29.7c2.6,0,4.8,2.1,4.8,4.8s-2.1,4.8-4.8,4.8s-4.8-2.1-4.8-4.8
			c0-1.3,0.5-2.5,1.4-3.4C42.2,30.2,43.4,29.7,44.7,29.7L44.7,29.7z M45.5,48.1v6.4c0,1.4-1.1,2.5-2.5,2.5H2.5C1.1,57,0,55.9,0,54.5
			V8.8v0v0v0v0c0,0,0,0,0,0c0,0,0,0,0,0c0,0,0-0.1,0-0.1v0v0v0v0v0h0.1c0,0,0,0,0-0.1v0v0l6.6-7.9C6.9,0.1,7.2,0,7.4,0H43
			c1.4,0,2.5,1.1,2.5,2.5v22.4c0.4,0.2,0.8,0.4,1.2,0.6c0.2,0.2,0.5,0.3,0.8,0.4c0.3,0.1,0.6,0.1,0.9,0.1c1.5-0.2,2.8,0.8,3.1,2.3
			c0.1,0.3,0.2,0.6,0.4,0.8c0.2,0.2,0.4,0.4,0.7,0.6c0.6,0.4,1.1,0.9,1.3,1.6c0.2,0.7,0.1,1.4-0.1,2.1c-0.1,0.3-0.2,0.6-0.2,1
			c0,0.3,0.1,0.6,0.2,1c0.2,0.7,0.3,1.4,0.1,2.1c-0.3,0.7-0.7,1.2-1.3,1.6c-0.2,0.2-0.5,0.4-0.7,0.6c-0.2,0.3-0.3,0.5-0.4,0.8
			c-0.2,0.7-0.6,1.3-1.1,1.7v8.1c0,0.4-0.3,0.8-0.8,0.8c-0.2,0-0.4-0.1-0.5-0.2L45.5,48.1L45.5,48.1z M43.9,46.3
			c0.1-0.3,0.4-0.5,0.8-0.5c0.2-0.1,0.5,0,0.7,0.1l3.6,2.9v-6.1c-0.2,0-0.3,0-0.5,0c-0.3,0-0.6,0-0.9,0.1c-0.3,0.1-0.5,0.3-0.8,0.4
			c-0.6,0.5-1.3,0.7-2,0.8c-0.7-0.1-1.5-0.3-2-0.8c-0.2-0.2-0.5-0.3-0.8-0.4c-0.3-0.1-0.6-0.1-0.9-0.1h-0.2v6L43.9,46.3L43.9,46.3z
			 M2.7,7.9H6c0.4,0,0.8-0.4,0.8-0.8V3L2.7,7.9L2.7,7.9z M6.9,44h17.2c0.5,0,0.9-0.4,0.9-0.9c0-0.5-0.4-0.9-0.9-0.9H6.9
			c-0.5,0-0.9,0.4-0.9,0.9C6,43.6,6.4,44,6.9,44z M37.1,32.4c0-0.1,0-0.3,0-0.4c0.2-0.3,0.5-0.6,0.8-0.8c0.4-0.3,0.7-0.6,1-0.9
			c0.3-0.4,0.5-0.8,0.6-1.2c0.1-0.4,0.3-0.7,0.5-1c0.3-0.2,0.7-0.2,1.1-0.2c0.5,0,0.9-0.1,1.3-0.2c0.4-0.2,0.8-0.4,1.2-0.6
			c0.3-0.3,0.7-0.4,1.1-0.5c0.4,0.1,0.8,0.3,1.1,0.5c0.4,0.3,0.8,0.5,1.2,0.6c0.4,0.1,0.9,0.2,1.4,0.2c0.4,0,0.7,0.1,1.1,0.2
			c0.2,0.3,0.4,0.6,0.5,1c0.1,0.4,0.3,0.8,0.6,1.2c0.3,0.4,0.6,0.7,1,0.9c0.3,0.2,0.6,0.5,0.8,0.8c0,0.4,0,0.8-0.1,1.1
			c-0.1,0.4-0.2,0.9-0.2,1.4c0,0.5,0.1,0.9,0.2,1.4c0.1,0.4,0.2,0.8,0.1,1.1c-0.2,0.3-0.5,0.6-0.8,0.8c-0.4,0.3-0.7,0.6-1,0.9
			c-0.3,0.4-0.5,0.8-0.6,1.2c-0.1,0.4-0.3,0.7-0.5,1C49,41,48.7,41.1,48.3,41c-0.5,0-0.9,0.1-1.3,0.2c-0.4,0.2-0.8,0.4-1.2,0.6
			c-0.3,0.3-0.7,0.4-1.1,0.5c-0.4-0.1-0.8-0.3-1.1-0.5c-0.4-0.3-0.8-0.5-1.2-0.6c-0.4-0.1-0.9-0.2-1.4-0.2c-0.4,0-0.7-0.1-1.1-0.2
			c-0.2-0.3-0.4-0.6-0.5-1c-0.1-0.4-0.3-0.8-0.6-1.2c-0.3-0.4-0.6-0.7-1-0.9c-0.3-0.2-0.6-0.5-0.8-0.8c0-0.4,0-0.8,0.1-1.1
			c0.1-0.4,0.2-0.9,0.2-1.4c0-0.5-0.1-0.9-0.2-1.4l0-0.1c0,0,0-0.1,0-0.1C37.2,32.6,37.1,32.5,37.1,32.4L37.1,32.4z M6.9,33.7h5.3
			c0.5,0,0.9-0.4,0.9-0.8c0-0.5-0.4-0.9-0.8-0.9c0,0,0,0-0.1,0H6.9C6.4,32,6,32.4,6,32.8C6,33.3,6.4,33.7,6.9,33.7L6.9,33.7z
			 M6.9,38.9h29.6c0.1,0.1,0.2,0.2,0.3,0.2c0.2,0.2,0.5,0.4,0.7,0.6c0.2,0.3,0.3,0.5,0.4,0.8c0.2,0.7,0.6,1.3,1.1,1.7
			c0,0,0.1,0,0.1,0.1H27.4c-0.5,0-0.9,0.4-0.9,0.9c0,0.5,0.4,0.9,0.9,0.9h11.9v3.4H6.9c-0.5,0-0.9,0.4-0.8,0.9
			c0,0.5,0.4,0.8,0.8,0.8h32.4v1.2c0,0.4,0.3,0.8,0.8,0.8c0.2,0,0.3-0.1,0.5-0.2l3.3-2.6v6.2c0,0.4-0.4,0.8-0.8,0.8H2.5
			c-0.4,0-0.8-0.4-0.8-0.8V9.7H6c1.4,0,2.5-1.1,2.5-2.5V1.7H43c0.4,0,0.8,0.4,0.8,0.8v22.4c-0.4,0.2-0.8,0.4-1.2,0.6
			c-0.2,0.2-0.5,0.3-0.8,0.4c-0.3,0.1-0.6,0.1-0.9,0.1c-1.5-0.2-2.8,0.8-3.1,2.3c-0.1,0.3-0.2,0.6-0.4,0.8c-0.2,0.2-0.4,0.4-0.7,0.6
			c-0.6,0.4-1.1,0.9-1.3,1.6c-0.1,0.2-0.1,0.4-0.1,0.6H15.5c-0.5,0-0.9,0.4-0.9,0.8c0,0.5,0.4,0.9,0.8,0.9c0,0,0,0,0.1,0h20.1
			c0.1,0.2,0.1,0.5,0.1,0.7c0,0.3-0.1,0.6-0.2,1c-0.2,0.6-0.2,1.2-0.2,1.7H6.9C6.4,37.1,6,37.5,6,38C6,38.5,6.4,38.9,6.9,38.9
			L6.9,38.9z"/>
		<path d="M38.8,23.4h-32c-0.5,0-0.9-0.4-0.9-0.9V11.8c0-0.5,0.4-0.9,0.9-0.9h32c0.5,0,0.9,0.4,0.9,0.9v10.7
			C39.7,23,39.2,23.4,38.8,23.4z M7.7,21.6h30.2v-8.9H7.7V21.6z"/>
</svg>
