<?xml version="1.0" encoding="utf-8"?>
<svg version="1.1" xmlns="http://www.w3.org/2000/svg" xmlns:xlink="http://www.w3.org/1999/xlink" x="0px" y="0px"
	 viewBox="0 0 57 65" xml:space="preserve">

		<path d="M45.5,63.2h-6c-0.5,0-0.9-0.4-0.9-0.9s0.4-0.9,0.9-0.9h5.1V6.1H1.9v55.3h19.5c0.5,0,0.9,0.4,0.9,0.9
			s-0.4,0.9-0.9,0.9H1c-0.5,0-0.9-0.4-0.9-0.9V5.2c0-0.5,0.4-0.9,0.9-0.9h44.6c0.5,0,0.9,0.4,0.9,0.9v57.1
			C46.4,62.8,46,63.2,45.5,63.2z"/>
		<path d="M56,59H45.5c-0.5,0-0.9-0.4-0.9-0.9s0.4-0.9,0.9-0.9h9.6V1.9H12.4v3.3c0,0.5-0.4,0.9-0.9,0.9
			s-0.9-0.4-0.9-0.9V1c0-0.5,0.4-0.9,0.9-0.9H56c0.5,0,0.9,0.4,0.9,0.9v57.1C56.9,58.6,56.5,59,56,59z"/>
		<path d="M19.9,35.8H7.3c-0.5,0-0.9-0.4-0.9-0.9S6.8,34,7.3,34h12.6c0.5,0,0.9,0.4,0.9,0.9S20.4,35.8,19.9,35.8z"/>
		<path d="M19.9,41.4H7.3c-0.5,0-0.9-0.4-0.9-0.9s0.4-0.9,0.9-0.9h12.6c0.5,0,0.9,0.4,0.9,0.9S20.4,41.4,19.9,41.4z"/>
		<path d="M13.9,46.9H7.3c-0.5,0-0.9-0.4-0.9-0.9s0.4-0.9,0.9-0.9h6.6c0.5,0,0.9,0.4,0.9,0.9S14.4,46.9,13.9,46.9z"/>
		<path d="M42.5,60.2H18.3c-0.5,0-0.9-0.4-0.9-0.9c0-3.4,2.8-6.2,6.2-6.2h13.6c3.4,0,6.2,2.8,6.2,6.2
			C43.4,59.8,43,60.2,42.5,60.2z M19.3,58.4h22.2c-0.4-2-2.2-3.5-4.3-3.5H23.7C21.5,54.9,19.8,56.4,19.3,58.4z"/>
		<path d="M39.5,65H21.4c-0.5,0-0.9-0.4-0.9-0.9v-4.8c0-0.5,0.4-0.9,0.9-0.9h18.1c0.5,0,0.9,0.4,0.9,0.9v4.8
			C40.4,64.6,40,65,39.5,65z M22.3,63.2h16.3v-3H22.3V63.2z"/>
		<path d="M36.2,48.5H25c-0.5,0-0.9-0.4-0.9-0.9v-8.7c0-3.5,2.9-6.4,6.5-6.4h0c3.6,0,6.5,2.9,6.5,6.4v8.7
			C37.1,48.1,36.7,48.5,36.2,48.5z M25.9,46.7h9.3v-7.8c0-2.6-2.1-4.6-4.7-4.6h0c-2.6,0-4.7,2.1-4.7,4.6V46.7z"/>
		<path d="M34.1,54.9h-6.7c-0.5,0-0.9-0.4-0.9-0.9v-6.4c0-0.5,0.4-0.9,0.9-0.9h6.7c0.5,0,0.9,0.4,0.9,0.9V54
			C35,54.5,34.6,54.9,34.1,54.9z M28.2,53.1h4.9v-4.6h-4.9V53.1z"/>
		<path d="M15.3,24.5c-0.2,0-0.4-0.1-0.6-0.2l-5-4.4c-0.4-0.3-0.4-0.9-0.1-1.3c0.3-0.4,0.9-0.4,1.3-0.1l4.3,3.8
			l10.3-11.9c0.3-0.4,0.9-0.4,1.3-0.1c0.4,0.3,0.4,0.9,0.1,1.3L16,24.2C15.8,24.4,15.6,24.5,15.3,24.5
			C15.3,24.5,15.3,24.5,15.3,24.5z"/>
		<path d="M20.4,27.9H6.8c-0.5,0-0.9-0.4-0.9-0.9V13.4c0-0.5,0.4-0.9,0.9-0.9h12.4c0.5,0,0.9,0.4,0.9,0.9
			s-0.4,0.9-0.9,0.9H7.7v11.7h11.8v-3c0-0.5,0.4-0.9,0.9-0.9s0.9,0.4,0.9,0.9V27C21.3,27.5,20.9,27.9,20.4,27.9z"/>
	
</svg>
