<?xml version="1.0" encoding="utf-8"?>
<svg version="1.1" id="Layer_1" xmlns="http://www.w3.org/2000/svg" xmlns:xlink="http://www.w3.org/1999/xlink" x="0px" y="0px"
	 viewBox="0 0 54 62" xml:space="preserve">

		<path d="M43.6,62H0.9C0.4,62,0,61.6,0,61.1V6.6c0-0.5,0.4-0.9,0.9-0.9h6.5c0.5,0,0.9,0.4,0.9,0.9S7.9,7.5,7.4,7.5H1.8
			v52.7h40.9V54c0-0.5,0.4-0.9,0.9-0.9s0.9,0.4,0.9,0.9v7.1C44.5,61.6,44.1,62,43.6,62z"/>
		<path d="M53.1,54.9H7.4c-0.5,0-0.9-0.4-0.9-0.9V0.9C6.5,0.4,6.9,0,7.4,0h37.3c0.5,0,0.9,0.4,0.9,0.9s-0.4,0.9-0.9,0.9
			H8.3v51.3h43.9V9.6c0-0.5,0.4-0.9,0.9-0.9S54,9.1,54,9.6V54C54,54.5,53.6,54.9,53.1,54.9z"/>
		<path d="M53.1,10.5h-8.4c-0.5,0-0.9-0.4-0.9-0.9V0.9c0-0.4,0.2-0.7,0.6-0.8c0.3-0.1,0.7-0.1,1,0.2L53.7,9
			c0.3,0.3,0.3,0.6,0.2,1S53.5,10.5,53.1,10.5z M45.6,8.7H51l-5.3-5.6V8.7z"/>
		<path d="M32.5,7.7H14.7c-0.5,0-0.9-0.4-0.9-0.9s0.4-0.9,0.9-0.9h17.8c0.5,0,0.9,0.4,0.9,0.9S33,7.7,32.5,7.7z"/>
		<path d="M32.5,13.7H14.7c-0.5,0-0.9-0.4-0.9-0.9s0.4-0.9,0.9-0.9h17.8c0.5,0,0.9,0.4,0.9,0.9S33,13.7,32.5,13.7z"/>
		<path d="M30.1,42.4c-0.2,0-0.5-0.1-0.6-0.3l-6.9-6.8c-0.3-0.3-0.3-0.6-0.2-1c0.1-0.3,0.5-0.6,0.8-0.6h3.4v-14
			c0-0.5,0.4-0.9,0.9-0.9h5.2c0.5,0,0.9,0.4,0.9,0.9v14H37c0.4,0,0.7,0.2,0.8,0.6c0.1,0.3,0.1,0.7-0.2,1l-6.9,6.8
			C30.6,42.3,30.3,42.4,30.1,42.4z M25.4,35.5l4.7,4.7l4.7-4.7h-2.1c-0.5,0-0.9-0.4-0.9-0.9v-14h-3.4v14c0,0.5-0.4,0.9-0.9,0.9H25.4
			z"/>
		<path d="M45.5,47.7H14.7c-0.5,0-0.9-0.4-0.9-0.9v-5.3c0-0.5,0.4-0.9,0.9-0.9s0.9,0.4,0.9,0.9v4.4h29v-4.4
			c0-0.5,0.4-0.9,0.9-0.9s0.9,0.4,0.9,0.9v5.3C46.4,47.3,46,47.7,45.5,47.7z"/>
</svg>
