<?xml version="1.0" encoding="utf-8"?>
<svg version="1.1" xmlns="http://www.w3.org/2000/svg" xmlns:xlink="http://www.w3.org/1999/xlink" x="0px" y="0px"
	 viewBox="0 0 53.7 65.3" xml:space="preserve">

<path fill-rule="evenodd" clip-rule="evenodd" d="M13.4,34.4h-2V12.9c0-0.6-0.5-1-1-1H4c-0.6,0-1,0.5-1,1v8l0,0v8.6l0,0v4.8H1c-0.6,0-1,0.5-1,1v28.8
	c0,0.6,0.5,1,1,1s1-0.5,1-1V36.4h10.4v27.8c0,0.6,0.5,1,1,1s1-0.5,1-1V35.4C14.4,34.8,13.9,34.4,13.4,34.4z M9.4,34.4H5V30l4.4-4.4
	V34.4z M9.4,22.7L5,27.1v-5.7L9.4,17V22.7z M9.4,14L5,18.4v-4.5h4.4V14z M52.8,34.4h-2V21.3c0-0.6-0.5-1-1-1h-2.2v-11
	c0-0.6-0.5-1-1-1c-0.6,0-1,0.5-1,1v10.9h-2.2c-0.6,0-1,0.5-1,1v13.1h-2c-0.6,0-1,0.5-1,1v28.8c0,0.6,0.5,1,1,1c0.6,0,1-0.5,1-1V36.4
	h1.9l0,0l0,0h6.4l0,0l0,0h1.9v27.8c0,0.6,0.5,1,1,1s1-0.5,1-1V35.4C53.9,34.8,53.4,34.4,52.8,34.4z M48.8,34.4h-4.4V22.3h4.4V34.4z
	 M33.1,34.4h-5C29.6,23.1,33.5,13,41.2,4.8c0.4-0.4,0.4-1.1,0-1.5s-1.1-0.4-1.5,0c-5.9,6.2-9.6,13.4-11.8,21.4V1c0-0.6-0.5-1-1-1
	s-1,0.5-1,1v23.8c-2.2-8-5.9-15.2-11.7-21.4c-0.4-0.4-1-0.4-1.5,0c-0.4,0.4-0.4,1,0,1.5c7.7,8.2,11.5,18.3,13.1,29.6h-5
	c-0.6,0-1,0.5-1,1v28.8c0,0.6,0.5,1,1,1c0.6,0,1-0.5,1-1V36.4h5.1l0,0l0,0h5.2v27.8c0,0.6,0.5,1,1,1c0.6,0,1-0.5,1-1V35.4
	C34.1,34.8,33.7,34.4,33.1,34.4z"/>
</svg>
