<svg width="22" height="22" viewBox="0 0 22 22" fill="none" xmlns="http://www.w3.org/2000/svg">
<path fill-rule="evenodd" clip-rule="evenodd" d="M7.19458 8.63378C6.22168 8.63378 6.22168 7.16711 7.19458 7.16711H15.8079C16.7808 7.16711 16.7808 8.63378 15.8079 8.63378H7.19458ZM7.19458 12.7771C6.22168 12.7771 6.22168 11.3104 7.19458 11.3104H15.8079C16.7808 11.3104 16.7808 12.7771 15.8079 12.7771H7.19458ZM6.32759 0C6.13793 0 5.94828 0.0708889 5.80542 0.215111L2.21675 3.77667C2.08374 3.90867 2 4.092 2 4.29489V20.1789C2 21.1787 2.82266 22 3.83498 22H19.1675C19.6724 22 20.1305 21.7947 20.4631 21.4671C20.7956 21.1347 21.0025 20.68 21.0025 20.1813V1.82111C21.0025 0.821333 20.1798 0 19.1675 0H6.32759ZM19.1675 1.46667H6.63301L3.47783 4.598V20.1789C3.47783 20.3793 3.64286 20.5333 3.83498 20.5333H19.1675C19.2635 20.5333 19.3547 20.4942 19.4187 20.4282L19.5222 20.1789V1.82111C19.5222 1.62067 19.3547 1.46667 19.165 1.46667H19.1675ZM7.19704 16.9204C6.22414 16.9204 6.22414 15.4538 7.19704 15.4538H15.8103C16.7833 15.4538 16.7833 16.9204 15.8103 16.9204H7.19458H7.19704Z" fill="#FF683C"/>
</svg>
