<?xml version="1.0" encoding="utf-8"?>
<svg version="1.1" id="Layer_1" xmlns="http://www.w3.org/2000/svg" xmlns:xlink="http://www.w3.org/1999/xlink" x="0px" y="0px"
	 viewBox="0 0 14.4 15.2" xml:space="preserve">

<path d="M6.7,13.1c0.1,0.1,0.2,0.2,0.4,0.2c0.1,0,0.3-0.1,0.4-0.2L12,8.4c0.1-0.1,0.2-0.3,0.2-0.4S12.1,7.7,12,7.6
	c-0.2-0.2-0.6-0.2-0.8,0l-3.6,3.8V0.6C7.6,0.3,7.4,0,7.1,0S6.5,0.3,6.5,0.6v10.7L2.9,7.5c-0.2-0.2-0.6-0.2-0.8,0C2.1,7.7,2,7.8,2,8
	c0,0.2,0.1,0.3,0.2,0.4L6.7,13.1L6.7,13.1z"/>
<path d="M13.9,15.2H0.5C0.2,15.2,0,15,0,14.7s0.2-0.5,0.5-0.5h13.4c0.3,0,0.5,0.2,0.5,0.5S14.2,15.2,13.9,15.2z"/>
</svg>
