<?xml version="1.0" encoding="utf-8"?>
<svg version="1.1" xmlns="http://www.w3.org/2000/svg" xmlns:xlink="http://www.w3.org/1999/xlink" x="0px" y="0px"
	 viewBox="0 0 40 39" xml:space="preserve">
<g>
	<path d="M21.349,0.123C11.11,0.123,2.824,8.58,2.824,18.981c0,3.276,0.828,6.345,2.271,9.032l-4.872,9.549
		c-0.16,0.313-0.122,0.691,0.096,0.967s0.577,0.399,0.919,0.316l11.967-2.919c2.458,1.211,5.217,1.912,8.143,1.912
		c10.249,0,18.525-8.457,18.525-18.857C39.874,8.58,31.598,0.123,21.349,0.123z M21.349,36.038c-2.697,0-5.241-0.661-7.505-1.806
		c-0.147-0.103-0.325-0.163-0.516-0.163h-0.019c-0.105,0-0.206,0.018-0.3,0.051l-10.289,2.51l4.092-8.021
		c0.245-0.284,0.292-0.698,0.099-1.035c-1.45-2.532-2.287-5.457-2.287-8.594c0-9.438,7.511-17.057,16.725-17.057
		c9.223,0,16.725,7.619,16.725,17.057C38.074,28.419,30.572,36.038,21.349,36.038z"/>
	<path d="M25.397,10.731c-0.555-0.544-1.135-1.025-1.858-1.336l-0.002-0.001c-0.716-0.301-1.531-0.46-2.424-0.46
		c-0.89,0-1.762,0.158-2.482,0.472c-0.715,0.312-1.351,0.773-1.88,1.351c-0.498,0.544-0.967,1.181-1.379,1.889l-0.38,0.658
		l1.481,1.104l0.413-0.731c0.514-0.898,1.11-1.615,1.773-2.124c0.61-0.468,1.426-0.72,2.453-0.72c0.893,0,1.638,0.202,2.229,0.572
		c0.602,0.387,1.047,0.883,1.36,1.523c0.315,0.644,0.48,1.4,0.48,2.233c0,0.753-0.201,1.414-0.623,2.034l-0.001,0.001
		c-0.434,0.644-1.041,1.169-1.81,1.554c-0.784,0.393-1.676,0.598-2.702,0.598h-0.773l0.171,6.608h1.698l-0.027-4.816
		c0.919-0.101,1.771-0.368,2.553-0.803c0.978-0.539,1.781-1.261,2.375-2.145l0.001-0.001c0.607-0.911,0.926-1.943,0.926-3.039
		c0-0.873-0.132-1.688-0.39-2.441C26.578,12.71,26.181,11.5,25.397,10.731z"/>
	<path d="M21.079,28.609c-0.198-0.115-0.452-0.169-0.696-0.175c-0.245-0.005-0.509,0.038-0.731,0.147
		c-0.228,0.111-0.464,0.326-0.464,0.664c0,0.337,0.237,0.546,0.443,0.659l0.006,0.003l0.006,0.003
		c0.208,0.098,0.438,0.149,0.687,0.149c0.281,0,0.528-0.057,0.743-0.175l0.008-0.004l0.007-0.005
		c0.062-0.04,0.153-0.104,0.229-0.198c0.08-0.098,0.155-0.243,0.155-0.433c0-0.189-0.074-0.335-0.154-0.434
		C21.241,28.716,21.149,28.65,21.079,28.609z"/>
</g>
</svg>
