<?xml version="1.0" encoding="utf-8"?>
<svg version="1.1"  xmlns="http://www.w3.org/2000/svg" xmlns:xlink="http://www.w3.org/1999/xlink" x="0px" y="0px"
	 viewBox="0 0 28 28" xml:space="preserve">

		<path d="M14,27.5c-7.4,0-13.5-6-13.5-13.5c0-7.4,6-13.5,13.5-13.5c3.7,0,7.2,1.5,9.8,4.2c0.3,0.4,0.3,0.9,0,1.3
			c-0.4,0.3-0.9,0.3-1.3,0c-2.2-2.4-5.3-3.7-8.5-3.7C7.6,2.3,2.3,7.6,2.3,14S7.6,25.7,14,25.7S25.7,20.4,25.7,14
			c0-1.4-0.2-2.8-0.7-4.1c-0.2-0.5,0.1-1,0.5-1.2c0.5-0.2,1,0.1,1.2,0.5c0.6,1.5,0.9,3.1,0.9,4.7C27.5,21.4,21.4,27.5,14,27.5z"/>
		<path d="M12,19.7c-0.2,0-0.4-0.1-0.5-0.2l-4-4c-0.3-0.3-0.3-0.7,0-1c0.3-0.3,0.7-0.3,1,0L12,18l7.5-9.4
			c0.2-0.3,0.7-0.4,1-0.1c0.3,0.2,0.4,0.7,0.1,1l-8,10C12.5,19.6,12.3,19.7,12,19.7C12.1,19.7,12.1,19.7,12,19.7z"/>

</svg>
