<?xml version="1.0" encoding="utf-8"?>
<svg version="1.1" id="Layer_1" xmlns="http://www.w3.org/2000/svg" xmlns:xlink="http://www.w3.org/1999/xlink" x="0px" y="0px"
	 viewBox="0 0 17 14" xml:space="preserve">
<path class="st0" d="M10.8,13c-0.2,0-0.3-0.1-0.4-0.2c-0.2-0.2-0.2-0.6,0-0.8L15,7.5l-4.9-4.9c-0.2-0.2-0.2-0.6,0-0.8
	c0.2-0.2,0.6-0.2,0.8,0l5.3,5.3c0.1,0.1,0.2,0.3,0.2,0.4S16.4,7.9,16.3,8l-5.1,4.9C11.1,12.9,10.9,13,10.8,13z"/>
<path class="st0" d="M15.5,8.1H1c-0.3,0-0.6-0.3-0.6-0.6S0.7,6.9,1,6.9h14.5c0.3,0,0.6,0.3,0.6,0.6S15.8,8.1,15.5,8.1z"/>
</svg>
