<svg width="18" height="22" viewBox="0 0 18 22" xmlns="http://www.w3.org/2000/svg">
<g clip-path="url(#clip0_2_2334)">
<path d="M17.6943 1.78444H16.2264V0.305556C16.2264 0.224889 16.1949 0.146667 16.1367 0.0904444C16.0809 0.0342222 16.0032 0 15.9232 0H3.55681C3.55681 0 3.5374 0 3.5277 0H3.51557L3.49858 0.00488889C3.49373 0.00488889 3.48888 0.00733333 3.48403 0.00977778C3.47917 0.00977778 3.47432 0.00977778 3.4719 0.0146667C3.46704 0.0146667 3.46219 0.0195556 3.45734 0.0195556L3.44521 0.0244444C3.44521 0.0244444 3.4355 0.0293333 3.43065 0.0293333L3.41852 0.0342222C3.41852 0.0342222 3.40881 0.0391111 3.40639 0.0415556C3.40154 0.044 3.39911 0.0464444 3.39426 0.0488889C3.38941 0.0513333 3.38455 0.0562222 3.3797 0.0611111L3.37 0.066C3.37 0.066 3.35544 0.0782222 3.34816 0.088L0.0897695 3.36844C0.0897695 3.36844 0.0752123 3.38311 0.0679337 3.39289L0.0630813 3.40022C0.0630813 3.40022 0.0533765 3.41 0.0509503 3.41733L0.0436716 3.42956C0.0436716 3.42956 0.0388192 3.43933 0.0339668 3.44422C0.0315406 3.44911 0.0291144 3.454 0.0291144 3.45644C0.0291144 3.46133 0.024262 3.46622 0.0218358 3.47111C0.0218358 3.476 0.0194096 3.48089 0.0169834 3.48333C0.0169834 3.48822 0.012131 3.49311 0.012131 3.498C0.012131 3.50289 0.012131 3.50778 0.00727861 3.51022C0.00727861 3.51511 0.00485241 3.52 0.0024262 3.52489C0.0024262 3.52978 0.0024262 3.53467 0 3.542C0 3.54689 0 3.55178 0 3.55422C0 3.564 0 3.57378 0 3.58356V19.9076C0 19.9882 0.0339668 20.0664 0.0897695 20.1251C0.145572 20.1813 0.223211 20.2131 0.303275 20.2131H1.77113V21.692C1.77113 21.7727 1.80267 21.8509 1.8609 21.9071C1.9167 21.9633 1.99434 21.9976 2.0744 21.9976H17.6943C17.7744 21.9976 17.852 21.9658 17.9078 21.9071C17.9636 21.8509 17.9976 21.7727 17.9976 21.692V2.09C17.9976 2.00933 17.966 1.93111 17.9078 1.87244C17.852 1.81622 17.7744 1.782 17.6943 1.782V1.78444ZM3.25354 1.04378V3.278H1.03356L3.25354 1.04378ZM0.604124 3.88911H3.55439C3.63445 3.88911 3.71209 3.85733 3.76789 3.79867C3.8237 3.74 3.85766 3.66422 3.85766 3.58356V0.611111H15.6175V19.6044H0.604124V3.88911ZM17.391 21.3889H2.37768V20.2156H15.9232C16.0032 20.2156 16.0809 20.1838 16.1367 20.1276C16.1925 20.0713 16.2264 19.9931 16.2264 19.91V2.39556H17.391V21.3889ZM13.6959 10.2764C13.6959 10.3571 13.6644 10.4353 13.6086 10.4916C13.5528 10.5478 13.4751 10.582 13.3926 10.582H2.8338C2.6664 10.582 2.53053 10.4451 2.53053 10.2764C2.53053 10.1078 2.6664 9.97089 2.8338 9.97089H13.3926C13.4727 9.97089 13.5503 10.0027 13.6086 10.0613C13.6644 10.1176 13.6959 10.1958 13.6959 10.2764ZM13.6959 12.4862C13.6959 12.5669 13.6644 12.6451 13.6086 12.7013C13.5528 12.7576 13.4751 12.7918 13.3926 12.7918H2.8338C2.6664 12.7918 2.53053 12.6549 2.53053 12.4862C2.53053 12.3176 2.6664 12.1807 2.8338 12.1807H13.3926C13.4727 12.1807 13.5503 12.2124 13.6086 12.2687C13.6644 12.3249 13.6959 12.4031 13.6959 12.4862ZM13.6959 14.696C13.6959 14.7767 13.6644 14.8549 13.6086 14.9111C13.5528 14.9673 13.4751 15.0016 13.3926 15.0016H2.8338C2.6664 15.0016 2.53053 14.8647 2.53053 14.696C2.53053 14.5273 2.6664 14.3904 2.8338 14.3904H13.3926C13.4727 14.3904 13.5503 14.4222 13.6086 14.4784C13.6644 14.5347 13.6959 14.6129 13.6959 14.696ZM8.41892 16.9033C8.41892 16.984 8.38738 17.0622 8.32915 17.1209C8.27093 17.1796 8.19571 17.2089 8.11565 17.2089H2.8338C2.6664 17.2089 2.53053 17.072 2.53053 16.9033C2.53053 16.7347 2.6664 16.5978 2.8338 16.5978H8.11322C8.19329 16.5978 8.27093 16.6296 8.32915 16.6882C8.38496 16.7444 8.41892 16.8227 8.41892 16.9033ZM13.6959 8.06911C13.6959 8.14978 13.6644 8.228 13.6086 8.28667C13.5528 8.34289 13.4751 8.37467 13.3926 8.37467H2.8338C2.6664 8.37467 2.53053 8.23778 2.53053 8.06911C2.53053 7.90044 2.6664 7.76356 2.8338 7.76356H13.3926C13.4727 7.76356 13.5503 7.79533 13.6086 7.854C13.6644 7.91022 13.6959 7.98844 13.6959 8.06911ZM13.3926 3.00911H5.65305C5.48564 3.00911 5.34978 3.146 5.34978 3.31467V5.51467C5.34978 5.59533 5.38132 5.67356 5.43712 5.72978C5.49292 5.786 5.57056 5.82022 5.65305 5.82022H13.3926C13.4727 5.82022 13.5503 5.78844 13.6061 5.72978C13.6619 5.67356 13.6959 5.59533 13.6959 5.51467V3.31467C13.6959 3.234 13.6644 3.15578 13.6061 3.09956C13.5503 3.04333 13.4727 3.00911 13.3902 3.00911H13.3926ZM13.0894 5.20911H5.95633V3.62022H13.0894V5.20911Z" />
</g>
<defs>
<clipPath id="clip0_2_2334">
<rect width="18" height="22" />
</clipPath>
</defs>
</svg>
