<svg viewBox="0 0 40 48" xmlns="http://www.w3.org/2000/svg">

<path d="M39.3246 3.89333H36.0627V0.666667C36.0627 0.490667 35.9926 0.32 35.8632 0.197333C35.7392 0.0746667 35.5666 0 35.3887 0H7.90794C7.90794 0 7.8648 0 7.84324 0H7.81628L7.77854 0.0106667C7.76776 0.0106667 7.75697 0.016 7.74619 0.0213333C7.73541 0.0213333 7.72462 0.0213333 7.71923 0.032C7.70845 0.032 7.69767 0.0426667 7.68688 0.0426667L7.65992 0.0533333C7.65992 0.0533333 7.63836 0.064 7.62757 0.064L7.60062 0.0746667C7.60062 0.0746667 7.57905 0.0853333 7.57366 0.0906667C7.56288 0.096 7.55748 0.101333 7.5467 0.106667C7.53592 0.112 7.52514 0.122667 7.51435 0.133333L7.49279 0.144C7.49279 0.144 7.46044 0.170667 7.44426 0.192L0.203394 7.34933C0.203394 7.34933 0.171045 7.38133 0.15487 7.40267L0.144087 7.41867C0.144087 7.41867 0.122521 7.44 0.117129 7.456L0.100954 7.48267C0.100954 7.48267 0.0901712 7.504 0.0793881 7.51467C0.0739966 7.52533 0.068605 7.536 0.068605 7.54133C0.068605 7.552 0.0578219 7.56267 0.0524303 7.57333C0.0524303 7.584 0.0470387 7.59467 0.0416472 7.6C0.0416472 7.61067 0.0308641 7.62133 0.0308641 7.632C0.0308641 7.64267 0.0308641 7.65333 0.0200809 7.65867C0.0200809 7.66933 0.0146894 7.68 0.00929781 7.69067C0.00929781 7.70133 0.00929781 7.712 0.00390625 7.728C0.00390625 7.73867 0.00390625 7.74933 0.00390625 7.75467C0.00390625 7.776 0.00390625 7.79733 0.00390625 7.81867V43.4347C0.00390625 43.6107 0.0793881 43.7813 0.203394 43.9093C0.3274 44.032 0.49993 44.1013 0.677851 44.1013H3.93975V47.328C3.93975 47.504 4.00984 47.6747 4.13923 47.7973C4.26324 47.92 4.43577 47.9947 4.61369 47.9947H39.3246C39.5025 47.9947 39.675 47.9253 39.799 47.7973C39.923 47.6747 39.9985 47.504 39.9985 47.328V4.56C39.9985 4.384 39.9284 4.21333 39.799 4.08533C39.675 3.96267 39.5025 3.888 39.3246 3.888V3.89333ZM7.23399 2.27733V7.152H2.30071L7.23399 2.27733ZM1.34641 8.48533H7.90254C8.08047 8.48533 8.253 8.416 8.377 8.288C8.50101 8.16 8.57649 7.99467 8.57649 7.81867V1.33333H34.7094V42.7733H1.34641V8.48533ZM38.6506 46.6667H5.28764V44.1067H35.3887C35.5666 44.1067 35.7392 44.0373 35.8632 43.9147C35.9872 43.792 36.0627 43.6213 36.0627 43.44V5.22667H38.6506V46.6667ZM30.4393 22.4213C30.4393 22.5973 30.3692 22.768 30.2452 22.8907C30.1212 23.0133 29.9486 23.088 29.7653 23.088H6.30125C5.92923 23.088 5.62731 22.7893 5.62731 22.4213C5.62731 22.0533 5.92923 21.7547 6.30125 21.7547H29.7653C29.9433 21.7547 30.1158 21.824 30.2452 21.952C30.3692 22.0747 30.4393 22.2453 30.4393 22.4213ZM30.4393 27.2427C30.4393 27.4187 30.3692 27.5893 30.2452 27.712C30.1212 27.8347 29.9486 27.9093 29.7653 27.9093H6.30125C5.92923 27.9093 5.62731 27.6107 5.62731 27.2427C5.62731 26.8747 5.92923 26.576 6.30125 26.576H29.7653C29.9433 26.576 30.1158 26.6453 30.2452 26.768C30.3692 26.8907 30.4393 27.0613 30.4393 27.2427ZM30.4393 32.064C30.4393 32.24 30.3692 32.4107 30.2452 32.5333C30.1212 32.656 29.9486 32.7307 29.7653 32.7307H6.30125C5.92923 32.7307 5.62731 32.432 5.62731 32.064C5.62731 31.696 5.92923 31.3973 6.30125 31.3973H29.7653C29.9433 31.3973 30.1158 31.4667 30.2452 31.5893C30.3692 31.712 30.4393 31.8827 30.4393 32.064ZM18.7126 36.88C18.7126 37.056 18.6425 37.2267 18.5131 37.3547C18.3837 37.4827 18.2166 37.5467 18.0387 37.5467H6.30125C5.92923 37.5467 5.62731 37.248 5.62731 36.88C5.62731 36.512 5.92923 36.2133 6.30125 36.2133H18.0333C18.2112 36.2133 18.3837 36.2827 18.5131 36.4107C18.6371 36.5333 18.7126 36.704 18.7126 36.88ZM30.4393 17.6053C30.4393 17.7813 30.3692 17.952 30.2452 18.08C30.1212 18.2027 29.9486 18.272 29.7653 18.272H6.30125C5.92923 18.272 5.62731 17.9733 5.62731 17.6053C5.62731 17.2373 5.92923 16.9387 6.30125 16.9387H29.7653C29.9433 16.9387 30.1158 17.008 30.2452 17.136C30.3692 17.2587 30.4393 17.4293 30.4393 17.6053ZM29.7653 6.56533H12.5662C12.1942 6.56533 11.8923 6.864 11.8923 7.232V12.032C11.8923 12.208 11.9624 12.3787 12.0864 12.5013C12.2104 12.624 12.3829 12.6987 12.5662 12.6987H29.7653C29.9433 12.6987 30.1158 12.6293 30.2398 12.5013C30.3638 12.3787 30.4393 12.208 30.4393 12.032V7.232C30.4393 7.056 30.3692 6.88533 30.2398 6.76267C30.1158 6.64 29.9433 6.56533 29.7599 6.56533H29.7653ZM29.0914 11.3653H13.2402V7.89867H29.0914V11.3653Z" />

</svg>
