<?xml version="1.0" encoding="utf-8"?>
<svg version="1.1" xmlns="http://www.w3.org/2000/svg" xmlns:xlink="http://www.w3.org/1999/xlink" x="0px" y="0px"
	 viewBox="0 0 59 53" xml:space="preserve">


		<path d="M30.4,19.1h-0.2c-0.4,0-0.8,0.1-1.1,0.3c0.3-0.1,0.6-0.2,0.9-0.2h0.1C30.2,19.2,30.3,19.2,30.4,19.1
			c0,0.1-0.1,0.1-0.2,0.1c-0.6,0-1.1,0.2-1.6,0.5c0.1-0.1,0.3-0.2,0.5-0.3c-0.4,0.2-0.9,0.4-1.2,0.8L23,25.6l-0.8-0.8
			c-0.6-0.6-1.5-0.9-2.3-0.9c-0.8-0.1-1.5,0.2-2.1,0.8c-1.2,1.2-1.3,3.1-0.1,4.4l3,3.2c0.6,0.6,1.4,1,2.3,1s1.7-0.4,2.2-0.9l7.3-8
			c0.6-0.6,0.9-1.4,0.9-2.1c0-0.5-0.1-0.9-0.3-1.4c-0.2-0.4-0.5-0.8-0.8-1.1C31.8,19.4,31.1,19.1,30.4,19.1z M23.4,26.9l5.5-6
			c0.3-0.4,0.8-0.6,1.3-0.6c0.3,0,0.6,0.1,0.8,0.2c-0.2,0-0.4-0.1-0.5-0.1h-0.1c-0.5,0-1,0.2-1.3,0.6l-5.5,6
			c-0.2,0.2-0.4,0.2-0.6,0.1C23.1,27.1,23.3,27,23.4,26.9z M31.6,23.5l-7.3,7.9C24,31.8,23.5,32,23,32s-1-0.2-1.3-0.7l-3-3.2
			c-0.3-0.4-0.5-0.8-0.5-1.3c0.1-0.7,0.5-1.3,1.2-1.6c-0.8,0.3-1.3,1-1.3,1.7c0,0,0-0.1,0-0.1c0-0.8,0.5-1.4,1.2-1.7
			c0.4-0.1,0.8-0.1,1.2,0c-0.2,0-0.5,0-0.7,0c0.1,0,0.1,0,0.2,0c0.4,0,0.9,0.2,1.3,0.7l1.3,1.3c0.3,0.3,0.8,0.3,1,0l5.5-6
			c0.3-0.4,0.7-0.6,1.2-0.6c0.4,0,0.9,0.2,1.2,0.5c0.4,0.3,0.6,0.7,0.6,1.2S31.9,23.1,31.6,23.5z M54.6,27
			c-2.8-2.9-6.7-4.5-10.7-4.5S36,24.2,33.2,27s-4.4,6.8-4.4,10.8s1.6,7.9,4.4,10.8c2.8,2.9,6.7,4.5,10.7,4.5s7.9-1.6,10.8-4.5
			C57.5,45.7,59,42,59.1,38v-0.2C59,33.7,57.5,29.9,54.6,27z M43.9,23.8C43.9,23.8,43.9,23.8,43.9,23.8c-0.4,0-0.8,0-1.2,0.1
			C43.1,23.8,43.5,23.8,43.9,23.8z M29.9,37.8c0-3.7,1.5-7.3,4.1-9.9C31.4,30.6,29.9,34.1,29.9,37.8C29.9,37.8,29.9,37.8,29.9,37.8z
			 M54.5,48.6c-2.8,2.8-6.7,4.4-10.6,4.4c-4,0-7.8-1.6-10.6-4.4c0,0,0,0,0-0.1c2.9,2.8,6.7,4.4,10.6,4.4
			C47.9,52.9,51.8,51.3,54.5,48.6C54.5,48.6,54.5,48.6,54.5,48.6z M57.8,37.9c0,3.8-1.5,7.3-4.1,9.8c-2.6,2.6-6.2,4.1-9.8,4.1
			c-3.7,0-7.3-1.5-9.8-4.1c-2.6-2.6-4.1-6.2-4.1-9.8c0-3.8,1.5-7.3,4.1-9.9c2.6-2.6,6.1-4.1,9.8-4.1c3.7,0,7.2,1.4,9.8,4.1
			c2.6,2.6,4.1,6.1,4.1,9.8V37.9z M0.4,34c-0.1,0.1-0.2,0.2-0.2,0.3C0.2,34.2,0.3,34.1,0.4,34z M49.4,42.9l-3-2.9
			c0.8-0.9,1.1-2.1,0.7-3.3c-0.3-1.2-1.3-2.1-2.5-2.3v-4.1c0-0.4-0.3-0.7-0.7-0.7c-0.3,0-0.6,0.2-0.7,0.5c0,0.1,0,0.2,0,0.2v4.1
			c-0.9,0.2-1.7,0.8-2.2,1.6c-0.5,0.7-0.6,1.6-0.3,2.5c0,0.1,0,0.2,0,0.3c0.2,1,0.9,1.7,1.8,2.1c0.9,0.4,1.8,0.4,2.7,0l3.3,3.2
			c0.2,0.1,0.3,0.2,0.5,0.2s0.4-0.1,0.6-0.3c0.3-0.2,0.3-0.6,0-0.9L49.4,42.9z M41.4,40c0.3,0.3,0.6,0.6,1.1,0.7
			C42.1,40.5,41.7,40.3,41.4,40z M43.9,41c0.5,0,0.9-0.1,1.3-0.3l0,0C44.8,40.9,44.4,41,43.9,41z M45.7,38.6
			c-0.3,0.8-1.1,1.3-1.9,1.3c-0.5,0-1-0.2-1.4-0.6c-0.4-0.4-0.6-1-0.6-1.5c0-0.8,0.5-1.6,1.3-1.9c0.3-0.1,0.5-0.2,0.8-0.2
			c0.3,0,0.5,0,0.7,0.1c0,0,0.1,0,0.1,0c0.2,0.1,0.4,0.2,0.6,0.4C45.8,36.9,46,37.8,45.7,38.6z M46.1,40c0.2-0.2,0.4-0.5,0.6-0.7
			C46.5,39.6,46.4,39.8,46.1,40L46.1,40z M19.4,25.2c0.1-0.1,0.3-0.1,0.4-0.1C19.7,25.1,19.5,25.1,19.4,25.2z M36.1,20.6
			c0.1,0.1,0.1,0.2,0.2,0.3c0.1,0.1,0.2,0.1,0.2,0.1c0.1,0.1,0.1,0.1,0.2,0.1c0.1,0,0.2,0,0.3-0.1c0.2-0.1,0.3-0.2,0.4-0.4
			c0.1-0.2,0.1-0.4,0-0.5c-1.3-3.2-3.8-5.8-6.9-7.3s-6.7-1.8-10-0.9c-3.4,0.9-6.3,3-8.2,5.9c-2,2.9-2.8,6.4-2.3,9.9
			c0.3,1.7,0.8,3.4,1.7,4.9c0.8,1.5,1.8,2.9,3.1,4c2.6,2.3,5.9,3.6,9.4,3.6c0.6,0,1.2,0,1.6-0.3c0.1,0,0.2,0,0.3,0
			c0.2,0,0.3-0.1,0.4-0.2c0.1-0.1,0.1-0.3,0.1-0.4c0,0,0,0,0,0c0,0,0-0.1,0-0.2c0-0.1-0.1-0.2-0.2-0.3c-0.1-0.1-0.1-0.1-0.2-0.1
			c0,0,0.1,0.1,0.2,0.2c-0.1-0.1-0.3-0.1-0.4-0.1c-0.6,0.1-1.2,0.1-1.7,0.1c-2.4,0-4.7-0.7-6.7-1.9c2,1.2,4.3,1.8,6.6,1.8
			c0.6,0,1.2,0,1.8-0.1c0.1,0,0.2,0,0.2,0c0,0,0,0,0,0c-0.1-0.1-0.3-0.1-0.5-0.1c-0.5,0.1-1.1,0.1-1.7,0.1c-2.3,0-4.5-0.6-6.4-1.7
			c-0.6-0.4-1.3-0.9-1.9-1.4c-2.4-2.1-3.9-5-4.4-8.2c-0.4-3.2,0.3-6.4,2.1-9c1.8-2.7,4.4-4.6,7.5-5.4c1.1-0.3,2.2-0.4,3.4-0.4
			c1.9,0,3.8,0.5,5.5,1.3C32.7,15.3,34.9,17.7,36.1,20.6z M26.9,11.9c1.2,0.2,2.4,0.5,3.5,0.9c3,1.5,5.5,4,6.8,7.2v0.3
			c-1.3-3.2-3.8-5.8-6.9-7.3C29.2,12.5,28,12.1,26.9,11.9z M30,49.1c-0.4,0-0.7,0.2-0.7,0.6c-0.1,0.4-0.4,0.7-0.8,0.7h-8.4
			c-0.4,0-0.8-0.3-0.8-0.7l-0.2-2.2c-0.1-0.8-0.7-1.5-1.5-1.8c-2.3-0.7-4.5-1.9-6.4-3.5c-0.4-0.3-0.8-0.4-1.2-0.4
			c0.4,0,0.7,0.2,1,0.4c-0.3-0.2-0.7-0.4-1-0.4c0,0,0,0,0,0c0,0,0,0-0.1,0c-0.4,0-0.8,0-1.1,0.2l-1.9,1c-0.1,0-0.2,0.1-0.2,0.1
			c-0.3,0-0.5-0.2-0.7-0.4l-4.6-7.1c-0.2-0.3-0.1-0.8,0.2-1l1.7-1.3c0.6-0.5,0.9-1.4,0.7-2.2C3.1,27.7,3.1,24,3.9,20.5
			c0.2-0.8,0-1.7-0.7-2.2L1.5,17c-0.3-0.2-0.4-0.7-0.2-1l4.6-7c0.2-0.4,0.6-0.5,1-0.3l1.9,1c0.8,0.4,1.7,0.3,2.3-0.2
			C13,8,15.2,6.8,17.5,6c0.8-0.3,1.4-1,1.5-1.9l0.2-2.3c0.1-0.4,0.4-0.7,0.8-0.7h8.4c0.4,0,0.8,0.3,0.8,0.7L29.4,4
			c0.1,0.8,0.7,1.5,1.5,1.8c2.3,0.7,4.5,1.9,6.4,3.5c0.2,0.2,0.5,0.3,0.8,0.4c-0.2-0.1-0.5-0.2-0.7-0.4c-1.9-1.6-4.1-2.8-6.5-3.6
			c-0.7-0.2-1.2-0.8-1.3-1.6l-0.2-2.2c-0.1-0.5-0.5-0.9-1-0.9h0.1c0.4,0,0.8,0.3,0.9,0.8L29.6,4c0.1,0.8,0.6,1.5,1.4,1.7
			c2.3,0.8,4.5,2,6.5,3.6c0.3,0.2,0.7,0.4,1,0.4c0,0-0.1,0-0.1,0c0,0,0.1,0,0.1,0c0.4,0,0.8,0,1.2-0.2l1.9-1c0.1,0,0.2-0.1,0.2-0.1
			c0.3,0,0.5,0.2,0.7,0.4l4.6,7.1c0.2,0.3,0.1,0.7-0.2,1l-1.7,1.4c-0.7,0.5-1,1.4-0.8,2.2c0,0.2,0.1,0.3,0.3,0.4
			C44.9,21,45,21,45.1,21c0.1,0,0.2,0,0.3,0c0.1,0,0.3-0.1,0.3-0.3c0.1-0.1,0.1-0.3,0.1-0.4c-0.1-0.3,0.1-0.7,0.3-0.9l1.7-1.3
			c0.8-0.6,1-1.8,0.5-2.7l-4.6-7.1c-0.1-0.1-0.2-0.3-0.3-0.4c-0.6-0.7-1.7-0.9-2.6-0.4l-1.9,1c-0.1,0.1-0.4,0.1-0.6,0c0,0,0,0,0,0
			c-0.5-0.4-1-0.7-1.5-1.1c-1.7-1.2-3.5-2.2-5.5-2.8c-0.1,0-0.2-0.1-0.3-0.1c-0.1-0.1-0.1-0.2-0.1-0.4l-0.2-2.2
			c0-0.4-0.2-0.8-0.5-1.1c-0.4-0.6-1-1-1.8-1H20c-1.1,0-2,0.8-2.1,1.9l-0.2,2.2c-0.1,0.3-0.3,0.6-0.6,0.7c-2.5,0.9-4.8,2.1-6.9,3.8
			C10,8.6,9.7,8.6,9.4,8.5l-1.9-1C6.6,7,5.4,7.3,4.9,8.1l-4.6,7.1c-0.4,0.5-0.4,1.2-0.2,1.8c0.1,0.4,0.3,0.8,0.7,1.1l1.7,1.3
			c0.2,0.1,0.3,0.3,0.3,0.6c0,0,0,0.1,0,0.1C2.3,22,2,23.9,2.1,25.8c0-1.9,0.3-3.7,0.7-5.6c0-0.1,0-0.1,0-0.2c0,0.1,0,0.2,0,0.3
			c-0.5,1.8-0.7,3.7-0.7,5.5c0,0,0,0,0-0.1c0,0,0,0,0,0.1c0,1.9,0.2,3.8,0.7,5.7c0,0,0,0.1,0,0.1c0,0.2-0.2,0.4-0.3,0.6l-1.9,1.5
			c-0.1,0.1-0.1,0.2-0.2,0.3c0,0,0.1-0.1,0.1-0.1c-0.6,0.6-0.6,1.7-0.1,2.4L2,38.7l-1.7-2.5c-0.1-0.1-0.1-0.1-0.1-0.2
			c0,0.1,0.1,0.2,0.1,0.3l4.6,7.1c0.3,0.6,1,0.9,1.6,0.9c0.4,0,0.7,0,1.1-0.2l1.9-1c0.3-0.1,0.5-0.1,0.7,0c0.1,0,0.1,0.1,0.2,0.1
			c0.2,0.2,0.4,0.3,0.6,0.5c1.8,1.4,3.9,2.5,6.1,3.2c0.3,0.1,0.6,0.4,0.6,0.7l0.2,2.2c0.1,1.1,1,1.9,2.1,1.9h8.4
			c1.1,0,2-0.8,2.1-1.9c0.1-0.2,0-0.4-0.1-0.5C30.3,49.2,30.2,49.1,30,49.1z M44.7,20.6c0,0.1,0.1,0.1,0.1,0.2
			C44.7,20.7,44.7,20.7,44.7,20.6z M44.9,20.9C44.9,20.9,44.8,20.8,44.9,20.9C44.9,20.9,44.9,20.9,44.9,20.9
			C44.9,20.9,44.9,20.9,44.9,20.9z M42.7,8.8c-0.2-0.3-0.5-0.4-0.8-0.4C42.2,8.4,42.5,8.5,42.7,8.8z M2.4,32.4
			c0.2-0.1,0.3-0.3,0.4-0.4C2.7,32.1,2.7,32.3,2.4,32.4l-1.2,0.9L2.4,32.4z M43.9,25.2c-3.3,0-6.5,1.4-8.8,3.7
			c-2.4,2.4-3.7,5.5-3.7,8.9c0,3.3,1.4,6.6,3.7,8.9c2.3,2.4,5.5,3.7,8.8,3.7c3.3,0,6.5-1.3,8.7-3.7c0,0,0,0,0-0.1c0,0,0,0,0.1,0
			c0.6-0.6,1-1.2,1.5-1.8c0,0,0,0,0,0c0.1-0.2,0.2-0.3,0.3-0.5c1.2-1.9,1.8-4.1,1.8-6.4v-0.1c0-3.4-1.2-6.5-3.6-8.9
			C50.4,26.5,47.2,25.2,43.9,25.2z M51.8,45.7c-2.1,2.1-5,3.3-7.9,3.3c-2.9,0-5.8-1.2-7.9-3.3c-2.1-2.1-3.3-4.9-3.3-7.9
			s1.2-5.8,3.3-7.9c2.1-2.1,4.9-3.3,7.9-3.3s5.8,1.2,7.9,3.3c2.1,2.1,3.3,4.9,3.3,7.9S53.9,43.6,51.8,45.7z M55.2,37.8
			c0-3.1-1.2-5.9-3.3-8C54,31.9,55.2,34.8,55.2,37.8C55.2,37.8,55.2,37.8,55.2,37.8z M0.2,34.3c-0.3,0.5-0.3,1.2,0,1.7
			C-0.1,35.4-0.1,34.8,0.2,34.3z"/>
</svg>
