<?xml version="1.0" encoding="utf-8"?>
<svg version="1.1" xmlns="http://www.w3.org/2000/svg" xmlns:xlink="http://www.w3.org/1999/xlink" x="0px" y="0px"
	 viewBox="0 0 45 56" xml:space="preserve">

		<path d="M18.4,45.9L18.4,45.9L18.4,45.9L18.4,45.9L18.4,45.9c-4-2.2-7-5.1-8.8-8.7c-0.5-0.9-0.9-2.1-1.3-3.3
			c-0.3-1.2-0.6-2.4-0.5-3.4l-0.1,0v0l0.1,0v-16c0-0.4-0.3-0.7-0.6-0.7c-0.4,0-0.6,0.3-0.6,0.7v16h0c-0.1,2.3,1,5.4,1.9,7.4l0.1,0v0
			l0,0l-0.1,0l0,0c2,3.8,5.1,6.9,9.3,9.2l0,0l0,0l0-0.1l0,0l0,0.1c0.1,0,0.1,0,0.2,0v0h0.1c0.2,0,0.5-0.1,0.6-0.3l0,0c0,0,0,0,0,0
			c0,0,0,0,0,0l0,0C18.9,46.5,18.8,46.1,18.4,45.9z M6.6,30.4L6.6,30.4L6.6,30.4L6.6,30.4z M40.8,16.4L40.8,16.4l0-4.4
			c0-0.2-0.1-0.4-0.2-0.5c-0.1-0.1-0.3-0.2-0.5-0.2c-4.9,0.4-9.4-0.5-13.5-2.9l-0.1,0.1h0l0.1-0.1l0,0c-1.1-0.7-2.4-1.6-3.6-2.6l0,0
			c-0.1-0.1-0.3-0.2-0.5-0.2h0v0c-0.2,0-0.3,0.1-0.4,0.2l0,0c-1.2,1-2.5,2-3.6,2.6l0,0c-4.1,2.4-8.7,3.4-13.5,2.9h0l0,0.1l0,0l0-0.1
			c-0.2,0-0.4,0-0.5,0.2c-0.1,0.1-0.2,0.3-0.2,0.5v18.3h0c0,1.3,0.2,2.8,0.7,4.4l0.1,0v0l-0.1,0c0.4,1.4,1,2.9,1.6,4.1c0,0,0,0,0,0
			l0,0c1.6,3.1,3.8,5.7,6.7,7.9l0,0c2.6,1.9,5.7,3.5,9.2,4.7l0,0h0.2c0.1,0,0.1,0,0.2,0l0-0.1l0,0.1l0,0l0-0.1l0,0l0,0.1
			c3.5-1.2,6.6-2.8,9.2-4.7v0l0-0.1l0,0l0,0l0.1,0.1c0.9-0.7,1.7-1.4,2.5-2.2l0,0c0.1-0.1,0.2-0.1,0.2-0.2l0,0
			c1.6-1.6,2.9-3.4,3.9-5.4c0.1-0.1,0.2-0.2,0.2-0.4l0,0c0.6-1.2,1.1-2.5,1.5-3.9c0.1-0.5,0.2-0.9,0.3-1.4c0.1-0.1,0.1-0.2,0.1-0.3
			c0,0,0-0.1,0-0.1c0.2-1,0.3-1.8,0.2-2.6h0v-2.7h0c0,0,0-0.1,0-0.1c0,0,0-0.1,0-0.1h0v-5.3h0c0,0,0-0.1,0-0.1c0,0,0-0.1,0-0.1h0
			v-5.3h0c0,0,0-0.1,0-0.1C40.8,16.5,40.8,16.5,40.8,16.4z M19.1,9.5L19.1,9.5L19.1,9.5L19.1,9.5z M21.9,38.5
			C21.9,38.5,21.9,38.6,21.9,38.5c0,0.1,0,0.1,0,0.1V50c-6.8-2.5-11.6-6.4-14.3-11.7l-0.1,0v0l0.1,0l0,0c-1.1-2.1-2.1-5.4-2.1-7.9
			l0,0l0,0V12.7c2.3,0.2,4.5,0,6.6-0.5c2.4-0.5,4.8-1.4,7-2.7l0,0c0.9-0.5,1.8-1.2,2.8-1.9V38.5z M22.3,51.4L22.3,51.4L22.3,51.4
			L22.3,51.4L22.3,51.4L22.3,51.4z M22.9,5.9L22.9,5.9L22.9,5.9L22.9,5.9z M25.9,9.5L25.9,9.5L25.9,9.5L25.9,9.5z M23.1,7.7
			c0.9,0.7,1.9,1.4,2.8,1.9v0c2.2,1.3,4.5,2.2,7,2.7v0c2.1,0.5,4.4,0.6,6.6,0.5v3.2H23.1V7.7z M23.1,17.2h16.3v4.2H23.1V17.2z
			 M23.1,22.7h16.3v4.2H23.1V22.7z M23.1,50v-5.3h9.2C29.9,46.9,26.8,48.7,23.1,50z M33.7,43.4H23.1v-4.2h13.8
			C36,40.8,35,42.2,33.7,43.4z M37.6,37.9H23.1v-4.2h15.9C38.7,35.2,38.2,36.7,37.6,37.9z M39.6,30.4L39.6,30.4
			c-0.1,0.6-0.1,1.3-0.3,2.1H23.1v-4.2h16.3L39.6,30.4l-0.1,0L39.6,30.4L39.6,30.4L39.6,30.4z M44.1,30.3L44.1,30.3l0-22.1
			c0-0.2-0.1-0.4-0.2-0.5l-0.1,0.1v0l0,0l0.1-0.1l0,0c-0.2-0.1-0.4-0.2-0.5-0.1l0,0c-5.5,1.3-10.6,0.6-15.1-2l-0.1,0.1h0l0.1-0.1h0
			c-1.7-1-3-2.1-3.8-2.9c-0.4-0.4-0.8-0.8-1-1c-0.1-0.1-0.2-0.2-0.2-0.3c0,0,0-0.1-0.1-0.1c0,0,0,0,0,0c0,0,0,0,0,0l0,0l0,0
			c-0.1-0.2-0.3-0.3-0.5-0.3c-0.2,0-0.4,0.1-0.5,0.3l0,0c0,0,0,0,0,0c0,0,0,0,0,0c0,0,0,0,0,0c0,0,0,0,0,0l0,0l0,0
			c-0.2,0.2-1.9,2.5-5.1,4.3l0,0c-4.5,2.6-9.6,3.3-15.1,2l0,0c-0.2,0-0.4,0-0.5,0.1C1,7.8,0.9,8,0.9,8.2v22.1l0,0
			c0,0.2,0,1.3,0.2,2.9h0c0.3,1.6,0.8,4.2,2.2,6.9l0,0C4.9,43.2,7,46,9.7,48.3c3.4,2.9,7.6,5.2,12.6,6.8l0,0c0,0,0.1,0,0.1,0v0h0.1
			c0.1,0,0.1,0,0.2,0l0,0c5-1.6,9.3-3.9,12.6-6.8l0,0l0,0l0,0l0.1,0.1c2.7-2.3,4.8-5.1,6.3-8.2v0c1.3-2.8,1.9-5.3,2.2-6.9v0l-0.1,0
			l0,0l0.1,0C44.1,31.6,44.1,30.5,44.1,30.3z M1.7,7.7L1.7,7.7L1.7,7.7L1.7,7.7z M22,1.2L22,1.2L22,1.2L22,1.2z M22,1.2L22,1.2
			L22,1.2L22,1.2z M4.4,39.6L4.4,39.6L4.4,39.6L4.4,39.6z M22.5,53.9L22.5,53.9L22.5,53.9L22.5,53.9z M22.7,55L22.7,55L22.7,55
			L22.7,55z M42.9,30.3L42.9,30.3l-0.1,0v0c0,0.2,0.1,4.3-2.3,9.2l0.1,0c0,0,0,0,0,0l0,0l-0.1,0l0,0c-2.2,4.6-7.2,10.8-18,14.2
			c-10.8-3.4-15.7-9.6-18-14.2h0c-1.3-2.6-1.8-5-2.1-6.5c-0.1-0.8-0.2-1.5-0.2-2c0-0.2,0-0.4,0-0.6c0-0.1,0-0.1,0-0.1c0,0,0,0,0,0
			c0,0,0,0,0,0c0,0,0,0,0,0v0v0h0V9C5.1,9.6,8,9.6,10.8,9.1l0,0l0-0.1l0,0c0,0,0,0,0,0l0,0.1c2.4-0.4,4.7-1.3,6.8-2.5
			c2.5-1.5,4.2-3.2,5-4.1c0.8,0.9,2.4,2.6,5,4.1v0c2.1,1.2,4.4,2.1,6.8,2.5l0-0.1l0,0l0,0.1h0C37,9.6,39.9,9.6,42.8,9v21.3
			L42.9,30.3L42.9,30.3l-0.1,0l0,0L42.9,30.3L42.9,30.3z"/>
</svg>
