<svg width="22" height="22" viewBox="0 0 22 22" fill="none" xmlns="http://www.w3.org/2000/svg">
<path fill-rule="evenodd" clip-rule="evenodd" d="M10.9987 0C11.979 0 12.8736 0.518222 13.3772 1.33956C13.6363 1.76489 13.9907 1.09267 15.1396 1.10489C16.6478 1.11956 17.8505 2.32467 17.8872 3.82311C17.8994 4.31689 18.5496 3.91844 19.5323 4.50022C20.8254 5.26533 21.2678 6.91533 20.5516 8.228C20.3145 8.66556 21.0747 8.63622 21.6394 9.63844C22.3801 10.9511 21.9327 12.5962 20.6567 13.376C20.2314 13.6351 20.9036 13.9896 20.8914 15.1384C20.8767 16.6467 19.6716 17.8493 18.1732 17.886C17.6794 17.8982 18.0778 18.5484 17.4961 19.5311C16.731 20.8242 15.081 21.2667 13.7683 20.5504C13.3307 20.3133 13.3601 21.0736 12.3578 21.6382C11.0452 22.3789 9.40007 21.9316 8.62029 20.6556C8.36118 20.2302 8.00673 20.9024 6.85784 20.8902C5.35207 20.8756 4.14696 19.6729 4.11029 18.172C4.09807 17.6782 3.44296 18.0742 2.46518 17.4973C1.17207 16.7322 0.729622 15.0822 1.44584 13.7696C1.68296 13.332 0.922733 13.3613 0.358067 12.3591C-0.3826 11.0464 0.0647332 9.40133 1.34073 8.62156C1.76607 8.36244 1.09384 8.008 1.10607 6.85911C1.12073 5.35333 2.3234 4.14822 3.82429 4.11156C4.31807 4.09933 3.92207 3.44422 4.5014 2.46644C5.26651 1.17333 6.91651 0.730889 8.22918 1.44711C8.66673 1.68422 8.6374 0.924 9.63962 0.359333C10.043 0.129556 10.5074 0 10.9987 0ZM11.6441 1.63533C11.0232 1.28578 10.241 1.496 9.87184 2.10222C9.38296 2.904 8.35629 3.18022 7.53251 2.73044C6.65007 2.25133 5.59896 2.87711 5.57451 3.85978C5.55007 4.80333 4.80207 5.55133 3.86096 5.57333C2.87829 5.59778 2.25007 6.64889 2.73162 7.53133C3.1814 8.35756 2.90518 9.38178 2.1034 9.87067C1.25762 10.3864 1.25762 11.6111 2.1034 12.1293C2.90518 12.6182 3.1814 13.6449 2.73162 14.4687C2.25251 15.3511 2.87829 16.4022 3.86096 16.4267C4.80451 16.4487 5.55251 17.1991 5.57451 18.1402C5.59896 19.1229 6.65007 19.7511 7.53251 19.2696C8.35873 18.8198 9.38296 19.096 9.87184 19.8978C10.3876 20.7436 11.6123 20.7436 12.1305 19.8978C12.6194 19.096 13.6461 18.8198 14.4698 19.2696C15.3523 19.7487 16.4034 19.1229 16.4278 18.1402C16.4498 17.2016 17.2027 16.4487 18.1414 16.4267C19.1241 16.4022 19.7523 15.3511 19.2707 14.4687C18.821 13.6424 19.0972 12.6182 19.899 12.1293C20.7447 11.6136 20.7447 10.3889 19.899 9.87067C19.0972 9.38178 18.821 8.35511 19.2707 7.53133C19.7498 6.64889 19.1241 5.59778 18.1414 5.57333C17.2027 5.55133 16.4498 4.79844 16.4278 3.85978C16.4034 2.87711 15.3523 2.24889 14.4698 2.73044C13.6436 3.18022 12.6194 2.904 12.1305 2.10222C12.0132 1.90911 11.8445 1.74778 11.6465 1.63533H11.6441Z" fill="#FF683C"/>
<path d="M15.3663 6.72659C15.3517 6.54815 15.271 6.38437 15.1341 6.26704C14.853 6.02504 14.4277 6.05926 14.1857 6.34037L6.94032 14.781C6.82299 14.9179 6.76676 15.0915 6.77899 15.2699C6.79121 15.4484 6.87432 15.6121 7.01121 15.7295C7.13343 15.8346 7.28743 15.8908 7.44876 15.8908C7.64432 15.8908 7.8301 15.8053 7.95965 15.6561L15.205 7.21548C15.3223 7.07859 15.3785 6.90504 15.3663 6.72659Z" fill="#FF683C"/>
<path d="M9.61281 8.27125C9.61281 7.07591 8.63992 6.10547 7.44703 6.10547C6.25414 6.10547 5.28125 7.07836 5.28125 8.27125C5.28125 9.46414 6.25414 10.437 7.44703 10.437C8.63992 10.437 9.61281 9.46414 9.61281 8.27125ZM7.44703 7.44991C7.89925 7.44991 8.26836 7.81902 8.26836 8.27125C8.26836 8.72347 7.89925 9.09258 7.44703 9.09258C6.99481 9.09258 6.62569 8.72347 6.62569 8.27125C6.62569 7.81902 6.99481 7.44991 7.44703 7.44991Z" fill="#FF683C"/>
<path d="M14.5564 11.5586C13.3611 11.5586 12.3906 12.5315 12.3906 13.7244C12.3906 14.9173 13.3611 15.8901 14.5564 15.8901C15.7517 15.8901 16.7222 14.9197 16.7222 13.7244C16.7222 12.529 15.7493 11.5586 14.5564 11.5586ZM14.5564 14.5457C14.1042 14.5457 13.7351 14.1766 13.7351 13.7244C13.7351 13.2721 14.1042 12.903 14.5564 12.903C15.0086 12.903 15.3777 13.2721 15.3777 13.7244C15.3777 14.1766 15.0086 14.5457 14.5564 14.5457Z" fill="#FF683C"/>
</svg>
