<svg viewBox="0 0 24 24" xmlns="http://www.w3.org/2000/svg">
<path d="M11.4524 22.6645C5.27069 22.6645 0.237783 17.6321 0.237783 11.4511C0.237783 5.27009 5.27069 0.237755 11.4524 0.237755C17.6341 0.237755 22.667 5.27009 22.667 11.4511C22.667 17.6321 17.6341 22.6645 11.4524 22.6645ZM11.4524 1.87873C6.16786 1.87873 1.87895 6.1781 1.87895 11.4511C1.87895 16.7241 6.16786 21.0235 11.4524 21.0235C16.737 21.0235 21.0259 16.7241 21.0259 11.4511C21.0259 6.1781 16.737 1.87873 11.4524 1.87873Z" />
<path fill-rule="evenodd" clip-rule="evenodd" d="M11.4533 22.9041C5.13978 22.9041 0 17.7649 0 11.452C0 5.1392 5.13978 0 11.4533 0C17.7669 0 22.9067 5.1392 22.9067 11.452C22.9067 17.7649 17.7669 22.9041 11.4533 22.9041ZM11.4533 2.11835C6.30081 2.11835 2.1186 6.31068 2.1186 11.452C2.1186 16.5934 6.30081 20.7857 11.4533 20.7857C16.6059 20.7857 20.7881 16.5934 20.7881 11.452C20.7881 6.31068 16.6059 2.11835 11.4533 2.11835ZM0.238715 11.452C0.238715 17.6331 5.27162 22.6654 11.4533 22.6654C17.6351 22.6654 22.668 17.6331 22.668 11.452C22.668 5.27102 17.6351 0.238688 11.4533 0.238688C5.27162 0.238688 0.238715 5.27102 0.238715 11.452ZM1.87988 11.452C1.87988 6.17903 6.16879 1.87967 11.4533 1.87967C16.7379 1.87967 21.0268 6.17903 21.0268 11.452C21.0268 16.7251 16.7379 21.0244 11.4533 21.0244C6.16879 21.0244 1.87988 16.7251 1.87988 11.452Z" />
<path d="M22.9425 23.7604C22.7346 23.7604 22.5267 23.6838 22.3626 23.5197L20.1744 21.3317C19.8571 21.0145 19.8571 20.4894 20.1744 20.1721C20.4917 19.8548 21.0169 19.8548 21.3342 20.1721L23.5224 22.3601C23.8397 22.6773 23.8397 23.2024 23.5224 23.5197C23.3583 23.6838 23.1504 23.7604 22.9425 23.7604Z" />
<path fill-rule="evenodd" clip-rule="evenodd" d="M22.9434 24C22.6757 24 22.406 23.9006 22.1948 23.6894L20.0065 21.5014C19.596 21.091 19.596 20.4147 20.0065 20.0043C20.4171 19.5938 21.0934 19.5938 21.5039 20.0043L23.6921 22.1922C24.1026 22.6027 24.1026 23.2789 23.6921 23.6894C23.4809 23.9006 23.2112 24 22.9434 24ZM22.3636 23.5206C22.5277 23.6847 22.7356 23.7613 22.9434 23.7613C23.1513 23.7613 23.3592 23.6847 23.5233 23.5206C23.8406 23.2034 23.8406 22.6783 23.5233 22.361L21.3351 20.173C21.0178 19.8558 20.4926 19.8558 20.1753 20.173C19.858 20.4903 19.858 21.0154 20.1753 21.3327L22.3636 23.5206Z" />
</svg>
