<?xml version="1.0" encoding="utf-8"?>
<svg version="1.1" xmlns="http://www.w3.org/2000/svg" xmlns:xlink="http://www.w3.org/1999/xlink" x="0px" y="0px"
	 viewBox="0 0 22 22.1" xml:space="preserve">
<g>
	<path d="M10.5,0C4.8,0,0,4.8,0,10.5C0,16.3,4.7,21,10.5,21S21,16.3,21,10.5C21,4.8,16.3,0,10.5,0z M1.8,10.5c0-4.8,3.9-8.8,8.8-8.8
		c2.4,0,4.6,1,6.2,2.6c-1.6-1.6-3.8-2.6-6.2-2.6C5.7,1.8,1.8,5.7,1.8,10.5c0,2.4,1,4.6,2.6,6.2C2.8,15.2,1.8,13,1.8,10.5z
		 M19.1,10.5c0,4.7-3.8,8.6-8.6,8.6c-4.7,0-8.6-3.8-8.6-8.6s3.8-8.6,8.6-8.6C15.3,2,19.1,5.8,19.1,10.5z M10.5,20.8
		c-2.8,0-5.4-1.2-7.3-3C5.1,19.7,7.7,20.8,10.5,20.8c5.7,0,10.3-4.6,10.3-10.3c0-2.8-1.2-5.4-3-7.3c1.9,1.9,3,4.4,3,7.3
		C20.8,16.2,16.2,20.8,10.5,20.8z M21.8,20.4l-2-2c-0.4-0.4-1-0.4-1.4,0s-0.4,1,0,1.4l2,2c0.2,0.2,0.4,0.3,0.7,0.3s0.5-0.1,0.7-0.3
		C22.1,21.4,22.1,20.8,21.8,20.4z M21.6,21.6c-0.2,0.2-0.3,0.2-0.5,0.2s-0.4-0.1-0.5-0.2l-2-2l2,2c0.2,0.2,0.3,0.2,0.5,0.2
		S21.5,21.8,21.6,21.6c0.3-0.3,0.3-0.8,0-1.1l-2-2l2,2C21.9,20.8,21.9,21.3,21.6,21.6z"/>
</g>
</svg>
