<svg viewBox="0 0 22 18" xmlns="http://www.w3.org/2000/svg">
<path d="M2.09714 10.1375C2.09714 10.1375 2.09551 10.1375 2.09497 10.137L2.19508 10.169C2.16207 10.1584 2.1296 10.1482 2.09714 10.1375C3.10685 10.5045 4.17068 10.762 5.34273 10.9019H5.35084C6.17875 10.8672 6.93901 10.5707 7.54072 10.1023C13.0584 6.42609 15.9063 4.56824 16.0849 4.52818L16.0822 4.52978C16.1363 4.50948 16.1947 4.49773 16.2553 4.49773C16.3473 4.49773 16.435 4.52284 16.5053 4.56877C16.5686 4.64089 16.6081 4.73544 16.6081 4.8396C16.6081 4.86898 16.6054 4.89729 16.6 4.9224C16.4983 5.34439 11.3161 9.9981 11.0168 10.3053C9.87779 11.4724 8.58074 12.1898 10.5812 13.4889C12.3117 14.615 13.3193 15.3334 15.1022 16.4883C16.2413 17.2255 17.1341 18.0999 18.3099 17.992C18.8511 17.9439 19.41 17.4418 19.6941 15.9418C20.3651 12.4003 21.6854 4.72849 21.9895 1.56459V1.57634C21.996 1.49087 21.9992 1.40541 21.9992 1.31834C21.9992 1.12764 21.9841 0.940143 21.957 0.777755V0.773481C21.9316 0.559812 21.8261 0.370181 21.6692 0.23557C21.4549 0.0876042 21.1941 0.00160252 20.9127 0.00160252H20.8829L20.8818 0L20.6697 0.0416654C18.0194 0.649553 15.4994 1.58649 13.3252 2.72588C11.3545 3.53408 7.41681 5.20818 1.51111 7.7487C0.553343 8.12583 0.0511914 8.49387 0.00519685 8.8539C-0.0792166 9.5275 0.875305 9.74918 2.09768 10.1381L2.09714 10.1375Z" />
</svg>
