<?xml version="1.0" encoding="utf-8"?>
<svg version="1.1" xmlns="http://www.w3.org/2000/svg" xmlns:xlink="http://www.w3.org/1999/xlink" x="0px" y="0px"
	 viewBox="0 0 26 24" xml:space="preserve">
<g>
	<path d="M15.3,16.3l-2.9,2.9c-1.2,1.2-2.9,1.6-4.5,1.2C6.3,20,5,18.7,4.6,17.1c-0.4-1.6,0-3.3,1.2-4.5l2.9-2.9
		C9,9.4,9,9,8.7,8.7s-0.7-0.3-1,0l-2.9,2.9c-1.5,1.5-2.1,3.8-1.6,5.9c0.6,2.1,2.2,3.7,4.3,4.3c2.1,0.6,4.3,0,5.9-1.6l2.9-2.9
		c0.3-0.3,0.3-0.7,0-1C16,16,15.6,16,15.3,16.3z"/>
	<path d="M9.1,22.5c-0.6,0-1.1-0.1-1.7-0.2c-2.3-0.6-4.1-2.4-4.7-4.7c-0.6-2.3,0-4.7,1.7-6.4l2.9-2.9
		c0.5-0.5,1.3-0.5,1.7,0c0.2,0.2,0.4,0.5,0.4,0.9c0,0.3-0.1,0.6-0.4,0.9L6.1,13c-1.1,1.1-1.5,2.6-1.1,4c0.4,1.4,1.5,2.6,3,3
		c1.4,0.4,3,0,4-1.1l2.9-2.9c0.5-0.5,1.2-0.5,1.7,0c0.2,0.2,0.4,0.5,0.4,0.9c0,0.3-0.1,0.6-0.4,0.9l-2.9,2.9
		C12.5,21.8,10.8,22.5,9.1,22.5z M8.2,9C8.1,9,8.1,9,8.1,9L5.1,12c-1.4,1.4-2,3.5-1.4,5.4c0.5,1.9,2,3.4,4,4c1.9,0.5,4,0,5.4-1.4
		L16,17c0.1-0.1,0.1-0.1,0.1-0.1s0-0.1-0.1-0.1c-0.1-0.1-0.2-0.1-0.3,0l-2.9,2.9c-1.3,1.3-3.2,1.8-5,1.3C6,20.4,4.6,19,4.1,17.3
		c-0.5-1.8,0-3.7,1.3-5l2.9-2.9c0.1-0.1,0.1-0.1,0.1-0.1c0,0,0-0.1-0.1-0.1C8.3,9,8.3,9,8.2,9z"/>
</g>
<g>
	<path d="M21.2,3.8C20.1,2.6,18.5,2,16.9,2s-3.2,0.6-4.3,1.8L9.7,6.7c-0.3,0.3-0.3,0.7,0,1c0.3,0.3,0.7,0.3,1,0l2.9-2.9
		c1.2-1.2,2.9-1.6,4.5-1.2C19.7,4,21,5.3,21.4,6.9c0.4,1.6,0,3.3-1.2,4.5l-2.9,2.9c-0.1,0.1-0.2,0.3-0.2,0.5s0.1,0.4,0.2,0.5
		c0.3,0.3,0.7,0.3,1,0l2.9-2.9c1.1-1.1,1.8-2.7,1.8-4.3C23,6.5,22.4,4.9,21.2,3.8z"/>
	<path d="M17.8,16c-0.3,0-0.6-0.1-0.9-0.3c-0.2-0.2-0.4-0.5-0.4-0.9c0-0.3,0.1-0.6,0.4-0.9l2.9-2.9
		c1.1-1.1,1.5-2.6,1.1-4c-0.4-1.4-1.5-2.6-3-3c-1.4-0.4-3,0-4,1.1L11,8.1c-0.5,0.5-1.3,0.5-1.7,0C9.1,7.8,9,7.5,9,7.2
		c0-0.3,0.1-0.6,0.4-0.9l2.9-2.9c1.2-1.2,2.9-1.9,4.7-1.9c1.7,0,3.4,0.7,4.7,1.9l0,0c1.2,1.2,1.9,2.9,1.9,4.7c0,1.7-0.7,3.4-1.9,4.7
		l-2.9,2.9C18.4,15.9,18.1,16,17.8,16z M16.9,2.9c0.4,0,0.9,0.1,1.3,0.2C20,3.6,21.4,5,21.9,6.7c0.5,1.8,0,3.7-1.3,5l-2.9,2.9
		c0,0-0.1,0.1-0.1,0.1c0,0.1,0,0.1,0.1,0.1c0.1,0.1,0.2,0.1,0.3,0l2.9-2.9c1-1,1.6-2.5,1.6-3.9c0-1.5-0.6-2.9-1.6-4
		c-1-1-2.5-1.6-4-1.6c-1.5,0-2.9,0.6-4,1.6L10,7.1C10,7.1,10,7.3,10,7.3c0.1,0.1,0.2,0.1,0.3,0l2.9-2.9C14.2,3.4,15.6,2.9,16.9,2.9z
		"/>
</g>
<g>
	<path d="M15.9,9.2c-0.1-0.1-0.3-0.2-0.5-0.2S15,9,14.9,9.2l-4.7,4.7C10,14,9.9,14.2,9.9,14.4c0,0.2,0.1,0.4,0.2,0.5
		c0.1,0.1,0.3,0.2,0.5,0.2c0.2,0,0.4-0.1,0.5-0.2l4.7-4.7c0.1-0.1,0.2-0.3,0.2-0.5C16.1,9.5,16,9.3,15.9,9.2z"/>
	<path d="M10.6,15.6c-0.3,0-0.6-0.1-0.9-0.4c-0.2-0.2-0.3-0.5-0.3-0.8c0-0.3,0.1-0.6,0.4-0.9l4.7-4.7
		c0.5-0.5,1.3-0.4,1.7,0c0.2,0.2,0.4,0.5,0.4,0.9c0,0.3-0.1,0.6-0.4,0.9l-4.7,4.7C11.3,15.4,11,15.6,10.6,15.6z M15.4,9.4
		c-0.1,0-0.1,0-0.1,0.1l-4.7,4.7c0,0-0.1,0.1-0.1,0.1s0,0.1,0.1,0.1c0.1,0.1,0.2,0.1,0.3,0l4.7-4.7c0,0,0.1-0.1,0.1-0.1
		c0-0.1,0-0.1-0.1-0.1l0,0C15.5,9.5,15.4,9.4,15.4,9.4z"/>
</g>
</svg>
