<svg viewBox="0 0 19 19" fill="none" xmlns="http://www.w3.org/2000/svg">
<path d="M18.1525 9.6045C18.1525 9.51443 18.0793 9.43984 17.9892 9.43562C14.7565 9.31319 12.789 8.90083 11.4126 7.52446C10.0335 6.14526 9.62251 4.17639 9.50008 0.93669C9.49726 0.846619 9.42268 0.773438 9.3312 0.773438H8.95403C8.86396 0.773438 8.78938 0.846619 8.78515 0.93669C8.6627 4.17498 8.25177 6.14526 6.87257 7.52446C5.49479 8.90224 3.52872 9.31319 0.296064 9.43562C0.205994 9.43844 0.132812 9.51302 0.132812 9.6045V9.98167C0.132812 10.0717 0.205994 10.1463 0.296064 10.1505C3.52872 10.273 5.49619 10.6853 6.87257 12.0617C8.24896 13.4381 8.65989 15.4014 8.78374 18.6283C8.78656 18.7184 8.86114 18.7916 8.95262 18.7916H9.3312C9.42127 18.7916 9.49586 18.7184 9.50008 18.6283C9.62392 15.4014 10.0349 13.4381 11.4112 12.0617C12.789 10.6839 14.7551 10.273 17.9877 10.1505C18.0778 10.1477 18.151 10.0731 18.151 9.98167V9.6045H18.1525Z" />
</svg>
