<svg viewBox="0 0 19 16" fill="none" xmlns="http://www.w3.org/2000/svg">
<path d="M1.98503 8.7823C1.98503 8.7823 1.98369 8.7823 1.98325 8.78186L2.06588 8.80832C2.03863 8.7995 2.01183 8.79112 1.98503 8.7823C2.81852 9.08523 3.69668 9.29776 4.66418 9.41329H4.67088C5.35429 9.38463 5.98186 9.1399 6.47856 8.7532C11.0333 5.71862 13.3841 4.18502 13.5315 4.15195L13.5293 4.15327C13.574 4.13651 13.6222 4.12681 13.6722 4.12681C13.7482 4.12681 13.8205 4.14754 13.8786 4.18546C13.9309 4.24498 13.9635 4.32303 13.9635 4.40902C13.9635 4.43327 13.9612 4.45664 13.9568 4.47736C13.8728 4.82571 9.595 8.66721 9.34799 8.92076C8.40774 9.88422 7.33707 10.4764 8.98842 11.5488C10.4169 12.4783 11.2486 13.0714 12.7204 14.0247C13.6606 14.6332 14.3976 15.355 15.3682 15.2659C15.8149 15.2263 16.2763 14.8118 16.5108 13.5736C17.0647 10.6501 18.1546 4.3173 18.4056 1.70559V1.71529C18.411 1.64474 18.4137 1.57419 18.4137 1.50231C18.4137 1.3449 18.4012 1.19012 18.3788 1.05608V1.05255C18.3578 0.876172 18.2707 0.719637 18.1412 0.608519C17.9643 0.486377 17.749 0.415385 17.5167 0.415385H17.4922L17.4913 0.414062L17.3162 0.448456C15.1284 0.950251 13.0482 1.72367 11.2535 2.6642C9.62671 3.33135 6.37627 4.71327 1.50129 6.8104C0.710676 7.1217 0.296163 7.42551 0.258196 7.72271C0.188515 8.27874 0.976446 8.46173 1.98548 8.78274L1.98503 8.7823Z" />
</svg>
