<svg viewBox="0 0 22 19" fill="none" xmlns="http://www.w3.org/2000/svg">
<path d="M11.7955 11.3491H4.73878V8.65664H11.7955C12.2076 8.65664 12.4943 8.72591 12.6381 8.84688C12.7819 8.96787 12.871 9.19224 12.871 9.52001V10.4868C12.871 10.8321 12.7819 11.0565 12.6381 11.1775C12.4943 11.2985 12.2076 11.3491 11.7955 11.3491ZM12.2796 6.11822H1.74609V17.6326H4.73878V13.8865H10.254L12.871 17.6326H16.2222L13.3369 13.869C14.4007 13.7169 14.8783 13.4026 15.2723 12.8846C15.6662 12.3665 15.8637 11.5383 15.8637 10.433V9.56963C15.8637 8.91409 15.7917 8.39607 15.6662 7.99902C15.5406 7.60198 15.326 7.25663 15.0211 6.94643C14.6991 6.65279 14.3405 6.44598 13.91 6.30743C13.4797 6.18646 12.9419 6.11822 12.2796 6.11822Z" />
<path d="M18.5257 6.11347C19.7955 6.11347 20.8248 5.13318 20.8248 3.92392C20.8248 2.71467 19.7955 1.73438 18.5257 1.73438C17.2559 1.73438 16.2266 2.71467 16.2266 3.92392C16.2266 5.13318 17.2559 6.11347 18.5257 6.11347Z"/>
</svg>
