<svg width="22" height="22" viewBox="0 0 22 22" xmlns="http://www.w3.org/2000/svg">
<path d="M21.8959 10.706C21.8959 10.5969 21.8072 10.5065 21.6981 10.5014C17.7819 10.3531 15.3985 9.85357 13.7311 8.18619C12.0603 6.51539 11.5625 4.13025 11.4142 0.205581C11.4108 0.0964669 11.3204 0.0078125 11.2096 0.0078125H10.7527C10.6436 0.0078125 10.5532 0.0964669 10.5481 0.205581C10.3998 4.12854 9.90195 6.51539 8.23114 8.18619C6.56206 9.85528 4.18031 10.3531 0.264174 10.5014C0.155061 10.5048 0.0664062 10.5952 0.0664062 10.706V11.1629C0.0664062 11.272 0.155061 11.3624 0.264174 11.3675C4.18031 11.5159 6.56376 12.0154 8.23114 13.6828C9.89853 15.3501 10.3963 17.7285 10.5464 21.6377C10.5498 21.7469 10.6402 21.8356 10.751 21.8356H11.2096C11.3187 21.8356 11.4091 21.7469 11.4142 21.6377C11.5642 17.7285 12.062 15.3501 13.7294 13.6828C15.3985 12.0137 17.7802 11.5159 21.6964 11.3675C21.8055 11.3641 21.8942 11.2737 21.8942 11.1629V10.706H21.8959Z"/>
</svg>
