<svg width="25" height="21" viewBox="0 0 25 21" xmlns="http://www.w3.org/2000/svg">
<path d="M13.596 12.6115H5.04731V9.3498H13.596C14.0953 9.3498 14.4425 9.43371 14.6167 9.58027C14.791 9.72683 14.8989 9.99864 14.8989 10.3957V11.5669C14.8989 11.9852 14.791 12.2571 14.6167 12.4036C14.4425 12.5502 14.0953 12.6115 13.596 12.6115ZM14.1824 6.27468H1.42188V20.2235H5.04731V15.6854H11.7286L14.8989 20.2235H18.9586L15.4634 15.6641C16.752 15.4799 17.3306 15.0992 17.8079 14.4716C18.2851 13.8441 18.5244 12.8408 18.5244 11.5018V10.4558C18.5244 9.66169 18.4372 9.03414 18.2851 8.55314C18.1329 8.07216 17.8729 7.6538 17.5036 7.27801C17.1135 6.92228 16.6791 6.67175 16.1576 6.50391C15.6363 6.35735 14.9848 6.27468 14.1824 6.27468Z" />
<path d="M21.7462 6.27371C23.2845 6.27371 24.5314 5.08616 24.5314 3.62123C24.5314 2.15631 23.2845 0.96875 21.7462 0.96875C20.2078 0.96875 18.9609 2.15631 18.9609 3.62123C18.9609 5.08616 20.2078 6.27371 21.7462 6.27371Z"/>
</svg>
