<?xml version="1.0" encoding="utf-8"?>
<svg version="1.1" xmlns="http://www.w3.org/2000/svg" xmlns:xlink="http://www.w3.org/1999/xlink" x="0px" y="0px"
	 viewBox="0 0 16 16" xml:space="preserve">

<path d="M11.8,15.4H4.2c-1.8,0-3.3-1.5-3.3-3.3c0-0.4,0.3-0.8,0.8-0.8s0.8,0.3,0.8,0.8c0,1,0.8,1.8,1.8,1.8h7.7
	c1,0,1.8-0.8,1.8-1.8v0h-0.5c-1.1,0-2.1-0.8-2.2-1.9c-0.1-0.6,0.2-1.2,0.6-1.7c0.4-0.4,0.9-0.6,1.5-0.6h0.6V7.7c0-1-0.8-1.8-1.8-1.8
	H4.2c-1,0-1.8,0.8-1.8,1.8v1.7c0,0.4-0.3,0.8-0.8,0.8S0.9,9.8,0.9,9.4V7.7c0-1.8,1.5-3.3,3.3-3.3h7.7c1.8,0,3.3,1.5,3.3,3.3v1
	c0,0.4-0.3,0.8-0.8,0.8H13c-0.2,0-0.3,0.1-0.4,0.2c-0.1,0.1-0.2,0.3-0.2,0.5c0,0.3,0.3,0.6,0.7,0.6h1.3c0.4,0,0.8,0.3,0.8,0.8v0.8
	C15.1,14,13.6,15.4,11.8,15.4z"/>
<path d="M9.9,5.9c-0.4,0-0.8-0.3-0.8-0.8V2.6c0-0.2-0.2-0.4-0.2-0.4c-0.1,0-0.2-0.1-0.5-0.1c-0.4,0.1-0.8,0-1-0.4
	c-0.1-0.4,0-0.8,0.4-1C8.5,0.5,9.2,0.6,9.8,1c0.5,0.4,0.9,1,0.9,1.7v2.5C10.7,5.6,10.3,5.9,9.9,5.9z"/>
<path d="M1.7,9C1.3,9,0.9,8.7,0.9,8.3v-3c0-1.1,0.7-2.1,1.7-2.5l2.6-1c0.4-0.1,0.8,0,1,0.4c0.1,0.4,0,0.8-0.4,1l-2.6,1
	C2.7,4.3,2.4,4.7,2.4,5.2v3C2.4,8.7,2.1,9,1.7,9z"/>
<path d="M13.1,12.1c-1.1,0-2.1-0.8-2.2-1.9c-0.1-0.6,0.2-1.2,0.6-1.7c0.4-0.4,0.9-0.6,1.5-0.6h1.4
	c0.8,0,1.4,0.7,1.4,1.4v1.4c0,0.8-0.6,1.4-1.4,1.4H13.1z M14.3,9.4H13c-0.2,0-0.3,0.1-0.4,0.2c-0.1,0.1-0.2,0.3-0.2,0.5
	c0,0.3,0.3,0.6,0.7,0.6h1.2V9.4z"/>
</svg>
