<?xml version="1.0" encoding="utf-8"?>
<svg version="1.1" xmlns="http://www.w3.org/2000/svg" xmlns:xlink="http://www.w3.org/1999/xlink" x="0px" y="0px"
	 viewBox="0 0 16 16" :space="preserve">
<path d="M10.7,15.4H5.3c-3.3,0-3.9-1.6-4-3L0.8,7C0.7,5.8,0.9,5,1.4,4.3c0.6-0.7,1.7-1.1,3.2-1.1h6.7
	c1.5,0,2.6,0.4,3.2,1.1C15.1,5,15.3,5.8,15.2,7L15,9.4c0,0.4-0.4,0.7-0.8,0.7c-0.4,0-0.7-0.4-0.7-0.8l0.2-2.4c0.1-0.8,0-1.3-0.3-1.6
	c-0.3-0.4-1.1-0.6-2.1-0.6H4.7c-1.1,0-1.8,0.2-2.1,0.6C2.3,5.6,2.2,6.1,2.3,6.9l0.5,5.3C2.9,13,3,13.9,5.3,13.9h5.3
	c2.4,0,2.5-0.9,2.6-1.7c0-0.4,0.4-0.7,0.8-0.7c0.4,0,0.7,0.4,0.7,0.8C14.6,13.8,14,15.4,10.7,15.4z"/>
<path d="M10.7,4.8c-0.4,0-0.8-0.3-0.8-0.8V3.5c0-1.2,0-1.4-1.4-1.4H7.5c-1.4,0-1.4,0.2-1.4,1.4V4c0,0.4-0.3,0.8-0.8,0.8
	S4.6,4.4,4.6,4V3.5c0-1.1,0-2.9,2.9-2.9h1.1c2.9,0,2.9,1.7,2.9,2.9V4C11.4,4.4,11.1,4.8,10.7,4.8z"/>
<path d="M8,11.4c-2.1,0-2.1-1.4-2.1-2.1V8.7c0-1.1,0.3-1.4,1.4-1.4h1.3c1.1,0,1.4,0.3,1.4,1.4v0.7
	C10.1,10,10.1,11.4,8,11.4z M7.5,9.9c0,0,0.1,0.1,0.5,0.1c0.4,0,0.6-0.1,0.6-0.1c0-0.1,0-0.3,0-0.5V8.8H7.4v0.6
	C7.4,9.5,7.4,9.8,7.5,9.9C7.5,9.9,7.5,9.9,7.5,9.9z"/>
<path d="M9.3,10.1c-0.4,0-0.7-0.3-0.7-0.7C8.5,9,8.8,8.7,9.2,8.6C11,8.4,12.6,7.7,14,6.7c0.3-0.2,0.8-0.2,1,0.2
	c0.2,0.3,0.2,0.8-0.2,1C13.3,9.1,11.4,9.8,9.3,10.1C9.4,10.1,9.4,10.1,9.3,10.1z"/>
<path d="M6.7,10.1C6.6,10.1,6.6,10.1,6.7,10.1c-2-0.2-3.8-0.9-5.3-2C1,7.9,0.9,7.4,1.1,7.1c0.2-0.3,0.7-0.4,1-0.2
	c1.4,0.9,3,1.5,4.6,1.7c0.4,0,0.7,0.4,0.7,0.8C7.4,9.8,7,10.1,6.7,10.1z"/>
</svg>
