<?xml version="1.0" encoding="utf-8"?>
<svg version="1.1" id="Layer_1" xmlns="http://www.w3.org/2000/svg" xmlns:xlink="http://www.w3.org/1999/xlink" x="0px" y="0px"
	 viewBox="0 0 22 22" xml:space="preserve">
<path d="M11,21.7c-1,0-2.1-0.5-3.3-1.6c-2.5-2.3-7.6-7-6.2-12.8C1.6,6.9,2,6.7,2.4,6.8C2.8,6.9,3.1,7.3,3,7.7
	C1.8,12.6,6.5,16.9,8.7,19c1.8,1.7,2.7,1.7,4.5,0c3.4-3.2,6.8-7,5.8-11.3C18.4,5,16.5,3,13.8,2.2c-3-0.9-6.4-0.3-8.6,1.7
	C4.9,4.1,4.4,4.1,4.2,3.8C3.9,3.5,3.9,3,4.2,2.7c2.6-2.3,6.5-3.1,10-2c3.2,1,5.5,3.4,6.2,6.6c1.4,5.8-3.8,10.5-6.2,12.8
	C13.1,21.2,12,21.7,11,21.7z"/>
<path d="M11,13.8c-2.1,0-3.8-1.7-3.8-3.8c0-2.1,1.7-3.8,3.8-3.8c2.1,0,3.8,1.7,3.8,3.8C14.8,12.1,13.1,13.8,11,13.8z
	 M11,7.8c-1.2,0-2.3,1-2.3,2.3s1,2.3,2.3,2.3c1.2,0,2.3-1,2.3-2.3S12.2,7.8,11,7.8z"/>
</svg>
