<?xml version="1.0" encoding="utf-8"?>

<svg version="1.1" id="Layer_1" xmlns="http://www.w3.org/2000/svg" xmlns:xlink="http://www.w3.org/1999/xlink" x="0px" y="0px"
	 viewBox="0 0 22 22" style="enable-background:new 0 0 22 22;" xml:space="preserve">

		<path d="M19.2,17.1h-9.2c-0.4,0-0.8,0.3-0.8,0.8s0.3,0.8,0.8,0.8h9.2c0.4,0,0.8-0.3,0.8-0.8S19.7,17.1,19.2,17.1z
			 M6,17.1H3c-0.4,0-0.8,0.3-0.8,0.8s0.3,0.8,0.8,0.8h3c0.4,0,0.8-0.3,0.8-0.8S6.4,17.1,6,17.1z M19.3,10.7H10
			c-0.4,0-0.8,0.3-0.8,0.8s0.3,0.8,0.8,0.8h9.3c0.4,0,0.8-0.3,0.8-0.8S19.7,10.7,19.3,10.7z M6,10.7H3c-0.4,0-0.8,0.3-0.8,0.8
			s0.3,0.8,0.8,0.8h3c0.4,0,0.8-0.3,0.8-0.8S6.4,10.7,6,10.7z M10.1,5.8h9.2C19.7,5.8,20,5.5,20,5s-0.3-0.8-0.8-0.8h-9.2
			C9.7,4.3,9.3,4.6,9.3,5S9.7,5.8,10.1,5.8z M6,4.3H3C2.6,4.3,2.3,4.6,2.3,5S2.6,5.8,3,5.8h3c0.4,0,0.8-0.3,0.8-0.8S6.4,4.3,6,4.3z"
			/>

</svg>
