<svg viewBox="0 0 37 46" xmlns="http://www.w3.org/2000/svg">
<mask id="path-1-outside-1_2_1728" maskUnits="userSpaceOnUse" x="0" y="0" width="37" height="46" fill="black">
<rect  width="37" height="46"/>
<path fill-rule="evenodd" clip-rule="evenodd" d="M18.3911 44.977C18.4309 45 18.4765 45 18.522 45V45.0115C18.5676 45.0115 18.6131 45.0058 18.653 44.9885C22.7301 43.7069 26.1809 41.8563 28.9141 39.4885C31.1064 37.5862 32.8432 35.3448 34.0675 32.8333C35.1551 30.5977 35.6334 28.5517 35.8441 27.2299C36.0473 25.9349 36.0396 25.0705 36.0379 24.8793L36.0377 24.8506V6.86782C36.0377 6.72989 35.9751 6.60345 35.8726 6.51724C35.7644 6.43104 35.6277 6.4023 35.4967 6.43104C30.9698 7.47126 26.7958 6.90805 23.1059 4.75862C20.3385 3.14943 18.8922 1.2069 18.8808 1.18391C18.7954 1.06897 18.6644 1 18.522 1C18.3797 1 18.2487 1.06897 18.1633 1.18391C18.1625 1.18471 18.1586 1.18972 18.1516 1.19869C18.0084 1.38213 16.5708 3.22421 13.9324 4.75287C10.2425 6.90805 6.06859 7.46552 1.54162 6.42529C1.41065 6.3908 1.26829 6.42529 1.16579 6.51149C1.0633 6.5977 1.00066 6.72414 1.00066 6.86207V24.8448L1.00047 24.8729C0.998807 25.0628 0.991229 25.9274 1.19996 27.2184C1.41065 28.5402 1.88897 30.5862 2.97658 32.8218C4.20655 35.3333 5.93762 37.5747 8.12993 39.477C10.8575 41.8448 14.3139 43.6954 18.3911 44.977ZM1.89467 24.8678V7.41954H1.90036C4.32613 7.91379 6.69496 7.95977 8.93852 7.55172C10.8689 7.1954 12.7138 6.51149 14.4221 5.51149C16.5518 4.26437 17.9184 2.85632 18.522 2.15517C19.1256 2.85632 20.4923 4.26437 22.6219 5.51149C24.3245 6.51724 26.1752 7.20115 28.1055 7.55172C30.3491 7.95402 32.7122 7.91379 35.1437 7.41954V24.8678L35.1438 24.8733C35.1472 25.0305 35.2205 28.4208 33.2646 32.431C31.431 36.1954 27.3824 41.2644 18.5163 44.0805C9.67878 41.2701 5.63013 36.2184 3.79087 32.4713C2.74881 30.3333 2.28757 28.3851 2.08258 27.1207C1.86619 25.7529 1.89467 24.8678 1.89467 24.8678ZM18.4945 42.1157C18.5029 42.1164 18.5113 42.1168 18.5195 42.1168L18.5138 42.1225C18.5593 42.1225 18.6049 42.111 18.6448 42.0995C21.5033 41.1455 24.0145 39.8524 26.0986 38.272C26.8298 37.7167 27.5107 37.1234 28.1395 36.4945C28.2044 36.4557 28.2588 36.4007 28.2971 36.335C29.5806 35.0206 30.6404 33.554 31.4612 31.9554C31.5475 31.8801 31.6049 31.7719 31.614 31.6504C32.0698 30.7153 32.4902 29.6089 32.7951 28.5076C32.9043 28.1183 32.9968 27.7373 33.0723 27.3677C33.116 27.2983 33.1413 27.2161 33.1413 27.128C33.1413 27.1004 33.1389 27.0735 33.1341 27.0473C33.2754 26.2679 33.3389 25.5452 33.3247 24.9099V22.7358C33.3314 22.7048 33.3349 22.6727 33.3349 22.6397C33.3349 22.6067 33.3314 22.5745 33.3247 22.5436V18.2436C33.3314 18.2126 33.3349 18.1805 33.3349 18.1475C33.3349 18.1145 33.3314 18.0823 33.3247 18.0514V13.7514C33.3314 13.7205 33.3349 13.6883 33.3349 13.6553C33.3349 13.6223 33.3314 13.5902 33.3247 13.5592V9.9846C33.3247 9.85816 33.2734 9.73747 33.1823 9.65127C33.0912 9.56506 32.9716 9.52483 32.8463 9.53632C28.8433 9.90414 25.1192 9.09379 21.7652 7.12253C20.8257 6.57081 19.7722 5.81793 18.8042 4.97885C18.6334 4.83517 18.3885 4.83517 18.2234 4.97885C17.261 5.81793 16.2076 6.57655 15.2623 7.12253C11.9084 9.09954 8.17863 9.90989 4.18123 9.53632C4.05595 9.52483 3.93068 9.56506 3.83957 9.65127C3.74846 9.73747 3.69721 9.85816 3.69721 9.9846V24.9041C3.67444 25.9214 3.85665 27.1685 4.22678 28.5018C4.55136 29.6743 5.00121 30.8582 5.49661 31.8237C6.75505 34.3179 8.58293 36.4846 10.929 38.2662C13.0105 39.8404 15.5045 41.1295 18.3489 42.0825C18.3942 42.1014 18.4432 42.113 18.4945 42.1157ZM18.0742 41.0364V36.1084V31.6162V27.128V22.6397V18.1475V13.6553V6.2798C17.2839 6.90847 16.4638 7.46927 15.7122 7.90414C13.9413 8.94437 12.0394 9.68575 10.0521 10.1053C8.29252 10.4789 6.45326 10.6053 4.59122 10.4731L4.58552 10.4674V24.9214C4.52858 26.9846 5.42828 29.7317 6.28812 31.4099C8.4965 35.8004 12.4621 39.0341 18.0742 41.0364ZM18.9625 41.0372C22.0902 39.9215 24.705 38.4234 26.7894 36.5567H18.9625V41.0372ZM18.9625 35.6602H27.7224C28.7771 34.5715 29.6709 33.3722 30.4009 32.0645H18.9625V35.6602ZM18.9625 31.168H30.8682C31.3487 30.1742 31.827 28.8755 32.1297 27.5762H18.9625V31.168ZM18.9625 26.6797H32.3093C32.4105 26.0687 32.4629 25.4736 32.4477 24.9271V23.088H18.9625V26.6797ZM18.9625 22.1914H32.4477V18.5958H18.9625V22.1914ZM18.9625 17.6992H32.4477V14.1036H18.9625V17.6992ZM18.9625 13.207H32.4477V10.4731C30.58 10.6053 28.7464 10.4846 26.9869 10.1053C24.9996 9.68575 23.0977 8.94437 21.3268 7.90414C20.5692 7.46858 19.755 6.90261 18.9625 6.27487V13.207ZM14.9636 38.5159C14.8953 38.5159 14.8213 38.4986 14.7529 38.4641C11.3079 36.5848 8.75684 34.0618 7.17382 30.9814C6.37662 29.3722 5.53956 26.809 5.5965 24.9929V11.9756C5.5965 11.7285 5.7958 11.5273 6.04066 11.5273C6.28551 11.5273 6.48481 11.7285 6.48481 11.9756V25.0101C6.43356 26.671 7.21938 29.0561 7.96533 30.5733C9.46293 33.4929 11.8887 35.8837 15.1743 37.6768C15.3907 37.7975 15.4704 38.0676 15.3565 38.286C15.2768 38.4411 15.1231 38.5216 14.9636 38.5216V38.5159Z"/>
</mask>
<path fill-rule="evenodd" clip-rule="evenodd" d="M18.3911 44.977C18.4309 45 18.4765 45 18.522 45V45.0115C18.5676 45.0115 18.6131 45.0058 18.653 44.9885C22.7301 43.7069 26.1809 41.8563 28.9141 39.4885C31.1064 37.5862 32.8432 35.3448 34.0675 32.8333C35.1551 30.5977 35.6334 28.5517 35.8441 27.2299C36.0473 25.9349 36.0396 25.0705 36.0379 24.8793L36.0377 24.8506V6.86782C36.0377 6.72989 35.9751 6.60345 35.8726 6.51724C35.7644 6.43104 35.6277 6.4023 35.4967 6.43104C30.9698 7.47126 26.7958 6.90805 23.1059 4.75862C20.3385 3.14943 18.8922 1.2069 18.8808 1.18391C18.7954 1.06897 18.6644 1 18.522 1C18.3797 1 18.2487 1.06897 18.1633 1.18391C18.1625 1.18471 18.1586 1.18972 18.1516 1.19869C18.0084 1.38213 16.5708 3.22421 13.9324 4.75287C10.2425 6.90805 6.06859 7.46552 1.54162 6.42529C1.41065 6.3908 1.26829 6.42529 1.16579 6.51149C1.0633 6.5977 1.00066 6.72414 1.00066 6.86207V24.8448L1.00047 24.8729C0.998807 25.0628 0.991229 25.9274 1.19996 27.2184C1.41065 28.5402 1.88897 30.5862 2.97658 32.8218C4.20655 35.3333 5.93762 37.5747 8.12993 39.477C10.8575 41.8448 14.3139 43.6954 18.3911 44.977ZM1.89467 24.8678V7.41954H1.90036C4.32613 7.91379 6.69496 7.95977 8.93852 7.55172C10.8689 7.1954 12.7138 6.51149 14.4221 5.51149C16.5518 4.26437 17.9184 2.85632 18.522 2.15517C19.1256 2.85632 20.4923 4.26437 22.6219 5.51149C24.3245 6.51724 26.1752 7.20115 28.1055 7.55172C30.3491 7.95402 32.7122 7.91379 35.1437 7.41954V24.8678L35.1438 24.8733C35.1472 25.0305 35.2205 28.4208 33.2646 32.431C31.431 36.1954 27.3824 41.2644 18.5163 44.0805C9.67878 41.2701 5.63013 36.2184 3.79087 32.4713C2.74881 30.3333 2.28757 28.3851 2.08258 27.1207C1.86619 25.7529 1.89467 24.8678 1.89467 24.8678ZM18.4945 42.1157C18.5029 42.1164 18.5113 42.1168 18.5195 42.1168L18.5138 42.1225C18.5593 42.1225 18.6049 42.111 18.6448 42.0995C21.5033 41.1455 24.0145 39.8524 26.0986 38.272C26.8298 37.7167 27.5107 37.1234 28.1395 36.4945C28.2044 36.4557 28.2588 36.4007 28.2971 36.335C29.5806 35.0206 30.6404 33.554 31.4612 31.9554C31.5475 31.8801 31.6049 31.7719 31.614 31.6504C32.0698 30.7153 32.4902 29.6089 32.7951 28.5076C32.9043 28.1183 32.9968 27.7373 33.0723 27.3677C33.116 27.2983 33.1413 27.2161 33.1413 27.128C33.1413 27.1004 33.1389 27.0735 33.1341 27.0473C33.2754 26.2679 33.3389 25.5452 33.3247 24.9099V22.7358C33.3314 22.7048 33.3349 22.6727 33.3349 22.6397C33.3349 22.6067 33.3314 22.5745 33.3247 22.5436V18.2436C33.3314 18.2126 33.3349 18.1805 33.3349 18.1475C33.3349 18.1145 33.3314 18.0823 33.3247 18.0514V13.7514C33.3314 13.7205 33.3349 13.6883 33.3349 13.6553C33.3349 13.6223 33.3314 13.5902 33.3247 13.5592V9.9846C33.3247 9.85816 33.2734 9.73747 33.1823 9.65127C33.0912 9.56506 32.9716 9.52483 32.8463 9.53632C28.8433 9.90414 25.1192 9.09379 21.7652 7.12253C20.8257 6.57081 19.7722 5.81793 18.8042 4.97885C18.6334 4.83517 18.3885 4.83517 18.2234 4.97885C17.261 5.81793 16.2076 6.57655 15.2623 7.12253C11.9084 9.09954 8.17863 9.90989 4.18123 9.53632C4.05595 9.52483 3.93068 9.56506 3.83957 9.65127C3.74846 9.73747 3.69721 9.85816 3.69721 9.9846V24.9041C3.67444 25.9214 3.85665 27.1685 4.22678 28.5018C4.55136 29.6743 5.00121 30.8582 5.49661 31.8237C6.75505 34.3179 8.58293 36.4846 10.929 38.2662C13.0105 39.8404 15.5045 41.1295 18.3489 42.0825C18.3942 42.1014 18.4432 42.113 18.4945 42.1157ZM18.0742 41.0364V36.1084V31.6162V27.128V22.6397V18.1475V13.6553V6.2798C17.2839 6.90847 16.4638 7.46927 15.7122 7.90414C13.9413 8.94437 12.0394 9.68575 10.0521 10.1053C8.29252 10.4789 6.45326 10.6053 4.59122 10.4731L4.58552 10.4674V24.9214C4.52858 26.9846 5.42828 29.7317 6.28812 31.4099C8.4965 35.8004 12.4621 39.0341 18.0742 41.0364ZM18.9625 41.0372C22.0902 39.9215 24.705 38.4234 26.7894 36.5567H18.9625V41.0372ZM18.9625 35.6602H27.7224C28.7771 34.5715 29.6709 33.3722 30.4009 32.0645H18.9625V35.6602ZM18.9625 31.168H30.8682C31.3487 30.1742 31.827 28.8755 32.1297 27.5762H18.9625V31.168ZM18.9625 26.6797H32.3093C32.4105 26.0687 32.4629 25.4736 32.4477 24.9271V23.088H18.9625V26.6797ZM18.9625 22.1914H32.4477V18.5958H18.9625V22.1914ZM18.9625 17.6992H32.4477V14.1036H18.9625V17.6992ZM18.9625 13.207H32.4477V10.4731C30.58 10.6053 28.7464 10.4846 26.9869 10.1053C24.9996 9.68575 23.0977 8.94437 21.3268 7.90414C20.5692 7.46858 19.755 6.90261 18.9625 6.27487V13.207ZM14.9636 38.5159C14.8953 38.5159 14.8213 38.4986 14.7529 38.4641C11.3079 36.5848 8.75684 34.0618 7.17382 30.9814C6.37662 29.3722 5.53956 26.809 5.5965 24.9929V11.9756C5.5965 11.7285 5.7958 11.5273 6.04066 11.5273C6.28551 11.5273 6.48481 11.7285 6.48481 11.9756V25.0101C6.43356 26.671 7.21938 29.0561 7.96533 30.5733C9.46293 33.4929 11.8887 35.8837 15.1743 37.6768C15.3907 37.7975 15.4704 38.0676 15.3565 38.286C15.2768 38.4411 15.1231 38.5216 14.9636 38.5216V38.5159Z" />
<path d="M18.522 45H18.622V44.9H18.522V45ZM18.3911 44.977L18.441 44.8904L18.4315 44.8849L18.421 44.8816L18.3911 44.977ZM18.522 45.0115H18.422V45.1115H18.522V45.0115ZM18.653 44.9885L18.6228 44.8926L18.6133 44.8967L18.653 44.9885ZM28.9141 39.4885L28.9796 39.5641L28.9797 39.564L28.9141 39.4885ZM34.0675 32.8333L34.1574 32.8772L34.1574 32.8771L34.0675 32.8333ZM35.8441 27.2299L35.9428 27.2456L35.9429 27.2454L35.8441 27.2299ZM36.0379 24.8793L35.9379 24.88L35.9379 24.8802L36.0379 24.8793ZM36.0377 24.8506H35.9377L35.9377 24.8513L36.0377 24.8506ZM35.8726 6.51724L35.937 6.44068L35.9349 6.43903L35.8726 6.51724ZM35.4967 6.43104L35.4753 6.33335L35.4743 6.33357L35.4967 6.43104ZM23.1059 4.75862L23.1563 4.67221L23.1562 4.67217L23.1059 4.75862ZM18.8808 1.18391L18.9704 1.13952L18.9664 1.13147L18.961 1.12426L18.8808 1.18391ZM18.1633 1.18391L18.2343 1.25432L18.2393 1.24926L18.2436 1.24355L18.1633 1.18391ZM18.1516 1.19869L18.0727 1.13717V1.13717L18.1516 1.19869ZM13.9324 4.75287L13.8823 4.66635L13.882 4.66652L13.9324 4.75287ZM1.54162 6.42529L1.51614 6.52204L1.51922 6.52275L1.54162 6.42529ZM1.16579 6.51149L1.10143 6.43496H1.10143L1.16579 6.51149ZM1.00066 24.8448L1.10066 24.8455V24.8448H1.00066ZM1.00047 24.8729L1.10047 24.8738L1.10047 24.8736L1.00047 24.8729ZM1.19996 27.2184L1.29871 27.2027L1.29868 27.2024L1.19996 27.2184ZM2.97658 32.8218L2.88666 32.8656L2.88677 32.8658L2.97658 32.8218ZM8.12993 39.477L8.19548 39.4015L8.19546 39.4015L8.12993 39.477ZM1.89467 7.41954V7.31954H1.79467V7.41954H1.89467ZM1.89467 24.8678L1.99467 24.871V24.8678H1.89467ZM1.90036 7.41954L1.92032 7.32155L1.91044 7.31954H1.90036V7.41954ZM8.93852 7.55172L8.95641 7.65011L8.95667 7.65006L8.93852 7.55172ZM14.4221 5.51149L14.4726 5.5978L14.4727 5.59779L14.4221 5.51149ZM18.522 2.15517L18.5978 2.08993L18.522 2.0019L18.4462 2.08993L18.522 2.15517ZM22.6219 5.51149L22.6728 5.42539L22.6725 5.4252L22.6219 5.51149ZM28.1055 7.55172L28.0877 7.65012L28.0879 7.65015L28.1055 7.55172ZM35.1437 7.41954H35.2437V7.29717L35.1238 7.32155L35.1437 7.41954ZM35.1437 24.8678H35.0437L35.0437 24.8697L35.1437 24.8678ZM35.1438 24.8733L35.0438 24.8751L35.0438 24.8754L35.1438 24.8733ZM33.2646 32.431L33.1747 32.3872L33.1747 32.3872L33.2646 32.431ZM18.5163 44.0805L18.486 44.1758L18.5163 44.1854L18.5466 44.1758L18.5163 44.0805ZM3.79087 32.4713L3.70098 32.5151L3.7011 32.5153L3.79087 32.4713ZM2.08258 27.1207L1.9838 27.1363L1.98387 27.1367L2.08258 27.1207ZM18.5195 42.1168L18.5905 42.1872L18.7593 42.0168H18.5195V42.1168ZM18.4945 42.1157L18.5025 42.016L18.4999 42.0159L18.4945 42.1157ZM18.5138 42.1225L18.4427 42.0522L18.2739 42.2225H18.5138V42.1225ZM18.6448 42.0995L18.6725 42.1957L18.6764 42.1944L18.6448 42.0995ZM26.0986 38.272L26.159 38.3516L26.1591 38.3516L26.0986 38.272ZM28.1395 36.4945L28.0882 36.4087L28.0775 36.415L28.0687 36.4238L28.1395 36.4945ZM28.2971 36.335L28.2256 36.2651L28.2169 36.2739L28.2107 36.2846L28.2971 36.335ZM31.4612 31.9554L31.3955 31.88L31.381 31.8926L31.3723 31.9097L31.4612 31.9554ZM31.614 31.6504L31.5241 31.6066L31.5157 31.6238L31.5143 31.643L31.614 31.6504ZM32.7951 28.5076L32.6988 28.4806L32.6987 28.4809L32.7951 28.5076ZM33.0723 27.3677L32.9877 27.3144L32.978 27.3298L32.9743 27.3477L33.0723 27.3677ZM33.1341 27.0473L33.0357 27.0295L33.0325 27.0473L33.0357 27.0651L33.1341 27.0473ZM33.3247 24.9099H33.2246L33.2247 24.9121L33.3247 24.9099ZM33.3247 22.7358L33.2269 22.7146L33.2247 22.7251V22.7358H33.3247ZM33.3247 22.5436H33.2247V22.5543L33.2269 22.5648L33.3247 22.5436ZM33.3247 18.2436L33.2269 18.2224L33.2247 18.2329V18.2436H33.3247ZM33.3247 18.0514H33.2247V18.0621L33.2269 18.0726L33.3247 18.0514ZM33.3247 13.7514L33.2269 13.7302L33.2247 13.7407V13.7514H33.3247ZM33.3247 13.5592H33.2247V13.5699L33.2269 13.5804L33.3247 13.5592ZM33.1823 9.65127L33.1136 9.7239V9.72391L33.1823 9.65127ZM32.8463 9.53632L32.8372 9.43674L32.8372 9.43674L32.8463 9.53632ZM21.7652 7.12253L21.8159 7.03632L21.8159 7.0363L21.7652 7.12253ZM18.8042 4.97885L18.8697 4.90328L18.8686 4.90232L18.8042 4.97885ZM18.2234 4.97885L18.1577 4.90341L18.1577 4.90348L18.2234 4.97885ZM15.2623 7.12253L15.2123 7.03593L15.2116 7.03638L15.2623 7.12253ZM4.18123 9.53632L4.19053 9.43676L4.19037 9.43674L4.18123 9.53632ZM3.83957 9.65127L3.9083 9.7239H3.9083L3.83957 9.65127ZM3.69721 24.9041L3.79721 24.9064V24.9041H3.69721ZM4.22678 28.5018L4.32316 28.4752L4.32314 28.4751L4.22678 28.5018ZM5.49661 31.8237L5.5859 31.7786L5.58558 31.778L5.49661 31.8237ZM10.929 38.2662L10.8685 38.3458L10.8687 38.346L10.929 38.2662ZM18.3489 42.0825L18.3876 41.99L18.3807 41.9876L18.3489 42.0825ZM18.0742 41.0364L18.0406 41.1306L18.1742 41.1782V41.0364H18.0742ZM18.0742 6.2798H18.1742V6.07248L18.012 6.20154L18.0742 6.2798ZM15.7122 7.90414L15.6621 7.81758L15.6615 7.81791L15.7122 7.90414ZM10.0521 10.1053L10.0314 10.0074L10.0313 10.0075L10.0521 10.1053ZM4.59122 10.4731L4.52018 10.5435L4.54664 10.5702L4.58414 10.5729L4.59122 10.4731ZM4.58552 10.4674L4.65656 10.397L4.48552 10.2244V10.4674H4.58552ZM4.58552 24.9214L4.68552 24.9241V24.9214H4.58552ZM6.28812 31.4099L6.37746 31.365L6.37712 31.3643L6.28812 31.4099ZM26.7894 36.5567L26.8561 36.6312L27.051 36.4567H26.7894V36.5567ZM18.9625 41.0372H18.8625V41.179L18.9961 41.1314L18.9625 41.0372ZM18.9625 36.5567V36.4567H18.8625V36.5567H18.9625ZM27.7224 35.6602V35.7602H27.7647L27.7942 35.7297L27.7224 35.6602ZM18.9625 35.6602H18.8625V35.7602H18.9625V35.6602ZM30.4009 32.0645L30.4882 32.1133L30.5712 31.9645H30.4009V32.0645ZM18.9625 32.0645V31.9645H18.8625V32.0645H18.9625ZM30.8682 31.168V31.268H30.9309L30.9582 31.2115L30.8682 31.168ZM18.9625 31.168H18.8625V31.268H18.9625V31.168ZM32.1297 27.5762L32.2271 27.5989L32.2557 27.4762H32.1297V27.5762ZM18.9625 27.5762V27.4762H18.8625V27.5762H18.9625ZM32.3093 26.6797V26.7797H32.3941L32.408 26.696L32.3093 26.6797ZM18.9625 26.6797H18.8625V26.7797H18.9625V26.6797ZM32.4477 24.9271H32.3477L32.3478 24.9299L32.4477 24.9271ZM32.4477 23.088H32.5477V22.988H32.4477V23.088ZM18.9625 23.088V22.988H18.8625V23.088H18.9625ZM32.4477 22.1914V22.2914H32.5477V22.1914H32.4477ZM18.9625 22.1914H18.8625V22.2914H18.9625V22.1914ZM32.4477 18.5958H32.5477V18.4958H32.4477V18.5958ZM18.9625 18.5958V18.4958H18.8625V18.5958H18.9625ZM32.4477 17.6992V17.7992H32.5477V17.6992H32.4477ZM18.9625 17.6992H18.8625V17.7992H18.9625V17.6992ZM32.4477 14.1036H32.5477V14.0036H32.4477V14.1036ZM18.9625 14.1036V14.0036H18.8625V14.1036H18.9625ZM32.4477 13.207V13.307H32.5477V13.207H32.4477ZM18.9625 13.207H18.8625V13.307H18.9625V13.207ZM32.4477 10.4731H32.5477V10.3658L32.4407 10.3734L32.4477 10.4731ZM26.9869 10.1053L27.008 10.0075L27.0076 10.0074L26.9869 10.1053ZM21.3268 7.90414L21.3774 7.81791L21.3766 7.81745L21.3268 7.90414ZM18.9625 6.27487L19.0246 6.19648L18.8625 6.06809V6.27487H18.9625ZM14.7529 38.4641L14.705 38.552L14.7079 38.5534L14.7529 38.4641ZM14.9636 38.5159H15.0636V38.4159H14.9636V38.5159ZM7.17382 30.9814L7.08421 31.0258L7.08488 31.0271L7.17382 30.9814ZM5.5965 24.9929L5.6965 24.996V24.9929H5.5965ZM6.48481 25.0101L6.58481 25.0132V25.0101H6.48481ZM7.96533 30.5733L7.87558 30.6174L7.87635 30.619L7.96533 30.5733ZM15.1743 37.6768L15.223 37.5894L15.2222 37.589L15.1743 37.6768ZM15.3565 38.286L15.2679 38.2397L15.2676 38.2403L15.3565 38.286ZM14.9636 38.5216H14.8636V38.6216H14.9636V38.5216ZM18.522 44.9C18.4714 44.9 18.4538 44.8978 18.441 44.8904L18.3411 45.0636C18.408 45.1022 18.4816 45.1 18.522 45.1V44.9ZM18.622 45.0115V45H18.422V45.0115H18.622ZM18.6133 44.8967C18.5908 44.9065 18.5604 44.9115 18.522 44.9115V45.1115C18.5748 45.1115 18.6355 45.105 18.6927 45.0803L18.6133 44.8967ZM28.8486 39.4129C26.1274 41.7703 22.6894 43.6149 18.623 44.8931L18.683 45.0839C22.7708 43.7989 26.2343 41.9423 28.9796 39.5641L28.8486 39.4129ZM33.9776 32.7895C32.7594 35.2884 31.0312 37.5191 28.8486 39.413L28.9797 39.564C31.1817 37.6533 32.9269 35.4012 34.1574 32.8772L33.9776 32.7895ZM35.7453 27.2141C35.5358 28.5289 35.0598 30.5649 33.9775 32.7896L34.1574 32.8771C35.2503 30.6305 35.731 28.5745 35.9428 27.2456L35.7453 27.2141ZM35.9379 24.8802C35.9396 25.0681 35.9473 25.9266 35.7453 27.2144L35.9429 27.2454C36.1472 25.9431 36.1396 25.0728 36.1379 24.8784L35.9379 24.8802ZM35.9377 24.8513L35.9379 24.88L36.1379 24.8786L36.1377 24.8499L35.9377 24.8513ZM35.9377 6.86782V24.8506H36.1377V6.86782H35.9377ZM35.8082 6.59377C35.8892 6.66191 35.9377 6.76082 35.9377 6.86782H36.1377C36.1377 6.69895 36.0609 6.54499 35.9369 6.44071L35.8082 6.59377ZM35.5182 6.52871C35.6208 6.50618 35.7265 6.52872 35.8102 6.59545L35.9349 6.43903C35.8022 6.33335 35.6346 6.29841 35.4753 6.33336L35.5182 6.52871ZM23.0556 4.84503C26.7695 7.00842 30.9698 7.57387 35.5191 6.5285L35.4743 6.33357C30.9698 7.36866 26.8222 6.80767 23.1563 4.67221L23.0556 4.84503ZM18.7912 1.2283C18.7939 1.23388 18.7968 1.23826 18.7971 1.23868C18.798 1.24024 18.799 1.24165 18.7997 1.24272C18.8012 1.24492 18.803 1.24738 18.8048 1.2499C18.8085 1.25503 18.8134 1.26182 18.8196 1.27011C18.8321 1.28674 18.8501 1.31022 18.8735 1.33998C18.9204 1.39954 18.9896 1.48466 19.0807 1.59095C19.2629 1.80352 19.5333 2.101 19.8901 2.44812C20.6036 3.14224 21.6635 4.03556 23.0557 4.84507L23.1562 4.67217C21.7809 3.87248 20.7339 2.98994 20.0296 2.30476C19.6774 1.96222 19.4112 1.66918 19.2325 1.46078C19.1432 1.35658 19.0758 1.27359 19.0306 1.21623C19.008 1.18754 18.9911 1.16535 18.9797 1.15022C18.974 1.14262 18.9699 1.137 18.9673 1.13333C18.9659 1.13146 18.9652 1.13042 18.965 1.13005C18.9628 1.12691 18.9668 1.13234 18.9704 1.13952L18.7912 1.2283ZM18.522 1.1C18.6312 1.1 18.733 1.15269 18.8005 1.24355L18.961 1.12426C18.8577 0.985239 18.6976 0.9 18.522 0.9V1.1ZM18.2436 1.24355C18.3111 1.15269 18.4129 1.1 18.522 1.1V0.9C18.3464 0.9 18.1863 0.985238 18.083 1.12426L18.2436 1.24355ZM18.2304 1.26022C18.234 1.25563 18.2365 1.25239 18.2383 1.25018C18.2392 1.24905 18.2396 1.24854 18.2397 1.2484C18.2397 1.24832 18.2395 1.24865 18.239 1.2492C18.2388 1.24948 18.2383 1.25002 18.2377 1.25071C18.2372 1.25127 18.236 1.25263 18.2343 1.25432L18.0923 1.1135C18.0893 1.1165 18.0871 1.11916 18.0867 1.11961C18.0858 1.12062 18.0851 1.12154 18.0845 1.12219C18.0835 1.1235 18.0823 1.12495 18.0813 1.12629C18.0791 1.12903 18.0762 1.13278 18.0727 1.13717L18.2304 1.26022ZM13.9826 4.8394C16.6367 3.3016 18.0836 1.44835 18.2304 1.26022L18.0727 1.13717C17.9332 1.31592 16.5049 3.14682 13.8823 4.66635L13.9826 4.8394ZM1.51922 6.52275C6.06849 7.5681 10.2688 7.00848 13.9829 4.83922L13.882 4.66652C10.2162 6.80762 6.06869 7.36293 1.56401 6.32783L1.51922 6.52275ZM1.23016 6.58803C1.30869 6.52198 1.41777 6.49609 1.51616 6.52199L1.56708 6.32858C1.40353 6.28552 1.22789 6.3286 1.10143 6.43496L1.23016 6.58803ZM1.10066 6.86207C1.10066 6.75507 1.14915 6.65616 1.23016 6.58803L1.10143 6.43496C0.977446 6.53924 0.90066 6.6932 0.90066 6.86207H1.10066ZM1.10066 24.8448V6.86207H0.90066V24.8448H1.10066ZM1.10047 24.8736L1.10066 24.8455L0.900662 24.8442L0.900473 24.8722L1.10047 24.8736ZM1.29868 27.2024C1.09116 25.9189 1.09883 25.0604 1.10047 24.8738L0.900475 24.872C0.898782 25.0652 0.8913 25.9359 1.10124 27.2344L1.29868 27.2024ZM3.06651 32.7781C1.98424 30.5534 1.50828 28.5174 1.29871 27.2027L1.10121 27.2341C1.31302 28.563 1.79371 30.619 2.88666 32.8656L3.06651 32.7781ZM8.19546 39.4015C6.01299 37.5077 4.2903 35.277 3.06639 32.7779L2.88677 32.8658C4.12281 35.3897 5.86225 37.6417 8.06439 39.5525L8.19546 39.4015ZM18.421 44.8816C14.3546 43.6034 10.9109 41.7588 8.19548 39.4015L8.06437 39.5525C10.8041 41.9309 14.2733 43.7874 18.3611 45.0724L18.421 44.8816ZM1.79467 7.41954V24.8678H1.99467V7.41954H1.79467ZM1.90036 7.31954H1.89467V7.51954H1.90036V7.31954ZM8.92062 7.45334C6.69069 7.85891 4.33476 7.8135 1.92032 7.32155L1.88039 7.51753C4.31751 8.01409 6.69923 8.06064 8.95641 7.65011L8.92062 7.45334ZM14.3716 5.42519C12.6733 6.41932 10.8394 7.09916 8.92036 7.45339L8.95667 7.65006C10.8984 7.29164 12.7543 6.60367 14.4726 5.5978L14.3716 5.42519ZM18.4462 2.08993C17.8478 2.78512 16.4893 4.18505 14.3716 5.4252L14.4727 5.59779C16.6142 4.34368 17.9891 2.92753 18.5978 2.22041L18.4462 2.08993ZM22.6725 5.4252C20.5547 4.18505 19.1963 2.78512 18.5978 2.08993L18.4462 2.22041C19.055 2.92753 20.4298 4.34368 22.5714 5.59779L22.6725 5.4252ZM28.1234 7.45333C26.2045 7.10485 24.3651 6.42506 22.6728 5.42539L22.5711 5.59759C24.284 6.60942 26.1458 7.29745 28.0877 7.65012L28.1234 7.45333ZM35.1238 7.32155C32.7038 7.81347 30.3534 7.8532 28.1232 7.45329L28.0879 7.65015C30.3448 8.05484 32.7207 8.01412 35.1636 7.51754L35.1238 7.32155ZM35.2437 24.8678V7.41954H35.0437V24.8678H35.2437ZM35.2438 24.8714L35.2437 24.8659L35.0437 24.8697L35.0438 24.8751L35.2438 24.8714ZM33.3545 32.4749C35.3202 28.4445 35.2473 25.0362 35.2438 24.8711L35.0438 24.8754C35.0471 25.0247 35.1209 28.397 33.1747 32.3872L33.3545 32.4749ZM18.5466 44.1758C27.4407 41.3508 31.5099 36.2619 33.3545 32.4748L33.1747 32.3872C31.3522 36.1289 27.324 41.178 18.4861 43.9852L18.5466 44.1758ZM3.7011 32.5153C5.55142 36.285 9.62051 41.3565 18.486 44.1758L18.5466 43.9852C9.73704 41.1837 5.70884 36.1518 3.88064 32.4272L3.7011 32.5153ZM1.98387 27.1367C2.19001 28.4081 2.65363 30.3663 3.70098 32.5151L3.88076 32.4275C2.84399 30.3004 2.38514 28.362 2.18129 27.1047L1.98387 27.1367ZM1.89467 24.8678C1.79472 24.8646 1.79472 24.8646 1.79472 24.8646C1.79472 24.8647 1.79471 24.8647 1.79471 24.8647C1.79471 24.8647 1.79471 24.8648 1.79471 24.8649C1.7947 24.865 1.7947 24.8652 1.79469 24.8655C1.79467 24.866 1.79465 24.8667 1.79463 24.8676C1.79458 24.8695 1.79451 24.8722 1.79442 24.8758C1.79426 24.8829 1.79406 24.8934 1.79387 24.9072C1.79351 24.9347 1.79324 24.9753 1.7936 25.0282C1.79432 25.1339 1.79756 25.2887 1.80761 25.4864C1.82769 25.8817 1.87499 26.4485 1.98381 27.1363L2.18135 27.1051C2.07378 26.4251 2.02712 25.8654 2.00735 25.4762C1.99746 25.2817 1.9943 25.1298 1.9936 25.0268C1.99324 24.9753 1.99351 24.9361 1.99386 24.9098C1.99403 24.8967 1.99422 24.8869 1.99437 24.8804C1.99445 24.8771 1.99451 24.8747 1.99455 24.8731C1.99457 24.8724 1.99459 24.8718 1.9946 24.8714C1.99461 24.8713 1.99461 24.8711 1.99461 24.8711C1.99461 24.871 1.99461 24.871 1.99461 24.871C1.99461 24.871 1.99461 24.871 1.99461 24.871C1.99461 24.871 1.99461 24.871 1.89467 24.8678ZM18.5195 42.0168C18.5143 42.0168 18.5086 42.0166 18.5025 42.0161L18.4865 42.2154C18.4973 42.2163 18.5083 42.2168 18.5195 42.2168V42.0168ZM18.5848 42.1929L18.5905 42.1872L18.4484 42.0464L18.4427 42.0522L18.5848 42.1929ZM18.617 42.0035C18.5781 42.0147 18.5442 42.0225 18.5138 42.0225V42.2225C18.5745 42.2225 18.6317 42.2074 18.6725 42.1956L18.617 42.0035ZM26.0382 38.1923C23.9639 39.7653 21.4627 41.0536 18.6131 42.0047L18.6764 42.1944C21.5439 41.2374 24.0651 39.9395 26.159 38.3516L26.0382 38.1923ZM28.0687 36.4238C27.4432 37.0494 26.7658 37.6397 26.0381 38.1923L26.1591 38.3516C26.8938 37.7937 27.5781 37.1974 28.2102 36.5652L28.0687 36.4238ZM28.2107 36.2846C28.1809 36.3358 28.1386 36.3786 28.0882 36.4087L28.1907 36.5804C28.2703 36.5328 28.3367 36.4656 28.3835 36.3853L28.2107 36.2846ZM31.3723 31.9097C30.5562 33.4993 29.5023 34.9577 28.2256 36.2651L28.3687 36.4048C29.659 35.0835 30.7247 33.6088 31.5502 32.001L31.3723 31.9097ZM31.5143 31.643C31.5072 31.7373 31.4627 31.8214 31.3955 31.88L31.527 32.0307C31.6323 31.9388 31.7025 31.8066 31.7137 31.6579L31.5143 31.643ZM32.6987 28.4809C32.3954 29.5765 31.9771 30.6771 31.5241 31.6066L31.7039 31.6943C32.1624 30.7534 32.585 29.6413 32.8915 28.5343L32.6987 28.4809ZM32.9743 27.3477C32.8993 27.7149 32.8074 28.0935 32.6988 28.4806L32.8914 28.5346C33.0012 28.1431 33.0942 27.7598 33.1703 27.3877L32.9743 27.3477ZM33.0413 27.128C33.0413 27.1967 33.0216 27.2605 32.9877 27.3144L33.1569 27.421C33.2104 27.3361 33.2413 27.2355 33.2413 27.128H33.0413ZM33.0357 27.0651C33.0394 27.0854 33.0413 27.1064 33.0413 27.128H33.2413C33.2413 27.0944 33.2383 27.0615 33.2325 27.0295L33.0357 27.0651ZM33.2247 24.9121C33.2387 25.5394 33.176 26.2553 33.0357 27.0295L33.2325 27.0651C33.3747 26.2806 33.439 25.551 33.4246 24.9076L33.2247 24.9121ZM33.2247 22.7358V24.9099H33.4247V22.7358H33.2247ZM33.235 22.6397C33.235 22.6655 33.2322 22.6905 33.2269 22.7146L33.4224 22.757C33.4306 22.7191 33.4349 22.6799 33.4349 22.6397H33.235ZM33.2269 22.5648C33.2322 22.5889 33.235 22.6139 33.235 22.6397H33.4349C33.4349 22.5995 33.4306 22.5602 33.4224 22.5223L33.2269 22.5648ZM33.2247 18.2436V22.5436H33.4247V18.2436H33.2247ZM33.235 18.1475C33.235 18.1733 33.2322 18.1983 33.2269 18.2224L33.4224 18.2649C33.4306 18.227 33.4349 18.1877 33.4349 18.1475H33.235ZM33.2269 18.0726C33.2322 18.0967 33.235 18.1217 33.235 18.1475H33.4349C33.4349 18.1073 33.4306 18.068 33.4224 18.0301L33.2269 18.0726ZM33.2247 13.7514V18.0514H33.4247V13.7514H33.2247ZM33.235 13.6553C33.235 13.6811 33.2322 13.7061 33.2269 13.7302L33.4224 13.7727C33.4306 13.7348 33.4349 13.6955 33.4349 13.6553H33.235ZM33.2269 13.5804C33.2322 13.6045 33.235 13.6295 33.235 13.6553H33.4349C33.4349 13.6151 33.4306 13.5758 33.4224 13.5379L33.2269 13.5804ZM33.2247 9.9846V13.5592H33.4247V9.9846H33.2247ZM33.1136 9.72391C33.1844 9.79088 33.2247 9.88514 33.2247 9.9846H33.4247C33.4247 9.83119 33.3625 9.68407 33.251 9.57863L33.1136 9.72391ZM32.8555 9.63591C32.9528 9.62697 33.0439 9.65794 33.1136 9.7239L33.251 9.57863C33.1385 9.47218 32.9904 9.42269 32.8372 9.43674L32.8555 9.63591ZM21.7146 7.20874C25.0872 9.191 28.8323 10.0056 32.8555 9.63591L32.8372 9.43674C28.8542 9.80271 25.1511 8.99659 21.8159 7.03632L21.7146 7.20874ZM18.7387 5.05442C19.7111 5.89728 20.7695 6.65378 21.7146 7.20876L21.8159 7.0363C20.8819 6.48783 19.8334 5.73859 18.8697 4.90329L18.7387 5.05442ZM18.289 5.05429C18.4159 4.9439 18.6056 4.94246 18.7398 5.05538L18.8686 4.90232C18.6612 4.72789 18.3611 4.72645 18.1577 4.90341L18.289 5.05429ZM15.3124 7.20912C16.2638 6.65956 17.3225 5.89704 18.2891 5.05422L18.1577 4.90348C17.1996 5.73882 16.1514 6.49355 15.2123 7.03594L15.3124 7.20912ZM4.17192 9.63589C8.18951 10.0113 11.9404 9.19675 15.3131 7.20868L15.2116 7.03638C11.8764 9.00234 8.16775 9.80843 4.19053 9.43676L4.17192 9.63589ZM3.9083 9.7239C3.97724 9.65867 4.07362 9.62687 4.17209 9.63591L4.19037 9.43674C4.03829 9.42279 3.88412 9.47145 3.77084 9.57863L3.9083 9.7239ZM3.79721 9.9846C3.79721 9.88514 3.83751 9.79088 3.9083 9.7239L3.77084 9.57863C3.65941 9.68406 3.59721 9.83118 3.59721 9.9846H3.79721ZM3.79721 24.9041V9.9846H3.59721V24.9041H3.79721ZM4.32314 28.4751C3.95479 27.1482 3.77469 25.9111 3.79719 24.9064L3.59724 24.9019C3.57418 25.9316 3.75852 27.1888 4.13043 28.5286L4.32314 28.4751ZM5.58558 31.778C5.09373 30.8194 4.6462 29.642 4.32316 28.4752L4.13041 28.5285C4.45652 29.7065 4.90869 30.8969 5.40764 31.8693L5.58558 31.778ZM10.9895 38.1866C8.65481 36.4136 6.8371 34.2586 5.58589 31.7786L5.40733 31.8687C6.673 34.3773 8.51104 36.5556 10.8685 38.3458L10.9895 38.1866ZM18.3807 41.9876C15.5452 41.0377 13.0612 39.7534 10.9893 38.1865L10.8687 38.346C12.9599 39.9275 15.4637 41.2214 18.3172 42.1773L18.3807 41.9876ZM18.4999 42.0159C18.4602 42.0138 18.4224 42.0048 18.3875 41.9902L18.3103 42.1747C18.366 42.198 18.4262 42.2122 18.4891 42.2156L18.4999 42.0159ZM18.1742 41.0364V36.1084H17.9742V41.0364H18.1742ZM18.1742 36.1084V31.6162H17.9742V36.1084H18.1742ZM18.1742 31.6162V27.128H17.9742V31.6162H18.1742ZM18.1742 27.128V22.6397H17.9742V27.128H18.1742ZM18.1742 22.6397V18.1475H17.9742V22.6397H18.1742ZM18.1742 18.1475V13.6553H17.9742V18.1475H18.1742ZM18.1742 13.6553V6.2798H17.9742V13.6553H18.1742ZM15.7623 7.9907C16.5186 7.55314 17.3427 6.98949 18.1365 6.35806L18.012 6.20154C17.2251 6.82745 16.4091 7.38541 15.6621 7.81758L15.7623 7.9907ZM10.0727 10.2031C12.0708 9.78132 13.9828 9.03596 15.7628 7.99037L15.6615 7.81791C13.8997 8.85278 12.008 9.59018 10.0314 10.0074L10.0727 10.2031ZM4.58414 10.5729C6.45529 10.7057 8.30393 10.5787 10.0728 10.2031L10.0313 10.0075C8.2811 10.379 6.45122 10.5049 4.5983 10.3734L4.58414 10.5729ZM4.51449 10.5377L4.52018 10.5435L4.66225 10.4027L4.65656 10.397L4.51449 10.5377ZM4.68552 24.9214V10.4674H4.48552V24.9214H4.68552ZM6.37712 31.3643C5.52137 29.6941 4.62918 26.9642 4.68549 24.9241L4.48556 24.9186C4.42798 27.005 5.3352 29.7694 6.19912 31.4555L6.37712 31.3643ZM18.1078 40.9422C12.5144 38.9465 8.57188 35.7277 6.37746 31.365L6.19878 31.4548C8.42111 35.8731 12.4098 39.1216 18.0406 41.1306L18.1078 40.9422ZM26.7227 36.4822C24.6495 38.3388 22.0466 39.8309 18.9289 40.943L18.9961 41.1314C22.1339 40.0121 24.7604 38.5079 26.8561 36.6312L26.7227 36.4822ZM18.9625 36.6567H26.7894V36.4567H18.9625V36.6567ZM18.8625 36.5567V41.0372H19.0625V36.5567H18.8625ZM27.7224 35.5602H18.9625V35.7602H27.7224V35.5602ZM30.3136 32.0158C29.5879 33.3158 28.6994 34.5081 27.6505 35.5906L27.7942 35.7297C28.8549 34.635 29.754 33.4287 30.4882 32.1133L30.3136 32.0158ZM18.9625 32.1645H30.4009V31.9645H18.9625V32.1645ZM18.8625 32.0645V35.6602H19.0625V32.0645H18.8625ZM30.8682 31.068H18.9625V31.268H30.8682V31.068ZM32.0323 27.5535C31.7313 28.8453 31.2556 30.1371 30.7782 31.1244L30.9582 31.2115C31.4419 30.2113 31.9226 28.9057 32.2271 27.5989L32.0323 27.5535ZM18.9625 27.6762H32.1297V27.4762H18.9625V27.6762ZM18.8625 27.5762V31.168H19.0625V27.5762H18.8625ZM32.3093 26.5797H18.9625V26.7797H32.3093V26.5797ZM32.3478 24.9299C32.3627 25.4684 32.3111 26.0569 32.2107 26.6633L32.408 26.696C32.5099 26.0806 32.5631 25.4788 32.5477 24.9244L32.3478 24.9299ZM32.3477 23.088V24.9271H32.5477V23.088H32.3477ZM18.9625 23.188H32.4477V22.988H18.9625V23.188ZM18.8625 23.088V26.6797H19.0625V23.088H18.8625ZM32.4477 22.0914H18.9625V22.2914H32.4477V22.0914ZM32.3477 18.5958V22.1914H32.5477V18.5958H32.3477ZM18.9625 18.6958H32.4477V18.4958H18.9625V18.6958ZM18.8625 18.5958V22.1914H19.0625V18.5958H18.8625ZM32.4477 17.5992H18.9625V17.7992H32.4477V17.5992ZM32.3477 14.1036V17.6992H32.5477V14.1036H32.3477ZM18.9625 14.2036H32.4477V14.0036H18.9625V14.2036ZM18.8625 14.1036V17.6992H19.0625V14.1036H18.8625ZM32.4477 13.107H18.9625V13.307H32.4477V13.107ZM32.3477 10.4731V13.207H32.5477V10.4731H32.3477ZM26.9658 10.203C28.7351 10.5845 30.5782 10.7057 32.4548 10.5729L32.4407 10.3734C30.5818 10.5049 28.7578 10.3847 27.008 10.0075L26.9658 10.203ZM21.2761 7.99037C23.0562 9.03596 24.9682 9.78132 26.9663 10.2031L27.0076 10.0074C25.031 9.59018 23.1392 8.85278 21.3774 7.81791L21.2761 7.99037ZM18.9004 6.35326C19.6958 6.98331 20.5141 7.55227 21.2769 7.99083L21.3766 7.81745C20.6242 7.38489 19.8142 6.82191 19.0246 6.19648L18.9004 6.35326ZM18.8625 6.27487V13.207H19.0625V6.27487H18.8625ZM14.7079 38.5534C14.7897 38.5947 14.8791 38.6158 14.9636 38.6158V38.4159C14.9115 38.4159 14.8528 38.4025 14.798 38.3748L14.7079 38.5534ZM7.08488 31.0271C8.6782 34.1276 11.2447 36.6643 14.705 38.5519L14.8008 38.3763C11.371 36.5054 8.83548 33.9961 7.26277 30.9357L7.08488 31.0271ZM5.49655 24.9897C5.43886 26.8296 6.28387 29.4102 7.08422 31.0258L7.26343 30.937C6.46937 29.3341 5.64025 26.7883 5.69645 24.996L5.49655 24.9897ZM5.4965 11.9756V24.9929H5.6965V11.9756H5.4965ZM6.04066 11.4273C5.73971 11.4273 5.4965 11.6741 5.4965 11.9756H5.6965C5.6965 11.7828 5.8519 11.6273 6.04066 11.6273V11.4273ZM6.58481 11.9756C6.58481 11.6741 6.34161 11.4273 6.04066 11.4273V11.6273C6.22941 11.6273 6.38481 11.7828 6.38481 11.9756H6.58481ZM6.58481 25.0101V11.9756H6.38481V25.0101H6.58481ZM8.05507 30.5292C7.68477 29.776 7.30397 28.806 7.02229 27.8182C6.74026 26.8291 6.5596 25.8289 6.58476 25.0132L6.38486 25.007C6.35878 25.8522 6.54539 26.875 6.82995 27.873C7.11486 28.8722 7.49994 29.8534 7.87559 30.6174L8.05507 30.5292ZM15.2222 37.589C11.9517 35.8041 9.54151 33.427 8.05431 30.5277L7.87635 30.619C9.38435 33.5588 11.8257 35.9632 15.1264 37.7645L15.2222 37.589ZM15.4452 38.3322C15.584 38.066 15.4869 37.7366 15.223 37.5894L15.1256 37.7641C15.2945 37.8583 15.3568 38.0691 15.2679 38.2397L15.4452 38.3322ZM14.9636 38.6216C15.1568 38.6216 15.347 38.5234 15.4455 38.3317L15.2676 38.2403C15.2067 38.3588 15.0894 38.4216 14.9636 38.4216V38.6216ZM14.8636 38.5159V38.5216H15.0636V38.5159H14.8636Z" mask="url(#path-1-outside-1_2_1728)"/>
</svg>
